<svg xmlns="http://www.w3.org/2000/svg" viewBox="0 0 81.84 106.78"><defs><style>.cls-1{fill:#e3e829;}.cls-2{fill:#d7de1b;}</style></defs><g id="Capa_2" data-name="Capa 2"><g id="Diseño"><rect class="cls-1" y="0.01" width="81.84" height="106.76"/><polygon class="cls-2" points="4.98 106.78 4.98 106.76 0 106.76 4.98 106.78"/><path class="cls-2" d="M2.36.77,0,3.13V5.3L3.45,1.85V4.3L0,7.74V9.91L3.45,6.47V8.91L0,12.36v2.16l3.45-3.44v2.44L0,17v2.17l3.45-3.45v2.44L0,21.58v2.17L3.45,20.3v2.45L0,26.19v2.25H6L5.28,30H0v1.54H3.45v1.54H0v1.53H4.21A.76.76,0,0,0,5,33.82v-2.3h.77a.79.79,0,0,0,.69-.42L8,28a.77.77,0,0,0-.34-1,.66.66,0,0,0-.34-.08H5V0H0V.77ZM3.45,26.91h-2l2-2Z"/><path class="cls-2" d="M16.12,46.66a.77.77,0,0,0,.69.42h.77v2.31a.77.77,0,0,0,.76.77h6.15a.77.77,0,0,0,.77-.77V47.08H26a.77.77,0,0,0,.69-.42l1.53-3.08a.77.77,0,0,0-.34-1,.77.77,0,0,0-.34-.08H25.26V15.56a.77.77,0,0,0-.77-.77h-2.3V12.91a3.85,3.85,0,0,0,1.95-6.48L22,4.26a.75.75,0,0,0-1.08,0h0L18.7,6.43a3.83,3.83,0,0,0,1.95,6.48v1.88H18.34a.77.77,0,0,0-.76.77V42.47H15.27a.77.77,0,0,0-.69,1.11Zm7.6,2H19.11V47.08h4.61ZM19.79,10.78h0a2.31,2.31,0,0,1,0-3.26l1.62-1.64L23,7.45a2.42,2.42,0,0,1,.72,2.09,2.25,2.25,0,0,1-1.5,1.77V8.64a.77.77,0,0,0-1.54,0v2.67A2.26,2.26,0,0,1,19.79,10.78Zm-.68,5.55h3.53l-3.53,3.53Zm0,5.7,4.61-4.61v2.44l-4.61,4.61Zm0,4.61L23.72,22v2.44l-4.61,4.62Zm0,4.61,4.61-4.61v2.45L19.11,33.7Zm0,4.62,4.61-4.62V33.7l-4.61,4.61Zm0,4.61,4.61-4.61v2.44l-4.15,4.16h-.46Zm4.61,0v2h-2ZM26.32,44l-.77,1.53H17.28L16.51,44Z"/><path class="cls-2" d="M35.55,26.91a.76.76,0,0,0-.77.77.81.81,0,0,0,.08.34L36.4,31.1a.79.79,0,0,0,.69.42h.76v2.3a.77.77,0,0,0,.77.77h6.15a.76.76,0,0,0,.77-.77v-2.3h.77A.77.77,0,0,0,47,31.1L48.53,28a.77.77,0,0,0-.34-1,.68.68,0,0,0-.34-.08H45.54V0H37.85V26.91ZM44,33.06H39.39V31.52H44ZM39.39.77h3.53L39.39,4.3Zm0,5.7L44,1.85V4.3L39.39,8.91Zm0,4.61L44,6.47V8.91l-4.61,4.61Zm0,4.61L44,11.08v2.44l-4.61,4.61Zm0,4.61L44,15.69v2.44l-4.61,4.62Zm0,4.61L44,20.3v2.45l-4.15,4.16h-.46Zm4.61,0v2H42Zm2.6,3.53L45.83,30H37.56l-.77-1.54Z"/><path class="cls-2" d="M56.68,46.66a.77.77,0,0,0,.69.42h.76v2.31a.78.78,0,0,0,.77.77h6.15a.77.77,0,0,0,.77-.77V47.08h.77a.75.75,0,0,0,.68-.42l1.54-3.08a.77.77,0,0,0-.34-1,.81.81,0,0,0-.34-.08H65.82V15.56a.77.77,0,0,0-.77-.77h-2.3V12.91a3.85,3.85,0,0,0,2-6.48L62.52,4.26a.75.75,0,0,0-1.08,0h0L59.26,6.43a3.83,3.83,0,0,0,2,6.48v1.88H58.9a.78.78,0,0,0-.77.77V42.47h-2.3a.77.77,0,0,0-.69,1.11Zm7.6,2H59.67V47.08h4.61ZM60.35,10.78h0a2.31,2.31,0,0,1,0-3.26L62,5.88l1.55,1.57a2.42,2.42,0,0,1,.72,2.09,2.25,2.25,0,0,1-1.5,1.77V8.64a.77.77,0,0,0-1.54,0v2.67A2.26,2.26,0,0,1,60.35,10.78Zm-.68,5.55H63.2l-3.53,3.53Zm0,5.7,4.61-4.61v2.44l-4.61,4.61Zm0,4.61L64.28,22v2.44l-4.61,4.62Zm0,4.61,4.61-4.61v2.45L59.67,33.7Zm0,4.62,4.61-4.62V33.7l-4.61,4.61Zm0,4.61,4.61-4.61v2.44l-4.16,4.16h-.45Zm4.61,0v2h-2ZM66.88,44l-.77,1.53H57.84L57.07,44Z"/><path class="cls-2" d="M76.58,26.91a.76.76,0,0,0-.77.77.81.81,0,0,0,.08.34l1.54,3.08a.79.79,0,0,0,.69.42h.76v2.3a.77.77,0,0,0,.77.77h2.19V33.06H80.42V31.52h1.42V30H78.59l-.77-1.54h4v-2.5l-1,1h-.46v-2l1.42-1.42V21.33l-1.42,1.42V20.3l1.42-1.42V16.71l-1.42,1.42V15.69l1.42-1.42V12.1l-1.42,1.42V11.08l1.42-1.42V7.49L80.42,8.91V6.47l1.42-1.42V2.88L80.42,4.3V.77h1.42V0h-3V26.91Z"/><path class="cls-2" d="M5,87.12V84.81h.77a.77.77,0,0,0,.69-.42L8,81.31a.77.77,0,0,0-.34-1,.77.77,0,0,0-.34-.08H5V53.29a.77.77,0,0,0-.77-.77H1.91V50.64a3.84,3.84,0,0,0,2-6.48L1.69,42A.77.77,0,0,0,.6,42h0l-.59.6v2.18l1.14-1.15,1.55,1.57a2.41,2.41,0,0,1,.72,2.09A2.25,2.25,0,0,1,1.91,49V46.37a.77.77,0,0,0-1.54,0V49A2.48,2.48,0,0,1,0,48.87v1.67l.37.1v1.88H0v1.54H2.36L0,56.42v2.17l3.45-3.45v2.45L0,61V63.2l3.45-3.44V62.2L0,65.65v2.17l3.45-3.45v2.44L0,70.26v2.17L3.45,69v2.45L0,74.87V77l3.45-3.45V76L0,79.48v2.26H6l-.76,1.53H0v1.54H3.45v1.54H0v1.53H4.21A.76.76,0,0,0,5,87.12ZM3.45,80.2h-2l2-2Z"/><path class="cls-2" d="M16.12,100a.77.77,0,0,0,.69.42h.77v2.31a.77.77,0,0,0,.76.77h6.15a.77.77,0,0,0,.77-.77v-2.31H26a.77.77,0,0,0,.69-.42l1.53-3.07a.77.77,0,0,0-.68-1.12H25.26V68.86a.76.76,0,0,0-.77-.77h-2.3V66.2a3.83,3.83,0,0,0,3-4.53,3.87,3.87,0,0,0-1-2L22,57.55a.76.76,0,0,0-1.08,0h0L18.7,59.72a3.83,3.83,0,0,0,1.95,6.48v1.89H18.34a.76.76,0,0,0-.76.77v26.9H15.27a.77.77,0,0,0-.77.77.85.85,0,0,0,.08.35Zm7.6,2H19.11v-1.54h4.61ZM19.79,64.07h0a2.31,2.31,0,0,1,0-3.26l1.62-1.63L23,60.74a2.42,2.42,0,0,1,.72,2.09,2.25,2.25,0,0,1-1.5,1.77V61.94a.77.77,0,0,0-1.54,0V64.6A2.14,2.14,0,0,1,19.79,64.07Zm-.68,5.55h3.53l-3.53,3.53Zm0,5.7,4.61-4.61v2.44l-4.61,4.61Zm0,4.61,4.61-4.61v2.44l-4.61,4.62Zm0,4.62,4.61-4.62v2.45L19.11,87Zm0,4.61,4.61-4.61V87L19.11,91.6Zm0,4.61,4.61-4.61V91.6l-4.15,4.16h-.46Zm4.61,0v2h-2Zm2.6,3.53-.77,1.54H17.28l-.77-1.54Z"/><path class="cls-2" d="M36.4,84.39a.77.77,0,0,0,.69.42h.76v2.31a.77.77,0,0,0,.77.76h6.15a.76.76,0,0,0,.77-.76V84.81h.77a.75.75,0,0,0,.68-.42l1.54-3.08a.77.77,0,0,0-.34-1,.81.81,0,0,0-.34-.08H45.54V53.29a.77.77,0,0,0-.77-.77h-2.3V50.64a3.85,3.85,0,0,0,2-6.48L42.24,42a.76.76,0,0,0-1.08,0h0L39,44.16a3.83,3.83,0,0,0,2,6.48v1.88H38.62a.78.78,0,0,0-.77.77V80.2h-2.3a.76.76,0,0,0-.77.77.77.77,0,0,0,.08.34Zm7.6,2H39.39V84.81H44ZM40.07,48.51h0a2.31,2.31,0,0,1,0-3.26l1.62-1.64,1.55,1.57A2.41,2.41,0,0,1,44,47.27,2.25,2.25,0,0,1,42.47,49V46.37a.77.77,0,1,0-1.54,0V49A2.26,2.26,0,0,1,40.07,48.51Zm-.68,5.55h3.53l-3.53,3.53Zm0,5.7L44,55.14v2.45L39.39,62.2Zm0,4.61L44,59.76V62.2l-4.61,4.61Zm0,4.61L44,64.37v2.44l-4.61,4.62Zm0,4.61L44,69v2.45L39.39,76Zm0,4.62L44,73.59V76L39.85,80.2h-.46Zm4.61,0v2H42Zm2.6,3.53-.77,1.53H37.56l-.77-1.53Z"/><path class="cls-2" d="M56.68,100a.77.77,0,0,0,.69.42h.76v2.31a.78.78,0,0,0,.77.77h6.15a.77.77,0,0,0,.77-.77v-2.31h.77a.75.75,0,0,0,.68-.42l1.54-3.07a.78.78,0,0,0-.34-1,.81.81,0,0,0-.34-.08H65.82V68.86a.76.76,0,0,0-.77-.77h-2.3V66.2a3.83,3.83,0,0,0,3-4.53,3.87,3.87,0,0,0-1-2l-2.18-2.17a.76.76,0,0,0-1.08,0h0l-2.17,2.17a3.83,3.83,0,0,0,2,6.48v1.89H58.9a.77.77,0,0,0-.77.77v26.9h-2.3a.77.77,0,0,0-.77.77.85.85,0,0,0,.08.35Zm7.6,2H59.67v-1.54h4.61ZM60.35,64.07h0a2.31,2.31,0,0,1,0-3.26L62,59.18l1.55,1.56a2.42,2.42,0,0,1,.72,2.09,2.25,2.25,0,0,1-1.5,1.77V61.94a.77.77,0,1,0-1.54,0V64.6A2.14,2.14,0,0,1,60.35,64.07Zm-.68,5.55H63.2l-3.53,3.53Zm0,5.7,4.61-4.61v2.44l-4.61,4.61Zm0,4.61,4.61-4.61v2.44l-4.61,4.62Zm0,4.62,4.61-4.62v2.45L59.67,87Zm0,4.61,4.61-4.61V87L59.67,91.6Zm0,4.61,4.61-4.61V91.6l-4.16,4.16h-.45Zm4.61,0v2h-2Zm2.6,3.53-.77,1.54H57.84l-.77-1.54Z"/><path class="cls-2" d="M80,49.6a3.94,3.94,0,0,0,1.83,1V49a2.25,2.25,0,0,1-.74-.48h0a2.31,2.31,0,0,1,0-3.26l.73-.74V42.32L80,44.16A3.85,3.85,0,0,0,80,49.6Z"/><path class="cls-2" d="M80.42,86.35V84.81h1.42V83.27H78.59l-.77-1.53h4V79.23l-1,1h-.46v-2l1.42-1.42V74.62L80.42,76V73.59l1.42-1.42V70l-1.42,1.42V69l1.42-1.42V65.39l-1.42,1.42V64.37L81.84,63V60.78L80.42,62.2V59.76l1.42-1.42V56.17l-1.42,1.42V54.06h1.42V52.52H79.65a.78.78,0,0,0-.77.77V80.2h-2.3a.76.76,0,0,0-.77.77.77.77,0,0,0,.08.34l1.54,3.08a.77.77,0,0,0,.69.42h.76v2.31a.77.77,0,0,0,.77.76h2.19V86.35Z"/><path class="cls-2" d="M4.21,105.82H1.91v-1.89a3.84,3.84,0,0,0,2-6.48L1.69,95.28a.76.76,0,0,0-1.09,0h0L0,95.87v2.19l1.14-1.15,1.55,1.56a2.42,2.42,0,0,1,.72,2.09,2.25,2.25,0,0,1-1.5,1.77V99.67a.77.77,0,1,0-1.54,0v2.66a1.76,1.76,0,0,1-.37-.17v1.67a2.24,2.24,0,0,0,.37.1v1.89H0v1H5v-.18A.76.76,0,0,0,4.21,105.82Z"/><path class="cls-2" d="M45.46,99.4a3.83,3.83,0,0,0-1-2l-2.18-2.17a.75.75,0,0,0-1.08,0h0L39,97.45a3.83,3.83,0,0,0,2,6.48v1.89H38.62a.77.77,0,0,0-.77.76h7.69a.76.76,0,0,0-.77-.76h-2.3v-1.89A3.83,3.83,0,0,0,45.46,99.4Zm-3.76-.5a.76.76,0,0,0-.77.77v2.66a2.26,2.26,0,0,1-.86-.53h0a2.31,2.31,0,0,1,0-3.26l1.62-1.63,1.55,1.56a2.42,2.42,0,0,1,.72,2.09,2.25,2.25,0,0,1-1.5,1.77V99.67A.77.77,0,0,0,41.7,98.9Z"/><path class="cls-2" d="M80,102.89a3.86,3.86,0,0,0,1.83,1v-1.62a2.25,2.25,0,0,1-.74-.48h0a2.31,2.31,0,0,1,0-3.26l.73-.74V95.62L80,97.45A3.85,3.85,0,0,0,80,102.89Z"/><path class="cls-2" d="M79.65,105.82a.77.77,0,0,0-.77.76h3v-.76Z"/></g></g></svg>