<svg xmlns="http://www.w3.org/2000/svg" viewBox="0 0 18.53 18.53"><defs><style>.cls-1{fill:#fff;}</style></defs><g id="Capa_2" data-name="Capa 2"><g id="Diseño"><path class="cls-1" d="M8.73,12V5.18a.55.55,0,0,1,.54-.55.55.55,0,0,1,.54.55V12L12,9.89a.55.55,0,0,1,.76,0,.54.54,0,0,1,0,.76l-3,3,0,.05a.51.51,0,0,1-.38.16.54.54,0,0,1-.39-.16.1.1,0,0,1,0-.05l-3-3a.54.54,0,0,1,0-.76.56.56,0,0,1,.77,0ZM0,9.27a9.27,9.27,0,1,1,9.27,9.26A9.27,9.27,0,0,1,0,9.27Zm1,0A8.24,8.24,0,1,0,9.27,1,8.24,8.24,0,0,0,1,9.27Z"/></g></g></svg>