<svg xmlns="http://www.w3.org/2000/svg" viewBox="0 0 18.86 18.86"><defs><style>.cls-1,.cls-2{fill:#fff;}.cls-2{fill-rule:evenodd;}</style></defs><g id="Capa_2" data-name="Capa 2"><g id="Diseño"><path class="cls-1" d="M9.43,18.86a9.43,9.43,0,1,1,9.43-9.43A9.44,9.44,0,0,1,9.43,18.86ZM9.43,1a8.42,8.42,0,1,0,8.41,8.42A8.43,8.43,0,0,0,9.43,1Z"/><path class="cls-2" d="M8,9.47v5.47a.14.14,0,0,0,.14.14h2a.14.14,0,0,0,.14-.14V9.38h1.48a.14.14,0,0,0,.14-.13L12,7.58a.14.14,0,0,0-.14-.15H10.26V6.24a.5.5,0,0,1,.51-.5H11.9A.15.15,0,0,0,12,5.59V3.92a.14.14,0,0,0-.14-.14H10a2,2,0,0,0-2,2V7.43h-1a.15.15,0,0,0-.15.14V9.24a.15.15,0,0,0,.15.14H8Z"/></g></g></svg>