<svg xmlns="http://www.w3.org/2000/svg" viewBox="0 0 391.75 80.38"><defs><style>.cls-1{fill:#00aec7;}.cls-2{fill:#0033a0;}</style></defs><g id="Capa_2" data-name="Capa 2"><g id="Diseño"><path class="cls-1" d="M12.08,20.76a5.41,5.41,0,0,1-.29,4.66,6.39,6.39,0,0,1-3.65,2.49l-.33.1a6.55,6.55,0,0,1-4.38-.11C2.06,27.37,1.1,26.14.52,24.2L.4,23.78a6.2,6.2,0,0,1,0-4.54c.58-1.2,1.89-2.1,4-2.71l.33-.1a6,6,0,0,1,4.45.21A5.64,5.64,0,0,1,12,20.35ZM5.56,35.37c-.29-1.18-.23-2,.18-2.45A5.49,5.49,0,0,1,8.18,31.7l1.66-.5a6.55,6.55,0,0,1,2.8-.33c.7.12,1.26.79,1.68,2L26,67.51a4,4,0,0,1,.23,2.6c-.24.64-1.15,1.21-2.76,1.68L19.29,73c-1.56.46-2.63.49-3.23.1a3.64,3.64,0,0,1-1.31-2.28Z"/><path class="cls-2" d="M23.92,31.23c.49-3,1-5.78,1.65-8.33,1.74-7.28,4.09-14.35,8.1-13.08C37,10.85,37,14.16,36,17.09a38.42,38.42,0,0,1-4.47,8.69c-2.1,3.23-4.3,6.08-5.4,7.46l-.47.59c-.28,1.86-.54,3.81-.76,5.76l.28.07.72-.08A42.94,42.94,0,0,0,35,37c3.51-1.41,6.65-3.18,7.76-4.44A1.07,1.07,0,0,1,44.36,34c-1.6,1.82-4.93,3.55-8.58,5a48.54,48.54,0,0,1-8.07,2.48c3.57,4.34,5.61,15.09,5.69,23.77.05,5.65-.58,11-3.37,12.69a3.81,3.81,0,0,1-5.61-1.42c-2.1-3.39-2.8-10.24-2.79-18.36a166.3,166.3,0,0,1,1-17c0-.09.09-1,.11-1.05.25-2.26.53-4.36.85-6.54a2,2,0,0,1,.08-.49C23.73,32.41,23.82,31.81,23.92,31.23Zm-.14,26.91c0,8,.87,14.63,2.47,17.21.8,1.3,1.41,1.5,2.65.73S31.3,71,31.25,65.24c-.08-9.33-2.85-20.86-6-23.17a3.21,3.21,0,0,0-.38-.23h-.22C24.11,47.4,23.79,53.05,23.78,58.14Zm6-33.53A37.56,37.56,0,0,0,34,16.44c.89-2.81.52-4.11-1-4.57-1-.3-3.35,3.11-5.36,11.53-.44,1.85-.86,3.87-1.24,6C27.43,28,28.63,26.35,29.76,24.61Z"/><path class="cls-2" d="M44.2,37.08C44.15,41,47,42.77,49.9,42.77c3.41,0,6.86-1.68,9.73-3.74A33.73,33.73,0,0,0,66.5,32.6a1.07,1.07,0,1,1,1.7,1.31,35.25,35.25,0,0,1-7.31,6.87C57.83,43,54,44.91,49.9,44.91c-3.82,0-7.92-2.54-7.84-7.86a14.27,14.27,0,0,1,.1-1.63c.81-7.06,6.13-9.42,9-9.42,3.16,0,5.49,1.77,5.46,4.29a5.53,5.53,0,0,1-2.92,4.46c-2.07,1.32-5.21,2.15-9.52,2.08A2,2,0,0,1,44.2,37.08Zm8.38-4.14a3.45,3.45,0,0,0,1.92-2.66c0-1-.82-2.13-3.31-2.13-1.82,0-5.71,1.48-6.74,6.53C48.37,34.72,51,33.93,52.58,32.94Z"/><path class="cls-2" d="M66.31,31.05a98.19,98.19,0,0,1,1.9-16.33,62.89,62.89,0,0,1,2.58-9.47c1-2.74,2.55-6,5-5.08,4.07,1.55,1.45,10.79-1,18.16A105,105,0,0,1,69.3,32c-.29.58-.58,1.11-.85,1.58a23.06,23.06,0,0,0,1.19,7.79c.82,1.9,1.6,1.94,2.77,1.43,2.87-1.23,6.92-7.08,8.46-10a1.07,1.07,0,0,1,1.9,1c-1.61,3.08-5.58,9.28-9.51,11-2.15.93-4.39.22-5.59-2.56a24.36,24.36,0,0,1-1.37-8.79.81.81,0,0,1,0-.22C66.29,32.47,66.29,31.75,66.31,31.05Zm6.47-13.4C75.53,9.33,76.19,2.7,75.06,2.18c-.94.36-3.26,5.61-4.74,13a99.76,99.76,0,0,0-1.76,13.38A114.37,114.37,0,0,0,72.78,17.65Z"/><path class="cls-2" d="M83.57,27.18C82.89,33.88,82.5,42,84,42.92s4.3-.81,7-4.06a38.3,38.3,0,0,0,4.14-6.15A1.07,1.07,0,0,1,97,33.8a39.92,39.92,0,0,1-4.35,6.45c-2.46,2.91-6.42,6.59-9.82,4.51-3.56-2.19-2.05-11.82-1.44-17.8a1.08,1.08,0,1,1,2.14.22Zm.51-5.6a1,1,0,0,1,.59,1.26,1.09,1.09,0,0,1-1.32.76,2,2,0,0,1-1.5-2.51,2.14,2.14,0,0,1,1.08-1.32,1.09,1.09,0,0,1,1.44.48A1.12,1.12,0,0,1,84.08,21.58Z"/><path class="cls-2" d="M111.54,43.41a8.81,8.81,0,0,1,.39,1.13c4.48-5.61,8.6-10.24,10.2-12a1.08,1.08,0,0,1,1.52-.07,1.07,1.07,0,0,1,.07,1.51c-1.68,1.86-6.21,7-11,13l-.34.42c0,.26,0,.52.06.78a54.12,54.12,0,0,1-3.34,19.42,26.2,26.2,0,0,1-1.22,2.79c-2.44,4.74-6,7.17-8.78,5.71-3.11-1.6-3.19-6.79.19-13.24a112.89,112.89,0,0,1,10.37-15.46l.49-.63c0-.19-.05-.38-.08-.54a8.45,8.45,0,0,0-.53-1.95,6.09,6.09,0,0,0-3.5-3.45,20.87,20.87,0,0,1-5.35,4.45c-1.82.95-4.18,1.24-5.31-.94a2.72,2.72,0,0,1-.25-1.74c.61-3.14,5.86-5,10.07-4.23l.11,0c3.84-4.62,5.31-9.17,4.29-10a1.55,1.55,0,0,0-.6-.26c-4.73-1.05-11.56,2.36-11.93,4.08a.43.43,0,0,0,.09.42,1.07,1.07,0,1,1-1.73,1.26A2.63,2.63,0,0,1,95,31.74c.84-3.88,9.21-6.89,14.5-5.72a3.59,3.59,0,0,1,1.43.65c3.24,2.51-.27,8.47-3.41,12.44A8.4,8.4,0,0,1,111.54,43.41ZM97.26,43.1a.51.51,0,0,0,.06.25c.31.59.82.84,2.41,0a16.85,16.85,0,0,0,3.83-3C99.92,40.25,97.28,42.33,97.26,43.1Zm4,20.75c-3.39,6.45-2.22,9.76-1.12,10.33.92.48,3.46-.13,5.84-4.69a23.06,23.06,0,0,0,1.16-2.65,54.77,54.77,0,0,0,3.24-16.78A105.45,105.45,0,0,0,101.23,63.85Z"/><path class="cls-2" d="M150.32,31.83a4.12,4.12,0,0,0,.17-1.44c-.13-1.46-1.38-2.48-3.86-2.25-2.3.22-7.15,2.6-7.09,8.92.05,5.13,3.52,5.71,6.81,5.71,3.47,0,7.27-2.34,10.27-4.87a34.35,34.35,0,0,0,5.2-5.28,1.07,1.07,0,1,1,1.74,1.26A35.57,35.57,0,0,1,158,39.55c-3.12,2.63-7.29,5.36-11.66,5.36-3.47,0-8.89-1-9-7.83a10.61,10.61,0,0,1,9-11.08c3.11-.29,5.93,1.16,6.2,4.2a6.18,6.18,0,0,1-.24,2.22,1.1,1.1,0,0,1-1.33.74A1.08,1.08,0,0,1,150.32,31.83Z"/><path class="cls-2" d="M174.91,34.19c0,2.93.35,6.1,1.48,8.17a2,2,0,0,0,.68.8c1.88,1,6.49-7.87,7.46-10.41A1,1,0,0,1,186,32.3a1.07,1.07,0,0,1,.47,1.41s-5.41,14-10.39,11.35a3.94,3.94,0,0,1-1.55-1.67,14.25,14.25,0,0,1-1.46-4.71c-1.44,3.82-4.15,8-8.55,6.15s-3.14-12.49-1.87-18a1.08,1.08,0,0,1,2.1.49c-1.41,6.1-1.35,14.71.6,15.53a3.87,3.87,0,0,0,.77.23c2.7.46,4.88-3.92,6.14-9.18.31-1.31.56-2.59.74-3.68.19-2,.43-3.25.45-3.38A1.12,1.12,0,0,1,174.5,26a1.08,1.08,0,0,1,1.05,1.17s-.12,1.37-.44,3.33C175,31.59,174.92,32.87,174.91,34.19Z"/><path class="cls-2" d="M187.2,27.22c-.13,1-.28,2.74-.42,4.74,1.26-3.3,3.37-7.21,6.83-5.89,3,1.14,3.79,4.34,3.9,7.14a2.39,2.39,0,0,1,.13-.24c1.69-3.22,4.42-7.42,8-6,2.93,1.19,2.23,5.39,2,8.34-.27,3.36-.24,6.15.9,7.08s2.49.37,4.41-1.62a63.46,63.46,0,0,0,6.23-8.15,1.1,1.1,0,0,1,1.5-.27,1.07,1.07,0,0,1,.27,1.49,64.08,64.08,0,0,1-6.45,8.41c-1.92,2-4.74,3.89-7.31,1.81s-1.94-5.87-1.7-8.92c.3-3.7.18-5.84-.66-6.18-1.35-.54-3.36,1.36-5.27,5a51.12,51.12,0,0,0-3.13,7.61,1.1,1.1,0,0,1-1.25.73,1.08,1.08,0,0,1-.81-1.35,28.73,28.73,0,0,0,1-7.47c-.07-2.72-.81-4.76-2.52-5.41-1.22-.47-2.76,1.1-4.18,5a62.71,62.71,0,0,0-2.6,11,1.07,1.07,0,0,1-2.13-.2s.63-13.14,1.13-16.86a1.07,1.07,0,0,1,2.13.29Z"/><path class="cls-2" d="M221.93,36.39c2.11-6,5.14-11.09,9.89-10.38,4,.6,4.39,4.92,3.66,8.5,3.79-1.2,7.36-2,8.36-2.29a1.07,1.07,0,1,1,.57,2.07c-1.23.34-5.35,1.27-9.47,2.67l-.13,0c0,.13-.09.26-.13.39s-.2.55-.31.83A13.33,13.33,0,0,1,230.5,44c-2.14,1.68-4.69,1.78-6,.17s-.49-3.76,1.57-5.34a26,26,0,0,1,6.57-3.3l.4-.15s0-.11,0-.16c1-3.9.49-6.49-1.29-7a2.79,2.79,0,0,0-.33-.06c-2.73-.41-5.37,2.74-7.54,9a92.26,92.26,0,0,0-3.46,14.5c-.62,3.73-1.12,7.53-1.51,11l-1.31,16.74a1.08,1.08,0,0,1-1.24,1,1.1,1.1,0,0,1-.9-1.1s.28-7.49,1.31-16.82l.88-11.22L219.62,27a1.08,1.08,0,0,1,2.15.17l-1,13.06C221.11,38.88,221.51,37.6,221.93,36.39Zm5.49,4.1c-1.65,1.27-1.35,2.1-1.19,2.3s1.28.78,2.94-.53a10.86,10.86,0,0,0,3-4.27A21.33,21.33,0,0,0,227.42,40.49Z"/><path class="cls-2" d="M243.55,31.05a97.16,97.16,0,0,1,1.91-16.33A63,63,0,0,1,248,5.25c1.05-2.74,2.55-6,5-5.08,4.07,1.55,1.45,10.79-1,18.16A105,105,0,0,1,246.54,32c-.29.58-.58,1.11-.85,1.58a23.06,23.06,0,0,0,1.19,7.79c.82,1.9,1.6,1.94,2.77,1.43,2.87-1.23,6.93-7.08,8.46-10a1.08,1.08,0,0,1,1.91,1c-1.62,3.08-5.58,9.28-9.51,11-2.15.93-4.4.22-5.6-2.56a24.36,24.36,0,0,1-1.37-8.79,1.61,1.61,0,0,1,0-.22C243.53,32.47,243.54,31.75,243.55,31.05ZM250,17.65c2.76-8.32,3.41-14.95,2.28-15.47-.94.36-3.26,5.61-4.74,13a99.75,99.75,0,0,0-1.75,13.38A114.46,114.46,0,0,0,250,17.65Z"/><path class="cls-2" d="M259.66,37.08c-.06,3.93,2.75,5.69,5.7,5.69,3.4,0,6.85-1.68,9.73-3.74A33.54,33.54,0,0,0,282,32.6a1.08,1.08,0,1,1,1.71,1.31,35.73,35.73,0,0,1-7.32,6.87c-3.06,2.19-6.89,4.13-11,4.13-3.83,0-7.93-2.54-7.85-7.86,0-.56,0-1.11.1-1.63.82-7.06,6.14-9.42,9-9.42,3.16,0,5.48,1.77,5.46,4.29a5.56,5.56,0,0,1-2.92,4.46c-2.07,1.32-5.21,2.15-9.53,2.08ZM268,32.94A3.5,3.5,0,0,0,270,30.28c0-1-.83-2.13-3.31-2.13-1.82,0-5.72,1.48-6.75,6.53C263.82,34.72,266.47,33.93,268,32.94Z"/><path class="cls-2" d="M296,27.15c0,.45-.3,4.1-.36,4.69s-.14,1.47-.2,2.36c-.22,3.72.18,8.22.9,8.81.93.77,3.37-.81,6.28-4.43,1.81-2.25,3.4-4.69,4.25-5.93a1.08,1.08,0,1,1,1.78,1.21c-.83,1.21-2.46,3.72-4.35,6.07-2.4,3-6.24,7.29-9.33,4.74-1.62-1.34-1.74-4.47-1.77-7.22-.39.72-.83,1.46-1.27,2.14-1.94,3-4.75,6.25-8,5.28-2.5-.74-3.31-3.52-3.33-6.07a14,14,0,0,1,1.85-7c2.2-3.66,5.54-6,8.81-5.88a5.87,5.87,0,0,1,2.88.85C294.81,26,296,26.26,296,27.15ZM293.49,29a3.79,3.79,0,0,0-2.35-.92c-2.16-.07-4.94,1.6-6.89,4.84a12,12,0,0,0-1.54,5.89c0,2.33.82,3.74,1.79,4,1.4.42,3.57-1.28,5.6-4.39a34.23,34.23,0,0,0,2.59-4.89,7.22,7.22,0,0,0,.45-1.3c.05-.2.25-2.14.36-3.26Z"/><path class="cls-2" d="M309.58,27.22c-.13,1-.34,2.77-.55,4.66,1.55-3.46,4-7.14,7.69-5.82,3.44,1.23,3,6,2.8,9.46-.21,3.76-.1,6.37.55,6.75.92.54,2.45-.16,4.35-2.29A54.85,54.85,0,0,0,330,32.7a1.07,1.07,0,1,1,1.84,1.11,56.57,56.57,0,0,1-5.81,7.6c-1.8,2-4.43,4.24-7,2.71s-1.79-5.59-1.62-8.72c.23-4,0-6.83-1.38-7.32-1.84-.65-3.81,1.59-5.49,5.84A58.78,58.78,0,0,0,307.74,44a1.11,1.11,0,0,1-1.08.89,1.08,1.08,0,0,1-1.05-1.18s1.34-13.15,1.83-16.8a1.08,1.08,0,0,1,2.14.29Z"/><path class="cls-2" d="M353.13,32.52a1.14,1.14,0,0,1,1.52-.06,1.06,1.06,0,0,1,.06,1.52c-2.88,2.6-8.28,4.23-12.44,4.28-1.11,3.63-3.73,7.32-7.67,6.64-4.58-.79-5.71-6.19-4.88-11a18.32,18.32,0,0,1,1.17-4,1.16,1.16,0,0,1,.89-.66A5.67,5.67,0,0,1,338.43,26c3.24.82,4.45,4.13,4.53,7.3a16.34,16.34,0,0,1-.19,2.77C346.2,35.93,350.81,34.6,353.13,32.52ZM331.84,34.3c-.8,4.6.56,8,3.12,8.48,2,.35,4-1.5,5.09-4.66a14,14,0,0,1-4.65-1.5A8,8,0,0,1,332,33.46C331.94,33.74,331.89,34,331.84,34.3Zm9-.91c-.07-2.85-1.11-4.82-2.91-5.28a3.57,3.57,0,0,0-4,1.67,2.77,2.77,0,0,0-.34,1.43c0,1,.69,2.35,2.85,3.51A11.63,11.63,0,0,0,340.6,36,13.14,13.14,0,0,0,340.81,33.39Z"/><path class="cls-2" d="M356.56,38.14a89.13,89.13,0,0,1,12.09-5.85,1.09,1.09,0,0,1,1.44.48,1.07,1.07,0,0,1-.48,1.44,89,89,0,0,0-12.27,6c.83,2.14,1.86,4.44,1.42,7.57-1.34,9.44-11.54,8.49-10.19.06.58-3.62,2.61-6.06,6.14-8.49A52.54,52.54,0,0,1,352.57,33a12,12,0,0,1-.28-1.77c-.27-4.15,1.82-6.67,4.11-6.8a2.59,2.59,0,0,1,2.79,2.62c0,1.67-1.77,3.95-4.18,6.76C355.41,35.13,356,36.65,356.56,38.14Zm-5.86,10c-1,5.86,5,6,5.93-.68.35-2.47-.39-4.09-1.13-6.05C352.28,43.69,351.1,45.7,350.7,48.14Zm6.34-21c0-.48-.16-.54-.51-.52-.64,0-2.33,1-2.09,4.52,0,.09,0,.19,0,.3A26.36,26.36,0,0,0,357,27.09Z"/><path class="cls-1" d="M377.37,58.2a5.62,5.62,0,0,1-2.78,3.7,5.93,5.93,0,0,1-4.45.21L369.8,62c-2.05-.62-3.36-1.52-3.94-2.72a6.2,6.2,0,0,1-.05-4.54l.12-.42a5.21,5.21,0,0,1,2.91-3.7,6.61,6.61,0,0,1,4.38-.11l.33.1a6.39,6.39,0,0,1,3.65,2.49,5.41,5.41,0,0,1,.29,4.66Zm2.79-50.51a3.64,3.64,0,0,1,1.31-2.28c.6-.39,1.67-.36,3.23.1l4.16,1.24q2.4.72,2.76,1.68a4,4,0,0,1-.23,2.6L379.73,45.68c-.42,1.21-1,1.87-1.68,2a6.39,6.39,0,0,1-2.8-.33l-1.66-.5a5.49,5.49,0,0,1-2.44-1.22c-.41-.45-.47-1.27-.18-2.45Z"/><path class="cls-2" d="M304.32,20c3.09-3.1,7.85-.11,11.32.47,3.08.52,6.85-.34,8-3.59.44-1.24-1.53-1.77-2-.54a3.78,3.78,0,0,1-3.05,2.14,10.13,10.13,0,0,1-4.87-.59c-3.58-1.1-7.85-2.38-10.88.67-.92.93.52,2.38,1.44,1.44Z"/></g></g></svg>