<svg xmlns="http://www.w3.org/2000/svg" viewBox="0 0 18.73 18.73"><defs><style>.cls-1{fill:#fff;}</style></defs><g id="Capa_2" data-name="Capa 2"><g id="Diseño"><path class="cls-1" d="M9.37,18.73a9.37,9.37,0,1,1,9.36-9.36A9.37,9.37,0,0,1,9.37,18.73ZM9.37.89a8.48,8.48,0,1,0,8.47,8.48A8.48,8.48,0,0,0,9.37.89Zm3.16,4.68a.69.69,0,1,0,.69.69A.69.69,0,0,0,12.53,5.57Zm-3.09.89a2.91,2.91,0,1,0,2.92,2.91A2.91,2.91,0,0,0,9.44,6.46Zm0,4.77a1.87,1.87,0,1,1,1.87-1.86A1.86,1.86,0,0,1,9.44,11.23ZM15.32,7A3.55,3.55,0,0,0,11.77,3.4H7.08A3.55,3.55,0,0,0,3.53,7v4.68a3.55,3.55,0,0,0,3.55,3.56h4.69a3.55,3.55,0,0,0,3.55-3.56Zm-1.11,4.68a2.44,2.44,0,0,1-2.44,2.44H7.08a2.44,2.44,0,0,1-2.44-2.44V7A2.44,2.44,0,0,1,7.08,4.51h4.69A2.44,2.44,0,0,1,14.21,7Z"/></g></g></svg>