<svg xmlns="http://www.w3.org/2000/svg" viewBox="0 0 143.08 19.36"><defs><style>.cls-1{fill:#00afc8;}</style></defs><g id="Capa_2" data-name="Capa 2"><g id="Diseño"><path class="cls-1" d="M2.77,12.51c0,.28.13.42.41.42H6.87a.72.72,0,0,1,.48.11.59.59,0,0,1,.11.42v1.22a.56.56,0,0,1-.11.42.66.66,0,0,1-.48.12H2.22a2.35,2.35,0,0,1-1.74-.54,1.43,1.43,0,0,1-.37-.63,3.51,3.51,0,0,1-.11-1V1.42A.68.68,0,0,1,.11,1,.83.83,0,0,1,.59.87H2.17A.89.89,0,0,1,2.66,1a.68.68,0,0,1,.11.46Z"/><path class="cls-1" d="M14.57,14.28a2,2,0,0,1-.86.85,3.48,3.48,0,0,1-1.55.29h-.81a5.1,5.1,0,0,1-1.42-.17,2.78,2.78,0,0,1-1-.54,2.52,2.52,0,0,1-.71-1.06A4.25,4.25,0,0,1,8,12.22v-.51a3.2,3.2,0,0,1,.92-2.57,2.88,2.88,0,0,1,1.3-.63,8,8,0,0,1,1.91-.19h1.41l.6,0v-.6a1.42,1.42,0,0,0-.37-1.13,1.32,1.32,0,0,0-.58-.24,4.62,4.62,0,0,0-.93-.07,9.26,9.26,0,0,0-1.32.11,11.59,11.59,0,0,0-1.38.31c-.18.06-.31.06-.39,0A.54.54,0,0,1,9,6.39l-.2-1a.79.79,0,0,1,0-.43.52.52,0,0,1,.34-.23,14.45,14.45,0,0,1,1.53-.37,9.9,9.9,0,0,1,1.78-.16,8.67,8.67,0,0,1,1.89.16,4.15,4.15,0,0,1,1.27.55,2.44,2.44,0,0,1,.87,1.07,5,5,0,0,1,.28,1.85v7c0,.28-.16.42-.47.42h-1a.48.48,0,0,1-.52-.4l-.13-.54Zm-.44-3.81c-.19,0-.39,0-.61,0H12.09a3.45,3.45,0,0,0-.67.05,1.07,1.07,0,0,0-.47.21,1.37,1.37,0,0,0-.33,1.09V12A1.26,1.26,0,0,0,11,13a1,1,0,0,0,.36.19,2,2,0,0,0,.61.08h.79A1.42,1.42,0,0,0,13.8,13a1.61,1.61,0,0,0,.33-1.13Z"/><path class="cls-1" d="M27.94,14.64a.87.87,0,0,1-.34.45,1.08,1.08,0,0,1-.58.13H25.46a1,1,0,0,1-.58-.13.82.82,0,0,1-.34-.45c-.27-.67-.54-1.4-.83-2.2s-.56-1.62-.84-2.47-.55-1.71-.8-2.58-.49-1.72-.69-2.53c-.08-.34.09-.51.5-.51h1.45a.62.62,0,0,1,.42.11.68.68,0,0,1,.19.35c.34,1.31.7,2.62,1.09,3.94s.77,2.55,1.15,3.69h.11c.4-1.14.78-2.37,1.16-3.69s.74-2.63,1.06-3.94a.63.63,0,0,1,.2-.35.58.58,0,0,1,.41-.11h1.45q.62,0,.51.51c-.21.81-.44,1.65-.7,2.53s-.52,1.73-.8,2.58-.55,1.68-.83,2.47S28.2,14,27.94,14.64Z"/><path class="cls-1" d="M34.72,1.66a1.49,1.49,0,0,1-.43,1.16,1.59,1.59,0,0,1-1.11.4h-.11a1.52,1.52,0,0,1-1.18-.4,1.68,1.68,0,0,1-.35-1.16V1.53A1.4,1.4,0,0,1,32,.37,1.63,1.63,0,0,1,33.07,0h.11a1.62,1.62,0,0,1,1.11.37,1.43,1.43,0,0,1,.43,1.16Zm-.29,13a.59.59,0,0,1-.12.44.71.71,0,0,1-.49.12H32.44a.74.74,0,0,1-.5-.12.59.59,0,0,1-.12-.44V4.9a.59.59,0,0,1,.12-.44.75.75,0,0,1,.5-.11h1.38a.72.72,0,0,1,.49.11.59.59,0,0,1,.12.44Z"/><path class="cls-1" d="M45.12,11.29a6.42,6.42,0,0,1-.23,1.9,2.74,2.74,0,0,1-.76,1.18,3.81,3.81,0,0,1-1.43.77,7.67,7.67,0,0,1-2.19.28,7.34,7.34,0,0,1-2.07-.24,3.19,3.19,0,0,1-1.33-.7,3.43,3.43,0,0,1-1-1.62,9.46,9.46,0,0,1-.31-2.59V9.36a8.38,8.38,0,0,1,.31-2.48,4,4,0,0,1,1-1.6,4.43,4.43,0,0,1,3.31-1.13,4.31,4.31,0,0,1,1.17.15,3.5,3.5,0,0,1,.91.4h0V.75a.59.59,0,0,1,.12-.44A.78.78,0,0,1,43.12.2h1.39A.8.8,0,0,1,45,.31a.59.59,0,0,1,.12.44Zm-2.61-3a3.19,3.19,0,0,0-.12-1,1.28,1.28,0,0,0-.32-.51,1.85,1.85,0,0,0-.58-.34,2.77,2.77,0,0,0-.89-.12,2.47,2.47,0,0,0-1,.16,1.55,1.55,0,0,0-.62.48,2.13,2.13,0,0,0-.45,1,8.8,8.8,0,0,0-.1,1.51v.68a9.73,9.73,0,0,0,.11,1.65,2,2,0,0,0,.42,1,1.26,1.26,0,0,0,.59.44,2.58,2.58,0,0,0,.92.14,2.89,2.89,0,0,0,1-.13,1.54,1.54,0,0,0,.59-.36,1.3,1.3,0,0,0,.33-.65,4.78,4.78,0,0,0,.09-1Z"/><path class="cls-1" d="M52.93,14.28a2,2,0,0,1-.86.85,3.48,3.48,0,0,1-1.55.29h-.81a5.1,5.1,0,0,1-1.42-.17,2.78,2.78,0,0,1-1-.54,2.52,2.52,0,0,1-.71-1.06,4.25,4.25,0,0,1-.23-1.43v-.51a3.2,3.2,0,0,1,.92-2.57,2.88,2.88,0,0,1,1.3-.63,8,8,0,0,1,1.9-.19h1.42l.6,0v-.6a1.42,1.42,0,0,0-.37-1.13,1.32,1.32,0,0,0-.58-.24,4.62,4.62,0,0,0-.93-.07,9.26,9.26,0,0,0-1.32.11,11.59,11.59,0,0,0-1.38.31c-.18.06-.31.06-.39,0a.54.54,0,0,1-.16-.34l-.2-1a.79.79,0,0,1,0-.43.52.52,0,0,1,.34-.23A14.45,14.45,0,0,1,49,4.31a9.9,9.9,0,0,1,1.78-.16,8.67,8.67,0,0,1,1.89.16A4.15,4.15,0,0,1,54,4.86a2.44,2.44,0,0,1,.87,1.07,5,5,0,0,1,.28,1.85v7c0,.28-.16.42-.47.42h-1a.48.48,0,0,1-.52-.4L53,14.28Zm-.44-3.81c-.19,0-.39,0-.61,0H50.45a3.45,3.45,0,0,0-.67.05,1.07,1.07,0,0,0-.47.21A1.37,1.37,0,0,0,49,11.78V12a1.26,1.26,0,0,0,.33,1,1,1,0,0,0,.36.19,2,2,0,0,0,.61.08h.79A1.42,1.42,0,0,0,52.16,13a1.61,1.61,0,0,0,.33-1.13Z"/><path class="cls-1" d="M69.68,11.29a6.42,6.42,0,0,1-.23,1.9,2.83,2.83,0,0,1-.76,1.18,3.86,3.86,0,0,1-1.44.77,7.55,7.55,0,0,1-2.18.28A7.47,7.47,0,0,1,63,15.18a3.21,3.21,0,0,1-1.32-.7,3.28,3.28,0,0,1-1-1.62,9.09,9.09,0,0,1-.31-2.59V9.36a8.06,8.06,0,0,1,.31-2.48,3.93,3.93,0,0,1,.94-1.6,4.45,4.45,0,0,1,3.32-1.13,4.36,4.36,0,0,1,1.17.15,3.66,3.66,0,0,1,.91.4h0V.75a.59.59,0,0,1,.12-.44A.78.78,0,0,1,67.68.2h1.38a.81.81,0,0,1,.5.11.59.59,0,0,1,.12.44Zm-2.61-3a2.87,2.87,0,0,0-.13-1,1.27,1.27,0,0,0-.31-.51A1.79,1.79,0,0,0,66,6.4a2.67,2.67,0,0,0-.88-.12,2.47,2.47,0,0,0-1,.16,1.55,1.55,0,0,0-.62.48,2,2,0,0,0-.45,1A8.8,8.8,0,0,0,63,9.43v.68a8.78,8.78,0,0,0,.11,1.65,2.12,2.12,0,0,0,.41,1,1.29,1.29,0,0,0,.6.44,2.58,2.58,0,0,0,.92.14,2.93,2.93,0,0,0,1-.13,1.54,1.54,0,0,0,.59-.36,1.3,1.3,0,0,0,.33-.65,4.78,4.78,0,0,0,.09-1Z"/><path class="cls-1" d="M79.69,10.4a.77.77,0,0,1-.13.5.57.57,0,0,1-.47.15H73.61a2.36,2.36,0,0,0,.54,1.77,1.72,1.72,0,0,0,.68.32,5.17,5.17,0,0,0,1.26.13,6.53,6.53,0,0,0,1.23-.14,6,6,0,0,0,1.14-.33.56.56,0,0,1,.35-.05c.1,0,.19.17.26.4l.29,1.07a.48.48,0,0,1,0,.38.7.7,0,0,1-.38.24,8.67,8.67,0,0,1-1.52.42,9.33,9.33,0,0,1-1.66.16,7.77,7.77,0,0,1-2.23-.28,3.48,3.48,0,0,1-1.46-.86,3.69,3.69,0,0,1-.89-1.67A10.61,10.61,0,0,1,71,10.07v-.6a10.62,10.62,0,0,1,.23-2.31,4.17,4.17,0,0,1,.76-1.66,3.28,3.28,0,0,1,1.39-1,5.82,5.82,0,0,1,2.14-.34,5.7,5.7,0,0,1,1.85.25,3.6,3.6,0,0,1,1.25.75,3.24,3.24,0,0,1,.47.56,3.43,3.43,0,0,1,.35.77,6.15,6.15,0,0,1,.22,1,10.93,10.93,0,0,1,.08,1.38ZM75.38,6.25a1.63,1.63,0,0,0-1.25.45,1.86,1.86,0,0,0-.44.89A6.71,6.71,0,0,0,73.56,9h3.23c.19,0,.28-.1.28-.31A8.19,8.19,0,0,0,77,7.43a1.49,1.49,0,0,0-.33-.75,1.13,1.13,0,0,0-.49-.32A2.33,2.33,0,0,0,75.38,6.25Z"/><path class="cls-1" d="M84.18,15.42a9.69,9.69,0,0,1-1.75-.17,6.85,6.85,0,0,1-1.6-.48c-.21-.07-.33-.15-.37-.24a.86.86,0,0,1,0-.42L80.72,13c.08-.36.29-.46.61-.33a8.69,8.69,0,0,0,1.33.41,6,6,0,0,0,1.3.17,5.1,5.1,0,0,0,.88-.06,1.44,1.44,0,0,0,.55-.21,1,1,0,0,0,.37-.87V12a.91.91,0,0,0-.29-.76,3,3,0,0,0-1-.39l-1.32-.32A4.14,4.14,0,0,1,82,10.1a2.75,2.75,0,0,1-.73-.58,2.94,2.94,0,0,1-.66-2v-.2a3.55,3.55,0,0,1,.26-1.47,2.41,2.41,0,0,1,.71-.93,2.85,2.85,0,0,1,1.16-.55,7.46,7.46,0,0,1,1.8-.18,10.23,10.23,0,0,1,1.66.13,6.47,6.47,0,0,1,1.28.31c.16.06.26.12.29.19a.63.63,0,0,1,0,.34l-.26,1.25a.41.41,0,0,1-.19.3.57.57,0,0,1-.36,0,9.06,9.06,0,0,0-1-.24A6.84,6.84,0,0,0,84.8,6.3a2.56,2.56,0,0,0-1.36.24.81.81,0,0,0-.31.71v.16a.75.75,0,0,0,.31.7,2.87,2.87,0,0,0,.81.3l1.36.31a3.85,3.85,0,0,1,2.22,1.2,2.44,2.44,0,0,1,.37.82,4.36,4.36,0,0,1,.11,1V12a3.21,3.21,0,0,1-.88,2.4A4.6,4.6,0,0,1,84.18,15.42Z"/><path class="cls-1" d="M98.47,11.29a6.42,6.42,0,0,1-.23,1.9,2.74,2.74,0,0,1-.76,1.18,3.78,3.78,0,0,1-1.44.77,7.55,7.55,0,0,1-2.18.28,7.34,7.34,0,0,1-2.07-.24,3.19,3.19,0,0,1-1.33-.7,3.43,3.43,0,0,1-1-1.62,9.46,9.46,0,0,1-.31-2.59V9.36a8.38,8.38,0,0,1,.31-2.48,4,4,0,0,1,1-1.6,4.43,4.43,0,0,1,3.31-1.13,4.36,4.36,0,0,1,1.17.15,3.5,3.5,0,0,1,.91.4h0V.75A.59.59,0,0,1,96,.31.78.78,0,0,1,96.47.2h1.39a.8.8,0,0,1,.49.11.59.59,0,0,1,.12.44Zm-2.61-3a3.19,3.19,0,0,0-.12-1,1.28,1.28,0,0,0-.32-.51,1.85,1.85,0,0,0-.58-.34A2.77,2.77,0,0,0,94,6.28a2.47,2.47,0,0,0-1,.16,1.55,1.55,0,0,0-.62.48,2,2,0,0,0-.45,1,8.8,8.8,0,0,0-.1,1.51v.68a9.73,9.73,0,0,0,.11,1.65,2,2,0,0,0,.42,1,1.26,1.26,0,0,0,.59.44,2.58,2.58,0,0,0,.92.14,2.89,2.89,0,0,0,1-.13,1.54,1.54,0,0,0,.59-.36,1.3,1.3,0,0,0,.33-.65,4.78,4.78,0,0,0,.09-1Z"/><path class="cls-1" d="M108.48,10.4a.78.78,0,0,1-.12.5.61.61,0,0,1-.48.15H102.4a2.36,2.36,0,0,0,.55,1.77,1.6,1.6,0,0,0,.68.32,5,5,0,0,0,1.25.13,6.53,6.53,0,0,0,1.23-.14,6,6,0,0,0,1.14-.33.57.57,0,0,1,.35-.05c.1,0,.19.17.26.4l.29,1.07a.53.53,0,0,1,0,.38.79.79,0,0,1-.39.24,8.44,8.44,0,0,1-1.52.42,9.24,9.24,0,0,1-1.66.16,7.82,7.82,0,0,1-2.23-.28,3.48,3.48,0,0,1-1.46-.86,3.69,3.69,0,0,1-.89-1.67,11.15,11.15,0,0,1-.25-2.54v-.6A10.62,10.62,0,0,1,100,7.16a4.31,4.31,0,0,1,.76-1.66,3.34,3.34,0,0,1,1.39-1,5.82,5.82,0,0,1,2.14-.34,5.7,5.7,0,0,1,1.85.25,3.51,3.51,0,0,1,1.25.75,3.24,3.24,0,0,1,.47.56,3.43,3.43,0,0,1,.35.77,6.15,6.15,0,0,1,.22,1,10.93,10.93,0,0,1,.08,1.38Zm-4.3-4.15a1.64,1.64,0,0,0-1.26.45,1.77,1.77,0,0,0-.43.89A6,6,0,0,0,102.35,9h3.23c.19,0,.29-.1.29-.31a6.92,6.92,0,0,0-.09-1.22,1.49,1.49,0,0,0-.33-.75,1,1,0,0,0-.48-.32A2.42,2.42,0,0,0,104.18,6.25Z"/><path class="cls-1" d="M120.22,8.47a4.87,4.87,0,0,0-.1-1.06,1.5,1.5,0,0,0-.36-.67,1.92,1.92,0,0,0-1.41-.46,3.1,3.1,0,0,0-.9.1,1.28,1.28,0,0,0-.55.3,1.31,1.31,0,0,0-.34.52,3.09,3.09,0,0,0-.12,1v6.45a.59.59,0,0,1-.12.44.71.71,0,0,1-.49.12h-1.38a.74.74,0,0,1-.5-.12.59.59,0,0,1-.12-.44V.75A.59.59,0,0,1,114,.31a.81.81,0,0,1,.5-.11h1.38a.78.78,0,0,1,.49.11.59.59,0,0,1,.12.44V5a3.58,3.58,0,0,1,1.08-.58,4.91,4.91,0,0,1,1.62-.22,4.46,4.46,0,0,1,1.79.34,2.9,2.9,0,0,1,1.33,1.21A3.51,3.51,0,0,1,122.72,7a11.34,11.34,0,0,1,.11,1.59v6.05a.59.59,0,0,1-.12.44.74.74,0,0,1-.5.12h-1.38a.71.71,0,0,1-.49-.12.59.59,0,0,1-.12-.44Z"/><path class="cls-1" d="M128.65,4.15a5.76,5.76,0,0,1,2.09.33,3.41,3.41,0,0,1,1.39,1A4.06,4.06,0,0,1,133,7.18a9.28,9.28,0,0,1,.25,2.27v.66A9.28,9.28,0,0,1,133,12.4a4.08,4.08,0,0,1-.87,1.71,3.64,3.64,0,0,1-1.4,1,6.39,6.39,0,0,1-4.17,0,3.64,3.64,0,0,1-1.4-1,4.08,4.08,0,0,1-.87-1.71,9.28,9.28,0,0,1-.25-2.29V9.45a9.28,9.28,0,0,1,.25-2.27,4.06,4.06,0,0,1,.87-1.72,3.41,3.41,0,0,1,1.39-1A5.78,5.78,0,0,1,128.65,4.15Zm0,9.16a2.06,2.06,0,0,0,.91-.16,1.79,1.79,0,0,0,.56-.44,2.27,2.27,0,0,0,.38-1,11.11,11.11,0,0,0,.1-1.68V9.54a10.88,10.88,0,0,0-.1-1.67,2.37,2.37,0,0,0-.38-1,1.69,1.69,0,0,0-.56-.45,2.87,2.87,0,0,0-1.83,0,1.69,1.69,0,0,0-.56.45,2.37,2.37,0,0,0-.38,1,10.88,10.88,0,0,0-.1,1.67V10a11.11,11.11,0,0,0,.1,1.68,2.27,2.27,0,0,0,.38,1,1.79,1.79,0,0,0,.56.44A2.08,2.08,0,0,0,128.65,13.31Z"/><path class="cls-1" d="M136.13,18.21l.69-1.46c.23-.49.44-1,.65-1.49a1.87,1.87,0,0,1-.77-.45,2.63,2.63,0,0,1-.57-1c-.41-1.16-.85-2.52-1.31-4s-.9-3.16-1.33-4.86q-.11-.51.51-.51h1.49a.55.55,0,0,1,.62.46c.3,1.36.64,2.73,1,4.11s.75,2.71,1.16,4h.09c.55-1.63,1-3.15,1.35-4.57s.59-2.6.75-3.55a.55.55,0,0,1,.62-.46h1.47c.41,0,.58.17.5.51a69.43,69.43,0,0,1-1.83,6.84A69.76,69.76,0,0,1,138.39,19c-.12.26-.26.39-.44.39a1.24,1.24,0,0,1-.51-.11l-1.07-.44a.59.59,0,0,1-.3-.24A.51.51,0,0,1,136.13,18.21Z"/></g></g></svg>