<svg xmlns="http://www.w3.org/2000/svg" viewBox="0 0 148.27 24.61"><defs><style>.cls-1{fill:#0030a3;}</style></defs><g id="Capa_2" data-name="Capa 2"><g id="Diseño"><path class="cls-1" d="M6.32,3a13.18,13.18,0,0,1,7.2,1.66C15.2,5.7,16,7.52,16,10.05s-.84,4.33-2.54,5.45-4.1,1.67-7.26,1.67H4.72v7H0V3.49A29.38,29.38,0,0,1,3.29,3.1a28.33,28.33,0,0,1,3-.14m.26,4c-.3,0-.67,0-1,.06s-.64,0-.9,0v6.08h1.5a7.57,7.57,0,0,0,3.69-.71A2.47,2.47,0,0,0,11.17,10a2.82,2.82,0,0,0-.35-1.5,2.36,2.36,0,0,0-.89-.92,3.94,3.94,0,0,0-1.44-.48A11.75,11.75,0,0,0,6.58,7"/><path class="cls-1" d="M28.52,12.27A14.21,14.21,0,0,0,27.08,12a7.6,7.6,0,0,0-1.76-.19c-.28,0-.62,0-1,.08s-.67.11-.88.16V24.18H18.9V9.09c.81-.27,1.77-.54,2.85-.79a17.57,17.57,0,0,1,3.68-.37l.9,0,1,.14c.35.07.69.1,1.05.16a5.12,5.12,0,0,1,.88.27Z"/><path class="cls-1" d="M46,16.18a9.74,9.74,0,0,1-.55,3.44,8.05,8.05,0,0,1-1.57,2.69A7.42,7.42,0,0,1,41.39,24a8.3,8.3,0,0,1-3.25.6A8.19,8.19,0,0,1,35,24a7.78,7.78,0,0,1-2.47-1.7,8.09,8.09,0,0,1-1.59-2.69,9.51,9.51,0,0,1-.57-3.44,9.63,9.63,0,0,1,.57-3.4,7.71,7.71,0,0,1,1.65-2.62A7.53,7.53,0,0,1,35,8.44a8.32,8.32,0,0,1,3.13-.62,8.46,8.46,0,0,1,3.18.62,7.94,7.94,0,0,1,2.48,1.72,7.45,7.45,0,0,1,1.59,2.62,9.86,9.86,0,0,1,.58,3.4m-4.61,0a5.49,5.49,0,0,0-.83-3.27,2.7,2.7,0,0,0-2.39-1.19,2.75,2.75,0,0,0-2.36,1.19,5.64,5.64,0,0,0-.86,3.27,6,6,0,0,0,.86,3.36,2.75,2.75,0,0,0,2.36,1.2,2.71,2.71,0,0,0,2.39-1.2,5.86,5.86,0,0,0,.83-3.36"/><path class="cls-1" d="M49,4.29l4.48-.75v4.7h5.45V12H53.49v5.63A4.36,4.36,0,0,0,54,19.87a2.11,2.11,0,0,0,2,.87,9.72,9.72,0,0,0,1.48-.14,12.14,12.14,0,0,0,1.42-.38l.62,3.5a10.2,10.2,0,0,1-1.84.59,9.63,9.63,0,0,1-2.41.24,8,8,0,0,1-3.08-.5,4.84,4.84,0,0,1-1.94-1.36,6,6,0,0,1-1-2.2A14.29,14.29,0,0,1,49,17.67Z"/><path class="cls-1" d="M60.92,16.35a9.94,9.94,0,0,1,.65-3.7A7.42,7.42,0,0,1,63.29,10a6.65,6.65,0,0,1,2.46-1.64,7.93,7.93,0,0,1,2.83-.57A7,7,0,0,1,73.9,9.91c1.32,1.38,2,3.41,2,6.12,0,.24,0,.54,0,.85s0,.6,0,.84H65.56a2.89,2.89,0,0,0,1.32,2.18,5.07,5.07,0,0,0,3.08.84,11.42,11.42,0,0,0,2.42-.25,8.74,8.74,0,0,0,2-.55L75,23.59A5,5,0,0,1,74,24a11.45,11.45,0,0,1-1.31.31c-.52.11-1.06.17-1.61.24a16.66,16.66,0,0,1-1.72.09A9.68,9.68,0,0,1,65.61,24,7.12,7.12,0,0,1,63,22.23a7.75,7.75,0,0,1-1.53-2.61,10.52,10.52,0,0,1-.51-3.27M71.5,14.62a3.24,3.24,0,0,0-.19-1.11,2.35,2.35,0,0,0-.5-1,2.46,2.46,0,0,0-.89-.71,3.44,3.44,0,0,0-1.3-.26,3.73,3.73,0,0,0-1.32.26,2.8,2.8,0,0,0-.89.69,3.23,3.23,0,0,0-.56,1,5.46,5.46,0,0,0-.29,1.14Z"/><path class="cls-1" d="M78.31,16.22A9.73,9.73,0,0,1,78.86,13a7.57,7.57,0,0,1,4.2-4.44,8.15,8.15,0,0,1,3.47-.71,12.23,12.23,0,0,1,2.32.24,10.9,10.9,0,0,1,2.05.66l-1,3.6a6.93,6.93,0,0,0-1.39-.41,5.88,5.88,0,0,0-1.68-.19,3.6,3.6,0,0,0-3,1.23,5.18,5.18,0,0,0-1,3.27,5.28,5.28,0,0,0,.93,3.33,3.83,3.83,0,0,0,3.23,1.19,12.28,12.28,0,0,0,1.74-.15,6.91,6.91,0,0,0,1.7-.48l.67,3.71a15.81,15.81,0,0,1-2,.55,13.92,13.92,0,0,1-2.62.24A10.2,10.2,0,0,1,82.84,24a7.35,7.35,0,0,1-2.59-1.77,7.56,7.56,0,0,1-1.47-2.65,11.7,11.7,0,0,1-.47-3.33"/><path class="cls-1" d="M92.38,16.22A9.25,9.25,0,0,1,92.94,13a8,8,0,0,1,1.62-2.66,7.4,7.4,0,0,1,2.59-1.78,8,8,0,0,1,3.44-.71,11.86,11.86,0,0,1,2.34.24,10.81,10.81,0,0,1,2,.66l-.92,3.6a8,8,0,0,0-1.41-.41,5.81,5.81,0,0,0-1.67-.19A3.61,3.61,0,0,0,98,13a5,5,0,0,0-1,3.27,5.34,5.34,0,0,0,.9,3.33,4,4,0,0,0,3.26,1.19,12.4,12.4,0,0,0,1.74-.15,7.57,7.57,0,0,0,1.73-.48l.63,3.71a14.67,14.67,0,0,1-2,.55,14,14,0,0,1-2.6.24A10.05,10.05,0,0,1,96.94,24a6.85,6.85,0,0,1-2.59-1.77,7,7,0,0,1-1.5-2.65,11.35,11.35,0,0,1-.47-3.33"/><path class="cls-1" d="M112.92,3.67a2.44,2.44,0,0,1-.83,1.93,2.66,2.66,0,0,1-1.86.72,2.72,2.72,0,0,1-1.9-.72,2.43,2.43,0,0,1-.78-1.93,2.48,2.48,0,0,1,.78-1.95,2.63,2.63,0,0,1,1.9-.72,2.57,2.57,0,0,1,1.86.72,2.48,2.48,0,0,1,.83,2m-.41,20.51H108V8.24h4.52Z"/><path class="cls-1" d="M131.33,16.18a10.74,10.74,0,0,1-.55,3.44,7.73,7.73,0,0,1-1.57,2.69,7.89,7.89,0,0,1-2.47,1.7,8.46,8.46,0,0,1-3.24.6,8.1,8.1,0,0,1-3.17-.6,8.19,8.19,0,0,1-2.51-1.7,8.63,8.63,0,0,1-1.59-2.69,10.47,10.47,0,0,1-.56-3.44,10.11,10.11,0,0,1,.58-3.4,7.67,7.67,0,0,1,1.63-2.62,7.85,7.85,0,0,1,2.51-1.72,8.1,8.1,0,0,1,3.11-.62,8.46,8.46,0,0,1,3.18.62,7.46,7.46,0,0,1,2.47,1.72,7.29,7.29,0,0,1,1.58,2.62,9.64,9.64,0,0,1,.6,3.4m-4.1-13.65-5,4.21L120.2,4.88,124.47,0Zm-.49,13.65a5.56,5.56,0,0,0-.85-3.27,2.76,2.76,0,0,0-2.39-1.19,2.85,2.85,0,0,0-2.39,1.19,5.64,5.64,0,0,0-.84,3.27,6,6,0,0,0,.84,3.36,2.86,2.86,0,0,0,2.39,1.2,2.77,2.77,0,0,0,2.39-1.2,5.93,5.93,0,0,0,.85-3.36"/><path class="cls-1" d="M134.51,8.82a18,18,0,0,1,3-.62,22.56,22.56,0,0,1,3.83-.28,9.38,9.38,0,0,1,3.38.52,5,5,0,0,1,2.13,1.49,6.12,6.12,0,0,1,1.12,2.32,12.72,12.72,0,0,1,.35,2.93v9h-4.54V15.74a5.76,5.76,0,0,0-.58-3.09,2.31,2.31,0,0,0-2.15-.92,9.54,9.54,0,0,0-1,.07,9.87,9.87,0,0,0-1,.11V24.18h-4.47Z"/></g></g></svg>