<svg xmlns="http://www.w3.org/2000/svg" viewBox="0 0 219.68 187.14"><defs><style>.cls-1{fill:#4ec3e0;}.cls-2{fill:#e3e829;}.cls-3{fill:#0033a0;}.cls-4{fill:#fff;}</style></defs><g id="Capa_2" data-name="Capa 2"><g id="Diseño"><path class="cls-1" d="M4.61,100s-28.42,54.53,55.89,73.82,119.67,24.6,148.32-32.65S202.41,78,184,53.33,45.46-75.86,4.61,100Z"/><path class="cls-2" d="M71.55,15.4a.72.72,0,0,0-.72.72v5.79a.72.72,0,0,0,1.44,0V16.12A.72.72,0,0,0,71.55,15.4ZM61.32,19.64a.71.71,0,0,0-.51.21.72.72,0,0,0,0,1L64.9,25a.72.72,0,0,0,1-1l-4.09-4.09A.73.73,0,0,0,61.32,19.64Zm20.46,0a.73.73,0,0,0-.51.21l-4.09,4.09a.72.72,0,1,0,1,1l4.09-4.09a.72.72,0,0,0,0-1A.71.71,0,0,0,81.78,19.64ZM71.55,25.53a5.07,5.07,0,1,0,5.06,5.06A5.07,5.07,0,0,0,71.55,25.53Zm0,1.44a3.62,3.62,0,1,1-3.62,3.62A3.61,3.61,0,0,1,71.55,27Zm-14.47,2.9a.72.72,0,0,0,0,1.44h5.79a.72.72,0,0,0,0-1.44Zm23.15,0a.72.72,0,0,0,0,1.44H86a.72.72,0,0,0,0-1.44ZM65.41,36a.73.73,0,0,0-.51.21l-4.09,4.09a.72.72,0,0,0,1,1l4.09-4.09a.72.72,0,0,0,0-1A.71.71,0,0,0,65.41,36Zm12.28,0a.71.71,0,0,0-.51.21.72.72,0,0,0,0,1l4.09,4.09a.72.72,0,0,0,1-1L78.2,36.22A.73.73,0,0,0,77.69,36Zm-6.14,2.54a.72.72,0,0,0-.72.72v5.79a.72.72,0,0,0,1.44,0V39.27A.72.72,0,0,0,71.55,38.55Z"/><path class="cls-3" d="M63.1,62c0,.21,0,.35-.1.4a.7.7,0,0,1-.43.09H61.14a.68.68,0,0,1-.43-.09c-.07,0-.1-.19-.1-.4V57H55.79v5c0,.21,0,.35-.1.4a.68.68,0,0,1-.43.09H53.84a.72.72,0,0,1-.44-.09.57.57,0,0,1-.1-.4V50.22a.62.62,0,0,1,.1-.41.82.82,0,0,1,.44-.08h1.42a.78.78,0,0,1,.43.08c.07.06.1.2.1.41V55h4.82V50.22c0-.21,0-.35.1-.41a.78.78,0,0,1,.43-.08h1.43a.8.8,0,0,1,.43.08c.07.06.1.2.1.41Z"/><path class="cls-3" d="M69.38,52.65a5.44,5.44,0,0,1,1.89.29,3.2,3.2,0,0,1,1.25.87,3.71,3.71,0,0,1,.78,1.53,8.4,8.4,0,0,1,.23,2V58a8.42,8.42,0,0,1-.23,2,3.61,3.61,0,0,1-.78,1.52,3.36,3.36,0,0,1-1.26.86,6,6,0,0,1-3.76,0,3.36,3.36,0,0,1-1.26-.86A3.61,3.61,0,0,1,65.46,60a8.42,8.42,0,0,1-.23-2v-.59a8.4,8.4,0,0,1,.23-2,3.71,3.71,0,0,1,.78-1.53,3.2,3.2,0,0,1,1.25-.87A5.44,5.44,0,0,1,69.38,52.65Zm0,8.16a2,2,0,0,0,.82-.14,1.48,1.48,0,0,0,.5-.4,2,2,0,0,0,.35-.92,10,10,0,0,0,.09-1.49v-.41A9.81,9.81,0,0,0,71.05,56a2,2,0,0,0-.35-.91,1.3,1.3,0,0,0-.5-.41,2.19,2.19,0,0,0-.82-.13,2.15,2.15,0,0,0-.82.13,1.3,1.3,0,0,0-.5.41,2,2,0,0,0-.35.91,9.81,9.81,0,0,0-.09,1.48v.41a10,10,0,0,0,.09,1.49,2,2,0,0,0,.35.92,1.48,1.48,0,0,0,.5.4A2,2,0,0,0,69.38,60.81Z"/><path class="cls-3" d="M76.9,65.17l.63-1.3c.2-.44.39-.88.58-1.33a1.65,1.65,0,0,1-.69-.4,2.37,2.37,0,0,1-.52-.92c-.36-1-.76-2.24-1.17-3.61s-.81-2.82-1.2-4.33c-.06-.3.09-.45.46-.45h1.34c.32,0,.5.13.55.41.28,1.21.58,2.43.91,3.65s.68,2.42,1,3.58h.08c.5-1.45.9-2.81,1.21-4.07s.54-2.32.68-3.16a.49.49,0,0,1,.56-.41h1.32q.56,0,.45.45a61.17,61.17,0,0,1-1.64,6.09,60.46,60.46,0,0,1-2.56,6.47c-.11.24-.24.36-.4.36a1.31,1.31,0,0,1-.45-.1l-1-.4a.56.56,0,0,1-.27-.21A.44.44,0,0,1,76.9,65.17Z"/><path class="cls-3" d="M97,59a5.49,5.49,0,0,1-.21,1.69,2.45,2.45,0,0,1-.68,1,3.43,3.43,0,0,1-1.29.68,6.6,6.6,0,0,1-2,.25A6.81,6.81,0,0,1,91,62.47a3,3,0,0,1-1.2-.62,3,3,0,0,1-.89-1.45,8.29,8.29,0,0,1-.27-2.3v-.81a7.43,7.43,0,0,1,.27-2.21,3.55,3.55,0,0,1,.85-1.42,4,4,0,0,1,3-1,3.53,3.53,0,0,1,1.06.14,3.11,3.11,0,0,1,.82.35h0V49.63a.56.56,0,0,1,.11-.4.72.72,0,0,1,.44-.1h1.25a.72.72,0,0,1,.44.1.56.56,0,0,1,.11.4ZM94.62,56.3a2.84,2.84,0,0,0-.11-.89,1.16,1.16,0,0,0-.28-.45,1.72,1.72,0,0,0-.53-.31,2.48,2.48,0,0,0-.8-.11,2.17,2.17,0,0,0-.86.15,1.34,1.34,0,0,0-.56.43,1.83,1.83,0,0,0-.41.89A9.51,9.51,0,0,0,91,57.35V58a9,9,0,0,0,.09,1.46,1.8,1.8,0,0,0,.38.85,1.15,1.15,0,0,0,.53.4,2.39,2.39,0,0,0,.83.12,2.93,2.93,0,0,0,.89-.11,1.36,1.36,0,0,0,.53-.33,1.08,1.08,0,0,0,.3-.58,4.48,4.48,0,0,0,.08-.88Z"/><path class="cls-3" d="M106.77,58.22a.69.69,0,0,1-.11.44.55.55,0,0,1-.43.13H101.3a2.08,2.08,0,0,0,.49,1.58,1.51,1.51,0,0,0,.61.29,4.76,4.76,0,0,0,1.13.11,5.75,5.75,0,0,0,1.1-.12,5.11,5.11,0,0,0,1-.3.53.53,0,0,1,.32,0c.09,0,.17.15.23.36l.26.95a.41.41,0,0,1,0,.33.67.67,0,0,1-.35.22,7.83,7.83,0,0,1-1.37.37,7.45,7.45,0,0,1-1.49.14,6.68,6.68,0,0,1-2-.25,3,3,0,0,1-1.32-.76,3.21,3.21,0,0,1-.8-1.49,9.53,9.53,0,0,1-.22-2.26v-.53a9.11,9.11,0,0,1,.2-2.06,3.82,3.82,0,0,1,.68-1.48,3.09,3.09,0,0,1,1.26-.9,5.38,5.38,0,0,1,1.92-.3,4.88,4.88,0,0,1,1.66.23,3.18,3.18,0,0,1,1.13.66,2.28,2.28,0,0,1,.42.5,2.86,2.86,0,0,1,.32.68,6.37,6.37,0,0,1,.2.92,10.77,10.77,0,0,1,.07,1.23Zm-3.88-3.7a1.48,1.48,0,0,0-1.12.4,1.56,1.56,0,0,0-.4.79,6.13,6.13,0,0,0-.11,1.22h2.9a.24.24,0,0,0,.26-.27,6.49,6.49,0,0,0-.08-1.09,1.44,1.44,0,0,0-.3-.67,1.06,1.06,0,0,0-.43-.29A2.3,2.3,0,0,0,102.89,54.52Z"/><path class="cls-3" d="M111.6,62.68a8.7,8.7,0,0,1-1.58-.15,6.8,6.8,0,0,1-1.44-.42c-.18-.07-.29-.14-.32-.22a.58.58,0,0,1,0-.37l.21-1c.08-.32.27-.42.56-.3a7,7,0,0,0,1.19.37,5.23,5.23,0,0,0,2,.1,1.36,1.36,0,0,0,.49-.19.86.86,0,0,0,.34-.77v-.14a.77.77,0,0,0-.27-.67,2.8,2.8,0,0,0-.88-.36l-1.18-.27a4.26,4.26,0,0,1-1.09-.37,2.37,2.37,0,0,1-.65-.52,2.59,2.59,0,0,1-.6-1.82v-.18a3.15,3.15,0,0,1,.23-1.3,2.29,2.29,0,0,1,.64-.83,2.69,2.69,0,0,1,1-.49,6.59,6.59,0,0,1,1.62-.16,9.26,9.26,0,0,1,1.49.12,6.71,6.71,0,0,1,1.16.27c.14.06.23.11.25.17a.52.52,0,0,1,0,.31l-.23,1.1c0,.15-.09.24-.17.27a.54.54,0,0,1-.33,0,6.05,6.05,0,0,0-.89-.22,6.5,6.5,0,0,0-1-.1,2.37,2.37,0,0,0-1.23.22.72.72,0,0,0-.27.63v.14a.67.67,0,0,0,.27.62,2.37,2.37,0,0,0,.73.27l1.23.28a3.45,3.45,0,0,1,2,1.06,2.31,2.31,0,0,1,.34.73,4.15,4.15,0,0,1,.1.91v.24a2.85,2.85,0,0,1-.79,2.13A4.14,4.14,0,0,1,111.6,62.68Z"/><path class="cls-3" d="M124.7,58.22a.69.69,0,0,1-.11.44.51.51,0,0,1-.42.13h-4.94a2.12,2.12,0,0,0,.49,1.58,1.58,1.58,0,0,0,.61.29,4.76,4.76,0,0,0,1.13.11,5.67,5.67,0,0,0,1.1-.12,4.92,4.92,0,0,0,1-.3.54.54,0,0,1,.32,0c.09,0,.17.15.23.36l.26.95a.41.41,0,0,1,0,.33.64.64,0,0,1-.34.22,7.71,7.71,0,0,1-1.38.37,7.45,7.45,0,0,1-1.49.14,6.68,6.68,0,0,1-2-.25,3,3,0,0,1-1.32-.76,3.3,3.3,0,0,1-.8-1.49,9.53,9.53,0,0,1-.22-2.26v-.53a9.07,9.07,0,0,1,.21-2.06,3.55,3.55,0,0,1,.68-1.48A3,3,0,0,1,119,53a5.4,5.4,0,0,1,1.93-.3,4.82,4.82,0,0,1,1.65.23,3.09,3.09,0,0,1,1.13.66,2.63,2.63,0,0,1,.43.5,2.85,2.85,0,0,1,.31.68,5.26,5.26,0,0,1,.2.92,8.88,8.88,0,0,1,.07,1.23Zm-3.87-3.7a1.51,1.51,0,0,0-1.13.4,1.63,1.63,0,0,0-.39.79,5.41,5.41,0,0,0-.12,1.22h2.9a.24.24,0,0,0,.26-.27,6.49,6.49,0,0,0-.08-1.09,1.26,1.26,0,0,0-.3-.67,1.06,1.06,0,0,0-.43-.29A2.23,2.23,0,0,0,120.83,54.52Z"/><path class="cls-3" d="M132.1,61.67a1.77,1.77,0,0,1-.78.75,3,3,0,0,1-1.39.26h-.73a4.51,4.51,0,0,1-1.27-.15,2.44,2.44,0,0,1-.9-.48,2.14,2.14,0,0,1-.64-.94,3.6,3.6,0,0,1-.21-1.27v-.46a2.84,2.84,0,0,1,.83-2.29,2.68,2.68,0,0,1,1.16-.56,7.75,7.75,0,0,1,1.72-.17h1.28l.54,0v-.53a1.24,1.24,0,0,0-.34-1,1.36,1.36,0,0,0-.52-.22,4.53,4.53,0,0,0-.84-.06,8.67,8.67,0,0,0-1.18.1,9.52,9.52,0,0,0-1.25.28c-.16,0-.27,0-.34,0a.44.44,0,0,1-.15-.31l-.18-.92a.74.74,0,0,1,0-.39c0-.09.13-.15.31-.21a10.44,10.44,0,0,1,1.37-.32,8.94,8.94,0,0,1,1.61-.15,7.67,7.67,0,0,1,1.7.15,3.63,3.63,0,0,1,1.14.48,2.14,2.14,0,0,1,.78,1,4.27,4.27,0,0,1,.25,1.65v6.24c0,.25-.14.37-.42.37h-.9a.42.42,0,0,1-.48-.35l-.12-.48Zm-.39-3.39a4.8,4.8,0,0,0-.55,0h-1.29a2.8,2.8,0,0,0-.6,0,.81.81,0,0,0-.42.18,1.22,1.22,0,0,0-.3,1v.24a1.12,1.12,0,0,0,.3.89,1,1,0,0,0,.32.17,2,2,0,0,0,.54.07h.72a1.28,1.28,0,0,0,1-.32,1.43,1.43,0,0,0,.3-1Z"/><path class="cls-3" d="M150,62a.56.56,0,0,1-.11.4.75.75,0,0,1-.45.09h-1.24a.74.74,0,0,1-.44-.09.52.52,0,0,1-.11-.4V56.5a4.65,4.65,0,0,0-.08-.93,1.27,1.27,0,0,0-.3-.59,1.21,1.21,0,0,0-.49-.33,2.42,2.42,0,0,0-.79-.11,2.08,2.08,0,0,0-1.66.76,11.73,11.73,0,0,1,.06,1.32V62a.56.56,0,0,1-.11.4.75.75,0,0,1-.45.09h-1.24a.74.74,0,0,1-.44-.09A.52.52,0,0,1,142,62V56.5a4,4,0,0,0-.09-1,1.23,1.23,0,0,0-.33-.59,1.3,1.3,0,0,0-.49-.32,2.42,2.42,0,0,0-.75-.1,1.79,1.79,0,0,0-1.26.36,1.07,1.07,0,0,0-.31.46,2.78,2.78,0,0,0-.11.9V62a.56.56,0,0,1-.11.4.74.74,0,0,1-.44.09h-1.25a.74.74,0,0,1-.44-.09.56.56,0,0,1-.11-.4V53.28c0-.3.16-.45.47-.45h.73a.67.67,0,0,1,.37.07.41.41,0,0,1,.15.28l.1.48h.06a3.18,3.18,0,0,1,1.12-.74,3.86,3.86,0,0,1,1.48-.27,4.29,4.29,0,0,1,1.64.29,2.91,2.91,0,0,1,1.11.81,4.53,4.53,0,0,1,3-1.1,3.46,3.46,0,0,1,2.53.83A3.94,3.94,0,0,1,150,56.4Z"/><path class="cls-3" d="M156,52.65a5.44,5.44,0,0,1,1.89.29,3.2,3.2,0,0,1,1.25.87,3.71,3.71,0,0,1,.78,1.53,8.4,8.4,0,0,1,.23,2V58a8.42,8.42,0,0,1-.23,2,3.61,3.61,0,0,1-.78,1.52,3.36,3.36,0,0,1-1.26.86,6,6,0,0,1-3.76,0,3.36,3.36,0,0,1-1.26-.86,3.61,3.61,0,0,1-.78-1.52,8.42,8.42,0,0,1-.23-2v-.59a8.4,8.4,0,0,1,.23-2,3.71,3.71,0,0,1,.78-1.53,3.2,3.2,0,0,1,1.25-.87A5.44,5.44,0,0,1,156,52.65Zm0,8.16a2,2,0,0,0,.82-.14,1.48,1.48,0,0,0,.5-.4,2,2,0,0,0,.35-.92,10,10,0,0,0,.09-1.49v-.41a9.81,9.81,0,0,0-.09-1.48,2,2,0,0,0-.35-.91,1.3,1.3,0,0,0-.5-.41,2.65,2.65,0,0,0-1.64,0,1.3,1.3,0,0,0-.5.41,2,2,0,0,0-.35.91,9.81,9.81,0,0,0-.09,1.48v.41a10,10,0,0,0,.09,1.49,2,2,0,0,0,.35.92,1.48,1.48,0,0,0,.5.4A2,2,0,0,0,156,60.81Z"/><path class="cls-3" d="M165,62.68a8.61,8.61,0,0,1-1.58-.15,7.08,7.08,0,0,1-1.45-.42c-.18-.07-.29-.14-.32-.22a.67.67,0,0,1,0-.37l.22-1c.08-.32.26-.42.55-.3a7,7,0,0,0,1.19.37,5.23,5.23,0,0,0,2,.1,1.29,1.29,0,0,0,.49-.19.84.84,0,0,0,.34-.77v-.14a.77.77,0,0,0-.27-.67,2.8,2.8,0,0,0-.88-.36l-1.18-.27A4.26,4.26,0,0,1,163,58a2.37,2.37,0,0,1-.65-.52,2.64,2.64,0,0,1-.59-1.82v-.18a3.17,3.17,0,0,1,.22-1.3,2.31,2.31,0,0,1,.65-.83,2.58,2.58,0,0,1,1-.49,6.59,6.59,0,0,1,1.62-.16,9.26,9.26,0,0,1,1.49.12A6.71,6.71,0,0,1,168,53c.14.06.23.11.26.17a.77.77,0,0,1,0,.31l-.24,1.1c0,.15-.08.24-.17.27a.51.51,0,0,1-.32,0,6.79,6.79,0,0,0-.89-.22,6.5,6.5,0,0,0-1-.1,2.37,2.37,0,0,0-1.23.22.72.72,0,0,0-.27.63v.14a.67.67,0,0,0,.27.62,2.34,2.34,0,0,0,.74.27l1.22.28a3.45,3.45,0,0,1,2,1.06,2.31,2.31,0,0,1,.34.73,3.62,3.62,0,0,1,.1.91v.24a2.81,2.81,0,0,1-.79,2.13A4.12,4.12,0,0,1,165,62.68Z"/><path class="cls-3" d="M73.5,72.1a.32.32,0,0,1,.14-.25.86.86,0,0,1,.37-.06h.73q.48,0,.48.45V84.47a.55.55,0,0,1-.11.39.69.69,0,0,1-.45.1H73.42a.69.69,0,0,1-.45-.1.55.55,0,0,1-.11-.39V81a1.8,1.8,0,0,1-.8.48,3.83,3.83,0,0,1-1.35.21,3.66,3.66,0,0,1-3-1.09,5.67,5.67,0,0,1-.92-3.61v-.67a5.45,5.45,0,0,1,1-3.57,3.74,3.74,0,0,1,3-1.09,4,4,0,0,1,1.54.26,2.51,2.51,0,0,1,1,.71h0Zm-2.41,1.42a2.72,2.72,0,0,0-.86.11,1.52,1.52,0,0,0-.55.35,1.56,1.56,0,0,0-.38.86,10.5,10.5,0,0,0-.09,1.57v.45a11.47,11.47,0,0,0,.08,1.53,1.61,1.61,0,0,0,.34.84,1.12,1.12,0,0,0,.56.39,3.27,3.27,0,0,0,1.72,0,1.19,1.19,0,0,0,.56-.4,2.22,2.22,0,0,0,.39-1.46V75.46a4.48,4.48,0,0,0-.07-.88,1.42,1.42,0,0,0-.3-.6A1.88,1.88,0,0,0,71.09,73.52Z"/><path class="cls-3" d="M85.39,78.42A4,4,0,0,1,85.11,80a2.3,2.3,0,0,1-.85,1,3.59,3.59,0,0,1-1.23.48,7.75,7.75,0,0,1-1.57.15,7.91,7.91,0,0,1-1.61-.14A3.13,3.13,0,0,1,78.61,81a2.41,2.41,0,0,1-.84-1,3.81,3.81,0,0,1-.28-1.61V72.28c0-.2,0-.33.11-.39a.64.64,0,0,1,.44-.1h1.24a.69.69,0,0,1,.45.1.52.52,0,0,1,.11.39v5.91a2.37,2.37,0,0,0,.1.79,1.1,1.1,0,0,0,.33.43,1.28,1.28,0,0,0,.51.21,4.61,4.61,0,0,0,.68,0,4.72,4.72,0,0,0,.68,0,1.08,1.08,0,0,0,.5-.21A.84.84,0,0,0,83,79a2.72,2.72,0,0,0,.09-.79V72.28c0-.2,0-.33.1-.39a.69.69,0,0,1,.45-.1h1.24a.69.69,0,0,1,.45.1.52.52,0,0,1,.11.39Z"/><path class="cls-3" d="M95.08,77.18a.63.63,0,0,1-.11.44.51.51,0,0,1-.42.13H89.61a2.12,2.12,0,0,0,.5,1.58,1.51,1.51,0,0,0,.61.29,4.67,4.67,0,0,0,1.12.11A5.85,5.85,0,0,0,93,79.61a5.11,5.11,0,0,0,1-.3.5.5,0,0,1,.31,0c.1,0,.17.15.24.36l.26,1a.45.45,0,0,1,0,.33.67.67,0,0,1-.35.22,7.83,7.83,0,0,1-1.37.37,7.52,7.52,0,0,1-1.49.14,6.75,6.75,0,0,1-2-.25,3,3,0,0,1-1.31-.76,3.21,3.21,0,0,1-.8-1.49,9.47,9.47,0,0,1-.23-2.26v-.53a9.07,9.07,0,0,1,.21-2.06,3.82,3.82,0,0,1,.68-1.48,3.09,3.09,0,0,1,1.26-.9,5.38,5.38,0,0,1,1.92-.3,4.88,4.88,0,0,1,1.66.23,3.27,3.27,0,0,1,1.13.66,2.59,2.59,0,0,1,.42.5,2.86,2.86,0,0,1,.32.68,5.31,5.31,0,0,1,.19.92,8.88,8.88,0,0,1,.07,1.23Zm-3.87-3.7a1.48,1.48,0,0,0-1.12.4,1.56,1.56,0,0,0-.4.79,5.41,5.41,0,0,0-.12,1.22h2.91c.17,0,.25-.09.25-.27a5.58,5.58,0,0,0-.08-1.09,1.34,1.34,0,0,0-.29-.67,1.09,1.09,0,0,0-.44-.29A2.19,2.19,0,0,0,91.21,73.48Z"/><path class="cls-3" d="M104.41,71.79h2a.43.43,0,0,1,.34.1.81.81,0,0,1,.07.41v1a.71.71,0,0,1-.07.37.4.4,0,0,1-.34.12h-2v4.31a7,7,0,0,0,0,.77.77.77,0,0,0,.2.39.61.61,0,0,0,.34.21,2.79,2.79,0,0,0,.59,0h1c.21,0,.34,0,.39.11a.65.65,0,0,1,.08.4v1a.77.77,0,0,1-.07.39c0,.07-.18.1-.4.1h-1.42a6,6,0,0,1-1.41-.14,2.19,2.19,0,0,1-.9-.49,3.12,3.12,0,0,1-.75-2.37v-4.7h-1.19a.44.44,0,0,1-.31-.08.37.37,0,0,1-.08-.29v-.87a.32.32,0,0,1,.31-.42l1.27-.21V69.81c0-.2,0-.33.1-.39a.69.69,0,0,1,.45-.1h1.24a.69.69,0,0,1,.45.1.52.52,0,0,1,.11.39Z"/><path class="cls-3" d="M116.06,77.18a.69.69,0,0,1-.11.44.54.54,0,0,1-.43.13h-4.93a2.12,2.12,0,0,0,.49,1.58,1.58,1.58,0,0,0,.61.29,4.76,4.76,0,0,0,1.13.11,5.67,5.67,0,0,0,1.1-.12,4.92,4.92,0,0,0,1-.3.54.54,0,0,1,.32,0c.09,0,.17.15.23.36l.26,1a.41.41,0,0,1,0,.33.64.64,0,0,1-.34.22,8,8,0,0,1-1.38.37,7.45,7.45,0,0,1-1.49.14,6.68,6.68,0,0,1-2-.25,3,3,0,0,1-1.32-.76,3.3,3.3,0,0,1-.8-1.49,9.53,9.53,0,0,1-.22-2.26v-.53a9.72,9.72,0,0,1,.2-2.06,3.69,3.69,0,0,1,.69-1.48,3,3,0,0,1,1.25-.9,5.4,5.4,0,0,1,1.93-.3,4.82,4.82,0,0,1,1.65.23,3.18,3.18,0,0,1,1.13.66,2.63,2.63,0,0,1,.43.5,2.85,2.85,0,0,1,.31.68,5.26,5.26,0,0,1,.2.92,10.77,10.77,0,0,1,.07,1.23Zm-3.87-3.7a1.51,1.51,0,0,0-1.13.4,1.55,1.55,0,0,0-.39.79,5.41,5.41,0,0,0-.12,1.22h2.9a.24.24,0,0,0,.26-.27,6.49,6.49,0,0,0-.08-1.09,1.26,1.26,0,0,0-.3-.67,1.06,1.06,0,0,0-.43-.29A2.23,2.23,0,0,0,112.19,73.48Z"/><path class="cls-3" d="M126.11,81a.56.56,0,0,1-.11.4.74.74,0,0,1-.44.09h-1.25a.74.74,0,0,1-.44-.09.56.56,0,0,1-.11-.4V75.46a4,4,0,0,0-.09-.95,1.23,1.23,0,0,0-.85-.91,2.74,2.74,0,0,0-.78-.1,1.79,1.79,0,0,0-1.26.36,1.17,1.17,0,0,0-.31.46,2.78,2.78,0,0,0-.11.9V81a.52.52,0,0,1-.11.4.74.74,0,0,1-.44.09h-1.24a.75.75,0,0,1-.45-.09A.56.56,0,0,1,118,81V72.24q0-.45.48-.45h.73a.65.65,0,0,1,.36.07.41.41,0,0,1,.15.28l.1.48h.06a3.52,3.52,0,0,1,1-.73,4,4,0,0,1,1.64-.28,4.7,4.7,0,0,1,1.8.3,2.76,2.76,0,0,1,1.21,1,3.06,3.06,0,0,1,.43,1.21,9.58,9.58,0,0,1,.1,1.44Z"/><path class="cls-3" d="M132.39,71.61a2.54,2.54,0,0,1,1-1.35,3.19,3.19,0,0,1,1.78-.43h.7a.41.41,0,0,1,.3.09.49.49,0,0,1,.09.35v.81c0,.18,0,.29-.09.34a.47.47,0,0,1-.3.07h-.81a2,2,0,0,0-.66.07.71.71,0,0,0-.29.23,2.56,2.56,0,0,1,1.74,1.38,6.21,6.21,0,0,1,.43,2.49v.61a4.65,4.65,0,0,1-.32,1.87,3.13,3.13,0,0,1-.86,1.19,3.82,3.82,0,0,1,1.18,1.15,2.62,2.62,0,0,1,.42,1.46v.18a2.91,2.91,0,0,1-.24,1.29,2.75,2.75,0,0,1-.67.86,3.38,3.38,0,0,1-1.34.67,8.66,8.66,0,0,1-2.12.22,9.69,9.69,0,0,1-1.87-.2,13.71,13.71,0,0,1-1.9-.53.47.47,0,0,1-.34-.64l.28-.88a.44.44,0,0,1,.23-.3.4.4,0,0,1,.32,0,8.86,8.86,0,0,0,1.53.49,7.16,7.16,0,0,0,1.61.2,4.69,4.69,0,0,0,1.07-.1,1.44,1.44,0,0,0,.71-.35,1.06,1.06,0,0,0,.29-.45,2.31,2.31,0,0,0,.07-.56v-.14a1.71,1.71,0,0,0-.91-1.54l-.55.08a5.41,5.41,0,0,1-.74,0,6.4,6.4,0,0,1-1.74-.2,3.59,3.59,0,0,1-1.2-.61,2.87,2.87,0,0,1-.93-1.31,6,6,0,0,1-.27-1.91v-.61a5.63,5.63,0,0,1,.29-2,3,3,0,0,1,.95-1.27,3.19,3.19,0,0,1,1.26-.59,6.92,6.92,0,0,1,1.64-.18Zm-2,4.5a7.22,7.22,0,0,0,.07,1.14,1.86,1.86,0,0,0,.36.78,1.63,1.63,0,0,0,1.32.41,3,3,0,0,0,.82-.09,1.12,1.12,0,0,0,.53-.32,1.69,1.69,0,0,0,.33-.83,7.55,7.55,0,0,0,.08-1.09v-.35a7.73,7.73,0,0,0-.07-1.12,1.28,1.28,0,0,0-.34-.78,2,2,0,0,0-1.35-.39,3.35,3.35,0,0,0-.81.09,1,1,0,0,0-.51.3,1.69,1.69,0,0,0-.36.8,7.27,7.27,0,0,0-.07,1.1Z"/><path class="cls-3" d="M143.82,80.63a1.77,1.77,0,0,1-.78.75,3,3,0,0,1-1.39.26h-.73a4.51,4.51,0,0,1-1.27-.15,2.44,2.44,0,0,1-.9-.48,2.22,2.22,0,0,1-.64-.94,3.6,3.6,0,0,1-.21-1.27v-.46a2.84,2.84,0,0,1,.83-2.29,2.68,2.68,0,0,1,1.16-.56,7.75,7.75,0,0,1,1.72-.17h1.28l.54,0v-.53a1.24,1.24,0,0,0-.34-1,1.36,1.36,0,0,0-.52-.22,4.53,4.53,0,0,0-.84-.06,8.8,8.8,0,0,0-1.18.1,9.52,9.52,0,0,0-1.25.28c-.16,0-.27,0-.34,0a.44.44,0,0,1-.15-.31l-.18-.92a.74.74,0,0,1,0-.39c0-.09.14-.15.31-.21a10.84,10.84,0,0,1,1.37-.32,8.94,8.94,0,0,1,1.61-.15,7.67,7.67,0,0,1,1.7.15,3.63,3.63,0,0,1,1.14.48,2.14,2.14,0,0,1,.78,1,4.27,4.27,0,0,1,.25,1.65v6.24c0,.25-.14.37-.41.37h-.91a.43.43,0,0,1-.48-.35l-.12-.48Zm-.39-3.39a4.8,4.8,0,0,0-.55,0h-1.29a2.8,2.8,0,0,0-.6,0,.81.81,0,0,0-.42.18,1.22,1.22,0,0,0-.3,1v.24a1.12,1.12,0,0,0,.3.89,1,1,0,0,0,.32.17,2,2,0,0,0,.54.07h.72a1.28,1.28,0,0,0,1-.32,1.43,1.43,0,0,0,.3-1Z"/><path class="cls-3" d="M150.93,81.64a8.7,8.7,0,0,1-1.58-.15,6.8,6.8,0,0,1-1.44-.42c-.18-.07-.29-.14-.32-.22a.58.58,0,0,1,0-.37l.21-1c.08-.32.27-.42.56-.3a7,7,0,0,0,1.19.37,5.23,5.23,0,0,0,2,.1,1.29,1.29,0,0,0,.49-.19.84.84,0,0,0,.34-.77v-.14a.77.77,0,0,0-.27-.67,2.8,2.8,0,0,0-.88-.36L150,77.28a4.26,4.26,0,0,1-1.09-.37,2.37,2.37,0,0,1-.65-.52,2.59,2.59,0,0,1-.59-1.82v-.18a3.17,3.17,0,0,1,.22-1.3,2.29,2.29,0,0,1,.64-.83,2.69,2.69,0,0,1,1.05-.49,6.59,6.59,0,0,1,1.62-.16,9.26,9.26,0,0,1,1.49.12,6.71,6.71,0,0,1,1.16.27c.14.06.23.11.25.17a.52.52,0,0,1,0,.31l-.23,1.1c0,.15-.09.24-.17.27a.54.54,0,0,1-.33,0,6.21,6.21,0,0,0-.88-.22,6.62,6.62,0,0,0-1-.1,2.37,2.37,0,0,0-1.23.22.72.72,0,0,0-.27.63v.14a.67.67,0,0,0,.27.62,2.37,2.37,0,0,0,.73.27l1.23.28a3.45,3.45,0,0,1,2,1.06,2.31,2.31,0,0,1,.34.73,4.15,4.15,0,0,1,.1.91v.24a2.85,2.85,0,0,1-.79,2.13A4.13,4.13,0,0,1,150.93,81.64Z"/><path class="cls-3" d="M57.87,97.38A4,4,0,0,1,57.59,99a2.3,2.3,0,0,1-.85,1,3.59,3.59,0,0,1-1.23.48,7.75,7.75,0,0,1-1.57.15,8.7,8.7,0,0,1-1.61-.14,3.13,3.13,0,0,1-1.24-.49,2.41,2.41,0,0,1-.84-1A3.81,3.81,0,0,1,50,97.38V91.24a.52.52,0,0,1,.11-.4.74.74,0,0,1,.44-.09h1.24a.75.75,0,0,1,.45.09.56.56,0,0,1,.11.4v5.9a2,2,0,0,0,.11.79,1,1,0,0,0,.32.44,1.42,1.42,0,0,0,.52.21,4.36,4.36,0,0,0,.67,0,4.72,4.72,0,0,0,.68,0,1.2,1.2,0,0,0,.5-.21.83.83,0,0,0,.31-.44,2.63,2.63,0,0,0,.09-.79v-5.9a.57.57,0,0,1,.1-.4.8.8,0,0,1,.45-.09h1.24a.77.77,0,0,1,.45.09.56.56,0,0,1,.11.4Z"/><path class="cls-3" d="M68.23,99.93c0,.2,0,.33-.1.39a.69.69,0,0,1-.45.1H66.44a.69.69,0,0,1-.45-.1c-.07-.06-.1-.19-.1-.39V94.42a4.62,4.62,0,0,0-.09-1,1.23,1.23,0,0,0-.33-.59,1.33,1.33,0,0,0-.52-.32,2.85,2.85,0,0,0-.78-.1,1.8,1.8,0,0,0-1.27.36,1.15,1.15,0,0,0-.3.46,2.53,2.53,0,0,0-.11.9v5.75a.52.52,0,0,1-.11.39.67.67,0,0,1-.45.1H60.69a.66.66,0,0,1-.44-.1c-.08-.06-.11-.19-.11-.39V91.2c0-.3.16-.45.47-.45h.73a.83.83,0,0,1,.37.06.47.47,0,0,1,.15.29l.09.48H62a3.65,3.65,0,0,1,1-.73,4,4,0,0,1,1.65-.28,4.77,4.77,0,0,1,1.8.3,2.74,2.74,0,0,1,1.2,1,2.92,2.92,0,0,1,.44,1.21,11.13,11.13,0,0,1,.09,1.44Z"/><path class="cls-3" d="M82.93,96.93a5.49,5.49,0,0,1-.21,1.69,2.45,2.45,0,0,1-.68,1,3.43,3.43,0,0,1-1.29.68,6.6,6.6,0,0,1-2,.25,6.81,6.81,0,0,1-1.86-.21,2.91,2.91,0,0,1-1.2-.62,3,3,0,0,1-.89-1.45,8.29,8.29,0,0,1-.27-2.3v-.81A7.43,7.43,0,0,1,74.83,93a3.55,3.55,0,0,1,.85-1.42,4,4,0,0,1,3-1,3.58,3.58,0,0,1,1.06.14,3.26,3.26,0,0,1,.82.35h0V87.55a.52.52,0,0,1,.11-.4.72.72,0,0,1,.44-.1h1.25a.72.72,0,0,1,.44.1.56.56,0,0,1,.11.4Zm-2.35-2.71a2.84,2.84,0,0,0-.11-.89,1.06,1.06,0,0,0-.29-.45,1.67,1.67,0,0,0-.52-.31,2.48,2.48,0,0,0-.8-.11,2.17,2.17,0,0,0-.86.15,1.34,1.34,0,0,0-.56.43,1.83,1.83,0,0,0-.41.89,8,8,0,0,0-.09,1.34v.61a8.78,8.78,0,0,0,.1,1.46,1.85,1.85,0,0,0,.38.85,1.15,1.15,0,0,0,.53.4,2.42,2.42,0,0,0,.83.11,3,3,0,0,0,.89-.1,1.36,1.36,0,0,0,.53-.33,1.08,1.08,0,0,0,.3-.58,4.48,4.48,0,0,0,.08-.88Z"/><path class="cls-3" d="M88.42,86.22a.54.54,0,0,1,.35-.13.53.53,0,0,1,.26.23l.69,1a.59.59,0,0,1,.14.37q0,.15-.3.3l-3.19,1.76a.54.54,0,0,1-.41.09.58.58,0,0,1-.31-.23L85.24,89c-.18-.28-.18-.48,0-.61Zm-.71,13.71a.52.52,0,0,1-.11.39.67.67,0,0,1-.45.1H85.91a.66.66,0,0,1-.44-.1c-.08-.06-.11-.19-.11-.39V91.24a.52.52,0,0,1,.11-.4.74.74,0,0,1,.44-.09h1.24a.75.75,0,0,1,.45.09.56.56,0,0,1,.11.4Z"/><path class="cls-3" d="M95.59,99.59a1.88,1.88,0,0,1-.78.75,3.13,3.13,0,0,1-1.39.26h-.74a4.56,4.56,0,0,1-1.27-.15,2.44,2.44,0,0,1-.9-.48,2.22,2.22,0,0,1-.64-.94,3.6,3.6,0,0,1-.21-1.27V97.3A2.84,2.84,0,0,1,90.49,95a2.66,2.66,0,0,1,1.17-.56,7.62,7.62,0,0,1,1.72-.17h1.27l.54,0v-.53a1,1,0,0,0-.86-1.23,4.53,4.53,0,0,0-.84-.06,8.8,8.8,0,0,0-1.18.1,9.52,9.52,0,0,0-1.25.28.36.36,0,0,1-.34,0,.53.53,0,0,1-.15-.31l-.18-.93a.7.7,0,0,1,0-.38.45.45,0,0,1,.31-.21,9.66,9.66,0,0,1,1.37-.32,8.94,8.94,0,0,1,1.61-.15,7.67,7.67,0,0,1,1.7.15,3.55,3.55,0,0,1,1.15.48,2.28,2.28,0,0,1,.78,1,4.49,4.49,0,0,1,.24,1.65v6.24c0,.25-.14.37-.41.37h-.91a.43.43,0,0,1-.47-.35l-.12-.48Zm-.4-3.39a4.68,4.68,0,0,0-.55,0H93.36a2.84,2.84,0,0,0-.61,0,.85.85,0,0,0-.42.18,1.21,1.21,0,0,0-.3,1v.24a1.12,1.12,0,0,0,.3.89,1.35,1.35,0,0,0,.32.17,2,2,0,0,0,.55.06h.71a1.32,1.32,0,0,0,1-.31,1.49,1.49,0,0,0,.29-1Z"/><path class="cls-3" d="M106.59,97.8a.75.75,0,0,0,.13.5.54.54,0,0,0,.44.15h.59a.48.48,0,0,1,.37.1.55.55,0,0,1,.09.37v1a.55.55,0,0,1-.1.37.5.5,0,0,1-.36.1h-1.32a3.29,3.29,0,0,1-1-.11,1.59,1.59,0,0,1-.63-.36,1.77,1.77,0,0,1-.43-.74,3.94,3.94,0,0,1-.14-1.2V87.55a.52.52,0,0,1,.11-.4.72.72,0,0,1,.44-.1H106a.72.72,0,0,1,.44.1.56.56,0,0,1,.11.4Z"/><path class="cls-3" d="M112.22,97.8a.82.82,0,0,0,.12.5.58.58,0,0,0,.45.15h.59a.48.48,0,0,1,.37.1.55.55,0,0,1,.09.37v1a.55.55,0,0,1-.1.37.5.5,0,0,1-.36.1h-1.32a3.29,3.29,0,0,1-1-.11,1.53,1.53,0,0,1-.63-.36,1.9,1.9,0,0,1-.44-.74,4.34,4.34,0,0,1-.13-1.2V87.55a.57.57,0,0,1,.1-.4.76.76,0,0,1,.45-.1h1.24a.76.76,0,0,1,.45.1.56.56,0,0,1,.11.4Z"/><path class="cls-3" d="M122.94,96.14a.69.69,0,0,1-.11.44.51.51,0,0,1-.42.13h-4.94a2.12,2.12,0,0,0,.49,1.58,1.63,1.63,0,0,0,.62.29,4.67,4.67,0,0,0,1.12.11,5.85,5.85,0,0,0,1.11-.12,4.82,4.82,0,0,0,1-.3.47.47,0,0,1,.32,0q.13,0,.24.36l.25.94a.43.43,0,0,1,0,.34.64.64,0,0,1-.34.22,7.83,7.83,0,0,1-1.37.37,8.35,8.35,0,0,1-1.49.14,6.71,6.71,0,0,1-2-.25,3,3,0,0,1-1.31-.76,3.21,3.21,0,0,1-.8-1.49,9.47,9.47,0,0,1-.23-2.26v-.53a9.07,9.07,0,0,1,.21-2.06,3.68,3.68,0,0,1,.68-1.48,3,3,0,0,1,1.25-.9,5.43,5.43,0,0,1,1.93-.3,4.92,4.92,0,0,1,1.66.23,3.14,3.14,0,0,1,1.12.66,2.63,2.63,0,0,1,.43.5,2.85,2.85,0,0,1,.31.68,5.26,5.26,0,0,1,.2.92,8.88,8.88,0,0,1,.07,1.23Zm-3.87-3.7a1.51,1.51,0,0,0-1.13.4,1.63,1.63,0,0,0-.39.79,5.41,5.41,0,0,0-.12,1.22h2.9a.24.24,0,0,0,.26-.27,6.49,6.49,0,0,0-.08-1.09,1.34,1.34,0,0,0-.29-.67,1.09,1.09,0,0,0-.44-.29A2.23,2.23,0,0,0,119.07,92.44Z"/><path class="cls-3" d="M133,99.93c0,.2,0,.33-.11.39a.66.66,0,0,1-.44.1H131.2a.67.67,0,0,1-.45-.1.52.52,0,0,1-.11-.39V94.42a4,4,0,0,0-.09-1,1.21,1.21,0,0,0-.32-.59,1.3,1.3,0,0,0-.53-.32,2.74,2.74,0,0,0-.78-.1,1.79,1.79,0,0,0-1.26.36,1.29,1.29,0,0,0-.31.46,2.84,2.84,0,0,0-.1.9v5.75a.52.52,0,0,1-.11.39.69.69,0,0,1-.45.1h-1.24a.69.69,0,0,1-.45-.1.52.52,0,0,1-.11-.39V91.2q0-.45.48-.45h.73a.86.86,0,0,1,.37.06.42.42,0,0,1,.14.29l.1.48h.06a3.52,3.52,0,0,1,1-.73,4,4,0,0,1,1.65-.28,4.68,4.68,0,0,1,1.79.3,2.76,2.76,0,0,1,1.21,1,2.91,2.91,0,0,1,.43,1.21,9.58,9.58,0,0,1,.1,1.44Z"/><path class="cls-3" d="M139,90.57a5.38,5.38,0,0,1,1.88.29,3.17,3.17,0,0,1,1.26.87,3.83,3.83,0,0,1,.78,1.53,8.42,8.42,0,0,1,.22,2v.59a8.31,8.31,0,0,1-.22,2,3.89,3.89,0,0,1-.78,1.53,3.3,3.3,0,0,1-1.27.85,5.83,5.83,0,0,1-3.75,0,3.26,3.26,0,0,1-1.26-.85,3.65,3.65,0,0,1-.78-1.53,7.82,7.82,0,0,1-.23-2v-.59a7.93,7.93,0,0,1,.23-2,3.59,3.59,0,0,1,.78-1.53,3.06,3.06,0,0,1,1.25-.87A5.44,5.44,0,0,1,139,90.57Zm0,8.15a2,2,0,0,0,.82-.13,1.73,1.73,0,0,0,.5-.4,1.89,1.89,0,0,0,.34-.92,10,10,0,0,0,.09-1.49v-.41a9.81,9.81,0,0,0-.09-1.48,1.85,1.85,0,0,0-.34-.91,1.37,1.37,0,0,0-.5-.41,2.23,2.23,0,0,0-.82-.13,2.15,2.15,0,0,0-.82.13,1.4,1.4,0,0,0-.51.41,2,2,0,0,0-.34.91,9.81,9.81,0,0,0-.09,1.48v.41a10,10,0,0,0,.09,1.49,2,2,0,0,0,.34.92,1.77,1.77,0,0,0,.51.4A2,2,0,0,0,139,98.72Z"/><path class="cls-3" d="M157.56,96.93a5.49,5.49,0,0,1-.21,1.69,2.36,2.36,0,0,1-.68,1,3.43,3.43,0,0,1-1.29.68,6.56,6.56,0,0,1-2,.25,6.81,6.81,0,0,1-1.86-.21,3,3,0,0,1-1.2-.62,3,3,0,0,1-.89-1.45,8.29,8.29,0,0,1-.27-2.3v-.81a7.43,7.43,0,0,1,.27-2.21,3.55,3.55,0,0,1,.85-1.42,4,4,0,0,1,3-1,3.53,3.53,0,0,1,1.06.14,3.11,3.11,0,0,1,.82.35h0V87.55a.56.56,0,0,1,.11-.4.72.72,0,0,1,.44-.1H157a.72.72,0,0,1,.44.1.56.56,0,0,1,.11.4Zm-2.35-2.71a2.84,2.84,0,0,0-.11-.89,1.16,1.16,0,0,0-.28-.45,1.72,1.72,0,0,0-.53-.31,2.48,2.48,0,0,0-.8-.11,2.17,2.17,0,0,0-.86.15,1.41,1.41,0,0,0-.56.43,1.82,1.82,0,0,0-.4.89,8,8,0,0,0-.09,1.34v.61a7.81,7.81,0,0,0,.1,1.46,1.84,1.84,0,0,0,.37.85,1.21,1.21,0,0,0,.53.4,2.42,2.42,0,0,0,.83.11,2.94,2.94,0,0,0,.89-.1,1.48,1.48,0,0,0,.54-.33,1.14,1.14,0,0,0,.29-.58,4.48,4.48,0,0,0,.08-.88Z"/><path class="cls-3" d="M167.36,96.14a.69.69,0,0,1-.11.44.54.54,0,0,1-.43.13h-4.93a2.08,2.08,0,0,0,.49,1.58,1.58,1.58,0,0,0,.61.29,4.76,4.76,0,0,0,1.13.11,5.75,5.75,0,0,0,1.1-.12,5.11,5.11,0,0,0,1-.3.46.46,0,0,1,.32,0c.09,0,.17.15.23.36l.26.94a.43.43,0,0,1,0,.34.67.67,0,0,1-.35.22,7.6,7.6,0,0,1-1.37.37,8.26,8.26,0,0,1-1.49.14,6.68,6.68,0,0,1-2-.25,3,3,0,0,1-1.32-.76,3.21,3.21,0,0,1-.8-1.49,9.53,9.53,0,0,1-.22-2.26v-.53a9.11,9.11,0,0,1,.2-2.06,3.69,3.69,0,0,1,.69-1.48,3,3,0,0,1,1.25-.9,5.38,5.38,0,0,1,1.92-.3,4.84,4.84,0,0,1,1.66.23,3.18,3.18,0,0,1,1.13.66,2.28,2.28,0,0,1,.42.5,2.86,2.86,0,0,1,.32.68,5.26,5.26,0,0,1,.2.92,10.77,10.77,0,0,1,.07,1.23Zm-3.87-3.7a1.49,1.49,0,0,0-1.13.4,1.64,1.64,0,0,0-.4.79,6.13,6.13,0,0,0-.11,1.22h2.9a.24.24,0,0,0,.26-.27,6.49,6.49,0,0,0-.08-1.09,1.34,1.34,0,0,0-.3-.67,1.06,1.06,0,0,0-.43-.29A2.27,2.27,0,0,0,163.49,92.44Z"/><path class="cls-4" d="M34.2,116.88c0,.21-.14,1.91-.17,2.18s-.07.69-.09,1.1c-.11,1.73.08,3.82.42,4.1s1.56-.38,2.92-2.06c.84-1,1.58-2.18,2-2.76a.5.5,0,0,1,.7-.13.51.51,0,0,1,.13.69c-.38.56-1.14,1.73-2,2.82-1.12,1.39-2.9,3.39-4.34,2.21-.76-.62-.81-2.08-.82-3.36-.19.34-.39.68-.6,1-.9,1.38-2.2,2.9-3.72,2.45-1.16-.34-1.54-1.64-1.55-2.82a6.44,6.44,0,0,1,.86-3.26A5,5,0,0,1,32,116.3a2.85,2.85,0,0,1,1.34.4C33.66,116.34,34.2,116.47,34.2,116.88Zm-1.15.85a1.79,1.79,0,0,0-1.1-.43,4,4,0,0,0-3.2,2.25,5.52,5.52,0,0,0-.72,2.74c0,1.09.38,1.74.83,1.87.66.2,1.66-.59,2.61-2a15.66,15.66,0,0,0,1.2-2.27,3,3,0,0,0,.21-.61c0-.09.12-1,.17-1.51Z"/><path class="cls-4" d="M40.45,116.91c-.06.45-.13,1.28-.19,2.21.58-1.54,1.56-3.36,3.17-2.74,1.4.53,1.76,2,1.82,3.32a.58.58,0,0,1,0-.11c.79-1.5,2.06-3.46,3.72-2.78,1.36.55,1,2.51.93,3.87-.13,1.57-.12,2.87.42,3.3s1.15.17,2.05-.76a30.64,30.64,0,0,0,2.9-3.79.5.5,0,0,1,.82.57,29.79,29.79,0,0,1-3,3.91c-.89.93-2.21,1.81-3.4.85s-.9-2.73-.79-4.16c.14-1.71.08-2.71-.31-2.87-.63-.25-1.56.63-2.45,2.32a23.94,23.94,0,0,0-1.46,3.54.5.5,0,0,1-.58.34.51.51,0,0,1-.38-.63,13.31,13.31,0,0,0,.48-3.47c0-1.27-.38-2.21-1.17-2.52-.57-.21-1.29.51-1.94,2.31a28.52,28.52,0,0,0-1.21,5.09.51.51,0,0,1-.48.43.5.5,0,0,1-.52-.52s.3-6.11.53-7.84a.5.5,0,0,1,1,.13Z"/><path class="cls-4" d="M66.06,119.38a.52.52,0,0,1,.7,0,.5.5,0,0,1,0,.71,9.7,9.7,0,0,1-5.78,2c-.52,1.69-1.74,3.4-3.57,3.09-2.13-.37-2.66-2.88-2.27-5.1a8.78,8.78,0,0,1,.54-1.86.57.57,0,0,1,.42-.31,2.64,2.64,0,0,1,3.09-1.51c1.51.38,2.07,1.92,2.11,3.4a7,7,0,0,1-.09,1.28A8.83,8.83,0,0,0,66.06,119.38Zm-9.9.83c-.38,2.13.26,3.74,1.45,3.94,1,.16,1.85-.7,2.37-2.17a6.41,6.41,0,0,1-2.17-.7,3.64,3.64,0,0,1-1.57-1.47C56.21,120,56.18,120.08,56.16,120.21Zm4.17-.43c0-1.32-.52-2.24-1.35-2.45a1.65,1.65,0,0,0-1.86.78,1.27,1.27,0,0,0-.16.66c0,.48.32,1.09,1.33,1.63a5.42,5.42,0,0,0,1.94.61A6.51,6.51,0,0,0,60.33,119.78Z"/><path class="cls-4" d="M70.36,119.06a1.22,1.22,0,0,1,.89.3,1.19,1.19,0,0,1,.31.86c0,1.11-1.06,4.42.14,5.25.33.22,1.51,0,2.89-1.8a36.86,36.86,0,0,0,2.66-4.19.49.49,0,0,1,.67-.2.51.51,0,0,1,.21.68,38.46,38.46,0,0,1-2.74,4.31c-1.13,1.5-2.86,3-4.29,2-1.93-1.31-.54-5.18-.54-6a.37.37,0,0,0,0-.14c-.25-.08-1.55.34-3.1.34a2.76,2.76,0,0,1-1-.17l-.09,0a.62.62,0,0,1-.31-.16c-1.14-.77-1.06-2.32-.68-3.46.48-1.47,1.57-2.48,2.61-2.14s1.09,1.51.63,2.86q-.08.22-.18.48a6.48,6.48,0,0,1-1,1.63C68.58,119.41,69.57,119.07,70.36,119.06Zm-2.84-1.66c.06-.14.11-.28.16-.41.43-1.29,0-1.57,0-1.59s-.91.17-1.35,1.5a2.4,2.4,0,0,0,.12,2.17A5.28,5.28,0,0,0,67.52,117.4Z"/><path class="cls-4" d="M86,116.92c-.31,2.17-.57,6,.5,6.89a1.71,1.71,0,0,0,.61.35c2,.49,4.08-7,4.15-7.28a.51.51,0,0,1,.64-.36.49.49,0,0,1,.35.47s0,2.82-.26,7.13c2.69-2.52,5.09-4.4,5.54-4.78a.5.5,0,0,1,.64.76c-.52.44-3.15,2.51-6,5.25-.09.09-.19.18-.28.28s0,.27-.05.4a58,58,0,0,1-2.38,10.48c-1.24,3.51-3.5,5.7-5.3,5.1-1.6-.55-1.83-2.93-.62-6.48,1.09-3.22,4.1-6.72,7-9.64l.34-.33a1.94,1.94,0,0,0,0-.24l0-.32c.12-1.57.19-2.95.24-4.11-.8,2.12-2.31,5.44-4.58,4.55a2.57,2.57,0,0,1-.76-.47c-1.75-1.5-1.13-5.77-.84-7.8a.5.5,0,0,1,.56-.42A.52.52,0,0,1,86,116.92Zm-1.55,18.53c-1.24,3.65-.55,5,0,5.21.77.26,2.8-1,4-4.49a55.11,55.11,0,0,0,2.21-9.39C88,129.53,85.39,132.73,84.46,135.45Z"/><path class="cls-4" d="M105.09,118.78c.23-1.38.48-2.69.77-3.88.81-3.38,1.9-6.67,3.76-6.08,1.53.48,1.53,2,1.1,3.38a17.66,17.66,0,0,1-2.08,4c-1,1.51-2,2.83-2.51,3.47l-.22.28c-.13.86-.25,1.77-.35,2.68l.13,0,.33,0a19.81,19.81,0,0,0,4.22-1.21,11.48,11.48,0,0,0,3.61-2.06.49.49,0,0,1,.7,0,.51.51,0,0,1,0,.71,11.58,11.58,0,0,1-4,2.33,22.53,22.53,0,0,1-3.76,1.15c1.66,2,2.61,7,2.65,11.06,0,2.62-.27,5.09-1.57,5.9a1.77,1.77,0,0,1-2.61-.66c-1-1.58-1.3-4.77-1.3-8.54,0-2.49.17-5.23.45-7.93,0,0,0-.45.06-.48.11-1.06.24-2,.39-3a.85.85,0,0,1,0-.22C105,119.33,105,119.05,105.09,118.78ZM105,131.29c0,3.73.41,6.81,1.15,8,.38.6.66.7,1.23.34s1.12-2.37,1.1-5c0-4.34-1.33-9.71-2.78-10.78l-.17-.11h-.11C105.18,126.3,105,128.93,105,131.29Zm2.79-15.59a17.92,17.92,0,0,0,2-3.8c.41-1.3.24-1.91-.45-2.13-.44-.14-1.56,1.45-2.49,5.37-.21.86-.4,1.8-.58,2.78C106.72,117.29,107.28,116.51,107.81,115.7Z"/><path class="cls-4" d="M114.52,121.5a2.47,2.47,0,0,0,2.65,2.64,8.13,8.13,0,0,0,4.53-1.73,15.65,15.65,0,0,0,3.19-3,.52.52,0,0,1,.7-.09.51.51,0,0,1,.1.7,16.58,16.58,0,0,1-3.41,3.2,9,9,0,0,1-5.11,1.92,3.49,3.49,0,0,1-3.65-3.65c0-.27,0-.52,0-.76a4.56,4.56,0,0,1,4.2-4.38c1.47,0,2.55.82,2.54,2a2.57,2.57,0,0,1-1.35,2.08,8,8,0,0,1-4.43,1S114.52,121.47,114.52,121.5Zm3.9-1.93a1.58,1.58,0,0,0,.89-1.24c0-.43-.38-1-1.54-1a3.51,3.51,0,0,0-3.13,3A7,7,0,0,0,118.42,119.57Z"/><path class="cls-4" d="M124.81,118.69a44.84,44.84,0,0,1,.88-7.59,28.73,28.73,0,0,1,1.2-4.4c.49-1.28,1.18-2.81,2.33-2.37,1.9.72.68,5-.45,8.45a49.53,49.53,0,0,1-2.57,6.33c-.14.27-.27.52-.4.74a10.4,10.4,0,0,0,.56,3.62c.38.88.74.9,1.28.67,1.34-.58,3.22-3.3,3.94-4.65a.5.5,0,0,1,.67-.21.49.49,0,0,1,.21.67c-.75,1.43-2.59,4.32-4.42,5.11a1.88,1.88,0,0,1-2.6-1.19,11.31,11.31,0,0,1-.64-4.09v-.1C124.8,119.36,124.8,119,124.81,118.69Zm3-6.23c1.28-3.87,1.58-6.95,1.06-7.19-.44.16-1.52,2.61-2.21,6a46.15,46.15,0,0,0-.81,6.23C126.5,116.09,127.22,114.27,127.82,112.46Z"/><path class="cls-4" d="M132.83,116.9c-.31,3.11-.49,6.89.2,7.32s2-.38,3.28-1.89a17.91,17.91,0,0,0,1.93-2.86.5.5,0,0,1,.86.5,18.55,18.55,0,0,1-2,3c-1.15,1.36-3,3.07-4.57,2.1s-.95-5.49-.67-8.28a.5.5,0,0,1,.55-.44A.49.49,0,0,1,132.83,116.9Zm.24-2.61a.49.49,0,0,1,.28.59.52.52,0,0,1-.62.35,1,1,0,0,1-.7-1.17,1,1,0,0,1,.51-.61.51.51,0,0,1,.67.22A.52.52,0,0,1,133.07,114.29Z"/><path class="cls-4" d="M143.93,119.06a1.69,1.69,0,0,0,.08-.67c-.06-.68-.64-1.15-1.79-1a3.93,3.93,0,0,0-3.3,4.15c0,2.39,1.64,2.65,3.17,2.65s3.38-1.08,4.78-2.26a16.48,16.48,0,0,0,2.41-2.45.5.5,0,0,1,.7-.12.51.51,0,0,1,.11.7,16.27,16.27,0,0,1-2.58,2.64c-1.45,1.22-3.39,2.49-5.42,2.49-1.62,0-4.14-.45-4.17-3.64a4.92,4.92,0,0,1,4.21-5.15c1.44-.14,2.76.54,2.88,2a2.67,2.67,0,0,1-.12,1,.49.49,0,0,1-.61.34A.5.5,0,0,1,143.93,119.06Z"/><path class="cls-4" d="M150.51,116.9c-.32,3.11-.5,6.89.2,7.32s2-.38,3.28-1.89a18.25,18.25,0,0,0,1.92-2.86.5.5,0,1,1,.86.5,17.11,17.11,0,0,1-2,3c-1.15,1.36-3,3.07-4.57,2.1s-1-5.49-.67-8.28a.5.5,0,0,1,1,.11Zm.23-2.61a.48.48,0,0,1,.28.59.5.5,0,0,1-.61.35.93.93,0,0,1-.7-1.17,1,1,0,0,1,.5-.61.5.5,0,0,1,.53.84Z"/><path class="cls-4" d="M162,121.5a8.62,8.62,0,0,0,.42,2c.27.68.53.78.74.78a3.7,3.7,0,0,0,2-1.41,20.74,20.74,0,0,0,2.39-3.38.5.5,0,1,1,.86.5,21.15,21.15,0,0,1-2.5,3.55c-.8.89-1.73,1.76-2.76,1.74a1.91,1.91,0,0,1-1.65-1.41,6.68,6.68,0,0,1-.37-1.44c-1.14,1.76-2.81,3.47-4.49,2.37a2.34,2.34,0,0,1-.31-.24c-1.72-1.54-.95-4.83.66-6.58a3.59,3.59,0,0,1,3.84-1.17,58.89,58.89,0,0,1,.49-6.66c.38-2.81.88-5.89,2.41-5.78s1.47,2.38,1.33,4.24c-.06.75-.16,1.56-.28,2.38a52.1,52.1,0,0,1-1.44,6.54,19.54,19.54,0,0,1-1,2.71l-.36.75Zm-4.28-2.87c-1.44,1.57-1.77,4.24-.73,5.17a2.07,2.07,0,0,0,.27.2c.85.45,2.16-.59,3.41-2.79l.25-.45c0-.25,0-.51,0-.76,0-.67-.06-1.4-.06-2.14A2.52,2.52,0,0,0,157.72,118.63Zm4.66-1.4a54.4,54.4,0,0,0,1.4-6.41c.5-3.27.24-5.38-.11-5.47-.35.24-1,2.21-1.37,4.91a57.83,57.83,0,0,0-.49,7.07c0,.5,0,1,0,1.48C162,118.26,162.23,117.72,162.38,117.23Z"/><path class="cls-4" d="M174.08,116.88c0,.21-.13,1.91-.16,2.18s-.07.69-.09,1.1c-.11,1.73.08,3.82.41,4.1s1.57-.38,2.93-2.06c.84-1,1.58-2.18,2-2.76a.5.5,0,0,1,.7-.13.51.51,0,0,1,.13.69c-.39.56-1.15,1.73-2,2.82-1.11,1.39-2.9,3.39-4.33,2.21-.76-.62-.81-2.08-.83-3.36-.18.34-.38.68-.59,1-.9,1.38-2.2,2.9-3.72,2.45-1.16-.34-1.54-1.64-1.55-2.82a6.44,6.44,0,0,1,.86-3.26,4.94,4.94,0,0,1,4.09-2.74,2.79,2.79,0,0,1,1.34.4C173.54,116.34,174.08,116.47,174.08,116.88Zm-1.15.85a1.76,1.76,0,0,0-1.09-.43,4,4,0,0,0-3.2,2.25,5.52,5.52,0,0,0-.72,2.74c0,1.09.38,1.74.83,1.87.65.2,1.66-.59,2.6-2a14.83,14.83,0,0,0,1.21-2.27,3,3,0,0,0,.21-.61c0-.09.12-1,.17-1.51Z"/><path class="cls-4" d="M185.17,121.5a8.62,8.62,0,0,0,.42,2c.27.68.54.78.74.78a3.67,3.67,0,0,0,2-1.41,21,21,0,0,0,2.4-3.38.49.49,0,0,1,.68-.18.5.5,0,0,1,.18.68,22.1,22.1,0,0,1-2.51,3.55c-.8.89-1.73,1.76-2.76,1.74a1.92,1.92,0,0,1-1.65-1.41,8.09,8.09,0,0,1-.37-1.44c-1.13,1.76-2.8,3.47-4.49,2.37a2.34,2.34,0,0,1-.31-.24c-1.71-1.54-1-4.83.66-6.58a3.59,3.59,0,0,1,3.84-1.17,58.89,58.89,0,0,1,.49-6.66c.39-2.81.89-5.89,2.41-5.78s1.47,2.38,1.33,4.24c-.06.75-.15,1.56-.28,2.38a54.15,54.15,0,0,1-1.43,6.54,21,21,0,0,1-1,2.71q-.16.38-.36.75Zm-4.28-2.87c-1.44,1.57-1.77,4.24-.73,5.17a2.12,2.12,0,0,0,.28.2c.84.45,2.15-.59,3.4-2.79.09-.14.17-.3.25-.45s0-.51-.05-.76c0-.67-.06-1.4-.06-2.14A2.52,2.52,0,0,0,180.89,118.63Zm4.66-1.4a52.45,52.45,0,0,0,1.4-6.41c.5-3.27.24-5.38-.11-5.47-.35.24-1,2.21-1.37,4.91a59.89,59.89,0,0,0-.49,7.07c0,.5,0,1,0,1.48C185.21,118.26,185.4,117.72,185.55,117.23Z"/><path class="cls-4" d="M61.15,147.5a2.47,2.47,0,0,0,2.65,2.64,8.15,8.15,0,0,0,4.53-1.74,15.44,15.44,0,0,0,3.19-3,.52.52,0,0,1,.7-.09.51.51,0,0,1,.1.7,16.58,16.58,0,0,1-3.41,3.2,9,9,0,0,1-5.11,1.92,3.5,3.5,0,0,1-3.65-3.66c0-.26,0-.51.05-.75a4.56,4.56,0,0,1,4.2-4.39c1.47,0,2.55.83,2.54,2a2.54,2.54,0,0,1-1.35,2.07,7.93,7.93,0,0,1-4.43,1S61.15,147.47,61.15,147.5Zm3.9-1.93a1.58,1.58,0,0,0,.89-1.24c0-.44-.38-1-1.54-1a3.49,3.49,0,0,0-3.13,3A7,7,0,0,0,65.05,145.57Z"/><path class="cls-4" d="M72.8,142.91c-.06.44-.16,1.29-.26,2.17.73-1.61,1.87-3.32,3.58-2.71s1.39,2.81,1.3,4.4c-.1,1.75,0,3,.26,3.14s1.14-.07,2-1.06a25.73,25.73,0,0,0,2.6-3.39.5.5,0,0,1,.68-.17.49.49,0,0,1,.17.68,25.1,25.1,0,0,1-2.7,3.54c-.84.94-2.06,2-3.28,1.26s-.83-2.6-.75-4.06c.11-1.87,0-3.17-.64-3.4-.85-.3-1.77.74-2.55,2.72A27.19,27.19,0,0,0,72,150.72a.53.53,0,0,1-.51.42.5.5,0,0,1-.48-.55s.62-6.12.85-7.81a.5.5,0,0,1,.56-.43A.5.5,0,0,1,72.8,142.91Z"/><path class="cls-4" d="M89.89,144.78c.23-1.38.48-2.69.77-3.88.81-3.38,1.9-6.67,3.76-6.08,1.53.48,1.53,2,1.1,3.38a18,18,0,0,1-2.07,4c-1,1.5-2,2.83-2.52,3.47l-.22.28c-.13.86-.25,1.77-.35,2.68l.13,0,.33,0A19.81,19.81,0,0,0,95,147.45a11.48,11.48,0,0,0,3.61-2.06.49.49,0,0,1,.7,0,.51.51,0,0,1,.05.71,11.58,11.58,0,0,1-4,2.33,22.53,22.53,0,0,1-3.76,1.15c1.66,2,2.61,7,2.65,11.05,0,2.63-.27,5.1-1.57,5.91a1.78,1.78,0,0,1-2.61-.67c-1-1.57-1.3-4.76-1.29-8.53a78.33,78.33,0,0,1,.44-7.93s0-.45.06-.49c.11-1.05.24-2,.39-3a.85.85,0,0,1,0-.22C89.8,145.33,89.85,145,89.89,144.78Zm-.06,12.51c0,3.73.4,6.81,1.14,8,.38.6.66.69,1.24.34s1.11-2.37,1.09-5c0-4.33-1.33-9.7-2.78-10.77a1.2,1.2,0,0,0-.17-.11h-.11C90,152.3,89.83,154.92,89.83,157.29Zm2.78-15.59a17.92,17.92,0,0,0,2-3.8c.41-1.31.24-1.91-.45-2.13-.44-.14-1.56,1.45-2.49,5.36-.21.87-.4,1.8-.58,2.79C91.52,143.29,92.08,142.51,92.61,141.7Z"/><path class="cls-4" d="M105.17,142.88c0,.21-.14,1.9-.17,2.18s-.07.68-.09,1.1c-.11,1.73.08,3.82.41,4.1s1.57-.38,2.93-2.07c.84-1,1.58-2.18,2-2.75a.51.51,0,0,1,.7-.14.52.52,0,0,1,.13.7c-.39.56-1.15,1.73-2,2.82-1.12,1.39-2.9,3.39-4.34,2.21-.76-.63-.81-2.08-.82-3.36-.19.33-.39.68-.6,1-.9,1.39-2.2,2.91-3.72,2.46-1.16-.34-1.54-1.64-1.55-2.82a6.5,6.5,0,0,1,.86-3.27,5,5,0,0,1,4.1-2.73,2.78,2.78,0,0,1,1.33.4C104.62,142.34,105.17,142.47,105.17,142.88Zm-1.15.84a1.8,1.8,0,0,0-1.1-.42,4,4,0,0,0-3.2,2.25,5.52,5.52,0,0,0-.72,2.74c0,1.08.38,1.74.83,1.87.65.2,1.66-.59,2.6-2a14.83,14.83,0,0,0,1.21-2.27,3.17,3.17,0,0,0,.21-.61c0-.09.12-1,.17-1.51Z"/><path class="cls-4" d="M111.42,142.91c-.06.44-.13,1.28-.2,2.21.59-1.54,1.57-3.36,3.18-2.74,1.4.53,1.76,2,1.81,3.32l.06-.12c.79-1.49,2.06-3.45,3.72-2.78,1.36.56,1,2.51.92,3.88-.12,1.57-.11,2.86.43,3.3s1.15.17,2-.76a28.66,28.66,0,0,0,2.9-3.79.5.5,0,0,1,.83.57,30.51,30.51,0,0,1-3,3.91c-.9.93-2.21,1.81-3.4.84s-.9-2.73-.79-4.15c.13-1.72.08-2.71-.31-2.87-.63-.25-1.56.63-2.45,2.32a23.94,23.94,0,0,0-1.46,3.54.5.5,0,0,1-1-.29,13.31,13.31,0,0,0,.48-3.47c0-1.27-.38-2.22-1.17-2.52-.57-.22-1.29.51-2,2.3a29.76,29.76,0,0,0-1.21,5.1.5.5,0,0,1-1-.09s.3-6.11.53-7.84a.5.5,0,0,1,.56-.43A.5.5,0,0,1,111.42,142.91Z"/><path class="cls-4" d="M127.51,142.89c-.32,3.12-.5,6.9.2,7.32s2-.37,3.28-1.89a17.42,17.42,0,0,0,1.93-2.86.5.5,0,0,1,.68-.17.51.51,0,0,1,.18.68,19.2,19.2,0,0,1-2,3c-1.14,1.36-3,3.07-4.56,2.1s-1-5.5-.67-8.28a.49.49,0,0,1,.54-.44A.49.49,0,0,1,127.51,142.89Zm.24-2.6a.48.48,0,0,1,.27.58.5.5,0,0,1-.61.36,1,1,0,0,1-.2-1.78.5.5,0,0,1,.67.22A.52.52,0,0,1,127.75,140.29Z"/><path class="cls-4" d="M132.88,144.69a45.91,45.91,0,0,1,.89-7.59,28.41,28.41,0,0,1,1.2-4.4c.48-1.28,1.18-2.81,2.33-2.37,1.89.72.67,5-.46,8.45a48.11,48.11,0,0,1-2.57,6.33c-.13.27-.27.52-.39.74a10.69,10.69,0,0,0,.55,3.62c.38.88.74.9,1.29.67,1.33-.58,3.22-3.3,3.93-4.66a.52.52,0,0,1,.68-.21.51.51,0,0,1,.21.68c-.75,1.43-2.6,4.31-4.42,5.1a1.88,1.88,0,0,1-2.61-1.19,11.33,11.33,0,0,1-.63-4.09.34.34,0,0,1,0-.1C132.87,145.35,132.87,145,132.88,144.69Zm3-6.23c1.28-3.87,1.59-7,1.06-7.19-.44.16-1.52,2.6-2.2,6a46.23,46.23,0,0,0-.82,6.22A52,52,0,0,0,135.89,138.46Z"/><path class="cls-4" d="M140.91,142.89c-.32,3.12-.5,6.9.2,7.32s2-.37,3.28-1.89a17.75,17.75,0,0,0,1.92-2.86.5.5,0,0,1,.87.51,19.2,19.2,0,0,1-2,3c-1.14,1.36-3,3.07-4.56,2.1s-1-5.5-.68-8.28a.5.5,0,0,1,.55-.44A.49.49,0,0,1,140.91,142.89Zm.24-2.6a.48.48,0,0,1,.27.58.5.5,0,0,1-.61.36,1,1,0,0,1-.2-1.78.5.5,0,0,1,.67.22A.52.52,0,0,1,141.15,140.29Z"/><path class="cls-4" d="M152.89,142.88c0,.21-.14,1.9-.17,2.18s-.07.68-.09,1.1c-.11,1.73.08,3.82.42,4.1s1.56-.38,2.92-2.07c.84-1,1.58-2.18,2-2.75a.51.51,0,0,1,.7-.14.52.52,0,0,1,.13.7c-.38.56-1.14,1.73-2,2.82-1.12,1.39-2.9,3.39-4.34,2.21-.76-.63-.81-2.08-.82-3.36-.19.33-.39.68-.6,1-.9,1.39-2.2,2.91-3.72,2.46-1.16-.34-1.54-1.64-1.55-2.82a6.5,6.5,0,0,1,.86-3.27,5,5,0,0,1,4.1-2.73,2.85,2.85,0,0,1,1.34.4C152.35,142.34,152.89,142.47,152.89,142.88Zm-1.15.84a1.77,1.77,0,0,0-1.1-.42,4,4,0,0,0-3.2,2.25,5.52,5.52,0,0,0-.72,2.74c0,1.08.38,1.74.83,1.87.66.2,1.66-.59,2.61-2a15.66,15.66,0,0,0,1.2-2.27,3.17,3.17,0,0,0,.21-.61c0-.09.12-1,.17-1.51Z"/></g></g></svg>