<svg xmlns="http://www.w3.org/2000/svg" viewBox="0 0 202.93 152.11"><defs><style>.cls-1{fill:#0033a0;}.cls-2{fill:#e3e829;}.cls-3{fill:none;stroke:#0033a0;stroke-miterlimit:10;}.cls-4{fill:#4ec3e0;}.cls-5{fill:#fff;}</style></defs><g id="Capa_2" data-name="Capa 2"><g id="Diseño"><path class="cls-1" d="M.56,89c2.68,16.72,13.72,31.89,28.05,41.74,16.14,11.1,87.71,22.1,103.82,21.36A152.68,152.68,0,0,0,149,150.48a60.11,60.11,0,0,0,14.93-4.06c8.75-3.85,15.29-10.81,20.36-18.43a124,124,0,0,0,13-25.71,84.38,84.38,0,0,0,5.68-28.12,55.1,55.1,0,0,0-6.39-27,65.61,65.61,0,0,0-17.4-20C162.75,14.27,142,8.44,121.54,4.68A283.06,283.06,0,0,0,90.32.33c-10-.69-20.16-.43-29.83,2.05a60.8,60.8,0,0,0-24.61,12.9A97.4,97.4,0,0,0,18.29,36c-2.48,3.78-4.78,7.67-7,11.6A128.78,128.78,0,0,0,4.12,62C.6,70.6-.91,79.72.56,89Z"/><path class="cls-2" d="M42.48,100.14a2.8,2.8,0,0,1-1.09,1.24,4.21,4.21,0,0,1-2,.36H34.24c-.92,0-1.48-.17-1.67-.51a1.31,1.31,0,0,1,.14-1.31L52.18,61.86H32.57a2.69,2.69,0,0,1-1.68-.37A2,2,0,0,1,30.45,60V56.68A2.39,2.39,0,0,1,30.89,55a2.35,2.35,0,0,1,1.68-.44H60.13a3.17,3.17,0,0,1,1.75.36,1.71,1.71,0,0,1,.51,1.46v2.19a5.94,5.94,0,0,1-.59,2.55q-.59,1.24-1.53,3.06Z"/><path class="cls-2" d="M62,97.73a4.57,4.57,0,0,1-1.24,3.5,4.67,4.67,0,0,1-3.35,1.17h-.8A4.68,4.68,0,0,1,53,101.23a5,5,0,0,1-1.06-3.5V96.56A4.21,4.21,0,0,1,53.29,93a5.36,5.36,0,0,1,3.32-1h.8a5.1,5.1,0,0,1,3.35,1A4.39,4.39,0,0,1,62,96.56Z"/><path class="cls-2" d="M82.67,102.4a17.7,17.7,0,0,1-7.91-1.61,13.72,13.72,0,0,1-5.32-4.63,20.49,20.49,0,0,1-3-7.36,45.86,45.86,0,0,1-1-9.73v-1.9a45.37,45.37,0,0,1,1-9.7,20.44,20.44,0,0,1,3-7.32,13.64,13.64,0,0,1,5.32-4.63,17.7,17.7,0,0,1,7.91-1.61,17.7,17.7,0,0,1,7.91,1.61,13.74,13.74,0,0,1,5.33,4.63,20.61,20.61,0,0,1,3,7.32,45.37,45.37,0,0,1,.95,9.7v1.9a45.86,45.86,0,0,1-.95,9.73,20.67,20.67,0,0,1-3,7.36,13.82,13.82,0,0,1-5.33,4.63A17.7,17.7,0,0,1,82.67,102.4Z"/><path class="cls-3" d="M82.67,95a6.36,6.36,0,0,0,4.38-1.42,9.07,9.07,0,0,0,2.44-3.75,20.93,20.93,0,0,0,1.09-5.25q.26-2.92.26-6v-.95q0-3.06-.26-6a20.93,20.93,0,0,0-1.09-5.25,9,9,0,0,0-2.44-3.75,7.45,7.45,0,0,0-8.75,0,8.92,8.92,0,0,0-2.45,3.75,21.38,21.38,0,0,0-1.09,5.25q-.26,2.92-.25,6v.95q0,3.06.25,6a21.38,21.38,0,0,0,1.09,5.25,9,9,0,0,0,2.45,3.75A6.33,6.33,0,0,0,82.67,95Z"/><path class="cls-2" d="M120.4,102.4a17.7,17.7,0,0,1-7.91-1.61,13.72,13.72,0,0,1-5.32-4.63,20.49,20.49,0,0,1-3-7.36,45.86,45.86,0,0,1-1-9.73v-1.9a45.37,45.37,0,0,1,1-9.7,20.44,20.44,0,0,1,3-7.32,13.64,13.64,0,0,1,5.32-4.63,20.24,20.24,0,0,1,15.82,0,13.64,13.64,0,0,1,5.32,4.63,20.44,20.44,0,0,1,3,7.32,45.37,45.37,0,0,1,1,9.7v1.9a45.86,45.86,0,0,1-1,9.73,20.49,20.49,0,0,1-3,7.36,13.72,13.72,0,0,1-5.32,4.63A17.7,17.7,0,0,1,120.4,102.4Z"/><path class="cls-3" d="M120.4,95a6.36,6.36,0,0,0,4.38-1.42,9.07,9.07,0,0,0,2.44-3.75,20.93,20.93,0,0,0,1.09-5.25q.25-2.92.26-6v-.95q0-3.06-.26-6a20.93,20.93,0,0,0-1.09-5.25,9,9,0,0,0-2.44-3.75,7.45,7.45,0,0,0-8.75,0,8.92,8.92,0,0,0-2.45,3.75,20.93,20.93,0,0,0-1.09,5.25q-.26,2.92-.26,6v.95q0,3.06.26,6a20.93,20.93,0,0,0,1.09,5.25A9,9,0,0,0,116,93.61,6.32,6.32,0,0,0,120.4,95Z"/><path class="cls-2" d="M157.58,102.4a17.7,17.7,0,0,1-7.91-1.61,13.72,13.72,0,0,1-5.32-4.63,20.49,20.49,0,0,1-3-7.36,45.89,45.89,0,0,1-.94-9.73v-1.9a45.4,45.4,0,0,1,.94-9.7,20.44,20.44,0,0,1,3-7.32,13.64,13.64,0,0,1,5.32-4.63,20.24,20.24,0,0,1,15.82,0,13.67,13.67,0,0,1,5.33,4.63,20.61,20.61,0,0,1,3,7.32,45.37,45.37,0,0,1,.95,9.7v1.9a45.86,45.86,0,0,1-.95,9.73,20.67,20.67,0,0,1-3,7.36,13.75,13.75,0,0,1-5.33,4.63A17.7,17.7,0,0,1,157.58,102.4Z"/><path class="cls-3" d="M157.58,95A6.36,6.36,0,0,0,162,93.61a9,9,0,0,0,2.44-3.75,20.93,20.93,0,0,0,1.09-5.25q.25-2.92.26-6v-.95q0-3.06-.26-6a20.93,20.93,0,0,0-1.09-5.25A8.91,8.91,0,0,0,162,62.7a7.45,7.45,0,0,0-8.75,0,8.81,8.81,0,0,0-2.44,3.75,20.92,20.92,0,0,0-1.1,5.25q-.25,2.92-.25,6v.95q0,3.06.25,6a20.92,20.92,0,0,0,1.1,5.25,8.88,8.88,0,0,0,2.44,3.75A6.33,6.33,0,0,0,157.58,95Z"/><path class="cls-4" d="M32.49,39.86a11,11,0,0,1-.33,2.8A4.48,4.48,0,0,1,31,44.74a3.68,3.68,0,0,1-.91.7,3.85,3.85,0,0,1-1.24.41A7.82,7.82,0,0,0,30,47a8.58,8.58,0,0,0,1.36.92c.2.11.31.21.32.31s-.06.2-.22.32l-1,.77a.58.58,0,0,1-.77,0A8.57,8.57,0,0,1,28,47.85,11.12,11.12,0,0,1,26.57,46a5.41,5.41,0,0,1-1.75-.38,3.61,3.61,0,0,1-1.22-.86,4.91,4.91,0,0,1-1.08-2.08,10.58,10.58,0,0,1-.34-2.8v-.81a10.51,10.51,0,0,1,.34-2.79,5,5,0,0,1,1.08-2.09,3.89,3.89,0,0,1,1.48-1,6.46,6.46,0,0,1,2.26-.33,6.2,6.2,0,0,1,2.2.34,4,4,0,0,1,1.49.94,4.52,4.52,0,0,1,1.13,2.09,11,11,0,0,1,.33,2.79Zm-2.55-.61a17,17,0,0,0-.1-1.91,3.43,3.43,0,0,0-.55-1.59,2.19,2.19,0,0,0-1.95-.81,2.2,2.2,0,0,0-2,.81,3.43,3.43,0,0,0-.55,1.59,17,17,0,0,0-.1,1.91v.42a16.77,16.77,0,0,0,.1,1.9,3.43,3.43,0,0,0,.55,1.59,2.2,2.2,0,0,0,2,.81,2.19,2.19,0,0,0,1.95-.81,3.43,3.43,0,0,0,.55-1.59,16.77,16.77,0,0,0,.1-1.9Z"/><path class="cls-4" d="M42.42,42.81a4,4,0,0,1-.27,1.61,2.34,2.34,0,0,1-.85,1,3.46,3.46,0,0,1-1.24.49,7.71,7.71,0,0,1-1.57.14,8.9,8.9,0,0,1-1.61-.13,3.25,3.25,0,0,1-1.23-.5,2.39,2.39,0,0,1-.84-1,3.83,3.83,0,0,1-.29-1.61V36.66a.53.53,0,0,1,.11-.39.67.67,0,0,1,.45-.1h1.24a.69.69,0,0,1,.45.1.54.54,0,0,1,.1.39v5.91a2.33,2.33,0,0,0,.11.79,1,1,0,0,0,.33.43,1.06,1.06,0,0,0,.51.21,4.47,4.47,0,0,0,.67,0,4.86,4.86,0,0,0,.69,0,1,1,0,0,0,.5-.21.86.86,0,0,0,.31-.43,3.19,3.19,0,0,0,.08-.79V36.66a.53.53,0,0,1,.11-.39.67.67,0,0,1,.45-.1h1.24a.69.69,0,0,1,.45.1.54.54,0,0,1,.1.39Z"/><path class="cls-4" d="M52.12,41.56A.74.74,0,0,1,52,42a.55.55,0,0,1-.42.12H46.65a2.1,2.1,0,0,0,.49,1.58,1.49,1.49,0,0,0,.62.29,4.67,4.67,0,0,0,1.12.11A5.85,5.85,0,0,0,50,44a5.11,5.11,0,0,0,1-.3.5.5,0,0,1,.31,0q.14,0,.24.36l.25,1a.41.41,0,0,1,0,.33.66.66,0,0,1-.35.22,8.81,8.81,0,0,1-1.37.38,8.33,8.33,0,0,1-1.49.13,7.08,7.08,0,0,1-2-.24A3.2,3.2,0,0,1,45.29,45a3.26,3.26,0,0,1-.8-1.49,9.56,9.56,0,0,1-.23-2.27v-.53a8.92,8.92,0,0,1,.21-2,3.62,3.62,0,0,1,.68-1.48,2.88,2.88,0,0,1,1.25-.9A6.14,6.14,0,0,1,50,36.22a3.14,3.14,0,0,1,1.12.66,3,3,0,0,1,.43.5,3.17,3.17,0,0,1,.32.69,5,5,0,0,1,.19.91,8.94,8.94,0,0,1,.07,1.24Zm-3.87-3.69a1.5,1.5,0,0,0-1.13.39,1.68,1.68,0,0,0-.39.79,5.51,5.51,0,0,0-.12,1.23h2.9c.18,0,.26-.09.26-.28a6.58,6.58,0,0,0-.08-1.09,1.38,1.38,0,0,0-.29-.67A1.07,1.07,0,0,0,49,38,2.23,2.23,0,0,0,48.25,37.87Z"/><path class="cls-4" d="M61.4,46a8.66,8.66,0,0,1-1.58-.14,6.25,6.25,0,0,1-1.44-.43c-.18-.06-.29-.14-.32-.22a.58.58,0,0,1,0-.37l.21-1c.08-.31.27-.41.56-.29A8,8,0,0,0,60,44a5.23,5.23,0,0,0,2,.1,1.2,1.2,0,0,0,.49-.19.85.85,0,0,0,.34-.77V43a.78.78,0,0,0-.27-.67,2.6,2.6,0,0,0-.88-.35l-1.18-.28a4.26,4.26,0,0,1-1.09-.37,2.19,2.19,0,0,1-.65-.52,2.58,2.58,0,0,1-.6-1.82v-.17a3.21,3.21,0,0,1,.23-1.31,2.38,2.38,0,0,1,.64-.83,2.69,2.69,0,0,1,1-.49A6.59,6.59,0,0,1,61.7,36a9.26,9.26,0,0,1,1.49.12,5.79,5.79,0,0,1,1.16.28c.14,0,.23.11.25.16a.53.53,0,0,1,0,.31L64.37,38a.33.33,0,0,1-.17.26.47.47,0,0,1-.33,0A5.11,5.11,0,0,0,63,38a5.41,5.41,0,0,0-1-.1,2.39,2.39,0,0,0-1.23.21.76.76,0,0,0-.27.64v.13a.68.68,0,0,0,.27.63,2.38,2.38,0,0,0,.73.26l1.23.28a3.4,3.4,0,0,1,2,1.07,2.12,2.12,0,0,1,.34.73,4,4,0,0,1,.1.91V43a2.89,2.89,0,0,1-.79,2.14A4.17,4.17,0,0,1,61.4,46Z"/><path class="cls-4" d="M70.82,36a5.2,5.2,0,0,1,1.89.3,3,3,0,0,1,1.25.87,3.59,3.59,0,0,1,.78,1.53,7.85,7.85,0,0,1,.23,2v.59a7.85,7.85,0,0,1-.23,2A3.61,3.61,0,0,1,74,44.86a3.36,3.36,0,0,1-1.26.86,6,6,0,0,1-3.75,0,3.32,3.32,0,0,1-1.27-.86,3.73,3.73,0,0,1-.78-1.52,8.33,8.33,0,0,1-.22-2v-.59a8.33,8.33,0,0,1,.22-2,3.7,3.7,0,0,1,.78-1.53,3.07,3.07,0,0,1,1.26-.87A5.11,5.11,0,0,1,70.82,36Zm0,8.16a2,2,0,0,0,.82-.14,1.48,1.48,0,0,0,.51-.4,2,2,0,0,0,.34-.91,10.14,10.14,0,0,0,.09-1.49v-.42a9.9,9.9,0,0,0-.09-1.48,2,2,0,0,0-.34-.91,1.37,1.37,0,0,0-.51-.4,2,2,0,0,0-.82-.13A2,2,0,0,0,70,38a1.34,1.34,0,0,0-.5.4,1.93,1.93,0,0,0-.34.91,9.9,9.9,0,0,0-.09,1.48v.42a10.14,10.14,0,0,0,.09,1.49,1.85,1.85,0,0,0,.34.91,1.45,1.45,0,0,0,.5.4A2,2,0,0,0,70.82,44.15Z"/><path class="cls-4" d="M85,45.35a.57.57,0,0,1-.1.4.78.78,0,0,1-.45.1H83.25a.74.74,0,0,1-.45-.1.56.56,0,0,1-.11-.4V39.84a4.8,4.8,0,0,0-.08-1,1.28,1.28,0,0,0-.33-.59,1.31,1.31,0,0,0-.52-.31,2.51,2.51,0,0,0-.78-.1,1.85,1.85,0,0,0-1.27.35,1.19,1.19,0,0,0-.3.47,2.53,2.53,0,0,0-.11.9v5.74a.56.56,0,0,1-.11.4.74.74,0,0,1-.45.1H77.5a.72.72,0,0,1-.44-.1.52.52,0,0,1-.11-.4V36.62c0-.3.15-.45.47-.45h.73a.71.71,0,0,1,.37.07.37.37,0,0,1,.14.28l.1.48h.06a3.44,3.44,0,0,1,1-.72A4,4,0,0,1,81.51,36a4.57,4.57,0,0,1,1.8.31,2.62,2.62,0,0,1,1.2,1,3,3,0,0,1,.44,1.2A11.13,11.13,0,0,1,85,40Z"/><path class="cls-4" d="M89.13,37.45h0a2.88,2.88,0,0,1,1-1,3.38,3.38,0,0,1,1.59-.31h.27a.76.76,0,0,1,.44.09.47.47,0,0,1,.12.38v1a.5.5,0,0,1-.11.36.75.75,0,0,1-.45.09h-.35a3.11,3.11,0,0,0-1,.14,1.43,1.43,0,0,0-.57.36,1.76,1.76,0,0,0-.33.56,3.72,3.72,0,0,0-.12,1.12v5a.56.56,0,0,1-.11.4.74.74,0,0,1-.45.1H87.87a.76.76,0,0,1-.45-.1.57.57,0,0,1-.1-.4V36.62c0-.3.15-.45.47-.45h.69a.71.71,0,0,1,.37.07.37.37,0,0,1,.14.28Z"/><path class="cls-4" d="M97.25,31.65a.45.45,0,0,1,.35-.13.48.48,0,0,1,.26.23l.69,1a.61.61,0,0,1,.14.38c0,.09-.11.19-.29.29l-3.2,1.76a.49.49,0,0,1-.72-.14l-.41-.57c-.18-.28-.18-.48,0-.61Zm-.71,13.7a.56.56,0,0,1-.11.4.72.72,0,0,1-.44.1H94.74a.72.72,0,0,1-.44-.1.52.52,0,0,1-.11-.4V36.66c0-.19,0-.33.11-.39a.66.66,0,0,1,.44-.1H96a.66.66,0,0,1,.44.1.53.53,0,0,1,.11.39Z"/><path class="cls-4" d="M104.42,45a1.88,1.88,0,0,1-.78.75,3.14,3.14,0,0,1-1.39.25h-.74a4.59,4.59,0,0,1-1.27-.14,2.48,2.48,0,0,1-.9-.49,2.22,2.22,0,0,1-.64-.94,3.6,3.6,0,0,1-.21-1.27v-.45a2.83,2.83,0,0,1,.83-2.29,2.57,2.57,0,0,1,1.17-.57,7.62,7.62,0,0,1,1.72-.17h1.27l.54,0v-.53a1.28,1.28,0,0,0-.33-1,1.4,1.4,0,0,0-.53-.21,4.53,4.53,0,0,0-.84-.06,7.41,7.41,0,0,0-1.18.1,7.76,7.76,0,0,0-1.24.27.35.35,0,0,1-.35,0,.53.53,0,0,1-.15-.3l-.18-.93a.74.74,0,0,1,0-.39.48.48,0,0,1,.31-.2,11.1,11.1,0,0,1,1.37-.33A9,9,0,0,1,102.5,36a7.67,7.67,0,0,1,1.7.15,3.78,3.78,0,0,1,1.15.48,2.28,2.28,0,0,1,.78,1,4.49,4.49,0,0,1,.24,1.65v6.24c0,.25-.13.38-.41.38h-.91a.43.43,0,0,1-.47-.36l-.12-.47Zm-.4-3.4-.55,0h-1.28a3.67,3.67,0,0,0-.61.05.86.86,0,0,0-.42.19,1.21,1.21,0,0,0-.3,1V43a1.12,1.12,0,0,0,.3.89,1,1,0,0,0,.33.17,1.57,1.57,0,0,0,.54.07h.71a1.32,1.32,0,0,0,1-.32,1.46,1.46,0,0,0,.29-1Z"/><path class="cls-4" d="M111.53,46a8.59,8.59,0,0,1-1.58-.14,6.25,6.25,0,0,1-1.44-.43c-.19-.06-.3-.14-.33-.22a.66.66,0,0,1,0-.37l.22-1c.08-.31.26-.41.55-.29a8.15,8.15,0,0,0,1.2.36,5.18,5.18,0,0,0,2,.1,1.14,1.14,0,0,0,.49-.19.83.83,0,0,0,.34-.77V43a.78.78,0,0,0-.27-.67,2.52,2.52,0,0,0-.88-.35l-1.18-.28a4.4,4.4,0,0,1-1.09-.37,2.33,2.33,0,0,1-.65-.52,2.62,2.62,0,0,1-.59-1.82v-.17a3.21,3.21,0,0,1,.23-1.31,2.26,2.26,0,0,1,.64-.83,2.58,2.58,0,0,1,1-.49,6.7,6.7,0,0,1,1.62-.16,9.48,9.48,0,0,1,1.5.12,5.85,5.85,0,0,1,1.15.28.48.48,0,0,1,.26.16.78.78,0,0,1,0,.31L114.49,38c0,.14-.08.23-.17.26a.44.44,0,0,1-.32,0,5.35,5.35,0,0,0-.89-.21,5.51,5.51,0,0,0-1-.1,2.32,2.32,0,0,0-1.22.21.74.74,0,0,0-.28.64v.13a.66.66,0,0,0,.28.63,2.2,2.2,0,0,0,.73.26l1.22.28a3.46,3.46,0,0,1,2,1.07,2.1,2.1,0,0,1,.33.73,3.52,3.52,0,0,1,.1.91V43a2.85,2.85,0,0,1-.79,2.14A4.16,4.16,0,0,1,111.53,46Z"/><path class="cls-4" d="M135.29,45.35a.56.56,0,0,1-.11.4.74.74,0,0,1-.45.1h-1.24a.72.72,0,0,1-.44-.1.52.52,0,0,1-.11-.4V39.84a4.65,4.65,0,0,0-.08-.93,1.32,1.32,0,0,0-.3-.59,1.2,1.2,0,0,0-.49-.32,2.17,2.17,0,0,0-.79-.11,2.1,2.1,0,0,0-1.66.75,11.73,11.73,0,0,1,.06,1.32v5.39a.56.56,0,0,1-.11.4.74.74,0,0,1-.45.1h-1.24a.72.72,0,0,1-.44-.1.52.52,0,0,1-.11-.4V39.84a4.07,4.07,0,0,0-.09-1,1.28,1.28,0,0,0-.82-.9,2.15,2.15,0,0,0-.75-.1,1.84,1.84,0,0,0-1.26.35,1.11,1.11,0,0,0-.31.47,2.78,2.78,0,0,0-.11.9v5.74a.56.56,0,0,1-.11.4.72.72,0,0,1-.44.1h-1.25a.72.72,0,0,1-.44-.1.56.56,0,0,1-.11-.4V36.62c0-.3.16-.45.47-.45h.73a.67.67,0,0,1,.37.07.41.41,0,0,1,.15.28l.1.48h.06a3.32,3.32,0,0,1,1.12-.74,3.86,3.86,0,0,1,1.48-.27,4.1,4.1,0,0,1,1.64.3,2.91,2.91,0,0,1,1.11.81,4.49,4.49,0,0,1,3-1.11,3.46,3.46,0,0,1,2.53.83,4,4,0,0,1,.93,2.92Z"/><path class="cls-4" d="M143,45a1.88,1.88,0,0,1-.78.75,3.14,3.14,0,0,1-1.39.25h-.73a4.62,4.62,0,0,1-1.28-.14,2.48,2.48,0,0,1-.9-.49,2.22,2.22,0,0,1-.64-.94,3.6,3.6,0,0,1-.21-1.27v-.45a2.83,2.83,0,0,1,.83-2.29,2.62,2.62,0,0,1,1.17-.57,7.68,7.68,0,0,1,1.72-.17h1.27l.54,0v-.53a1.28,1.28,0,0,0-.33-1,1.4,1.4,0,0,0-.53-.21,4.53,4.53,0,0,0-.84-.06,7.41,7.41,0,0,0-1.18.1,8,8,0,0,0-1.24.27.35.35,0,0,1-.35,0A.53.53,0,0,1,138,38l-.18-.93a.87.87,0,0,1,0-.39.48.48,0,0,1,.31-.2,11.1,11.1,0,0,1,1.37-.33,9,9,0,0,1,1.61-.15,7.67,7.67,0,0,1,1.7.15,3.78,3.78,0,0,1,1.15.48,2.28,2.28,0,0,1,.78,1,4.49,4.49,0,0,1,.24,1.65v6.24c0,.25-.13.38-.41.38h-.91a.43.43,0,0,1-.47-.36l-.12-.47Zm-.4-3.4-.55,0h-1.28a3.67,3.67,0,0,0-.61.05.9.9,0,0,0-.42.19,1.21,1.21,0,0,0-.3,1V43a1.12,1.12,0,0,0,.3.89,1,1,0,0,0,.33.17,1.61,1.61,0,0,0,.54.07h.71a1.32,1.32,0,0,0,1-.32,1.41,1.41,0,0,0,.29-1Zm.2-10a.46.46,0,0,1,.35-.13.48.48,0,0,1,.26.23l.7,1a.59.59,0,0,1,.13.38c0,.09-.11.19-.29.29l-3.2,1.76a.54.54,0,0,1-.41.09.51.51,0,0,1-.3-.23l-.42-.57c-.18-.28-.18-.48,0-.61Z"/><path class="cls-4" d="M150.12,46a8.66,8.66,0,0,1-1.58-.14,6.25,6.25,0,0,1-1.44-.43c-.19-.06-.3-.14-.33-.22a.66.66,0,0,1,0-.37l.22-1c.08-.31.26-.41.55-.29a8.53,8.53,0,0,0,1.2.36,5.18,5.18,0,0,0,2,.1,1.14,1.14,0,0,0,.49-.19.83.83,0,0,0,.34-.77V43a.78.78,0,0,0-.27-.67,2.53,2.53,0,0,0-.87-.35l-1.19-.28a4.4,4.4,0,0,1-1.09-.37,2.33,2.33,0,0,1-.65-.52,2.62,2.62,0,0,1-.59-1.82v-.17a3.21,3.21,0,0,1,.23-1.31,2.26,2.26,0,0,1,.64-.83,2.62,2.62,0,0,1,1.05-.49,6.56,6.56,0,0,1,1.61-.16,9.39,9.39,0,0,1,1.5.12,5.85,5.85,0,0,1,1.15.28.48.48,0,0,1,.26.16.78.78,0,0,1,0,.31L153.08,38c0,.14-.08.23-.17.26a.44.44,0,0,1-.32,0,5.35,5.35,0,0,0-.89-.21,5.51,5.51,0,0,0-1-.1,2.35,2.35,0,0,0-1.22.21.74.74,0,0,0-.28.64v.13a.66.66,0,0,0,.28.63,2.2,2.2,0,0,0,.73.26l1.22.28a3.43,3.43,0,0,1,2,1.07,1.94,1.94,0,0,1,.33.73,3.52,3.52,0,0,1,.1.91V43a2.85,2.85,0,0,1-.79,2.14A4.15,4.15,0,0,1,150.12,46Z"/><path class="cls-4" d="M168.21,42.35A5.45,5.45,0,0,1,168,44a2.48,2.48,0,0,1-.68,1.06,3.58,3.58,0,0,1-1.29.68,7,7,0,0,1-2,.24,6.85,6.85,0,0,1-1.86-.2,3,3,0,0,1-1.2-.63,3,3,0,0,1-.89-1.45,8.29,8.29,0,0,1-.27-2.3v-.81a7.47,7.47,0,0,1,.27-2.21A3.62,3.62,0,0,1,161,37a4.05,4.05,0,0,1,3-1,3.94,3.94,0,0,1,1.06.14,2.82,2.82,0,0,1,.82.36h0V33a.56.56,0,0,1,.11-.4.74.74,0,0,1,.44-.09h1.25a.74.74,0,0,1,.44.09.56.56,0,0,1,.11.4Zm-2.35-2.7a2.76,2.76,0,0,0-.11-.89,1.1,1.1,0,0,0-.29-.46,1.4,1.4,0,0,0-.52-.3,2.23,2.23,0,0,0-.8-.11,2.17,2.17,0,0,0-.86.15,1.32,1.32,0,0,0-.56.42,1.87,1.87,0,0,0-.41.89,8.2,8.2,0,0,0-.08,1.34v.61a9.13,9.13,0,0,0,.09,1.47,1.81,1.81,0,0,0,.38.84,1.15,1.15,0,0,0,.53.4,2.39,2.39,0,0,0,.83.12A2.93,2.93,0,0,0,165,44a1.26,1.26,0,0,0,.53-.33,1,1,0,0,0,.3-.58,4.33,4.33,0,0,0,.08-.88Z"/><path class="cls-4" d="M178,41.56a.74.74,0,0,1-.11.45.6.6,0,0,1-.43.12h-4.94a2.1,2.1,0,0,0,.5,1.58,1.39,1.39,0,0,0,.61.29,4.76,4.76,0,0,0,1.13.11,5.75,5.75,0,0,0,1.1-.12,5.11,5.11,0,0,0,1-.3.53.53,0,0,1,.32,0c.09,0,.17.15.23.36l.26,1a.45.45,0,0,1,0,.33.62.62,0,0,1-.35.22,8.81,8.81,0,0,1-1.37.38,8.25,8.25,0,0,1-1.49.13,7.06,7.06,0,0,1-2-.24,3.17,3.17,0,0,1-1.32-.76,3.26,3.26,0,0,1-.8-1.49,9.62,9.62,0,0,1-.22-2.27v-.53a9,9,0,0,1,.2-2A3.75,3.75,0,0,1,171,37.2a2.92,2.92,0,0,1,1.26-.9,6.1,6.1,0,0,1,3.58-.08,3.18,3.18,0,0,1,1.13.66,2.53,2.53,0,0,1,.42.5,2.76,2.76,0,0,1,.32.69,5.94,5.94,0,0,1,.2.91,10.82,10.82,0,0,1,.07,1.24Zm-3.88-3.69a1.48,1.48,0,0,0-1.12.39,1.6,1.6,0,0,0-.4.79,5.51,5.51,0,0,0-.12,1.23h2.91c.17,0,.26-.09.26-.28a6.58,6.58,0,0,0-.08-1.09,1.49,1.49,0,0,0-.3-.67,1,1,0,0,0-.43-.28A2.3,2.3,0,0,0,174.13,37.87Z"/><path class="cls-5" d="M121,110a.72.72,0,1,1,.88,1.14c-2.49,1.92-6.07,1.79-8.51.7-1.48,2.87-4.32,7.29-6,6.46s-4.18-7.29-4.29-11.85a.73.73,0,0,1,.71-.74.72.72,0,0,1,.73.7c.1,3.9,2.32,9.37,3.36,10.48a20,20,0,0,0,4.29-5.77,4.22,4.22,0,0,1-1.22-1.31c-.93-1.58-.66-3.93.7-4.72.9-.53,1.92-.07,2.65.91.88,1.18.39,2.93-.27,4.54A7.35,7.35,0,0,0,121,110Zm-7.9-3.14c-.55-.73-.75-.55-.77-.53a2.5,2.5,0,0,0-.19,2.76,2.79,2.79,0,0,0,.59.69C113.36,108.22,113.37,107.16,113.12,106.82Z"/><path class="cls-5" d="M121.89,113.09a3.55,3.55,0,0,0,3.81,3.8,11.73,11.73,0,0,0,6.51-2.5,22.46,22.46,0,0,0,4.59-4.3.73.73,0,0,1,1-.13.72.72,0,0,1,.13,1,23.18,23.18,0,0,1-4.89,4.6,13,13,0,0,1-7.35,2.77,5,5,0,0,1-5.25-5.26c0-.38,0-.74.07-1.09.54-4.72,4.1-6.31,6-6.31,2.12,0,3.67,1.19,3.66,2.88a3.73,3.73,0,0,1-2,3,11.51,11.51,0,0,1-6.37,1.39Zm5.6-2.77a2.36,2.36,0,0,0,1.29-1.79c0-.63-.56-1.42-2.22-1.42a5,5,0,0,0-4.51,4.37A10.1,10.1,0,0,0,127.49,110.32Z"/><path class="cls-5" d="M144.91,109.57a2.44,2.44,0,0,0,.11-1c-.08-1-.92-1.66-2.58-1.5a5.65,5.65,0,0,0-4.74,6c0,3.43,2.35,3.82,4.56,3.82s4.86-1.56,6.87-3.25a23.51,23.51,0,0,0,3.48-3.54.72.72,0,1,1,1.16.85,24.65,24.65,0,0,1-3.71,3.79c-2.09,1.76-4.88,3.59-7.8,3.59-2.33,0-5.95-.65-6-5.24a7.08,7.08,0,0,1,6.05-7.41c2.08-.2,4,.77,4.15,2.8a4.12,4.12,0,0,1-.17,1.49.72.72,0,0,1-.89.49A.72.72,0,0,1,144.91,109.57Z"/><path class="cls-5" d="M153.59,113.09a3.55,3.55,0,0,0,3.81,3.8,11.7,11.7,0,0,0,6.51-2.5,22.46,22.46,0,0,0,4.59-4.3.73.73,0,0,1,1-.13.72.72,0,0,1,.13,1,23.18,23.18,0,0,1-4.89,4.6,13,13,0,0,1-7.35,2.77,5,5,0,0,1-5.25-5.26c0-.38,0-.74.07-1.09.55-4.72,4.1-6.31,6-6.31,2.12,0,3.67,1.19,3.66,2.88a3.73,3.73,0,0,1-2,3,11.51,11.51,0,0,1-6.37,1.39Zm5.6-2.77a2.31,2.31,0,0,0,1.29-1.79c0-.63-.56-1.42-2.22-1.42a5,5,0,0,0-4.51,4.37A10.1,10.1,0,0,0,159.19,110.32Z"/><path class="cls-5" d="M170.81,113.8a59.56,59.56,0,0,1,8.09-3.92.73.73,0,0,1,1,.32.74.74,0,0,1-.32,1,59.13,59.13,0,0,0-8.21,4,9.49,9.49,0,0,1,.95,5.07c-.89,6.32-7.72,5.68-6.82,0,.39-2.42,1.75-4,4.11-5.68a34.05,34.05,0,0,1-1.43-4.23,7.52,7.52,0,0,1-.19-1.19c-.18-2.77,1.21-4.46,2.75-4.55a1.75,1.75,0,0,1,1.87,1.76c0,1.11-1.19,2.64-2.8,4.52C170,111.78,170.42,112.8,170.81,113.8Zm-3.92,6.68c-.65,3.92,3.33,4,4-.45a7.37,7.37,0,0,0-.75-4C168,117.51,167.16,118.85,166.89,120.48Zm4.24-14.08c0-.32-.11-.36-.34-.34-.43,0-1.56.68-1.4,3,0,.06,0,.13,0,.2A17.16,17.16,0,0,0,171.13,106.4Z"/><path class="cls-5" d="M79.31,115.06l6.21-4.3-1-.27a62.91,62.91,0,0,0,27.31,24.43,61.37,61.37,0,0,0,17.58,5.19c6.72.91,14,.68,20.06-2.6,5.82-3.12,10.28-9.35,9.87-16.13l-1.29.53c.73.76.23,2.15,1,3a1.41,1.41,0,0,0,2,.2c1-1-.27-2.89-1.49-1.87-.75.61.32,1.67,1.06,1.06-.67.15-.88,0-.65-.32a.46.46,0,0,0,0-.61c0-.33-.07-.67-.12-1a2.61,2.61,0,0,0-.72-1.52.75.75,0,0,0-1.28.53c.36,6-3.42,11.5-8.48,14.48-5.77,3.38-12.85,3.65-19.32,2.83a61.32,61.32,0,0,1-44.22-29,.76.76,0,0,0-1-.27l-6.21,4.31c-.79.54,0,1.84.76,1.29Z"/></g></g></svg>