<svg xmlns="http://www.w3.org/2000/svg" xmlns:xlink="http://www.w3.org/1999/xlink" viewBox="0 0 216.31 158.57"><defs><style>.cls-1,.cls-7{fill:none;}.cls-2{fill:#00aec7;}.cls-3{fill:#0033a0;}.cls-4{clip-path:url(#clip-path);}.cls-5{fill:#325bb3;}.cls-6{fill:#fff;}.cls-7{stroke:#fff;stroke-miterlimit:10;stroke-width:0.45px;}</style><clipPath id="clip-path"><path class="cls-1" d="M72,97.24a4.15,4.15,0,0,0-2.76-.84H68.6a4.33,4.33,0,0,0-2.73.84,3.49,3.49,0,0,0-1.11,2.94v1a4.27,4.27,0,0,0,.87,2.88,3.89,3.89,0,0,0,3,1h.66a3.88,3.88,0,0,0,2.76-1,3.75,3.75,0,0,0,1-2.88v-1A3.6,3.6,0,0,0,72,97.24ZM60.46,82.53q-2.88-3.06-8.88-3.06a17.35,17.35,0,0,0-3.52.33,15,15,0,0,0-2.91.87l.42-8.29a.75.75,0,0,1,.72-.79H58.84a2.47,2.47,0,0,0,1.44-.27,1.59,1.59,0,0,0,.3-1.17v-3a1.81,1.81,0,0,0-.3-1.26A1.94,1.94,0,0,0,59,65.6H41a1.34,1.34,0,0,0-1.68,1.5L38.25,84.45a2.82,2.82,0,0,0,.06,1,1.41,1.41,0,0,0,.6.63l1.68,1a1.52,1.52,0,0,0,.87.27A4.28,4.28,0,0,0,42.63,87,17.74,17.74,0,0,1,46,85.89a14.51,14.51,0,0,1,3.7-.48A6.33,6.33,0,0,1,54.28,87,6.69,6.69,0,0,1,56,91.89v.66c0,2.44-.56,4.15-1.68,5.11s-3,1.4-5.7,1.34a13.39,13.39,0,0,1-2-.18q-1.14-.18-2.31-.48L42,97.72q-1.06-.34-2.1-.78a2,2,0,0,0-1.26-.15q-.48.15-.78,1.17l-.66,2.28a3.07,3.07,0,0,0-.24,1.53,1.26,1.26,0,0,0,.78.81,28.58,28.58,0,0,0,5.4,1.74,27.19,27.19,0,0,0,5.82.66,26.17,26.17,0,0,0,6.37-.66,9.59,9.59,0,0,0,4.38-2.4A12,12,0,0,0,62.3,98.2a13.44,13.44,0,0,0,1.08-5.77v-1a15.89,15.89,0,0,0-.72-5.31A10.3,10.3,0,0,0,60.46,82.53ZM99.19,70.19a11.23,11.23,0,0,0-4.39-3.81,16.66,16.66,0,0,0-13,0,11.22,11.22,0,0,0-4.39,3.81,17.13,17.13,0,0,0-2.49,6,37.68,37.68,0,0,0-.78,8v1.56a38.48,38.48,0,0,0,.78,8,17.13,17.13,0,0,0,2.49,6.06,11.38,11.38,0,0,0,4.39,3.81,16.75,16.75,0,0,0,13,0,11.31,11.31,0,0,0,4.39-3.81,17,17,0,0,0,2.49-6.06,37.17,37.17,0,0,0,.78-8V84.21a37,37,0,0,0-.78-8A16.86,16.86,0,0,0,99.19,70.19Zm31.08,0a11.23,11.23,0,0,0-4.39-3.81,16.66,16.66,0,0,0-13,0,11.22,11.22,0,0,0-4.39,3.81,17.13,17.13,0,0,0-2.49,6,37.68,37.68,0,0,0-.78,8v1.56a38.48,38.48,0,0,0,.78,8,17.13,17.13,0,0,0,2.49,6.06,11.38,11.38,0,0,0,4.39,3.81,16.75,16.75,0,0,0,13,0,11.31,11.31,0,0,0,4.39-3.81,17,17,0,0,0,2.49-6.06,37.17,37.17,0,0,0,.78-8V84.21a37,37,0,0,0-.78-8,16.86,16.86,0,0,0-2.49-6Zm33.57,6a16.77,16.77,0,0,0-2.49-6,11.25,11.25,0,0,0-4.4-3.81,16.66,16.66,0,0,0-13,0,11.3,11.3,0,0,0-4.39,3.81,17.13,17.13,0,0,0-2.49,6,37.68,37.68,0,0,0-.78,8v1.56a38.48,38.48,0,0,0,.78,8,17.13,17.13,0,0,0,2.49,6.06,11.38,11.38,0,0,0,4.39,3.81,16.75,16.75,0,0,0,13,0,11.31,11.31,0,0,0,4.39-3.81,17,17,0,0,0,2.49-6.06,37.17,37.17,0,0,0,.78-8V84.21a36.85,36.85,0,0,0-.77-8Z"/></clipPath></defs><g id="Capa_2" data-name="Capa 2"><g id="Capa_1-2" data-name="Capa 1"><g id="Capa_2-2" data-name="Capa 2"><g id="Diseño"><path class="cls-2" d="M214.83,55.37c-4.45-17.6-17.68-32.74-33.93-41.9C162.6,3.16,85.14-1.75,68,.57A160.79,160.79,0,0,0,50.48,3.85,63.54,63.54,0,0,0,35,9.61c-9,4.94-15.3,13-20,21.61a133.87,133.87,0,0,0-11.4,28.7A90.65,90.65,0,0,0,.16,90.48a59.21,59.21,0,0,0,9.41,28.23,70.6,70.6,0,0,0,20.49,19.74c18.71,12.16,41.44,16.39,63.63,18.46a302,302,0,0,0,33.75,1.66c10.72-.2,21.57-1.45,31.66-5a65.21,65.21,0,0,0,25-16.13A104.31,104.31,0,0,0,201,113.61c2.29-4.28,4.38-8.65,6.36-13.06a137.22,137.22,0,0,0,6.29-16C216.55,75,217.29,65.11,214.83,55.37Z"/><path class="cls-3" d="M47,33.38a13,13,0,0,1-.36,3.16,5.14,5.14,0,0,1-1.29,2.35,4.06,4.06,0,0,1-1,.79,4.33,4.33,0,0,1-1.41.46,10.66,10.66,0,0,0,1.32,1.28,9.66,9.66,0,0,0,1.54,1c.22.12.34.23.35.35s-.06.23-.24.36L44.68,44a.68.68,0,0,1-.87,0,11,11,0,0,1-1.94-1.67,14.26,14.26,0,0,1-1.61-2.1,6.58,6.58,0,0,1-2-.44,4,4,0,0,1-1.37-1,5.72,5.72,0,0,1-1.23-2.35,12.54,12.54,0,0,1-.38-3.16v-.91a12.43,12.43,0,0,1,.38-3.16A5.54,5.54,0,0,1,37,27a4.26,4.26,0,0,1,1.67-1.08,7.09,7.09,0,0,1,2.54-.37,6.79,6.79,0,0,1,2.49.38A4.21,4.21,0,0,1,45.3,27a5,5,0,0,1,1.29,2.35A12.61,12.61,0,0,1,47,32.47Zm-2.87-.69A19.24,19.24,0,0,0,44,30.54a3.85,3.85,0,0,0-.63-1.8,2.44,2.44,0,0,0-2.21-.91,2.48,2.48,0,0,0-2.21.91,4,4,0,0,0-.62,1.8c-.07.71-.11,1.43-.11,2.15v.47c0,.71,0,1.43.11,2.15a4,4,0,0,0,.62,1.8,2.51,2.51,0,0,0,2.21.91,2.49,2.49,0,0,0,2.21-.91,3.89,3.89,0,0,0,.63-1.8,19.47,19.47,0,0,0,.11-2.15Z"/><path class="cls-3" d="M58.17,36.71a4.35,4.35,0,0,1-.31,1.81,2.67,2.67,0,0,1-1,1.11,4.19,4.19,0,0,1-1.39.54,8.71,8.71,0,0,1-1.77.17A9.42,9.42,0,0,1,52,40.18a3.6,3.6,0,0,1-1.4-.55,3,3,0,0,1-1-1.11,4.5,4.5,0,0,1-.32-1.81V29.77a.71.71,0,0,1,.12-.45.85.85,0,0,1,.51-.11h1.4a.79.79,0,0,1,.5.11.6.6,0,0,1,.13.45v6.67a2.7,2.7,0,0,0,.12.89,1.05,1.05,0,0,0,.37.49,1.34,1.34,0,0,0,.58.23,4.87,4.87,0,0,0,.76.06,4.77,4.77,0,0,0,.76-.06,1.07,1.07,0,0,0,.57-.23,1,1,0,0,0,.35-.49,3,3,0,0,0,.1-.89V29.77a.71.71,0,0,1,.12-.45.8.8,0,0,1,.5-.11h1.43a.79.79,0,0,1,.5.11.61.61,0,0,1,.12.45Z"/><path class="cls-3" d="M69.13,35.3a.76.76,0,0,1-.13.5.63.63,0,0,1-.48.15H63a2.4,2.4,0,0,0,.56,1.78,1.62,1.62,0,0,0,.69.32,5,5,0,0,0,1.27.13A6.5,6.5,0,0,0,66.72,38a7.37,7.37,0,0,0,1.16-.33.48.48,0,0,1,.35-.05c.11,0,.2.17.27.41l.29,1.07a.42.42,0,0,1,0,.38.69.69,0,0,1-.39.24,9.81,9.81,0,0,1-3.23.58A7.94,7.94,0,0,1,62.9,40a3.57,3.57,0,0,1-1.48-.86,3.72,3.72,0,0,1-.9-1.68A10.41,10.41,0,0,1,60.25,35v-.61A11.2,11.2,0,0,1,60.48,32a4.4,4.4,0,0,1,.77-1.67,3.3,3.3,0,0,1,1.42-1A5.76,5.76,0,0,1,64.84,29a5.66,5.66,0,0,1,1.88.26A3.43,3.43,0,0,1,68,30a2.9,2.9,0,0,1,.48.57,2.57,2.57,0,0,1,.35.77,4.84,4.84,0,0,1,.23,1,9.18,9.18,0,0,1,.08,1.39Zm-4.38-4.17a1.68,1.68,0,0,0-1.27.45,1.71,1.71,0,0,0-.44.89A6.32,6.32,0,0,0,63,33.85h3.28c.19,0,.29-.1.29-.31a6.26,6.26,0,0,0-.09-1.23,1.41,1.41,0,0,0-.33-.76,1.08,1.08,0,0,0-.49-.32A2.28,2.28,0,0,0,64.75,31.13Z"/><path class="cls-3" d="M78.4,30.66h0a3.33,3.33,0,0,1,1.17-1.1,3.86,3.86,0,0,1,1.8-.35h.31a.77.77,0,0,1,.49.1c.09.07.13.21.13.44v1.18a.5.5,0,0,1-.12.4.86.86,0,0,1-.5.11h-.4a3.08,3.08,0,0,0-1.16.16,1.48,1.48,0,0,0-.65.4,2,2,0,0,0-.37.63A4.43,4.43,0,0,0,79,33.89v5.69a.54.54,0,0,1-.13.45.79.79,0,0,1-.5.11H77a.8.8,0,0,1-.5-.11.61.61,0,0,1-.13-.45V29.72q0-.51.54-.51h.78a.72.72,0,0,1,.41.08.44.44,0,0,1,.17.32Z"/><path class="cls-3" d="M92.43,35.3a.75.75,0,0,1-.12.5.63.63,0,0,1-.48.15H86.26a2.45,2.45,0,0,0,.55,1.78,1.62,1.62,0,0,0,.69.32,5,5,0,0,0,1.28.13A6.61,6.61,0,0,0,90,38a7.25,7.25,0,0,0,1.15-.33.5.5,0,0,1,.36-.05c.11,0,.2.17.27.41l.29,1.07a.5.5,0,0,1,0,.38.69.69,0,0,1-.39.24,10.12,10.12,0,0,1-1.55.42,9.49,9.49,0,0,1-1.69.16A7.87,7.87,0,0,1,86.21,40a3.57,3.57,0,0,1-1.48-.86,3.64,3.64,0,0,1-.91-1.68A10.94,10.94,0,0,1,83.56,35v-.61A10.59,10.59,0,0,1,83.79,32a4.25,4.25,0,0,1,.77-1.67,3.3,3.3,0,0,1,1.42-1A5.76,5.76,0,0,1,88.15,29a5.66,5.66,0,0,1,1.88.26A3.69,3.69,0,0,1,91.3,30a3.29,3.29,0,0,1,.48.57,2.57,2.57,0,0,1,.35.77,5.59,5.59,0,0,1,.23,1,9.18,9.18,0,0,1,.07,1.39Zm-4.37-4.17a1.63,1.63,0,0,0-1.27.45,1.72,1.72,0,0,0-.45.89,7,7,0,0,0-.13,1.38h3.28c.19,0,.29-.1.29-.31a6.26,6.26,0,0,0-.09-1.23,1.41,1.41,0,0,0-.33-.76,1.11,1.11,0,0,0-.5-.32A2.18,2.18,0,0,0,88.06,31.13Z"/><path class="cls-3" d="M102.36,39a.53.53,0,0,1,0,.46,1.27,1.27,0,0,1-.47.32,5.54,5.54,0,0,1-1.45.44,11.76,11.76,0,0,1-1.78.14,6.4,6.4,0,0,1-1.84-.27,3.64,3.64,0,0,1-1.37-.73,3.32,3.32,0,0,1-1-1.84A13.83,13.83,0,0,1,94.23,35v-.67a9.86,9.86,0,0,1,.3-2.54,3.48,3.48,0,0,1,1-1.69,5,5,0,0,1,3.35-1,6.51,6.51,0,0,1,1.87.27,6.73,6.73,0,0,1,1.57.64.63.63,0,0,1,.3.36.74.74,0,0,1-.08.43L102,31.82a.42.42,0,0,1-.26.23.5.5,0,0,1-.39-.07A4.27,4.27,0,0,0,99,31.24a2.15,2.15,0,0,0-1.49.47A1.62,1.62,0,0,0,97,32.79c0,.44-.07,1-.07,1.66v.36a14.67,14.67,0,0,0,.1,1.75,2.07,2.07,0,0,0,.42,1A1.68,1.68,0,0,0,98,38a3.09,3.09,0,0,0,1.08.17,6.78,6.78,0,0,0,1.19-.14,6.33,6.33,0,0,0,1.07-.33.55.55,0,0,1,.43-.06.37.37,0,0,1,.26.3Z"/><path class="cls-3" d="M107.58,26.51a1.49,1.49,0,0,1-.44,1.16,1.62,1.62,0,0,1-1.12.4H106a1.58,1.58,0,0,1-1.21-.4,1.69,1.69,0,0,1-.36-1.16v-.13a1.42,1.42,0,0,1,.46-1.17,1.62,1.62,0,0,1,1.11-.37h.11a1.62,1.62,0,0,1,1.12.37,1.42,1.42,0,0,1,.44,1.17Zm-.29,13.07a.61.61,0,0,1-.12.45.89.89,0,0,1-.51.11h-1.4a.88.88,0,0,1-.5-.11.66.66,0,0,1-.13-.45V29.77a.65.65,0,0,1,.13-.45.8.8,0,0,1,.5-.11h1.4a.82.82,0,0,1,.51.11.61.61,0,0,1,.12.45Z"/><path class="cls-3" d="M112.69,29.84h0a3,3,0,0,1,1.12-.62,4.9,4.9,0,0,1,1.56-.21,5,5,0,0,1,1.8.27,2.9,2.9,0,0,1,1.28.87,3.62,3.62,0,0,1,.79,1.65,11.12,11.12,0,0,1,.23,2.45v.94c0,1.9-.39,3.25-1.18,4a3.53,3.53,0,0,1-1.51.87,8.81,8.81,0,0,1-2.17.24,12.79,12.79,0,0,1-1.85-.13,3.79,3.79,0,0,1-1.38-.52,3.1,3.1,0,0,1-1-1.13,4.74,4.74,0,0,1-.37-2.1V25.6a.64.64,0,0,1,.12-.45.85.85,0,0,1,.51-.11H112a.73.73,0,0,1,.5.11.52.52,0,0,1,.13.45Zm4.12,4.5a11.61,11.61,0,0,0-.06-1.57,2,2,0,0,0-.36-1,1.16,1.16,0,0,0-.66-.47,3.06,3.06,0,0,0-1-.14,2.35,2.35,0,0,0-1.56.41,1.22,1.22,0,0,0-.36.5,2.81,2.81,0,0,0-.13,1v3a5.6,5.6,0,0,0,.06,1,1.71,1.71,0,0,0,.25.57,1.58,1.58,0,0,0,.62.43,3.81,3.81,0,0,0,1,.13,2,2,0,0,0,1.67-.6,1.38,1.38,0,0,0,.23-.36,1.78,1.78,0,0,0,.14-.5,3.53,3.53,0,0,0,.08-.72V35Z"/><path class="cls-3" d="M128,39.2a2,2,0,0,1-.88.85,3.66,3.66,0,0,1-1.57.29h-.83a5.4,5.4,0,0,1-1.44-.17,2.59,2.59,0,0,1-1.73-1.6,4.18,4.18,0,0,1-.23-1.44v-.51A3.23,3.23,0,0,1,122.2,34a3.07,3.07,0,0,1,1.32-.64,8.46,8.46,0,0,1,1.94-.19h2.05v-.6a1.37,1.37,0,0,0-.38-1.14,1.36,1.36,0,0,0-.59-.25,5.54,5.54,0,0,0-1-.06,7.46,7.46,0,0,0-1.33.11,10.17,10.17,0,0,0-1.41.31.43.43,0,0,1-.39,0,.68.68,0,0,1-.17-.35l-.2-1a.79.79,0,0,1,0-.43c0-.1.15-.17.35-.23a9.44,9.44,0,0,1,1.55-.37,10.1,10.1,0,0,1,1.82-.17,8.14,8.14,0,0,1,1.91.17,3.82,3.82,0,0,1,1.3.54,2.47,2.47,0,0,1,.88,1.09,4.86,4.86,0,0,1,.28,1.86v7c0,.28-.16.42-.47.42h-1a.49.49,0,0,1-.53-.4Zm-.45-3.83h-2.07a2.65,2.65,0,0,0-.68.06,1,1,0,0,0-.48.21,1.35,1.35,0,0,0-.34,1.09V37a1.28,1.28,0,0,0,.34,1,1.3,1.3,0,0,0,.37.19,1.83,1.83,0,0,0,.61.08h.8a1.55,1.55,0,0,0,1.12-.35,1.63,1.63,0,0,0,.33-1.14Z"/><path class="cls-3" d="M136,40.34a9.78,9.78,0,0,1-1.79-.17,7.72,7.72,0,0,1-1.62-.48c-.21-.07-.34-.15-.37-.24a.79.79,0,0,1,0-.43l.24-1.09c.09-.35.3-.47.63-.33a9.13,9.13,0,0,0,1.35.41,5.75,5.75,0,0,0,2.22.11,1.46,1.46,0,0,0,.55-.21.91.91,0,0,0,.38-.87v-.16a.85.85,0,0,0-.3-.75,2.75,2.75,0,0,0-1-.41L135,35.41a6.13,6.13,0,0,1-1.23-.41,3.2,3.2,0,0,1-.73-.59,3,3,0,0,1-.67-2V32.2a3.65,3.65,0,0,1,.26-1.47,2.54,2.54,0,0,1,.72-.93,2.8,2.8,0,0,1,1.18-.56,7.07,7.07,0,0,1,1.83-.18,9.55,9.55,0,0,1,1.69.13,6.34,6.34,0,0,1,1.3.32c.16.06.26.12.29.19a.5.5,0,0,1,0,.34l-.27,1.25a.34.34,0,0,1-.19.3.55.55,0,0,1-.36,0,8.29,8.29,0,0,0-2.16-.36,2.54,2.54,0,0,0-1.38.25.82.82,0,0,0-.31.71v.16a.77.77,0,0,0,.31.7,3,3,0,0,0,.82.3l1.39.32a3.78,3.78,0,0,1,2.25,1.2,2.2,2.2,0,0,1,.38.82,4.14,4.14,0,0,1,.11,1V37a3.22,3.22,0,0,1-.89,2.41A4.7,4.7,0,0,1,136,40.34Z"/><path class="cls-3" d="M51,58.32a.61.61,0,0,1-.12.45.86.86,0,0,1-.5.11H49a.88.88,0,0,1-.5-.11.71.71,0,0,1-.12-.45V52.1a4.56,4.56,0,0,0-.09-1.05,1.3,1.3,0,0,0-.34-.67,1.17,1.17,0,0,0-.55-.37,2.72,2.72,0,0,0-.9-.12,2.38,2.38,0,0,0-1.87.84,10.69,10.69,0,0,1,.07,1.5v6.09a.57.57,0,0,1-.13.45.79.79,0,0,1-.5.11h-1.4a.8.8,0,0,1-.5-.11.61.61,0,0,1-.13-.45V52.1A4,4,0,0,0,42,51a1.48,1.48,0,0,0-1-1,2.21,2.21,0,0,0-.85-.11,1.94,1.94,0,0,0-1.43.4,1.31,1.31,0,0,0-.34.52,3.06,3.06,0,0,0-.13,1V58.3a.61.61,0,0,1-.12.45.86.86,0,0,1-.5.11H36.2a.88.88,0,0,1-.5-.11.71.71,0,0,1-.12-.45V48.46a.46.46,0,0,1,.4-.52h1a.73.73,0,0,1,.41.07.47.47,0,0,1,.17.33l.11.53h.07A3.81,3.81,0,0,1,39,48.05a4.37,4.37,0,0,1,1.67-.3,4.47,4.47,0,0,1,1.85.33,3,3,0,0,1,1.25.92,5,5,0,0,1,3.35-1.25,3.84,3.84,0,0,1,2.85.93A4.45,4.45,0,0,1,51,52Z"/><path class="cls-3" d="M59.71,57.94a2.12,2.12,0,0,1-.88.85,3.66,3.66,0,0,1-1.57.29h-.83A5.33,5.33,0,0,1,55,58.91a2.72,2.72,0,0,1-1-.55,2.48,2.48,0,0,1-.72-1.06A4.38,4.38,0,0,1,53,55.87v-.52A3.22,3.22,0,0,1,54,52.76a3.07,3.07,0,0,1,1.31-.63,7.94,7.94,0,0,1,1.94-.19h2.07v-.6a1.11,1.11,0,0,0-1-1.38,4.18,4.18,0,0,0-1-.07A8.65,8.65,0,0,0,56,50a9.77,9.77,0,0,0-1.4.32.41.41,0,0,1-.4,0,.56.56,0,0,1-.11-.32l-.2-1a.79.79,0,0,1,0-.43c0-.1.15-.18.34-.24A12,12,0,0,1,55.74,48a10.09,10.09,0,0,1,1.82-.16,8.21,8.21,0,0,1,1.92.16,3.79,3.79,0,0,1,1.29.55,2.33,2.33,0,0,1,.88,1.08A4.63,4.63,0,0,1,62,51.4v7.05c0,.29-.15.43-.47.43h-1a.5.5,0,0,1-.54-.4l-.13-.54Zm-.44-3.84H57.19a3.86,3.86,0,0,0-.68,0,1,1,0,0,0-.48.22,1.38,1.38,0,0,0-.33,1.09v.27a1.35,1.35,0,0,0,.33,1,1.3,1.3,0,0,0,.37.19A2.55,2.55,0,0,0,57,57h.81A1.45,1.45,0,0,0,59,56.6a1.62,1.62,0,0,0,.34-1.14Zm.22-11.26a.53.53,0,0,1,.39-.15.51.51,0,0,1,.3.26L61,44.07a.63.63,0,0,1,.16.42c0,.1-.13.22-.34.33l-3.61,2a.53.53,0,0,1-.75-.1l0-.06L56,46c-.21-.32-.2-.55,0-.69Z"/><path class="cls-3" d="M67.74,59.08A10.74,10.74,0,0,1,66,58.91a7.81,7.81,0,0,1-1.63-.48.71.71,0,0,1-.37-.24.79.79,0,0,1,0-.43l.25-1.09c.09-.36.3-.47.62-.34a10.55,10.55,0,0,0,1.35.42,6.71,6.71,0,0,0,1.33.16,6.61,6.61,0,0,0,.89,0A1.41,1.41,0,0,0,69,56.7a1,1,0,0,0,.38-.87v-.16a.88.88,0,0,0-.3-.76,2.73,2.73,0,0,0-1-.4l-1.34-.31a5.39,5.39,0,0,1-1.23-.41,3.25,3.25,0,0,1-.74-.6,3.1,3.1,0,0,1-.67-2V51a3.65,3.65,0,0,1,.26-1.47,2.6,2.6,0,0,1,.73-.94A2.92,2.92,0,0,1,66.22,48a7.57,7.57,0,0,1,1.83-.17,9.37,9.37,0,0,1,1.68.13,6.41,6.41,0,0,1,1.31.31.48.48,0,0,1,.29.19.53.53,0,0,1,0,.35L71.09,50a.34.34,0,0,1-.19.3.59.59,0,0,1-.37,0,7.14,7.14,0,0,0-2.16-.36,2.45,2.45,0,0,0-1.38.25.8.8,0,0,0-.32.71V51a.77.77,0,0,0,.32.71,3.11,3.11,0,0,0,.82.3l1.38.31a4,4,0,0,1,2.26,1.21,2.18,2.18,0,0,1,.37.82,3.34,3.34,0,0,1,.12,1v.26A3.16,3.16,0,0,1,71,58,4.69,4.69,0,0,1,67.74,59.08Z"/><path class="cls-3" d="M88.17,54.93A5.91,5.91,0,0,1,88,56.84,2.84,2.84,0,0,1,87.17,58a4.1,4.1,0,0,1-1.46.77,7.91,7.91,0,0,1-2.22.28,8.33,8.33,0,0,1-2.11-.24A3.24,3.24,0,0,1,79,56.47a9.54,9.54,0,0,1-.31-2.6V53A8.41,8.41,0,0,1,79,50.5a4.21,4.21,0,0,1,1-1.61,4.57,4.57,0,0,1,3.37-1.13,3.93,3.93,0,0,1,1.19.15,3.49,3.49,0,0,1,.93.4h0v-4a.62.62,0,0,1,.12-.44.69.69,0,0,1,.5-.11h1.41a.68.68,0,0,1,.5.11.57.57,0,0,1,.12.44Zm-2.65-3.06a2.81,2.81,0,0,0-.12-1,1,1,0,0,0-.33-.51,1.54,1.54,0,0,0-.59-.35,2.72,2.72,0,0,0-.9-.12,2.29,2.29,0,0,0-1,.16,1.86,1.86,0,0,0-.64.48,2.12,2.12,0,0,0-.45,1,9.5,9.5,0,0,0-.1,1.51v.7a10.17,10.17,0,0,0,.11,1.65,2.17,2.17,0,0,0,.42,1,1.64,1.64,0,0,0,.6.44,2.75,2.75,0,0,0,.94.14,3.06,3.06,0,0,0,1-.13,1.7,1.7,0,0,0,.61-.36,1.33,1.33,0,0,0,.33-.66,4.23,4.23,0,0,0,.09-1Z"/><path class="cls-3" d="M99.24,54a.76.76,0,0,1-.13.5.61.61,0,0,1-.47.14H93.06a2.4,2.4,0,0,0,.56,1.79,2,2,0,0,0,.69.32,5.47,5.47,0,0,0,1.27.12,7.46,7.46,0,0,0,1.25-.13A5.94,5.94,0,0,0,98,56.45a.5.5,0,0,1,.36-.05c.1,0,.19.16.26.4L99,57.87a.42.42,0,0,1,0,.38.74.74,0,0,1-.39.25,9.09,9.09,0,0,1-1.55.42,10.39,10.39,0,0,1-1.68.16,8.31,8.31,0,0,1-2.27-.28,3.32,3.32,0,0,1-2.38-2.54,11,11,0,0,1-.26-2.56v-.6a11.27,11.27,0,0,1,.23-2.32,4.25,4.25,0,0,1,.77-1.67,3.3,3.3,0,0,1,1.42-1A5.86,5.86,0,0,1,95,47.75a5.69,5.69,0,0,1,1.88.25,3.48,3.48,0,0,1,1.27.75,2.21,2.21,0,0,1,.48.57,2.71,2.71,0,0,1,.36.77,5.57,5.57,0,0,1,.22,1,9.18,9.18,0,0,1,.08,1.39Zm-4.37-4.17a1.68,1.68,0,0,0-1.28.44,2,2,0,0,0-.44.89A6.43,6.43,0,0,0,93,52.55h3.28c.2,0,.29-.11.29-.32A6.21,6.21,0,0,0,96.49,51a1.41,1.41,0,0,0-.33-.76,1.08,1.08,0,0,0-.49-.32,2.15,2.15,0,0,0-.8-.06Z"/><g class="cls-4"><path class="cls-5" d="M46.41,71.6a.74.74,0,0,0-.83.65.53.53,0,0,0,0,.13l-.42,8.29a15,15,0,0,1,2.91-.87,17.35,17.35,0,0,1,3.52-.33q6,0,8.88,3.06a10.21,10.21,0,0,1,2.16,3.57,15.89,15.89,0,0,1,.72,5.31v1a13.44,13.44,0,0,1-1.08,5.77,12,12,0,0,1-2.64,3.72,9.59,9.59,0,0,1-4.38,2.4,26.17,26.17,0,0,1-6.37.66,27.19,27.19,0,0,1-5.82-.66,28.58,28.58,0,0,1-5.4-1.74,1.26,1.26,0,0,1-.78-.81,3.07,3.07,0,0,1,.24-1.53L37.77,98q.3-1,.78-1.17a2,2,0,0,1,1.26.15q1,.43,2.1.78t2.31.66q1.17.3,2.31.48a13.39,13.39,0,0,0,2,.18q4,0,5.65-1.38T56,92.55v-.66A6.69,6.69,0,0,0,54.28,87a6.34,6.34,0,0,0-4.68-1.56,14.51,14.51,0,0,0-3.7.48A17.4,17.4,0,0,0,42.63,87a3.93,3.93,0,0,1-1.17.39,1.52,1.52,0,0,1-.87-.27l-1.68-1a1.41,1.41,0,0,1-.6-.63,2.82,2.82,0,0,1-.06-1L39.33,67.1A1.34,1.34,0,0,1,41,65.6H59a2,2,0,0,1,1.32.3,1.81,1.81,0,0,1,.3,1.26v3a1.59,1.59,0,0,1-.3,1.17,2.47,2.47,0,0,1-1.44.27Z"/><path class="cls-5" d="M73,101.14A3.75,3.75,0,0,1,72,104a3.88,3.88,0,0,1-2.76,1h-.66a3.89,3.89,0,0,1-3-1,4.27,4.27,0,0,1-.87-2.88v-1a3.49,3.49,0,0,1,1.11-2.94,4.33,4.33,0,0,1,2.73-.84h.66A4.15,4.15,0,0,1,72,97.2a3.6,3.6,0,0,1,1,2.94Z"/><path class="cls-5" d="M88.29,105a14.75,14.75,0,0,1-6.51-1.32,11.38,11.38,0,0,1-4.39-3.81A17,17,0,0,1,75,93.79a38.48,38.48,0,0,1-.78-8V84.21a37.68,37.68,0,0,1,.78-8,17.13,17.13,0,0,1,2.49-6,11.22,11.22,0,0,1,4.39-3.81,16.66,16.66,0,0,1,13,0,11.23,11.23,0,0,1,4.39,3.81,16.77,16.77,0,0,1,2.49,6,37,37,0,0,1,.78,8v1.56a37.17,37.17,0,0,1-.78,8,17,17,0,0,1-2.49,6.06,11.31,11.31,0,0,1-4.39,3.81A14.58,14.58,0,0,1,88.29,105Z"/><path class="cls-5" d="M119.37,105a14.75,14.75,0,0,1-6.51-1.32,11.38,11.38,0,0,1-4.39-3.81A17.28,17.28,0,0,1,106,93.79a38.48,38.48,0,0,1-.78-8V84.21a37.68,37.68,0,0,1,.78-8,17.13,17.13,0,0,1,2.49-6,11.22,11.22,0,0,1,4.39-3.81,16.66,16.66,0,0,1,13,0,11.23,11.23,0,0,1,4.39,3.81,16.77,16.77,0,0,1,2.49,6,37,37,0,0,1,.78,8v1.56a37.17,37.17,0,0,1-.78,8,17,17,0,0,1-2.49,6.06,11.31,11.31,0,0,1-4.39,3.81A14.68,14.68,0,0,1,119.37,105Z"/><path class="cls-5" d="M150.45,105a14.75,14.75,0,0,1-6.51-1.32,11.38,11.38,0,0,1-4.39-3.81,17.13,17.13,0,0,1-2.49-6.06,38.48,38.48,0,0,1-.78-8v-1.6a37.68,37.68,0,0,1,.78-8,17.13,17.13,0,0,1,2.49-6,11.38,11.38,0,0,1,4.4-3.83,16.66,16.66,0,0,1,13,0,11.23,11.23,0,0,1,4.39,3.81,16.77,16.77,0,0,1,2.49,6,37,37,0,0,1,.78,8v1.56a37.17,37.17,0,0,1-.78,8,17,17,0,0,1-2.49,6.06,11.31,11.31,0,0,1-4.39,3.81A14.7,14.7,0,0,1,150.45,105Z"/><rect class="cls-3" x="122.77" y="85.62" width="101.53" height="1.89" transform="translate(-10.38 148.06) rotate(-45)"/><rect class="cls-3" x="115.43" y="85.62" width="101.53" height="1.89" transform="translate(-12.53 142.87) rotate(-45)"/><rect class="cls-3" x="108.08" y="85.63" width="101.53" height="1.89" transform="translate(-14.69 137.68) rotate(-45)"/><rect class="cls-3" x="100.75" y="85.62" width="101.53" height="1.89" transform="translate(-16.83 132.49) rotate(-45)"/><rect class="cls-3" x="93.41" y="85.62" width="101.53" height="1.89" transform="translate(-18.98 127.3) rotate(-45)"/><rect class="cls-3" x="86.07" y="85.62" width="101.53" height="1.89" transform="translate(-21.13 122.11) rotate(-45)"/><rect class="cls-3" x="78.74" y="85.61" width="101.53" height="1.89" transform="translate(-23.27 116.92) rotate(-45)"/><rect class="cls-3" x="71.4" y="85.62" width="101.53" height="1.89" transform="translate(-25.43 111.74) rotate(-45)"/><rect class="cls-3" x="64.06" y="85.62" width="101.53" height="1.89" transform="translate(-27.58 106.55) rotate(-45)"/><rect class="cls-3" x="56.73" y="85.62" width="101.53" height="1.89" transform="translate(-29.73 101.36) rotate(-45)"/><rect class="cls-3" x="49.39" y="85.62" width="101.53" height="1.89" transform="translate(-31.87 96.18) rotate(-45)"/><rect class="cls-3" x="42.05" y="85.62" width="101.53" height="1.89" transform="translate(-34.02 90.99) rotate(-45)"/><rect class="cls-3" x="34.71" y="85.62" width="101.53" height="1.89" transform="translate(-36.17 85.8) rotate(-45)"/><rect class="cls-3" x="27.38" y="85.62" width="101.53" height="1.89" transform="translate(-38.32 80.61) rotate(-45)"/><rect class="cls-3" x="20.04" y="85.62" width="101.53" height="1.89" transform="translate(-40.47 75.42) rotate(-45)"/><rect class="cls-3" x="12.7" y="85.62" width="101.53" height="1.89" transform="translate(-42.62 70.23) rotate(-45)"/><rect class="cls-3" x="5.37" y="85.61" width="101.53" height="1.89" transform="translate(-44.76 65.04) rotate(-45)"/><rect class="cls-3" x="-1.97" y="85.61" width="101.53" height="1.89" transform="translate(-46.91 59.85) rotate(-45)"/><rect class="cls-3" x="20.64" y="73.22" width="66.45" height="1.89" transform="translate(-36.67 59.81) rotate(-45)"/><rect class="cls-3" x="13.3" y="73.22" width="66.45" height="1.89" transform="translate(-38.82 54.62) rotate(-45)"/><rect class="cls-3" x="5.97" y="73.21" width="66.45" height="1.89" transform="translate(-40.96 49.43) rotate(-45)"/><rect class="cls-3" x="-1.37" y="73.21" width="66.45" height="1.89" transform="translate(-43.11 44.24) rotate(-45)"/></g><path class="cls-6" d="M43.4,112.76c-.09.71-.2,2-.31,3.5.93-2.43,2.49-5.32,5-4.34,2.21.84,2.79,3.2,2.88,5.27a1.5,1.5,0,0,1,.09-.18c1.25-2.38,3.26-5.48,5.89-4.41,2.17.88,1.65,4,1.48,6.15-.2,2.48-.18,4.55.67,5.23s1.83.27,3.25-1.2a48.45,48.45,0,0,0,4.6-6,.79.79,0,1,1,1.3.9,46.89,46.89,0,0,1-4.76,6.21c-1.41,1.47-3.5,2.87-5.39,1.34s-1.44-4.34-1.26-6.59c.22-2.73.13-4.31-.49-4.56-1-.41-2.48,1-3.89,3.68a38.8,38.8,0,0,0-2.31,5.62.79.79,0,0,1-1.53-.42s0,0,0,0a20.57,20.57,0,0,0,.75-5.51c0-2-.59-3.52-1.86-4-.9-.34-2,.81-3.08,3.66a46.56,46.56,0,0,0-1.92,8.08.78.78,0,0,1-.9.65A.79.79,0,0,1,41,125s.47-9.7.84-12.45a.79.79,0,0,1,.89-.68.78.78,0,0,1,.68.89h0Z"/><path class="cls-6" d="M68.09,120.05a3.93,3.93,0,0,0,3.63,4.19,5.42,5.42,0,0,0,.57,0,12.91,12.91,0,0,0,7.19-2.76,25.08,25.08,0,0,0,5.07-4.74.79.79,0,0,1,1.26,1,26,26,0,0,1-5.41,5.07,14.34,14.34,0,0,1-8.11,3.06,5.56,5.56,0,0,1-5.79-5.3,4.68,4.68,0,0,1,0-.53c0-.4,0-.81.08-1.2.6-5.21,4.53-7,6.67-7,2.33,0,4,1.31,4,3.18a4.09,4.09,0,0,1-2.16,3.29,12.7,12.7,0,0,1-7,1.53Zm6.18-3a2.56,2.56,0,0,0,1.42-2c0-.7-.61-1.57-2.44-1.57-1.35,0-4.22,1.1-5,4.82A11.11,11.11,0,0,0,74.27,117Z"/><path class="cls-6" d="M86.57,112.76c-.1.71-.25,2-.41,3.45,1.15-2.56,3-5.27,5.68-4.3s2.21,4.46,2.07,7c-.16,2.78-.07,4.71.4,5,.69.4,1.82-.11,3.22-1.68a40.29,40.29,0,0,0,4.11-5.38.8.8,0,0,1,1.37.82,42.35,42.35,0,0,1-4.3,5.61c-1.33,1.5-3.26,3.13-5.2,2s-1.31-4.13-1.19-6.45c.17-3,0-5-1-5.4-1.36-.48-2.82,1.18-4.06,4.31a44.63,44.63,0,0,0-2,7.46.82.82,0,0,1-.8.66.81.81,0,0,1-.77-.85v0s1-9.72,1.35-12.41a.8.8,0,0,1,1-.61.79.79,0,0,1,.62.82Z"/><path class="cls-6" d="M104.23,120.83a65,65,0,0,1,8.93-4.32.79.79,0,1,1,.71,1.42h0a63.69,63.69,0,0,0-9.06,4.41,10.37,10.37,0,0,1,1,5.59c-1,7-8.52,6.27-7.53,0,.43-2.68,1.93-4.48,4.54-6.27a37.32,37.32,0,0,1-1.58-4.68,9.77,9.77,0,0,1-.21-1.3c-.2-3.07,1.34-4.92,3-5a1.92,1.92,0,0,1,2.06,1.77v.17c0,1.23-1.31,2.91-3.08,5C103.39,118.6,103.81,119.73,104.23,120.83ZM100,128.21c-.71,4.32,3.68,4.44,4.38-.5a8,8,0,0,0-.83-4.47C101.07,124.92,100.2,126.41,100,128.21Zm4.69-15.54c0-.35-.12-.4-.38-.38-.47,0-1.72.75-1.55,3.33v.22a19.17,19.17,0,0,0,1.88-3.17Z"/><path class="cls-6" d="M123.34,112.71c0,.34-.22,3-.27,3.47s-.1,1.08-.14,1.74c-.17,2.74.13,6.07.66,6.5.69.57,2.49-.59,4.64-3.27,1.33-1.66,2.51-3.46,3.13-4.38a.8.8,0,0,1,1.32.9c-.61.89-1.82,2.74-3.22,4.48-1.77,2.2-4.6,5.38-6.88,3.5-1.2-1-1.29-3.3-1.31-5.33-.29.53-.61,1.08-.94,1.58-1.43,2.19-3.5,4.61-5.91,3.9-1.84-.55-2.44-2.6-2.46-4.49a10.28,10.28,0,0,1,1.37-5.17c1.62-2.7,4.09-4.43,6.5-4.34a4.2,4.2,0,0,1,2.12.63C122.48,111.85,123.34,112.06,123.34,112.71Zm-1.83,1.35a2.78,2.78,0,0,0-1.74-.68c-1.59,0-3.64,1.18-5.08,3.57a8.91,8.91,0,0,0-1.14,4.35c0,1.72.6,2.76,1.32,3,1,.31,2.64-.94,4.13-3.24a23.92,23.92,0,0,0,1.92-3.6,6.16,6.16,0,0,0,.33-1c0-.15.18-1.58.26-2.41Z"/><path class="cls-6" d="M131.4,113v-.08c0-.52,1.2-1.27,1.52-.54s.09,5-.27,10.77c3.57-3.52,6.58-6,7.17-6.51a.79.79,0,0,1,1,1.2c-.65.56-4,3.35-7.91,7.25l-.47.48a2.35,2.35,0,0,1-.07.69,89.2,89.2,0,0,1-3.76,17.38c-2.09,6.08-5.62,9.34-8.47,8.34-2.55-.89-3.06-4.65-1.28-9.73.28-.79.61-1.64,1-2.53,2.3-5,6.55-10.18,10.54-14.34l.49-.51C131.36,119.25,131.4,114.22,131.4,113Zm-10,27.38c-.38.85-.7,1.65-1,2.4-1.78,5.11-.67,7.36.31,7.7,1.24.43,4.35-1.25,6.45-7.35a89.65,89.65,0,0,0,3.52-15.67c-3.66,3.89-7.33,8.54-9.33,12.9Zm11.18-31.76a.76.76,0,0,1,.43.93.79.79,0,0,1-1,.56h0a1.49,1.49,0,0,1-1.12-1.78s0,0,0-.07a1.52,1.52,0,0,1,.8-1,.79.79,0,0,1,1.06.33v0a.83.83,0,0,1-.23,1Z"/><path class="cls-6" d="M140.89,120.05a3.92,3.92,0,0,0,3.61,4.19,5.8,5.8,0,0,0,.59,0,12.91,12.91,0,0,0,7.19-2.76,25.35,25.35,0,0,0,5.07-4.74.8.8,0,1,1,1.25,1,25.75,25.75,0,0,1-5.4,5.07,14.34,14.34,0,0,1-8.11,3.06,5.56,5.56,0,0,1-5.79-5.3v-.51c0-.4,0-.81.08-1.2.6-5.21,4.52-7,6.66-7,2.34,0,4,1.31,4,3.18a4.09,4.09,0,0,1-2.16,3.29,12.7,12.7,0,0,1-7,1.53Zm6.18-3.06a2.56,2.56,0,0,0,1.42-2c0-.7-.61-1.57-2.45-1.57-1.34,0-4.21,1.1-5,4.82a11.15,11.15,0,0,0,6-1.24Z"/><path class="cls-6" d="M159.89,120.83a65,65,0,0,1,8.93-4.32.79.79,0,1,1,.71,1.42,63.69,63.69,0,0,0-9.06,4.41,10.37,10.37,0,0,1,1,5.59c-1,7-8.52,6.27-7.53,0,.43-2.68,1.93-4.48,4.54-6.27A38.46,38.46,0,0,1,157,117a9.77,9.77,0,0,1-.21-1.3c-.2-3.07,1.34-4.92,3-5a1.91,1.91,0,0,1,2,1.83v.11c0,1.23-1.31,2.91-3.08,5C159.05,118.6,159.47,119.73,159.89,120.83Zm-4.33,7.38c-.71,4.32,3.68,4.44,4.38-.5a8,8,0,0,0-.83-4.47C156.73,124.92,155.86,126.41,155.56,128.21Zm4.69-15.54c0-.35-.12-.4-.38-.38-.47,0-1.72.75-1.55,3.33v.22A20.18,20.18,0,0,0,160.25,112.67Z"/><path class="cls-7" d="M135.77,73.7a10.42,10.42,0,0,1-1.93,5.74,1.41,1.41,0,0,0,0,1.53,1.34,1.34,0,0,0,1.11.59h.28a23.93,23.93,0,0,0,11.23-5.65h.17a23.63,23.63,0,0,0,19.78-9.39,19,19,0,0,0,3.1.16h.35A31,31,0,0,0,184.39,74h.27a1.38,1.38,0,0,0,1.12-.6,1.44,1.44,0,0,0,0-1.52,14.38,14.38,0,0,1-2.37-7.68c9-4,14.61-11.12,14.61-19,0-12-12.73-21.77-28.4-21.77-14.4,0-26.5,8.17-28.19,19-9.82,1.85-16.87,8.65-16.87,16.46C124.56,65.08,128.83,70.68,135.77,73.7Zm33.79-9.87a30.75,30.75,0,0,1-3.59-.22c-11.84-1.23-20.89-8.35-22-17a12.63,12.63,0,0,1,0-1.74V43.58c.89-9.84,12-17.6,25.63-17.6,14.14,0,25.68,8.6,25.68,19.05,0,6.91-5.25,13.41-13.74,16.7A1.41,1.41,0,0,0,180.7,63,17.07,17.07,0,0,0,182,70.52a24.1,24.1,0,0,1-10.45-6.12,1.28,1.28,0,0,0-1-.47ZM127.5,59c0-6.26,5.77-11.84,13.93-13.61v1.8c.08.65.19,1.28.33,1.9a.6.6,0,0,1,0,.19c.16.55.43,1.47.51,1.66s.27.41.27.63l.49,1.14.41.71c.19.35.44.76.57,1a7.77,7.77,0,0,0,.49.73c.21.3.41.6.66.9l.57.71.73.84.68.68L148,59l.73.62.93.74.79.57c.32.23.66.45,1,.65l.87.55,1.06.6.92.48,1.15.52a3.11,3.11,0,0,0,1,.41l1.22.46,1,.36,1.33.38,1,.27a5.78,5.78,0,0,0,1.41.33l1,.19h.16a21.43,21.43,0,0,1-16.73,7H146a1.46,1.46,0,0,0-1,.49,17.4,17.4,0,0,1-7.27,4.46,14,14,0,0,0,.79-5.44,1.35,1.35,0,0,0-.87-1.22C131.36,69,127.28,64.18,127.5,59Z"/><path class="cls-7" d="M169.45,50.58h0a4.87,4.87,0,1,0-4.87-4.87h0A4.87,4.87,0,0,0,169.45,50.58Zm-2.15-4.87h0a2.15,2.15,0,1,1,2.15,2.15h0A2.16,2.16,0,0,1,167.3,45.71Z"/><path class="cls-7" d="M161.48,45.71h0a4.87,4.87,0,1,0-4.84,4.9,4.86,4.86,0,0,0,4.84-4.9v0Zm-4.84-2.13a2.12,2.12,0,0,1,2.12,2.12h0a2.15,2.15,0,1,1-2.12-2.18Z"/><path class="cls-7" d="M177.42,45.71h0a4.87,4.87,0,1,0,4.85-4.9,4.88,4.88,0,0,0-4.85,4.9v0Zm2.72,0h0a2.15,2.15,0,1,1,2.13,2.18,2.15,2.15,0,0,1-2.13-2.18v0Z"/></g></g></g></g></svg>