<?xml version="1.0" encoding="utf-8"?>
<!-- Generator: Adobe Illustrator 24.1.2, SVG Export Plug-In . SVG Version: 6.00 Build 0)  -->
<svg version="1.1" id="Capa_1" xmlns="http://www.w3.org/2000/svg" xmlns:xlink="http://www.w3.org/1999/xlink" x="0px" y="0px"
	 viewBox="0 0 316.2 259.1" style="enable-background:new 0 0 316.2 259.1;" xml:space="preserve">
<style type="text/css">
	.st0{fill:#0033A0;}
	.st1{clip-path:url(#SVGID_2_);}
	.st2{fill:#00AEC7;}
	.st3{fill:#4EC3E0;}
	.st4{enable-background:new    ;}
	.st5{fill:#FFFFFF;}
	.st6{fill:#E3E829;}
</style>
<g id="Diseño">
	<path class="st0" d="M312.1,74.3c0,0,10.8-88.3-118.8-72.4S10.8,28.3,1.2,120.5s43.1,82.6,82.4,107S349.1,333.9,312.1,74.3z"/>
	<g>
		<defs>
			<path id="SVGID_1_" d="M136.3,146.7c-1.5-2.2-3.5-3.9-5.9-5.1c-5.6-2.3-11.8-2.3-17.4,0c-2.4,1.2-4.4,2.9-5.8,5.1
				c-1.6,2.4-2.7,5.2-3.3,8.1c-0.7,3.5-1.1,7.1-1,10.7v2.1c-0.1,3.6,0.3,7.2,1,10.7c0.6,2.9,1.7,5.6,3.3,8.1
				c1.5,2.2,3.5,3.9,5.8,5.1c5.6,2.4,11.8,2.4,17.4,0c2.4-1.2,4.4-2.9,5.9-5.1c1.6-2.5,2.8-5.2,3.3-8.1c0.7-3.5,1-7.1,1-10.7v-2.1
				c0-3.6-0.3-7.2-1-10.7C139,151.8,137.9,149.1,136.3,146.7z M101.5,184.5H93v-41.4c0.1-0.7-0.1-1.4-0.6-2
				c-0.7-0.4-1.5-0.6-2.3-0.5h-4c-0.7,0-1.3,0-2,0.1c-0.7,0.1-1.4,0.4-2,0.8L71,147.4c-1.2,0.6-1.4,1.6-0.6,2.9l1.9,3.6
				c0.6,1,1.5,1.1,2.6,0.5l7.5-3.9h0.5v34.1h-9.5c-0.7-0.1-1.4,0.1-2,0.4c-0.4,0.6-0.5,1.3-0.4,2v2.9c-0.1,0.7,0.1,1.4,0.5,2
				c0.6,0.5,1.3,0.7,2,0.6h28.1c0.7,0.1,1.4-0.1,2-0.4c0.4-0.6,0.5-1.3,0.4-2v-2.9c0.1-0.7-0.1-1.4-0.5-2
				C103,184.6,102.2,184.4,101.5,184.5z M152.7,182.8c-1.1-0.8-2.4-1.2-3.7-1.1h-0.9c-1.3,0-2.6,0.4-3.6,1.1c-1,0.8-1.5,2.1-1.5,3.9
				v1.3c-0.1,1.4,0.3,2.8,1.2,3.8c0.8,0.9,2.1,1.3,4,1.3h0.9c1.3,0.1,2.7-0.4,3.7-1.3c1-1,1.4-2.4,1.3-3.8v-1.3
				C154.1,184.8,153.7,183.5,152.7,182.8L152.7,182.8z M271.8,154.7c-0.6-2.9-1.7-5.6-3.3-8.1c-1.5-2.2-3.5-3.9-5.9-5.1
				c-5.6-2.3-11.8-2.3-17.4,0c-2.4,1.2-4.4,2.9-5.9,5.1c-1.6,2.4-2.8,5.2-3.3,8.1c-0.7,3.5-1,7.1-1,10.7v2.1c0,3.6,0.3,7.2,1,10.7
				c0.6,2.9,1.7,5.6,3.3,8.1c1.5,2.2,3.5,3.9,5.9,5.1c5.6,2.4,11.8,2.4,17.4,0c2.4-1.2,4.4-2.9,5.9-5.1c1.6-2.5,2.7-5.2,3.3-8.1
				c0.7-3.5,1.1-7.1,1-10.7v-2.1C272.9,161.8,272.6,158.2,271.8,154.7z M188.4,146.7c-1.5-2.2-3.5-3.9-5.9-5.1
				c-5.6-2.3-11.8-2.3-17.4,0c-2.4,1.2-4.4,2.9-5.9,5.1c-1.6,2.4-2.7,5.2-3.3,8.1c-0.7,3.5-1.1,7.1-1,10.7v2.1
				c-0.1,3.6,0.3,7.2,1,10.7c0.6,2.9,1.7,5.6,3.3,8.1c1.5,2.2,3.5,3.9,5.9,5.1c5.6,2.4,11.8,2.4,17.4,0c2.4-1.2,4.4-2.9,5.9-5.1
				c1.6-2.5,2.7-5.2,3.3-8.1c0.7-3.5,1.1-7.1,1-10.7v-2.1c0.1-3.6-0.3-7.2-1-10.7C191.1,151.8,190,149.1,188.4,146.7z M228.4,146.7
				c-1.5-2.2-3.5-3.9-5.9-5.1c-5.6-2.3-11.8-2.3-17.4,0c-2.4,1.2-4.4,2.9-5.9,5.1c-1.6,2.4-2.7,5.2-3.3,8.1c-0.7,3.5-1.1,7.1-1,10.7
				v2.1c-0.1,3.6,0.3,7.2,1,10.7c0.6,2.9,1.7,5.6,3.3,8.1c1.5,2.2,3.5,3.9,5.9,5.1c5.6,2.4,11.8,2.4,17.4,0c2.4-1.2,4.4-2.9,5.9-5.1
				c1.6-2.5,2.7-5.2,3.3-8.1c0.7-3.5,1.1-7.1,1-10.7v-2.1c0.1-3.6-0.3-7.2-1-10.7C231.2,151.8,230.1,149.1,228.4,146.7z"/>
		</defs>
		<clipPath id="SVGID_2_">
			<use xlink:href="#SVGID_1_"  style="overflow:visible;"/>
		</clipPath>
		<g class="st1">
			<path class="st2" d="M73.4,192.4c-0.7,0.1-1.4-0.1-2-0.6c-0.4-0.6-0.6-1.3-0.5-2v-2.9c-0.1-0.7,0.1-1.4,0.4-2
				c0.6-0.4,1.3-0.5,2-0.4h9.5v-34h-0.5l-7.5,3.9c-1.2,0.7-2,0.5-2.6-0.5l-1.9-3.6c-0.8-1.3-0.5-2.2,0.6-2.9l11.1-5.9
				c0.6-0.4,1.3-0.6,2-0.8c0.7-0.1,1.3-0.1,2-0.1h4c0.8-0.1,1.6,0.1,2.3,0.5c0.5,0.6,0.7,1.3,0.6,2v41.4h8.6c0.7-0.1,1.4,0.1,2,0.6
				c0.4,0.6,0.6,1.3,0.5,2v3c0.1,0.7-0.1,1.4-0.4,2c-0.6,0.4-1.3,0.5-2,0.4L73.4,192.4z"/>
			<path class="st2" d="M121.7,193.1c-3,0.1-6-0.5-8.7-1.8c-2.4-1.2-4.4-2.9-5.8-5.1c-1.6-2.5-2.7-5.2-3.3-8.1
				c-0.7-3.5-1.1-7.1-1-10.7v-2.1c-0.1-3.6,0.3-7.2,1-10.7c0.6-2.9,1.7-5.6,3.3-8.1c1.5-2.2,3.5-3.9,5.8-5.1
				c5.6-2.3,11.8-2.3,17.4,0c2.4,1.2,4.4,2.9,5.9,5.1c1.6,2.4,2.8,5.2,3.3,8.1c0.7,3.5,1,7.1,1,10.7v2.1c0,3.6-0.3,7.2-1,10.7
				c-0.6,2.9-1.7,5.6-3.3,8.1c-1.5,2.2-3.5,3.9-5.9,5.1C127.7,192.6,124.7,193.2,121.7,193.1z"/>
			<path class="st2" d="M154.1,188c0.1,1.4-0.4,2.8-1.4,3.8c-1,0.9-2.3,1.4-3.7,1.3h-0.9c-1.5,0.1-2.9-0.3-4-1.3
				c-0.9-1.1-1.3-2.5-1.2-3.8v-1.3c0-1.9,0.5-3.2,1.5-3.9c1.1-0.8,2.3-1.2,3.6-1.1h0.9c1.3-0.1,2.6,0.3,3.7,1.1
				c0.9,0.8,1.4,2.1,1.4,3.9L154.1,188z"/>
			<path class="st2" d="M173.8,193.1c-3,0.1-6-0.5-8.7-1.8c-2.4-1.2-4.4-2.9-5.9-5.1c-1.6-2.5-2.7-5.2-3.3-8.1
				c-0.7-3.5-1.1-7.1-1-10.7v-2.1c-0.1-3.6,0.3-7.2,1-10.7c0.6-2.9,1.7-5.6,3.3-8.1c1.5-2.2,3.5-3.9,5.9-5.1
				c5.6-2.3,11.8-2.3,17.4,0c2.4,1.2,4.4,2.9,5.9,5.1c1.6,2.4,2.7,5.2,3.3,8.1c0.7,3.5,1.1,7.1,1,10.7v2.1c0.1,3.6-0.3,7.2-1,10.7
				c-0.6,2.9-1.7,5.6-3.3,8.1c-1.5,2.2-3.5,3.9-5.9,5.1C179.8,192.6,176.8,193.2,173.8,193.1z"/>
			<path class="st2" d="M213.9,193.1c-3,0.1-6-0.5-8.7-1.8c-2.4-1.2-4.4-2.9-5.9-5.1c-1.6-2.5-2.7-5.2-3.3-8.1
				c-0.7-3.5-1.1-7.1-1-10.7v-2.1c-0.1-3.6,0.3-7.2,1-10.7c0.6-2.9,1.7-5.6,3.3-8.1c1.5-2.2,3.5-3.9,5.9-5.1
				c5.6-2.3,11.8-2.3,17.4,0c2.4,1.2,4.4,2.9,5.9,5.1c1.6,2.4,2.7,5.2,3.3,8.1c0.7,3.5,1.1,7.1,1,10.7v2.1c0.1,3.6-0.3,7.2-1,10.7
				c-0.6,2.9-1.7,5.6-3.3,8.1c-1.5,2.2-3.5,3.9-5.9,5.1C219.9,192.6,216.9,193.2,213.9,193.1z"/>
			<path class="st2" d="M254,193.1c-3,0.1-6-0.5-8.7-1.8c-2.4-1.2-4.4-2.9-5.9-5.1c-1.6-2.5-2.8-5.2-3.3-8.1c-0.7-3.5-1-7.1-1-10.7
				v-2.1c0-3.6,0.3-7.2,1-10.7c0.6-2.9,1.7-5.6,3.3-8.1c1.5-2.2,3.5-3.9,5.9-5.1c5.6-2.3,11.8-2.3,17.4,0c2.4,1.2,4.4,2.9,5.9,5.1
				c1.6,2.4,2.7,5.2,3.3,8.1c0.7,3.5,1.1,7.1,1,10.7v2.1c0,3.6-0.3,7.2-1,10.7c-0.6,2.9-1.7,5.6-3.3,8.1c-1.5,2.2-3.5,3.9-5.9,5.1
				C260,192.6,257,193.2,254,193.1z"/>
			
				<rect x="60.6" y="112.5" transform="matrix(0.7071 -0.7071 0.7071 0.7071 -106.2223 95.1983)" class="st3" width="2.4" height="126.7"/>
			
				<rect x="69.8" y="112.5" transform="matrix(0.7071 -0.7071 0.7071 0.7071 -103.5394 101.6812)" class="st3" width="2.4" height="126.7"/>
			
				<rect x="78.9" y="112.5" transform="matrix(0.7071 -0.7071 0.7071 0.7071 -100.8594 108.1571)" class="st3" width="2.4" height="126.7"/>
			
				<rect x="88.1" y="112.5" transform="matrix(0.7071 -0.7071 0.7071 0.7071 -98.1794 114.6272)" class="st3" width="2.4" height="126.7"/>
			
				<rect x="97.2" y="112.5" transform="matrix(0.7071 -0.7071 0.7071 0.7071 -95.4994 121.0972)" class="st3" width="2.4" height="126.7"/>
			
				<rect x="106.4" y="112.5" transform="matrix(0.7071 -0.7071 0.7071 0.7071 -92.8223 127.5743)" class="st3" width="2.4" height="126.7"/>
			
				<rect x="115.5" y="112.5" transform="matrix(0.7071 -0.7071 0.7071 0.7071 -90.1394 134.0373)" class="st3" width="2.4" height="126.7"/>
			
				<rect x="124.7" y="112.5" transform="matrix(0.7071 -0.7071 0.7071 0.7071 -87.4594 140.5073)" class="st3" width="2.4" height="126.7"/>
			
				<rect x="133.9" y="112.5" transform="matrix(0.7071 -0.7071 0.7071 0.7071 -84.7823 146.9903)" class="st3" width="2.4" height="126.7"/>
			
				<rect x="143" y="112.5" transform="matrix(0.7071 -0.7071 0.7071 0.7071 -82.1023 153.4603)" class="st3" width="2.4" height="126.7"/>
			
				<rect x="152.2" y="112.5" transform="matrix(0.7071 -0.7071 0.7071 0.7071 -79.4094 159.9274)" class="st3" width="2.4" height="126.7"/>
			
				<rect x="161.3" y="112.5" transform="matrix(0.7071 -0.7071 0.7071 0.7071 -76.7294 166.4092)" class="st3" width="2.4" height="126.7"/>
			
				<rect x="170.5" y="112.5" transform="matrix(0.7071 -0.7071 0.7071 0.7071 -74.0494 172.8792)" class="st3" width="2.4" height="126.7"/>
			
				<rect x="179.6" y="112.5" transform="matrix(0.7071 -0.7071 0.7071 0.7071 -71.3694 179.3493)" class="st3" width="2.4" height="126.7"/>
			
				<rect x="188.8" y="112.5" transform="matrix(0.7071 -0.7071 0.7071 0.7071 -68.6894 185.8193)" class="st3" width="2.4" height="126.7"/>
			
				<rect x="197.9" y="112.5" transform="matrix(0.7071 -0.7071 0.7071 0.7071 -66.0094 192.2893)" class="st3" width="2.4" height="126.7"/>
			
				<rect x="207.1" y="112.5" transform="matrix(0.7071 -0.7071 0.7071 0.7071 -63.3323 198.7723)" class="st3" width="2.4" height="126.7"/>
			
				<rect x="216.2" y="112.5" transform="matrix(0.7071 -0.7071 0.7071 0.7071 -60.6523 205.2423)" class="st3" width="2.4" height="126.7"/>
			
				<rect x="225.4" y="112.5" transform="matrix(0.7071 -0.7071 0.7071 0.7071 -57.9664 211.7124)" class="st3" width="2.4" height="126.7"/>
			
				<rect x="234.5" y="112.5" transform="matrix(0.7071 -0.7071 0.7071 0.7071 -55.2823 218.1783)" class="st3" width="2.4" height="126.7"/>
			
				<rect x="243.7" y="112.5" transform="matrix(0.7071 -0.7071 0.7071 0.7071 -52.6023 224.6483)" class="st3" width="2.4" height="126.7"/>
			
				<rect x="237.2" y="119" transform="matrix(0.7071 -0.7071 0.7071 0.7071 -43.4403 215.4602)" class="st3" width="2.4" height="82.4"/>
			
				<rect x="246.4" y="119" transform="matrix(0.7071 -0.7071 0.7071 0.7071 -40.7503 221.9402)" class="st3" width="2.4" height="82.4"/>
			
				<rect x="255.5" y="119" transform="matrix(0.7071 -0.7071 0.7071 0.7071 -38.0703 228.4102)" class="st3" width="2.4" height="82.4"/>
			
				<rect x="264.7" y="119" transform="matrix(0.7071 -0.7071 0.7071 0.7071 -35.3903 234.8803)" class="st3" width="2.4" height="82.4"/>
			
				<rect x="273.8" y="119" transform="matrix(0.7071 -0.7071 0.7071 0.7071 -32.7133 241.3632)" class="st3" width="2.4" height="82.4"/>
			
				<rect x="278.2" y="121" transform="matrix(0.7071 -0.7071 0.7071 0.7071 -28.0416 243.0275)" class="st3" width="2.4" height="68.8"/>
		</g>
	</g>
	<g class="st4">
		<path class="st5" d="M60.5,122.5c1.7-3.2,4.3-6.8,7.8-5.2c2.5,1.1,2,5.1,1.7,8.1c-0.3,3.5-0.3,6.6,0.2,7.1
			c0.3,0.3,0.6,0.4,0.9,0.4c1.4,0,3.5-2.2,5.2-4.8c1.6-2.4,2.8-5.2,3.6-5.1c0.5,0.1,0.9,0.6,0.8,1.2c0,0.1-4.6,10.6-9.6,10.8
			c-0.8,0-1.7-0.3-2.3-0.9c-1.8-1.7-1.1-5.6-0.9-8.7c0.3-3.6,0-5.9-0.6-6.1c-1.7-0.8-3.5,0.8-5.2,4.2c-2.3,4.5-3.7,10.7-3.7,10.7
			c-0.1,0.4-0.4,0.7-0.8,0.8c-0.6,0.1-1.1-0.3-1.2-0.9c-0.2-2.5,0.1-7.7,0.9-13.6c0.7-5.3,1.6-11.1,2.7-16
			c1.3-5.7,2.9-12.4,6.1-11.2c3.3,1.3,1.8,7.3,0.3,12.6c-1.9,6.5-4.7,13.4-7.3,17.4c0,0-0.3,1.9-0.4,2.9
			C59.4,124.9,59.9,123.7,60.5,122.5z M64.7,105.2c1.7-5.8,1.7-9.7,1-10.1c-0.8,0.5-2.3,4.4-3.5,9.7c-0.9,4-1.7,8.7-2.3,13.1
			C61.5,114.3,63.4,109.5,64.7,105.2z"/>
		<path class="st5" d="M92.3,118.4c0,0.4-0.3,3.8-0.3,4.4c-0.1,0.6-0.1,1.4-0.2,2.2c-0.2,3.5,0.2,7.7,0.8,8.2
			c0.9,0.7,3.1-0.8,5.9-4.1c1.7-2.1,3.2-4.4,4-5.5c0.3-0.5,0.9-0.6,1.4-0.3c0.5,0.3,0.6,0.9,0.3,1.4c-0.8,1.1-2.3,3.5-4.1,5.7
			c-2.2,2.8-5.8,6.8-8.7,4.4c-1.5-1.2-1.6-4.2-1.6-6.7c-0.4,0.7-0.8,1.4-1.2,2c-1.8,2.8-4.4,5.8-7.5,4.9c-2.3-0.7-3.1-3.3-3.1-5.7
			c0-2.2,0.6-4.6,1.7-6.5c2-3.4,5.2-5.6,8.2-5.5c0.9,0,1.9,0.3,2.7,0.8C91.2,117.3,92.3,117.5,92.3,118.4z M90,120.1
			c-0.7-0.6-1.4-0.8-2.2-0.9c-2-0.1-4.6,1.5-6.4,4.5c-0.9,1.5-1.4,3.7-1.4,5.5c0,2.2,0.8,3.5,1.7,3.8c1.3,0.4,3.3-1.2,5.2-4.1
			c1-1.5,1.8-3.1,2.4-4.5c0.2-0.4,0.3-0.8,0.4-1.2C89.7,122.9,89.9,121.1,90,120.1C90,120.1,90,120.1,90,120.1z"/>
		<path class="st5" d="M105.6,128.6c5-3.1,10.7-5.2,11.3-5.5c0.5-0.2,1.1,0,1.3,0.4s0,1.1-0.4,1.3c-0.9,0.4-6.5,2.5-11.4,5.6
			c0.8,2,1.7,4.1,1.3,7.1c-1.2,8.8-10.8,7.9-9.5,0.1c0.5-3.4,2.4-5.6,5.7-7.9c-0.8-2-1.6-4.1-2-5.9c-0.1-0.6-0.2-1.1-0.3-1.7
			c-0.3-3.9,1.7-6.2,3.8-6.3c1.3-0.1,2.6,0.9,2.6,2.4c0,1.5-1.7,3.7-3.9,6.3C104.5,125.8,105.1,127.2,105.6,128.6z M100.1,137.9
			c-0.9,5.5,4.6,5.6,5.5-0.6c0.3-2.3-0.4-3.8-1.1-5.6C101.6,133.8,100.5,135.6,100.1,137.9z M106,118.3c0-0.4-0.2-0.5-0.5-0.5
			c-0.6,0-2.2,1-2,4.2c0,0.1,0,0.2,0,0.3C104.9,120.3,106,118.7,106,118.3z"/>
		<path class="st5" d="M119.5,131.6c0.6,1.4,1.2,1.6,1.8,1.6c2.8-0.1,8.2-7.6,9.3-9.5c0.3-0.5,0.9-0.7,1.4-0.4s0.7,0.9,0.4,1.4
			c-1,1.9-6.3,10.5-11,10.6c-1.6,0-2.9-1-3.7-2.8c-1-2.4-1.3-5.9-1.3-10c0-3,0.3-6.3,0.8-9.5l-6.3,0.4c-0.5,0-1-0.4-1.1-0.9
			c0-0.5,0.4-1,0.9-1.1l6.7-0.4c0.4-2.6,0.9-5.1,1.5-7.4c0.5-2.1,1.1-4,1.7-5.6c1-2.6,2.4-5.6,4.7-4.8c3.3,1.3,1.8,7.7,0.3,13.3
			c-0.4,1.3-0.8,2.6-1.2,3.9l3.2-0.2c0.5,0,1,0.4,1.1,0.9c0,0.5-0.4,1-0.9,1.1l-4,0.2c-1.7,5-3.8,9.6-5.2,12.1
			C118.5,127.6,118.9,130.1,119.5,131.6z M119.2,112.8c-0.3,2.5-0.6,5-0.7,7.3c1-2.1,2-4.7,3-7.5L119.2,112.8z M123.6,106
			c1.8-6.4,1.7-10.6,0.9-10.9c-0.6,0.2-2.4,3.6-3.7,8.9c-0.5,2.1-1,4.4-1.3,6.8l2.7-0.2C122.7,109.1,123.2,107.5,123.6,106z"/>
		<path class="st5" d="M143.7,118.4c0,0.4-0.3,3.8-0.3,4.4c-0.1,0.6-0.1,1.4-0.2,2.2c-0.2,3.5,0.2,7.7,0.8,8.2
			c0.9,0.7,3.1-0.8,5.9-4.1c1.7-2.1,3.2-4.4,4-5.5c0.3-0.5,0.9-0.6,1.4-0.3c0.5,0.3,0.6,0.9,0.3,1.4c-0.8,1.1-2.3,3.5-4.1,5.7
			c-2.2,2.8-5.8,6.8-8.7,4.4c-1.5-1.2-1.6-4.2-1.6-6.7c-0.4,0.7-0.8,1.4-1.2,2c-1.8,2.8-4.4,5.8-7.5,4.9c-2.3-0.7-3.1-3.3-3.1-5.7
			c0-2.2,0.6-4.6,1.7-6.5c2-3.4,5.2-5.6,8.2-5.5c0.9,0,1.9,0.3,2.7,0.8C142.6,117.3,143.7,117.5,143.7,118.4z M141.4,120.1
			c-0.7-0.6-1.4-0.8-2.2-0.9c-2-0.1-4.6,1.5-6.4,4.5c-0.9,1.5-1.4,3.7-1.4,5.5c0,2.2,0.8,3.5,1.7,3.8c1.3,0.4,3.3-1.2,5.2-4.1
			c1-1.5,1.8-3.1,2.4-4.5c0.2-0.4,0.3-0.8,0.4-1.2C141.1,122.9,141.3,121.1,141.4,120.1C141.4,120.1,141.4,120.1,141.4,120.1z"/>
		<path class="st5" d="M170.2,127.6c-0.1,3.7,2.6,5.3,5.3,5.3c3.2,0,6.4-1.6,9.1-3.5c3.8-2.8,5.9-5.4,6.4-6c0.3-0.4,1-0.5,1.4-0.2
			c0.4,0.3,0.5,1,0.2,1.4c-0.5,0.7-2.8,3.5-6.8,6.4c-2.9,2-6.4,3.9-10.2,3.9c-3.6,0-7.4-2.4-7.3-7.3c0-0.5,0-1,0.1-1.5
			c0.8-6.6,5.7-8.8,8.4-8.8c2.9,0,5.1,1.6,5.1,4c0,1.6-1,3.1-2.7,4.2c-1.9,1.2-4.9,2-8.9,1.9C170.2,127.5,170.2,127.6,170.2,127.6z
			 M178,123.8c1.3-0.9,1.8-1.8,1.8-2.5c0-0.9-0.8-2-3.1-2c-1.7,0-5.3,1.4-6.3,6.1C174.1,125.4,176.5,124.7,178,123.8z"/>
		<path class="st5" d="M190.8,122c0.1-4.8,0.8-10.3,1.8-15.2c0.7-3.4,1.5-6.5,2.4-8.8c1-2.6,2.4-5.6,4.7-4.7
			c3.8,1.4,1.4,10.1-0.9,16.9c-1.6,4.8-3.6,9.6-5.1,12.7c-0.3,0.5-0.5,1-0.8,1.5c0.1,3.1,0.4,5.7,1.1,7.3c0.8,1.8,1.5,1.8,2.6,1.3
			c2.7-1.2,6.5-6.6,7.9-9.3c0.3-0.5,0.9-0.7,1.4-0.4c0.5,0.3,0.7,0.9,0.4,1.4c-1.5,2.9-5.2,8.6-8.9,10.2c-2,0.9-4.1,0.2-5.2-2.4
			c-0.9-2-1.2-4.9-1.3-8.2c0-0.1,0-0.1,0-0.2C190.8,123.3,190.8,122.7,190.8,122z M196.8,109.5c2.6-7.8,3.2-13.9,2.1-14.4
			c-0.9,0.3-3,5.2-4.4,12.1c-0.8,4-1.4,8.4-1.6,12.5C194.2,116.8,195.6,113.1,196.8,109.5z"/>
		<path class="st5" d="M232.5,118.4c0,0.4-0.3,3.8-0.3,4.4c-0.1,0.6-0.1,1.4-0.2,2.2c-0.2,3.5,0.2,7.7,0.8,8.2
			c0.9,0.7,3.1-0.8,5.9-4.1c1.7-2.1,3.2-4.4,4-5.5c0.3-0.5,0.9-0.6,1.4-0.3c0.5,0.3,0.6,0.9,0.3,1.4c-0.8,1.1-2.3,3.5-4.1,5.7
			c-2.2,2.8-5.8,6.8-8.7,4.4c-1.5-1.2-1.6-4.2-1.6-6.7c-0.4,0.7-0.8,1.4-1.2,2c-1.8,2.8-4.4,5.8-7.5,4.9c-2.3-0.7-3.1-3.3-3.1-5.7
			c0-2.2,0.6-4.6,1.7-6.5c2-3.4,5.2-5.6,8.2-5.5c0.9,0,1.9,0.3,2.7,0.8C231.4,117.3,232.5,117.5,232.5,118.4z M230.2,120.1
			c-0.7-0.6-1.4-0.8-2.2-0.9c-2-0.1-4.6,1.5-6.4,4.5c-0.9,1.5-1.4,3.7-1.4,5.5c0,2.2,0.8,3.5,1.7,3.8c1.3,0.4,3.3-1.2,5.2-4.1
			c1-1.5,1.8-3.1,2.4-4.5c0.2-0.4,0.3-0.8,0.4-1.2C229.9,122.9,230.1,121.1,230.2,120.1C230.2,120.1,230.2,120.1,230.2,120.1z"/>
		<path class="st5" d="M245.2,118.4c-0.1,0.9-0.3,2.6-0.5,4.3c1.5-3.2,3.7-6.7,7.2-5.4c3.2,1.1,2.8,5.6,2.6,8.8
			c-0.2,3.5-0.1,5.9,0.5,6.3c0.9,0.5,2.3-0.1,4.1-2.1c2.5-2.9,4.3-5.4,5.2-6.8c0.3-0.5,0.9-0.6,1.4-0.3c0.5,0.3,0.6,0.9,0.3,1.4
			c-0.9,1.6-2.8,4.1-5.4,7.1c-1.7,1.9-4.1,4-6.6,2.5c-2.3-1.3-1.7-5.2-1.5-8.1c0.2-3.8,0-6.4-1.3-6.8c-1.7-0.6-3.6,1.5-5.1,5.4
			c-1.7,4.3-2.6,9.4-2.6,9.4c-0.1,0.4-0.5,0.8-1,0.8c-0.6,0-1-0.5-1-1.1c0,0,1.2-12.3,1.7-15.7c0.1-0.5,0.6-0.9,1.1-0.9
			C244.9,117.4,245.3,117.9,245.2,118.4z"/>
		<path class="st5" d="M285.8,123.4c0.4-0.4,1-0.4,1.4-0.1c0.4,0.4,0.5,1,0.1,1.4c-2.7,2.4-7.7,3.9-11.6,4c-1,3.4-3.5,6.8-7.1,6.2
			c-4.3-0.7-5.3-5.8-4.5-10.2c0.2-1.2,0.6-2.5,1.1-3.7c0.1-0.3,0.5-0.6,0.8-0.6c0.9-2.2,3.5-3.7,6.2-3c3,0.8,4.1,3.9,4.2,6.8
			c0,0.8,0,1.7-0.2,2.6C279.3,126.5,283.6,125.3,285.8,123.4z M266,125c-0.7,4.3,0.5,7.5,2.9,7.9c1.9,0.3,3.7-1.4,4.7-4.3
			c-1.5-0.2-3-0.7-4.3-1.4c-1.5-0.8-2.6-1.8-3.2-2.9C266.1,124.5,266,124.8,266,125z M274.3,124.2c-0.1-2.7-1-4.5-2.7-4.9
			c-1.6-0.4-3.1,0.4-3.7,1.6c-0.2,0.4-0.3,0.9-0.3,1.3c0,1,0.6,2.2,2.7,3.3c1.2,0.7,2.5,1,3.9,1.2
			C274.3,125.8,274.3,125,274.3,124.2z"/>
	</g>
	<g>
		<g class="st4">
			<path class="st6" d="M99.2,66.4c0,0.2-0.1,0.3-0.3,0.3h-0.8c-0.2,0-0.3-0.1-0.3-0.3v-6c-0.5-1-1-1.9-1.5-2.8
				c-0.4-0.9-0.9-1.7-1.3-2.6c-0.4-0.9-0.8-1.8-1.2-2.8c-0.4-1-0.8-2.1-1.2-3.3c-0.1-0.2,0-0.3,0.2-0.3h0.9c0.1,0,0.2,0.1,0.3,0.2
				c1.3,3.9,2.7,7.2,4.3,10h0.2c1.6-2.8,3-6.2,4.3-10c0.1-0.1,0.1-0.2,0.3-0.2h0.9c0.2,0,0.2,0.1,0.2,0.3c-0.4,1.2-0.8,2.3-1.2,3.3
				c-0.4,1-0.8,1.9-1.2,2.8c-0.4,0.9-0.8,1.8-1.3,2.6c-0.4,0.9-0.9,1.8-1.5,2.8V66.4z"/>
			<path class="st6" d="M123.3,71.5c0,0.2-0.1,0.2-0.2,0.2h-0.8c-0.1,0-0.2-0.1-0.2-0.2v-6.3H122c-0.4,0.6-1,1-1.6,1.3
				c-0.6,0.3-1.4,0.4-2.4,0.4c-1.8,0-3.2-0.5-4-1.4c-0.8-1-1.2-2.5-1.2-4.7v-1.5c0-1.3,0.1-2.3,0.3-3.2c0.2-0.9,0.5-1.5,0.9-2
				c0.4-0.5,1-0.9,1.6-1.1c0.7-0.2,1.4-0.3,2.4-0.3c1.9,0,3.2,0.6,4,1.7h0.1l0.1-1.2c0-0.2,0.1-0.3,0.3-0.3h0.5c0.1,0,0.2,0,0.2,0
				c0,0,0.1,0.1,0.1,0.2V71.5z M118,53.8c-0.7,0-1.3,0.1-1.8,0.3c-0.5,0.2-0.9,0.5-1.2,1c-0.3,0.4-0.6,1-0.7,1.8
				c-0.1,0.7-0.2,1.7-0.2,2.8v1c0,0.9,0.1,1.7,0.2,2.4s0.4,1.2,0.7,1.6c0.3,0.4,0.7,0.7,1.3,0.9s1.2,0.3,2,0.3
				c1.2,0,2.1-0.3,2.8-0.9c0.7-0.6,1.1-1.5,1.1-2.7v-4.4c0-1.3-0.4-2.3-1.1-2.9C120.3,54.1,119.3,53.8,118,53.8z"/>
			<path class="st6" d="M132.1,65.9c0.8,0,1.4-0.1,1.8-0.2c0.4-0.1,0.8-0.3,1.1-0.6c0.3-0.2,0.5-0.6,0.6-1c0.1-0.4,0.2-1,0.2-1.7
				v-9.2c0-0.2,0.1-0.2,0.2-0.2h0.8c0.1,0,0.2,0.1,0.2,0.2v9.4c0,0.8-0.1,1.4-0.2,2c-0.2,0.5-0.4,1-0.9,1.4
				c-0.4,0.3-0.9,0.6-1.4,0.8c-0.6,0.2-1.4,0.3-2.3,0.3s-1.8-0.1-2.3-0.3c-0.6-0.2-1.1-0.4-1.4-0.8c-0.4-0.4-0.7-0.8-0.9-1.4
				c-0.2-0.5-0.2-1.2-0.2-2v-9.4c0-0.2,0.1-0.2,0.2-0.2h0.8c0.1,0,0.2,0.1,0.2,0.2v9.2c0,0.7,0.1,1.3,0.2,1.7c0.1,0.4,0.3,0.7,0.6,1
				c0.3,0.3,0.7,0.5,1.1,0.6C130.7,65.8,131.3,65.9,132.1,65.9z"/>
			<path class="st6" d="M150,59.4c0,0.4-0.1,0.7-0.3,0.9c-0.2,0.2-0.5,0.3-0.9,0.3h-7.3c0,1,0.1,1.8,0.3,2.5
				c0.1,0.7,0.4,1.2,0.7,1.6c0.3,0.4,0.7,0.7,1.2,0.9c0.5,0.2,1.1,0.3,1.8,0.3c0.5,0,1-0.1,1.7-0.2c0.6-0.1,1.2-0.3,1.7-0.5
				c0.2-0.1,0.3,0,0.4,0.1l0.2,0.4c0,0.1,0,0.2,0,0.3c0,0.1-0.1,0.1-0.3,0.2c-0.5,0.2-1.1,0.4-1.8,0.5c-0.7,0.1-1.3,0.2-1.9,0.2
				c-1,0-1.8-0.1-2.5-0.4s-1.2-0.6-1.6-1.1c-0.4-0.5-0.7-1.2-0.9-2s-0.3-1.8-0.3-3v-1.3c0-2.3,0.4-3.9,1.2-5c0.8-1,2.1-1.6,3.9-1.6
				c3.1,0,4.7,1.7,4.7,5.1V59.4z M148.4,59.4c0.1,0,0.3,0,0.3-0.1c0.1,0,0.1-0.2,0.1-0.4v-0.9c0-1.6-0.3-2.7-0.8-3.3
				c-0.6-0.7-1.4-1-2.6-1c-0.7,0-1.2,0.1-1.7,0.3c-0.5,0.2-0.9,0.5-1.2,0.9c-0.3,0.4-0.5,1-0.7,1.7c-0.2,0.7-0.2,1.6-0.3,2.8H148.4z
				"/>
			<path class="st6" d="M168.1,65.8c0.1,0.2,0.1,0.3,0,0.3c0,0.1-0.1,0.1-0.3,0.2c-0.4,0.2-0.9,0.3-1.5,0.5
				c-0.6,0.1-1.2,0.2-1.7,0.2c-1.7,0-3-0.4-3.9-1.2c-0.6-0.5-1-1.3-1.2-2.2c-0.2-0.9-0.4-2-0.4-3.3v-1c0-1.4,0.1-2.5,0.4-3.4
				c0.2-0.8,0.6-1.5,1.2-2c0.8-0.8,2.1-1.2,3.7-1.2c0.8,0,1.6,0.1,2.2,0.3c0.7,0.2,1.2,0.5,1.6,0.8c0.1,0.1,0.2,0.2,0.1,0.4
				l-0.4,0.5c-0.1,0.1-0.2,0.1-0.4,0c-0.9-0.6-2-0.9-3.2-0.9c-0.7,0-1.2,0.1-1.7,0.2c-0.4,0.1-0.8,0.4-1.1,0.6
				c-0.3,0.3-0.5,0.6-0.7,1c-0.2,0.4-0.3,0.7-0.4,1.2c-0.1,0.4-0.1,0.8-0.1,1.3c0,0.5,0,0.9,0,1.4V60c0,1.1,0.1,2.1,0.2,2.9
				c0.2,0.8,0.5,1.4,0.9,2c0.3,0.3,0.7,0.6,1.2,0.7c0.5,0.2,1.2,0.3,1.8,0.3c0.4,0,0.9,0,1.5-0.1c0.5-0.1,1-0.2,1.5-0.4
				c0.2-0.1,0.3,0,0.4,0.2L168.1,65.8z"/>
			<path class="st6" d="M180.3,59.4c0,0.4-0.1,0.7-0.3,0.9c-0.2,0.2-0.5,0.3-0.9,0.3h-7.3c0,1,0.1,1.8,0.3,2.5
				c0.2,0.7,0.4,1.2,0.7,1.6c0.3,0.4,0.7,0.7,1.2,0.9c0.5,0.2,1.1,0.3,1.8,0.3c0.5,0,1-0.1,1.7-0.2c0.6-0.1,1.2-0.3,1.7-0.5
				c0.2-0.1,0.3,0,0.4,0.1l0.2,0.4c0,0.1,0,0.2,0,0.3c0,0.1-0.1,0.1-0.3,0.2c-0.5,0.2-1.1,0.4-1.8,0.5c-0.7,0.1-1.3,0.2-1.9,0.2
				c-1,0-1.8-0.1-2.5-0.4s-1.2-0.6-1.6-1.1s-0.7-1.2-0.9-2c-0.2-0.8-0.3-1.8-0.3-3v-1.3c0-2.3,0.4-3.9,1.2-5c0.8-1,2.1-1.6,3.9-1.6
				c3.1,0,4.7,1.7,4.7,5.1V59.4z M178.7,59.4c0.2,0,0.3,0,0.3-0.1c0.1,0,0.1-0.2,0.1-0.4v-0.9c0-1.6-0.3-2.7-0.8-3.3
				c-0.6-0.7-1.4-1-2.6-1c-0.7,0-1.2,0.1-1.7,0.3c-0.5,0.2-0.9,0.5-1.2,0.9c-0.3,0.4-0.5,1-0.7,1.7c-0.2,0.7-0.2,1.6-0.3,2.8H178.7z
				"/>
			<path class="st6" d="M183.9,47.9c0-0.1,0.1-0.2,0.2-0.2h0.8c0.1,0,0.2,0.1,0.2,0.2v15.7c0,0.8,0.1,1.4,0.3,1.6
				c0.2,0.3,0.6,0.4,1.1,0.4h0.7c0.1,0,0.2,0.1,0.2,0.2v0.7c0,0.2-0.1,0.2-0.2,0.2h-0.6c-1,0-1.7-0.2-2.1-0.6
				c-0.4-0.4-0.6-1.2-0.6-2.3V47.9z"/>
			<path class="st6" d="M199.5,59.4c0,0.4-0.1,0.7-0.3,0.9c-0.2,0.2-0.5,0.3-0.9,0.3H191c0,1,0.1,1.8,0.3,2.5
				c0.1,0.7,0.4,1.2,0.7,1.6c0.3,0.4,0.7,0.7,1.2,0.9c0.5,0.2,1.1,0.3,1.8,0.3c0.5,0,1-0.1,1.7-0.2c0.6-0.1,1.2-0.3,1.7-0.5
				c0.2-0.1,0.3,0,0.4,0.1l0.2,0.4c0,0.1,0,0.2,0,0.3c0,0.1-0.1,0.1-0.3,0.2c-0.5,0.2-1.1,0.4-1.8,0.5c-0.7,0.1-1.3,0.2-1.9,0.2
				c-1,0-1.8-0.1-2.5-0.4s-1.2-0.6-1.6-1.1c-0.4-0.5-0.7-1.2-0.9-2s-0.3-1.8-0.3-3v-1.3c0-2.3,0.4-3.9,1.2-5c0.8-1,2.1-1.6,3.9-1.6
				c3.1,0,4.7,1.7,4.7,5.1V59.4z M197.8,59.4c0.2,0,0.3,0,0.3-0.1c0.1,0,0.1-0.2,0.1-0.4v-0.9c0-1.6-0.3-2.7-0.8-3.3
				c-0.6-0.7-1.4-1-2.6-1c-0.7,0-1.2,0.1-1.7,0.3c-0.5,0.2-0.9,0.5-1.2,0.9c-0.3,0.4-0.5,1-0.7,1.7c-0.2,0.7-0.2,1.6-0.3,2.8H197.8z
				"/>
			<path class="st6" d="M204,54.4L204,54.4c0.4-0.5,0.9-0.9,1.6-1.2s1.5-0.5,2.6-0.5c1.8,0,3,0.5,3.8,1.5c0.8,1,1.2,2.7,1.2,4.9v1.3
				c0,1.2-0.1,2.2-0.4,3.1c-0.2,0.8-0.6,1.5-1,2c-0.4,0.5-1,0.9-1.7,1.1s-1.4,0.3-2.3,0.3c-1.8,0-3.1-0.4-3.9-1.2
				c-0.8-0.8-1.2-2-1.2-3.7V47.9c0-0.1,0.1-0.2,0.2-0.2h0.8c0.1,0,0.2,0.1,0.2,0.2V54.4z M211.9,59.3c0-2-0.3-3.4-1-4.2
				c-0.6-0.8-1.6-1.2-3-1.2c-1.5,0-2.5,0.3-3.1,1s-0.9,1.7-0.9,3v4.1c0,1.4,0.3,2.4,1,3s1.6,0.9,2.9,0.9c0.7,0,1.4-0.1,1.9-0.3
				c0.5-0.2,0.9-0.5,1.3-0.9s0.6-1,0.7-1.7s0.2-1.6,0.2-2.6V59.3z"/>
		</g>
		<g class="st4">
			<path class="st6" d="M221,54c-0.6,0-1.2,0.1-1.6,0.3c-0.4,0.2-0.7,0.5-0.9,0.8c-0.3,0.4-0.4,0.8-0.5,1.2
				c-0.1,0.4-0.1,0.8-0.1,1.2v8.8c0,0.2-0.1,0.2-0.2,0.2h-0.8c-0.1,0-0.2-0.1-0.2-0.2V53.1c0-0.1,0.1-0.2,0.2-0.2h0.6
				c0.2,0,0.3,0.1,0.3,0.2l0.2,1.4h0c0.3-0.5,0.6-0.9,1.1-1.2c0.5-0.3,1.1-0.4,1.9-0.4h0.9c0.1,0,0.2,0.1,0.2,0.2v0.6
				c0,0.2-0.1,0.3-0.3,0.3H221z"/>
		</g>
		<g class="st4">
			<path class="st6" d="M233.5,59.4c0,0.4-0.1,0.7-0.3,0.9c-0.2,0.2-0.5,0.3-0.9,0.3H225c0,1,0.1,1.8,0.3,2.5
				c0.1,0.7,0.4,1.2,0.7,1.6c0.3,0.4,0.7,0.7,1.2,0.9c0.5,0.2,1.1,0.3,1.8,0.3c0.5,0,1-0.1,1.7-0.2c0.6-0.1,1.2-0.3,1.7-0.5
				c0.2-0.1,0.3,0,0.4,0.1l0.2,0.4c0,0.1,0,0.2,0,0.3c0,0.1-0.1,0.1-0.3,0.2c-0.5,0.2-1.1,0.4-1.8,0.5c-0.7,0.1-1.3,0.2-1.9,0.2
				c-1,0-1.8-0.1-2.5-0.4s-1.2-0.6-1.6-1.1c-0.4-0.5-0.7-1.2-0.9-2c-0.2-0.8-0.3-1.8-0.3-3v-1.3c0-2.3,0.4-3.9,1.2-5
				c0.8-1,2.1-1.6,3.9-1.6c3.1,0,4.7,1.7,4.7,5.1V59.4z M231.9,59.4c0.2,0,0.3,0,0.3-0.1c0.1,0,0.1-0.2,0.1-0.4v-0.9
				c0-1.6-0.3-2.7-0.8-3.3c-0.6-0.7-1.4-1-2.6-1c-0.7,0-1.2,0.1-1.7,0.3c-0.5,0.2-0.9,0.5-1.2,0.9c-0.3,0.4-0.5,1-0.7,1.7
				c-0.2,0.7-0.2,1.6-0.3,2.8H231.9z"/>
			<path class="st6" d="M239.9,66.9c-0.7,0-1.4-0.1-2.1-0.2c-0.7-0.1-1.2-0.3-1.6-0.5c-0.1,0-0.2-0.1-0.2-0.1c0,0,0-0.1,0-0.2
				l0.1-0.5c0.1-0.2,0.2-0.2,0.4-0.1c0.5,0.2,1.1,0.3,1.6,0.4s1.1,0.2,1.8,0.2c0.7,0,1.2-0.1,1.7-0.2c0.4-0.1,0.8-0.3,1-0.5
				c0.2-0.2,0.4-0.5,0.5-0.9c0.1-0.3,0.1-0.7,0.1-1.2v-0.1c0-0.5,0-0.9-0.1-1.2c-0.1-0.3-0.2-0.6-0.4-0.8c-0.2-0.2-0.5-0.4-0.8-0.5
				c-0.3-0.1-0.8-0.2-1.3-0.3l-1.3-0.2c-1.3-0.2-2.2-0.6-2.6-1.2c-0.4-0.6-0.7-1.4-0.7-2.3v-0.1c0-1.2,0.4-2.1,1.1-2.7
				c0.7-0.6,1.8-0.9,3.2-0.9c0.5,0,1.1,0,1.6,0.1c0.5,0.1,1,0.2,1.4,0.3c0.2,0.1,0.3,0.2,0.2,0.4l-0.1,0.4c0,0.2-0.2,0.2-0.4,0.2
				c-0.4-0.1-0.9-0.2-1.3-0.2c-0.5-0.1-1-0.1-1.5-0.1c-1.1,0-1.9,0.2-2.3,0.6c-0.5,0.4-0.7,1-0.7,1.9v0.1c0,0.4,0,0.8,0.1,1.1
				c0.1,0.3,0.3,0.5,0.5,0.7s0.5,0.4,0.9,0.5c0.4,0.1,0.8,0.2,1.4,0.3l1.3,0.2c0.5,0.1,1,0.2,1.4,0.4c0.4,0.2,0.7,0.4,1,0.7
				s0.4,0.6,0.5,1.1s0.2,0.9,0.2,1.5V63c0,1.4-0.4,2.4-1.1,3C242.7,66.6,241.5,66.9,239.9,66.9z"/>
		</g>
		<g class="st4">
			<path class="st6" d="M91.6,76.6c0-0.2,0.1-0.2,0.2-0.2h0.8c0.1,0,0.2,0.1,0.2,0.2v3.3h3.4c0.1,0,0.2,0.1,0.2,0.2v0.7
				c0,0.1-0.1,0.2-0.2,0.2h-3.4v8.2c0,0.7,0,1.2,0.1,1.6c0,0.4,0.2,0.8,0.5,1.1c0.2,0.2,0.5,0.4,0.9,0.5c0.4,0.1,0.9,0.2,1.5,0.2
				h0.8c0.1,0,0.2,0.1,0.2,0.2v0.6c0,0.2-0.1,0.2-0.2,0.2h-1c-0.8,0-1.5-0.1-2-0.3c-0.5-0.2-0.9-0.5-1.2-0.8
				c-0.3-0.4-0.5-0.9-0.6-1.3c-0.1-0.5-0.1-1.1-0.1-1.9V81h-2c-0.1,0-0.2-0.1-0.2-0.2v-0.5c0-0.1,0.1-0.2,0.2-0.2l2-0.2V76.6z"/>
			<path class="st6" d="M104.2,92.8c0.8,0,1.4-0.1,1.8-0.2c0.4-0.1,0.8-0.3,1.1-0.6c0.3-0.2,0.5-0.6,0.6-1c0.1-0.4,0.2-1,0.2-1.7
				v-9.2c0-0.2,0.1-0.2,0.2-0.2h0.8c0.1,0,0.2,0.1,0.2,0.2v9.4c0,0.8-0.1,1.4-0.2,2c-0.2,0.5-0.4,1-0.9,1.4
				c-0.4,0.3-0.9,0.6-1.4,0.8c-0.6,0.2-1.4,0.3-2.3,0.3s-1.8-0.1-2.3-0.3c-0.6-0.2-1.1-0.4-1.4-0.8c-0.4-0.4-0.7-0.8-0.9-1.4
				c-0.2-0.5-0.2-1.2-0.2-2v-9.4c0-0.2,0.1-0.2,0.2-0.2h0.8c0.1,0,0.2,0.1,0.2,0.2v9.2c0,0.7,0.1,1.3,0.2,1.7c0.1,0.4,0.3,0.7,0.6,1
				c0.3,0.3,0.7,0.5,1.1,0.6C102.9,92.8,103.5,92.8,104.2,92.8z"/>
			<path class="st6" d="M127.6,92.8c0.1,0.2,0.1,0.3,0,0.3c0,0.1-0.1,0.1-0.3,0.2c-0.4,0.2-0.9,0.3-1.5,0.5
				c-0.6,0.1-1.2,0.2-1.7,0.2c-1.7,0-3-0.4-3.9-1.2c-0.6-0.5-1-1.3-1.2-2.2c-0.2-0.9-0.4-2-0.4-3.3v-1c0-1.4,0.1-2.5,0.4-3.4
				c0.2-0.8,0.6-1.5,1.2-2c0.8-0.8,2.1-1.2,3.7-1.2c0.8,0,1.6,0.1,2.2,0.3c0.7,0.2,1.2,0.5,1.6,0.8c0.1,0.1,0.2,0.2,0.1,0.4
				l-0.4,0.5c-0.1,0.1-0.2,0.1-0.4,0c-0.9-0.6-2-0.9-3.2-0.9c-0.7,0-1.2,0.1-1.7,0.2c-0.4,0.1-0.8,0.4-1.1,0.6
				c-0.3,0.3-0.5,0.6-0.7,1c-0.2,0.4-0.3,0.7-0.4,1.2c-0.1,0.4-0.1,0.8-0.1,1.3c0,0.5,0,0.9,0,1.4v0.5c0,1.1,0.1,2.1,0.2,2.9
				c0.2,0.8,0.5,1.4,0.9,2c0.3,0.3,0.7,0.6,1.2,0.7c0.5,0.2,1.2,0.3,1.8,0.3c0.4,0,0.9,0,1.5-0.1c0.5-0.1,1-0.2,1.5-0.4
				c0.2-0.1,0.3,0,0.4,0.2L127.6,92.8z"/>
			<path class="st6" d="M135.5,92.8c0.8,0,1.4-0.1,1.8-0.2c0.4-0.1,0.8-0.3,1.1-0.6c0.3-0.2,0.5-0.6,0.6-1c0.1-0.4,0.2-1,0.2-1.7
				v-9.2c0-0.2,0.1-0.2,0.2-0.2h0.8c0.1,0,0.2,0.1,0.2,0.2v9.4c0,0.8-0.1,1.4-0.2,2c-0.2,0.5-0.4,1-0.9,1.4
				c-0.4,0.3-0.9,0.6-1.4,0.8c-0.6,0.2-1.4,0.3-2.3,0.3s-1.8-0.1-2.3-0.3c-0.6-0.2-1.1-0.4-1.4-0.8c-0.4-0.4-0.7-0.8-0.9-1.4
				c-0.2-0.5-0.2-1.2-0.2-2v-9.4c0-0.2,0.1-0.2,0.2-0.2h0.8c0.1,0,0.2,0.1,0.2,0.2v9.2c0,0.7,0.1,1.3,0.2,1.7c0.1,0.4,0.3,0.7,0.6,1
				c0.3,0.3,0.7,0.5,1.1,0.6C134.1,92.8,134.7,92.8,135.5,92.8z"/>
			<path class="st6" d="M158.1,79.6c2,0,3.4,0.7,4.2,2c0.2,0.4,0.4,0.9,0.5,1.5s0.1,1.2,0.1,2v8.3c0,0.2-0.1,0.2-0.2,0.2h-0.8
				c-0.1,0-0.2-0.1-0.2-0.2v-8.2c0-1.1-0.1-2-0.3-2.5c-0.2-0.6-0.6-1-1.1-1.3c-0.3-0.2-0.6-0.3-1-0.4c-0.4-0.1-0.8-0.2-1.3-0.2
				c-0.9,0-1.7,0.2-2.3,0.5s-1.2,0.8-1.6,1.4c0.1,0.7,0.2,1.5,0.2,2.4v8.3c0,0.2-0.1,0.2-0.2,0.2h-0.8c-0.1,0-0.2-0.1-0.2-0.2V85
				c0-1.6-0.3-2.6-0.9-3.3c-0.6-0.6-1.5-1-2.8-1c-1.2,0-2.2,0.3-2.8,1s-1,1.6-1,2.9v8.7c0,0.2-0.1,0.2-0.2,0.2h-0.8
				c-0.1,0-0.2-0.1-0.2-0.2V80.1c0-0.1,0.1-0.2,0.2-0.2h0.6c0.2,0,0.3,0.1,0.3,0.2l0.1,1.3h0.1c0.3-0.6,0.8-1,1.5-1.3
				c0.7-0.3,1.5-0.5,2.4-0.5c1.1,0,1.9,0.2,2.6,0.5c0.7,0.3,1.2,0.8,1.6,1.5h0.1c0.4-0.5,0.9-1,1.7-1.4S157,79.6,158.1,79.6z"/>
			<path class="st6" d="M168,98.4c0,0.2-0.1,0.2-0.2,0.2H167c-0.1,0-0.2-0.1-0.2-0.2V80.1c0-0.1,0.1-0.2,0.2-0.2h0.6
				c0.2,0,0.3,0.1,0.3,0.2l0.1,1.4h0.1c0.4-0.6,0.9-1.1,1.5-1.4c0.7-0.3,1.5-0.5,2.7-0.5c1,0,1.8,0.1,2.5,0.4s1.2,0.7,1.5,1.2
				c0.4,0.5,0.6,1.2,0.8,1.9c0.1,0.8,0.2,1.7,0.2,2.7v1.6c0,1-0.1,1.9-0.2,2.7c-0.2,0.8-0.4,1.5-0.8,2c-0.4,0.6-0.9,1-1.5,1.2
				c-0.6,0.3-1.4,0.4-2.4,0.4c-0.6,0-1.2,0-1.6-0.1c-0.5-0.1-0.9-0.2-1.2-0.4c-0.3-0.2-0.6-0.4-0.8-0.6s-0.4-0.5-0.6-0.8H168V98.4z
				 M168,88.9c0,1.2,0.4,2.2,1.1,2.9c0.7,0.7,1.8,1,3.1,1c0.7,0,1.2-0.1,1.7-0.2c0.5-0.1,0.9-0.4,1.2-0.8c0.3-0.4,0.5-1,0.7-1.7
				c0.1-0.7,0.2-1.6,0.2-2.8v-1.2c0-0.9-0.1-1.6-0.2-2.3c-0.1-0.7-0.3-1.2-0.6-1.7c-0.3-0.4-0.7-0.8-1.2-1c-0.5-0.2-1.2-0.4-2-0.4
				c-1.4,0-2.5,0.3-3.1,1c-0.7,0.7-1,1.6-1,2.9V88.9z"/>
			<path class="st6" d="M180.8,74.9c0-0.1,0.1-0.2,0.2-0.2h0.8c0.1,0,0.2,0.1,0.2,0.2v15.7c0,0.8,0.1,1.4,0.3,1.6
				c0.2,0.3,0.6,0.4,1.1,0.4h0.7c0.1,0,0.2,0.1,0.2,0.2v0.7c0,0.2-0.1,0.2-0.2,0.2h-0.6c-1,0-1.7-0.2-2.1-0.6s-0.6-1.2-0.6-2.3V74.9
				z"/>
			<path class="st6" d="M196.4,86.4c0,0.4-0.1,0.7-0.3,0.9c-0.2,0.2-0.5,0.3-0.9,0.3h-7.3c0,1,0.1,1.8,0.3,2.5
				c0.1,0.7,0.4,1.2,0.7,1.6s0.7,0.7,1.2,0.9c0.5,0.2,1.1,0.3,1.8,0.3c0.5,0,1-0.1,1.7-0.2c0.6-0.1,1.2-0.3,1.7-0.5
				c0.2-0.1,0.3,0,0.4,0.1l0.2,0.4c0,0.1,0,0.2,0,0.3c0,0.1-0.1,0.1-0.3,0.2c-0.5,0.2-1.1,0.4-1.8,0.5c-0.7,0.1-1.3,0.2-1.9,0.2
				c-1,0-1.8-0.1-2.5-0.4s-1.2-0.6-1.6-1.1c-0.4-0.5-0.7-1.2-0.9-2c-0.2-0.8-0.3-1.8-0.3-3v-1.3c0-2.3,0.4-3.9,1.2-5
				c0.8-1,2.1-1.6,3.9-1.6c3.1,0,4.7,1.7,4.7,5.1V86.4z M194.8,86.4c0.1,0,0.3,0,0.3-0.1c0.1,0,0.1-0.2,0.1-0.4v-0.9
				c0-1.6-0.3-2.7-0.8-3.3s-1.4-1-2.6-1c-0.7,0-1.2,0.1-1.7,0.3c-0.5,0.2-0.9,0.5-1.2,0.9c-0.3,0.4-0.5,1-0.7,1.7
				c-0.2,0.7-0.2,1.6-0.3,2.8H194.8z"/>
			<path class="st6" d="M207.4,92.2c-0.3,0.5-0.8,1-1.3,1.2c-0.6,0.3-1.4,0.4-2.5,0.4H203c-1.5,0-2.5-0.3-3.1-0.9
				c-0.6-0.6-0.9-1.6-0.9-3v-0.3c0-0.7,0.1-1.2,0.2-1.7c0.1-0.5,0.4-0.9,0.8-1.2s0.9-0.6,1.5-0.7c0.6-0.2,1.5-0.3,2.5-0.3h1.4
				c0.3,0,0.7,0,1,0c0.3,0,0.7,0,1,0.1v-1.7c0-1.3-0.3-2.3-0.9-2.7c-0.6-0.5-1.4-0.7-2.6-0.7c-0.6,0-1.2,0.1-1.8,0.2
				c-0.6,0.1-1.1,0.2-1.5,0.4c-0.2,0.1-0.4,0-0.4-0.1l-0.1-0.5c0-0.1,0-0.2,0-0.3c0,0,0.1-0.1,0.2-0.1c0.5-0.1,1.1-0.3,1.7-0.4
				s1.4-0.2,2.1-0.2c1.6,0,2.8,0.4,3.5,1.1c0.7,0.8,1,2,1,3.7v9c0,0.2-0.1,0.3-0.3,0.3h-0.6c-0.2,0-0.3-0.1-0.3-0.3L207.4,92.2
				L207.4,92.2z M207.4,86.9c-0.3,0-0.6-0.1-0.9-0.1c-0.3,0-0.7,0-1,0h-1.8c-1.3,0-2.2,0.2-2.8,0.6s-0.8,1.1-0.8,2.1v0.7
				c0,1,0.2,1.6,0.6,2c0.4,0.4,1.1,0.6,1.9,0.6h1.1c1.2,0,2.1-0.3,2.7-0.8c0.6-0.6,0.9-1.4,0.9-2.5V86.9z"/>
			<path class="st6" d="M222.6,93.4c0,0.2-0.1,0.2-0.2,0.2h-0.8c-0.1,0-0.2-0.1-0.2-0.2v-8.2c0-1.1-0.1-2-0.3-2.5
				c-0.2-0.6-0.6-1-1.1-1.3c-0.3-0.2-0.6-0.3-1-0.4s-0.8-0.1-1.3-0.2c-0.6,0-1.2,0-1.7,0.2c-0.5,0.1-0.9,0.4-1.2,0.7
				s-0.6,0.7-0.8,1.3c-0.2,0.5-0.3,1.2-0.3,1.9v8.6c0,0.2-0.1,0.2-0.2,0.2h-0.8c-0.1,0-0.2-0.1-0.2-0.2V80.1c0-0.1,0.1-0.2,0.2-0.2
				h0.6c0.2,0,0.3,0.1,0.3,0.2l0.1,1.3h0c0.3-0.5,0.8-1,1.5-1.3c0.7-0.3,1.5-0.5,2.5-0.5c2.1,0,3.5,0.7,4.2,2
				c0.2,0.4,0.4,0.9,0.5,1.5c0.1,0.6,0.1,1.2,0.1,2V93.4z M213.3,76.5c-0.1-0.1-0.2-0.2-0.1-0.4c0.3-0.7,0.7-1.2,1.2-1.5
				c0.5-0.3,1-0.5,1.5-0.5c0.3,0,0.6,0.1,0.8,0.2s0.5,0.3,0.8,0.5l0.8,0.6c0.2,0.2,0.4,0.3,0.5,0.3c0.1,0.1,0.3,0.1,0.5,0.1
				c0.3,0,0.6-0.1,0.9-0.4c0.3-0.3,0.6-0.6,0.8-1c0.1-0.1,0.2-0.1,0.3-0.1l0.6,0.4c0.2,0.1,0.2,0.2,0.1,0.4
				c-0.3,0.6-0.7,1.1-1.2,1.5c-0.5,0.4-1,0.6-1.5,0.6c-0.3,0-0.6,0-0.8-0.1c-0.3-0.1-0.5-0.3-0.8-0.5l-0.7-0.6
				c-0.2-0.1-0.4-0.3-0.5-0.4c-0.2-0.1-0.3-0.1-0.5-0.1c-0.5,0-1.1,0.5-1.6,1.4c-0.1,0.1-0.2,0.2-0.3,0.1L213.3,76.5z"/>
			<path class="st6" d="M236.3,87.4c0,1.2-0.1,2.2-0.3,3.1c-0.2,0.9-0.6,1.7-1.2,2.2c-0.4,0.4-0.9,0.6-1.4,0.8
				c-0.6,0.2-1.3,0.3-2.2,0.3s-1.6-0.1-2.2-0.3c-0.6-0.2-1.1-0.5-1.4-0.8c-0.6-0.5-1-1.3-1.2-2.2c-0.2-0.9-0.3-2-0.3-3.1v-1.2
				c0-1.2,0.1-2.2,0.3-3.1c0.2-0.9,0.6-1.7,1.2-2.2c0.4-0.3,0.9-0.6,1.5-0.8c0.6-0.2,1.3-0.3,2.2-0.3s1.6,0.1,2.2,0.3
				c0.6,0.2,1.1,0.5,1.4,0.8c0.6,0.5,1,1.3,1.2,2.2c0.2,0.9,0.3,2,0.3,3.1V87.4z M227.1,87c0,1.2,0.1,2.1,0.2,2.7
				c0.1,0.6,0.3,1.2,0.6,1.6c0.6,1,1.7,1.4,3.2,1.4c1.5,0,2.5-0.5,3.2-1.4c0.3-0.4,0.5-1,0.6-1.6c0.1-0.6,0.2-1.5,0.2-2.7v-0.6
				c0-1.2-0.1-2.1-0.2-2.7c-0.1-0.6-0.3-1.2-0.6-1.6c-0.7-1-1.7-1.4-3.2-1.4c-1.5,0-2.6,0.5-3.2,1.4c-0.3,0.4-0.5,1-0.6,1.6
				c-0.1,0.6-0.2,1.5-0.2,2.7V87z"/>
			<path class="st6" d="M242.7,93.9c-0.7,0-1.4-0.1-2.1-0.2c-0.7-0.1-1.2-0.3-1.6-0.5c-0.1,0-0.2-0.1-0.2-0.1c0,0,0-0.1,0-0.2
				l0.1-0.5c0.1-0.2,0.2-0.2,0.4-0.1c0.5,0.2,1.1,0.3,1.6,0.4s1.1,0.2,1.8,0.2c0.7,0,1.2-0.1,1.7-0.2c0.4-0.1,0.8-0.3,1-0.5
				c0.2-0.2,0.4-0.5,0.5-0.9c0.1-0.3,0.1-0.7,0.1-1.2v-0.1c0-0.5,0-0.9-0.1-1.2c-0.1-0.3-0.2-0.6-0.4-0.8c-0.2-0.2-0.5-0.4-0.8-0.5
				c-0.3-0.1-0.8-0.2-1.3-0.3l-1.3-0.2c-1.3-0.2-2.2-0.6-2.6-1.2c-0.4-0.6-0.7-1.4-0.7-2.3v-0.1c0-1.2,0.4-2.1,1.1-2.7
				c0.7-0.6,1.8-0.9,3.2-0.9c0.5,0,1.1,0,1.6,0.1c0.5,0.1,1,0.2,1.4,0.3c0.2,0.1,0.3,0.2,0.2,0.4l-0.1,0.4c0,0.2-0.2,0.2-0.4,0.2
				c-0.4-0.1-0.9-0.2-1.3-0.2c-0.5-0.1-1-0.1-1.5-0.1c-1.1,0-1.9,0.2-2.3,0.6c-0.5,0.4-0.7,1-0.7,1.9v0.1c0,0.4,0,0.8,0.1,1.1
				c0.1,0.3,0.3,0.5,0.5,0.7s0.5,0.4,0.9,0.5c0.4,0.1,0.8,0.2,1.4,0.3l1.3,0.2c0.5,0.1,1,0.2,1.4,0.4c0.4,0.2,0.7,0.4,1,0.7
				s0.4,0.6,0.5,1.1s0.2,0.9,0.2,1.5V90c0,1.4-0.4,2.4-1.1,3C245.5,93.6,244.3,93.9,242.7,93.9z"/>
		</g>
	</g>
	<path class="st5" d="M240.7,111.2c2.8-2.7,6.9,0,10,0.4c2.6,0.4,5.6-0.4,6.6-3.1c0.4-1.1-1.3-1.5-1.7-0.5c-0.5,1.1-1.6,1.8-2.8,1.9
		c-1.5,0.1-3-0.1-4.4-0.7c-3-0.9-6.5-1.8-9,0.7C238.6,110.7,239.9,111.9,240.7,111.2L240.7,111.2z"/>
</g>
</svg>
