<svg xmlns="http://www.w3.org/2000/svg" xmlns:xlink="http://www.w3.org/1999/xlink" viewBox="0 0 316.21 259.15"><defs><style>.cls-1{fill:none;}.cls-2{fill:#0033a0;}.cls-3{clip-path:url(#clip-path);}.cls-4{fill:#00aec7;}.cls-5{fill:#4ec3e0;}.cls-6,.cls-7,.cls-8,.cls-9{isolation:isolate;}.cls-6{font-size:50.08px;font-family:Arkina;}.cls-10,.cls-6{fill:#fff;}.cls-8,.cls-9{font-size:28.07px;fill:#e3e829;font-family:FSJoey-Light, FS Joey;font-weight:300;}.cls-9{letter-spacing:-0.01em;}</style><clipPath id="clip-path"><path class="cls-1" d="M136.27,146.66a15.21,15.21,0,0,0-5.85-5.09,22.33,22.33,0,0,0-17.39,0,15.21,15.21,0,0,0-5.85,5.09,22.72,22.72,0,0,0-3.32,8.06,48.94,48.94,0,0,0-1,10.66v2.08a49.94,49.94,0,0,0,1,10.7,22.68,22.68,0,0,0,3.32,8.09,15.06,15.06,0,0,0,5.85,5.09,22.24,22.24,0,0,0,17.39,0,15.06,15.06,0,0,0,5.85-5.09,22.44,22.44,0,0,0,3.33-8.09,50.58,50.58,0,0,0,1-10.7v-2.08a50.21,50.21,0,0,0-1-10.66A22.74,22.74,0,0,0,136.27,146.66Zm-34.74,37.87H93V143.1a2.64,2.64,0,0,0-.61-2,3.64,3.64,0,0,0-2.28-.52h-4a13.34,13.34,0,0,0-2,.12,6.83,6.83,0,0,0-2,.76L71,147.35c-1.18.64-1.39,1.6-.64,2.88l1.92,3.61q.89,1.44,2.64.48l7.46-3.85h.48v34.06H73.4a3.12,3.12,0,0,0-2,.44,2.93,2.93,0,0,0-.44,2v2.88a2.9,2.9,0,0,0,.52,2,2.62,2.62,0,0,0,2,.57h28.13a3.18,3.18,0,0,0,2-.44,3,3,0,0,0,.44-2V187.1a3,3,0,0,0-.53-2A2.65,2.65,0,0,0,101.53,184.53Zm51.21-1.76a5.6,5.6,0,0,0-3.68-1.12h-.89a5.84,5.84,0,0,0-3.64,1.12c-1,.75-1.49,2.06-1.49,3.93V188a5.5,5.5,0,0,0,1.17,3.84c.77.86,2.1,1.29,4,1.29h.89a5.12,5.12,0,0,0,3.68-1.29A5,5,0,0,0,154.1,188v-1.3c0-1.87-.45-3.18-1.36-3.93Zm119.09-28.05a22.72,22.72,0,0,0-3.32-8.06,15.21,15.21,0,0,0-5.85-5.09,22.33,22.33,0,0,0-17.39,0,15.21,15.21,0,0,0-5.85,5.09,22.48,22.48,0,0,0-3.33,8.06,50.21,50.21,0,0,0-1,10.66v2.08a50.58,50.58,0,0,0,1,10.7,22.44,22.44,0,0,0,3.33,8.09,15.06,15.06,0,0,0,5.85,5.09,22.24,22.24,0,0,0,17.39,0,15.06,15.06,0,0,0,5.85-5.09,22.68,22.68,0,0,0,3.32-8.09,50,50,0,0,0,1.05-10.7v-2.08A48.92,48.92,0,0,0,271.83,154.72Zm-83.46-8.06a15.24,15.24,0,0,0-5.86-5.09,22.33,22.33,0,0,0-17.39,0,15.37,15.37,0,0,0-5.85,5.09,22.72,22.72,0,0,0-3.32,8.06,48.94,48.94,0,0,0-1,10.66v2.08a49.94,49.94,0,0,0,1,10.7,22.68,22.68,0,0,0,3.32,8.09,15.21,15.21,0,0,0,5.85,5.09,22.24,22.24,0,0,0,17.39,0,15.16,15.16,0,0,0,5.86-5.09,22.68,22.68,0,0,0,3.32-8.09,49.94,49.94,0,0,0,1-10.7v-2.08a49.57,49.57,0,0,0-1-10.66A22.72,22.72,0,0,0,188.37,146.66Zm40.07,0a15.37,15.37,0,0,0-5.85-5.09,22.33,22.33,0,0,0-17.39,0,15.24,15.24,0,0,0-5.86,5.09,22.72,22.72,0,0,0-3.32,8.06,48.94,48.94,0,0,0-1,10.66v2.08a49.94,49.94,0,0,0,1,10.7,22.68,22.68,0,0,0,3.32,8.09,15.16,15.16,0,0,0,5.86,5.09,22.24,22.24,0,0,0,17.39,0,15.21,15.21,0,0,0,5.85-5.09,22.68,22.68,0,0,0,3.32-8.09,49.94,49.94,0,0,0,1-10.7v-2.08a49.57,49.57,0,0,0-1-10.66A22.72,22.72,0,0,0,228.44,146.66Z"/></clipPath></defs><g id="Capa_2" data-name="Capa 2"><g id="Capa_1-2" data-name="Capa 1"><g id="Capa_2-2" data-name="Capa 2"><g id="Diseño"><path class="cls-2" d="M312.14,74.34S322.94-14,193.32,1.92,10.82,28.31,1.16,120.47s43.09,82.61,82.39,107S349.14,333.85,312.14,74.34Z"/><g class="cls-3"><path class="cls-4" d="M73.4,192.39a2.62,2.62,0,0,1-2-.57,2.9,2.9,0,0,1-.52-2v-2.88a2.93,2.93,0,0,1,.44-2,3.12,3.12,0,0,1,2-.44h9.46v-34H82.3l-7.46,3.85q-1.75,1-2.64-.48l-1.92-3.61c-.75-1.28-.54-2.24.64-2.88l11.14-5.94a6.83,6.83,0,0,1,2-.76,13.34,13.34,0,0,1,2-.12h4a3.64,3.64,0,0,1,2.28.52,2.64,2.64,0,0,1,.61,2v41.43h8.57a2.67,2.67,0,0,1,2,.56,3,3,0,0,1,.53,2v3a3,3,0,0,1-.44,2,3.18,3.18,0,0,1-2,.44Z"/><path class="cls-4" d="M121.73,193.11a19.45,19.45,0,0,1-8.7-1.77,15.06,15.06,0,0,1-5.85-5.09,22.68,22.68,0,0,1-3.32-8.09,49.94,49.94,0,0,1-1-10.7v-2.08a48.94,48.94,0,0,1,1-10.66,22.72,22.72,0,0,1,3.32-8.06,15.21,15.21,0,0,1,5.85-5.09,22.33,22.33,0,0,1,17.39,0,15.21,15.21,0,0,1,5.85,5.09,22.74,22.74,0,0,1,3.33,8.06,50.21,50.21,0,0,1,1,10.66v2.08a50.58,50.58,0,0,1-1,10.7,22.44,22.44,0,0,1-3.33,8.09,15.06,15.06,0,0,1-5.85,5.09A19.44,19.44,0,0,1,121.73,193.11Z"/><path class="cls-4" d="M154.1,188a5,5,0,0,1-1.36,3.84,5.12,5.12,0,0,1-3.68,1.29h-.89a5.26,5.26,0,0,1-4-1.29A5.5,5.5,0,0,1,143,188v-1.3c0-1.87.5-3.18,1.49-3.93a5.84,5.84,0,0,1,3.64-1.12H149a5.6,5.6,0,0,1,3.68,1.12c.91.75,1.36,2.06,1.36,3.93Z"/><path class="cls-4" d="M173.82,193.11a19.45,19.45,0,0,1-8.7-1.77,15.21,15.21,0,0,1-5.85-5.09,22.68,22.68,0,0,1-3.32-8.09,49.94,49.94,0,0,1-1-10.7v-2.08a48.94,48.94,0,0,1,1-10.66,22.72,22.72,0,0,1,3.32-8.06,15.37,15.37,0,0,1,5.85-5.09,22.33,22.33,0,0,1,17.39,0,15.24,15.24,0,0,1,5.86,5.09,22.72,22.72,0,0,1,3.32,8.06,49.57,49.57,0,0,1,1,10.66v2.08a49.94,49.94,0,0,1-1,10.7,22.68,22.68,0,0,1-3.32,8.09,15.16,15.16,0,0,1-5.86,5.09A19.44,19.44,0,0,1,173.82,193.11Z"/><path class="cls-4" d="M213.89,193.11a19.41,19.41,0,0,1-8.69-1.77,15.16,15.16,0,0,1-5.86-5.09,22.68,22.68,0,0,1-3.32-8.09,49.94,49.94,0,0,1-1-10.7v-2.08a48.94,48.94,0,0,1,1-10.66,22.72,22.72,0,0,1,3.32-8.06,15.24,15.24,0,0,1,5.86-5.09,22.33,22.33,0,0,1,17.39,0,15.37,15.37,0,0,1,5.85,5.09,22.72,22.72,0,0,1,3.32,8.06,49.57,49.57,0,0,1,1,10.66v2.08a49.94,49.94,0,0,1-1,10.7,22.68,22.68,0,0,1-3.32,8.09,15.21,15.21,0,0,1-5.85,5.09A19.48,19.48,0,0,1,213.89,193.11Z"/><path class="cls-4" d="M254,193.11a19.41,19.41,0,0,1-8.69-1.77,15.06,15.06,0,0,1-5.85-5.09,22.44,22.44,0,0,1-3.33-8.09,50.58,50.58,0,0,1-1-10.7v-2.08a50.21,50.21,0,0,1,1-10.66,22.48,22.48,0,0,1,3.33-8.06,15.21,15.21,0,0,1,5.85-5.09,22.33,22.33,0,0,1,17.39,0,15.21,15.21,0,0,1,5.85,5.09,22.72,22.72,0,0,1,3.32,8.06,48.92,48.92,0,0,1,1.05,10.66v2.08a50,50,0,0,1-1.05,10.7,22.68,22.68,0,0,1-3.32,8.09,15.06,15.06,0,0,1-5.85,5.09A19.48,19.48,0,0,1,254,193.11Z"/><rect class="cls-5" x="60.63" y="112.49" width="2.36" height="126.67" transform="translate(-106.23 95.2) rotate(-45)"/><rect class="cls-5" x="69.79" y="112.49" width="2.36" height="126.67" transform="translate(-103.54 101.68) rotate(-45)"/><rect class="cls-5" x="78.95" y="112.49" width="2.36" height="126.67" transform="translate(-100.86 108.16) rotate(-45)"/><rect class="cls-5" x="88.1" y="112.49" width="2.36" height="126.67" transform="translate(-98.18 114.63) rotate(-45)"/><rect class="cls-5" x="97.25" y="112.49" width="2.36" height="126.67" transform="translate(-95.5 121.1) rotate(-45)"/><rect class="cls-5" x="106.4" y="112.5" width="2.36" height="126.67" transform="translate(-92.82 127.57) rotate(-45)"/><rect class="cls-5" x="115.55" y="112.49" width="2.36" height="126.67" transform="translate(-90.14 134.04) rotate(-45)"/><rect class="cls-5" x="124.7" y="112.49" width="2.36" height="126.67" transform="translate(-87.46 140.51) rotate(-45)"/><rect class="cls-5" x="133.86" y="112.5" width="2.36" height="126.67" transform="translate(-84.78 146.99) rotate(-45)"/><rect class="cls-5" x="143.01" y="112.5" width="2.36" height="126.67" transform="translate(-82.1 153.46) rotate(-45)"/><rect class="cls-5" x="152.16" y="112.49" width="2.36" height="126.67" transform="translate(-79.41 159.92) rotate(-45)"/><rect class="cls-5" x="161.33" y="112.49" width="2.36" height="126.67" transform="translate(-76.73 166.41) rotate(-45)"/><rect class="cls-5" x="170.48" y="112.49" width="2.36" height="126.67" transform="translate(-74.05 172.88) rotate(-45)"/><rect class="cls-5" x="179.63" y="112.49" width="2.36" height="126.67" transform="translate(-71.37 179.35) rotate(-45)"/><rect class="cls-5" x="188.78" y="112.49" width="2.36" height="126.67" transform="translate(-68.69 185.82) rotate(-45)"/><rect class="cls-5" x="197.93" y="112.49" width="2.36" height="126.67" transform="translate(-66.01 192.29) rotate(-45)"/><rect class="cls-5" x="207.09" y="112.5" width="2.36" height="126.67" transform="translate(-63.33 198.77) rotate(-45)"/><rect class="cls-5" x="216.24" y="112.5" width="2.36" height="126.67" transform="translate(-60.65 205.24) rotate(-45)"/><rect class="cls-5" x="225.39" y="112.49" width="2.36" height="126.67" transform="translate(-57.96 211.71) rotate(-45)"/><rect class="cls-5" x="234.55" y="112.49" width="2.36" height="126.67" transform="translate(-55.29 218.18) rotate(-45)"/><rect class="cls-5" x="243.7" y="112.49" width="2.36" height="126.67" transform="translate(-52.61 224.65) rotate(-45)"/><rect class="cls-5" x="237.19" y="118.98" width="2.36" height="82.36" transform="translate(-43.44 215.47) rotate(-45)"/><rect class="cls-5" x="246.35" y="118.98" width="2.36" height="82.36" transform="translate(-40.75 221.94) rotate(-45)"/><rect class="cls-5" x="255.5" y="118.98" width="2.36" height="82.36" transform="translate(-38.07 228.41) rotate(-45)"/><rect class="cls-5" x="264.65" y="118.98" width="2.36" height="82.36" transform="translate(-35.39 234.88) rotate(-45)"/><rect class="cls-5" x="273.81" y="118.99" width="2.36" height="82.36" transform="translate(-32.71 241.36) rotate(-45)"/><rect class="cls-5" x="278.16" y="120.96" width="2.36" height="68.8" transform="translate(-28.04 243.03) rotate(-45)"/></g><text class="cls-6" transform="translate(56.97 133.92)">hasta el ano</text><g class="cls-7"><text class="cls-8" transform="translate(92 66.68)">Y que celeb</text><text class="cls-9" transform="translate(214.59 66.68)">r</text><text class="cls-8" transform="translate(222.34 66.68)">es</text><text class="cls-8" transform="translate(89.21 93.63)">tu cumpleaños</text></g><path class="cls-10" d="M240.66,111.15c2.75-2.73,6.92,0,10,.44,2.61.37,5.65-.44,6.63-3.13.39-1.07-1.31-1.53-1.69-.47a3.32,3.32,0,0,1-2.8,1.88,9.74,9.74,0,0,1-4.37-.66c-3-.93-6.5-1.8-9,.7-.8.79.44,2,1.24,1.24Z"/></g></g></g></g></svg>