<svg xmlns="http://www.w3.org/2000/svg" xmlns:xlink="http://www.w3.org/1999/xlink" viewBox="0 0 171.29 187.95"><defs><style>.cls-1{fill:none;}.cls-2{fill:#0033a0;}.cls-3{fill:#fff;}.cls-4{fill:#e3e829;}.cls-5{clip-path:url(#clip-path);}.cls-6{fill:#00aec7;}.cls-7{fill:#4ec3e0;}</style><clipPath id="clip-path"><path class="cls-1" d="M69.94,112.51v1.15c0,4.28-1,7.25-3,8.93S61.78,125,57.09,125a23.8,23.8,0,0,1-3.57-.32c-1.33-.21-2.66-.49-4-.84s-2.71-.73-4-1.15a37.88,37.88,0,0,1-3.68-1.37,3.4,3.4,0,0,0-2.2-.26c-.56.18-1,.86-1.37,2l-1.15,4a5.13,5.13,0,0,0-.42,2.68,2.17,2.17,0,0,0,1.24,1.42,48.62,48.62,0,0,0,9.46,3,47.88,47.88,0,0,0,10.19,1.16,45.72,45.72,0,0,0,11.13-1.16,16.8,16.8,0,0,0,7.67-4.2A20.61,20.61,0,0,0,81,123.5a23.46,23.46,0,0,0,1.93-10v-1.78a28.17,28.17,0,0,0-1.26-9.3,18,18,0,0,0-3.74-6.25q-5-5.36-15.55-5.36a31.69,31.69,0,0,0-6.14.58,26.21,26.21,0,0,0-5.1,1.52l.74-14.49A1.32,1.32,0,0,1,53.16,77a.75.75,0,0,1,.15,0H75.05a4.31,4.31,0,0,0,2.52-.47,2.76,2.76,0,0,0,.53-2v-5.3A3.26,3.26,0,0,0,77.57,67a3.47,3.47,0,0,0-2.31-.52H43.85a3.23,3.23,0,0,0-2.25.57,3.21,3.21,0,0,0-.66,2.07L39,99.48a5,5,0,0,0,.11,1.84,2.38,2.38,0,0,0,1,1.1l2.94,1.79a2.53,2.53,0,0,0,1.52.47,6.67,6.67,0,0,0,2-.68,31.38,31.38,0,0,1,5.73-2,26.08,26.08,0,0,1,6.46-.84q5.46,0,8.19,2.73c1.92,1.89,2.92,4.77,2.92,8.62M135.6,85.09a29.42,29.42,0,0,0-4.36-10.56,19.82,19.82,0,0,0-7.66-6.67,25.44,25.44,0,0,0-11.4-2.31,25.5,25.5,0,0,0-11.4,2.31,19.92,19.92,0,0,0-7.67,6.67,30.23,30.23,0,0,0-4.36,10.56,65.81,65.81,0,0,0-1.36,14v2.73a66.53,66.53,0,0,0,1.36,14,30.1,30.1,0,0,0,4.36,10.61,19.92,19.92,0,0,0,7.67,6.67,25.63,25.63,0,0,0,11.4,2.31,25.58,25.58,0,0,0,11.4-2.31,19.82,19.82,0,0,0,7.66-6.67,29.73,29.73,0,0,0,4.36-10.61,65.24,65.24,0,0,0,1.37-14V99.06a64.93,64.93,0,0,0-1.4-14Z"/></clipPath></defs><g id="Capa_2" data-name="Capa 2"><g id="Capa_1-2" data-name="Capa 1"><g id="Capa_2-2" data-name="Capa 2"><g id="Diseño"><path class="cls-2" d="M91.74,4.9S9.16-22.78,1.94,53.45,6.94,175.5,50,181s101.64,23.14,111.62-33.58S195.64,23.5,91.74,4.9Z"/><path class="cls-3" d="M34.43,70l-6.24,2.91a4.92,4.92,0,0,0-6.93-5.32h0a4.93,4.93,0,0,0-2.78,3.67,4.57,4.57,0,0,0-4.15,8.1L7.61,82.49A1.11,1.11,0,0,0,7.1,83.9l2.67,5.74a1.1,1.1,0,0,0,1.41.51l1-.44,6.09,13.09a1.11,1.11,0,0,0,1.41.51l23-10.71a1.08,1.08,0,0,0,.51-1.4L37,78.11l1-.45a1.08,1.08,0,0,0,.52-1.4l-2.68-5.75A1.1,1.1,0,0,0,34.43,70ZM20.06,76.69l-2.24,1A2.47,2.47,0,1,1,19,74.41h0Zm4.47-2.08L21.94,75.8l-1.18-2.55a2.81,2.81,0,1,1,3.74,1.36Z"/><path class="cls-4" d="M9.46,84l11.48-5.39,1.79,3.83L11.24,87.79Z"/><path class="cls-4" d="M22.87,77.72l11.49-5.36,1.78,3.83L24.65,81.55Z"/><rect class="cls-4" x="16.39" y="85.96" width="10.57" height="13.38" transform="translate(-37.1 17.82) rotate(-24.98)"/><rect class="cls-4" x="27.88" y="80.61" width="10.57" height="13.38" transform="translate(-33.76 22.17) rotate(-24.98)"/><g class="cls-5"><path class="cls-6" d="M53.31,77a1.32,1.32,0,0,0-1.46,1.16,1.48,1.48,0,0,0,0,.21L51.1,92.86a26.21,26.21,0,0,1,5.1-1.52,31.69,31.69,0,0,1,6.14-.58q10.5,0,15.55,5.36a18.13,18.13,0,0,1,3.78,6.25,28.17,28.17,0,0,1,1.26,9.3v1.78A23.45,23.45,0,0,1,81,123.54a20.61,20.61,0,0,1-4.62,6.51,16.8,16.8,0,0,1-7.67,4.2,45.72,45.72,0,0,1-11.13,1.16,47.88,47.88,0,0,1-10.19-1.16,48.62,48.62,0,0,1-9.46-3,2.19,2.19,0,0,1-1.36-1.42,5.13,5.13,0,0,1,.42-2.68l1.15-4c.35-1.19.81-1.87,1.37-2.05a3.4,3.4,0,0,1,2.2.26,37.88,37.88,0,0,0,3.68,1.37c1.33.42,2.68.8,4,1.15s2.72.63,4,.84A23.8,23.8,0,0,0,57,125q7,0,9.87-2.42c2-1.68,3-4.65,3-8.93v-1.15c0-3.85-1-6.73-2.84-8.62s-4.55-2.73-8.19-2.73a26.08,26.08,0,0,0-6.46.84,31.38,31.38,0,0,0-5.73,2,6.67,6.67,0,0,1-2,.68,2.53,2.53,0,0,1-1.52-.47l-2.94-1.79a2.38,2.38,0,0,1-1-1.1A5,5,0,0,1,39,99.51l1.91-30.39a3.23,3.23,0,0,1,.69-2.05,3.23,3.23,0,0,1,2.25-.57H75.26a3.47,3.47,0,0,1,2.31.52,3.2,3.2,0,0,1,.53,2.21v5.25a2.76,2.76,0,0,1-.53,2,4.31,4.31,0,0,1-2.52.47Z"/><path class="cls-6" d="M112.15,135.41a25.63,25.63,0,0,1-11.4-2.31,19.92,19.92,0,0,1-7.67-6.67,30.1,30.1,0,0,1-4.36-10.61,66.53,66.53,0,0,1-1.36-14V99.06a65.81,65.81,0,0,1,1.36-14A30.23,30.23,0,0,1,93.08,74.5a19.92,19.92,0,0,1,7.67-6.67,25.5,25.5,0,0,1,11.4-2.31,25.44,25.44,0,0,1,11.4,2.31,19.82,19.82,0,0,1,7.66,6.67,29.42,29.42,0,0,1,4.36,10.56,65.18,65.18,0,0,1,1.37,14v2.73a65.24,65.24,0,0,1-1.37,14,29.73,29.73,0,0,1-4.36,10.61,19.82,19.82,0,0,1-7.66,6.67A25.6,25.6,0,0,1,112.15,135.41Z"/><rect class="cls-7" x="32.49" y="106.22" width="2.14" height="42.14" transform="translate(-80.18 61.02) rotate(-45)"/><rect class="cls-7" x="40" y="104.35" width="2.14" height="44.34" transform="translate(-77.43 66.1) rotate(-45)"/><rect class="cls-7" x="46.99" y="101.26" width="2.14" height="47.97" transform="translate(-74.48 70.67) rotate(-45)"/><rect class="cls-7" x="55.23" y="101.14" width="2.14" height="48.09" transform="translate(-72.03 76.48) rotate(-45)"/><rect class="cls-7" x="57.27" y="86.1" width="2.14" height="65.72" transform="translate(-67.03 76.1) rotate(-45)"/><rect class="cls-7" x="48.29" y="44.4" width="2.14" height="114.57" transform="translate(-57.45 64.69) rotate(-45)"/><rect class="cls-7" x="56.56" y="44.4" width="2.14" height="114.57" transform="translate(-55.02 70.53) rotate(-45)"/><rect class="cls-7" x="64.84" y="44.4" width="2.14" height="114.57" transform="translate(-52.6 76.39) rotate(-45)"/><rect class="cls-7" x="73.12" y="44.4" width="2.14" height="114.57" transform="translate(-50.17 82.24) rotate(-45)"/><rect class="cls-7" x="81.4" y="44.4" width="2.14" height="114.57" transform="translate(-47.75 88.1) rotate(-45)"/><rect class="cls-7" x="89.68" y="44.4" width="2.14" height="114.57" transform="translate(-45.32 93.95) rotate(-45)"/><rect class="cls-7" x="97.95" y="44.4" width="2.14" height="114.57" transform="translate(-42.9 99.8) rotate(-45)"/><rect class="cls-7" x="106.24" y="44.41" width="2.14" height="114.57" transform="translate(-40.48 105.66) rotate(-45)"/><rect class="cls-7" x="114.51" y="44.4" width="2.14" height="114.57" transform="translate(-38.05 111.51) rotate(-45)"/><rect class="cls-7" x="111.85" y="48.94" width="2.14" height="83.6" transform="translate(-31.09 106.42) rotate(-45)"/><rect class="cls-7" x="120.12" y="48.94" width="2.14" height="83.6" transform="translate(-28.67 112.27) rotate(-45)"/><rect class="cls-7" x="118.82" y="52.91" width="2.14" height="56.49" transform="translate(-22.27 108.54) rotate(-45)"/><rect class="cls-7" x="127.09" y="52.9" width="2.14" height="56.49" transform="translate(-19.84 114.39) rotate(-45)"/><rect class="cls-7" x="135.37" y="52.91" width="2.14" height="56.49" transform="translate(-17.42 120.25) rotate(-45)"/></g><path class="cls-4" d="M42.05,31.19c0-.09,0-.14.12-.14h.5c.1,0,.15.05.15.14v9.13a3.67,3.67,0,0,1-.18,1.23,2.37,2.37,0,0,1-.56,1,2.46,2.46,0,0,1-1,.61,4.55,4.55,0,0,1-1.47.21,5.46,5.46,0,0,1-1.5-.19,2.15,2.15,0,0,1-1.06-.66,3.12,3.12,0,0,1-.63-1.26,8,8,0,0,1-.2-2v-.87a5.34,5.34,0,0,1,.72-3.15,3,3,0,0,1,2.54-1,3.49,3.49,0,0,1,1.56.32,2.19,2.19,0,0,1,1,.83h0Zm0,6.42a2.74,2.74,0,0,0-.65-2A2.47,2.47,0,0,0,39.47,35a3.06,3.06,0,0,0-1.12.18,1.65,1.65,0,0,0-.77.59,3,3,0,0,0-.43,1.09A7.71,7.71,0,0,0,37,38.52v.63a7.9,7.9,0,0,0,.15,1.68,2.83,2.83,0,0,0,.47,1.08,1.74,1.74,0,0,0,.81.58,3.61,3.61,0,0,0,1.17.17,3.76,3.76,0,0,0,1.06-.14,1.69,1.69,0,0,0,.76-.43,1.87,1.87,0,0,0,.47-.77,3.78,3.78,0,0,0,.16-1.2Z"/><path class="cls-4" d="M51.08,38.55a.81.81,0,0,1-.16.58.78.78,0,0,1-.57.17H45.68a9.3,9.3,0,0,0,.16,1.58,2.68,2.68,0,0,0,.46,1,1.75,1.75,0,0,0,.79.55,3.89,3.89,0,0,0,1.17.16,6.36,6.36,0,0,0,1.07-.11,4.85,4.85,0,0,0,1.07-.3.18.18,0,0,1,.24.07l.1.28a.28.28,0,0,1,0,.18.5.5,0,0,1-.16.13,6.2,6.2,0,0,1-2.34.46,4.49,4.49,0,0,1-1.58-.23,2.24,2.24,0,0,1-1-.72,3.23,3.23,0,0,1-.58-1.28,8.68,8.68,0,0,1-.18-1.9v-.81a5.35,5.35,0,0,1,.75-3.15,2.84,2.84,0,0,1,2.46-1q3,0,3,3.24Zm-1,0a.34.34,0,0,0,.2,0V37.7a3.18,3.18,0,0,0-.53-2.12A2.06,2.06,0,0,0,48.1,35a3.08,3.08,0,0,0-1.08.16,1.57,1.57,0,0,0-.73.57,3.13,3.13,0,0,0-.43,1.11,9.45,9.45,0,0,0-.16,1.76Z"/><path class="cls-4" d="M55.22,43.32a6.12,6.12,0,0,1-1.28-.14,8.83,8.83,0,0,1-1-.3l-.12-.08a.22.22,0,0,1,0-.16l.09-.3q0-.17.27-.09c.33.11.67.21,1,.29a6.27,6.27,0,0,0,1.14.1,4.71,4.71,0,0,0,1-.11,1.42,1.42,0,0,0,.64-.34,1.06,1.06,0,0,0,.3-.56,2.81,2.81,0,0,0,.08-.76v-.09a3.29,3.29,0,0,0-.06-.77A1,1,0,0,0,57,39.5a1.14,1.14,0,0,0-.51-.32,4.16,4.16,0,0,0-.86-.21l-.8-.14a2.54,2.54,0,0,1-1.67-.78,2.41,2.41,0,0,1-.43-1.47v-.07a2,2,0,0,1,.72-1.73,3.36,3.36,0,0,1,2.06-.55,6.63,6.63,0,0,1,1,.08c.35.06.64.11.88.17s.18.12.14.24l0,.28c0,.11-.1.15-.25.11a8.11,8.11,0,0,0-.86-.14,7.14,7.14,0,0,0-.93-.06,2.21,2.21,0,0,0-1.49.4,1.49,1.49,0,0,0-.46,1.18v.07a2.52,2.52,0,0,0,.09.67,1.08,1.08,0,0,0,.31.47,2,2,0,0,0,.56.3,6.87,6.87,0,0,0,.87.21l.8.14a3.1,3.1,0,0,1,.9.26,1.68,1.68,0,0,1,.61.44,1.7,1.7,0,0,1,.34.67,3.74,3.74,0,0,1,.1,1v.17a2.33,2.33,0,0,1-.69,1.92A3.52,3.52,0,0,1,55.22,43.32Z"/><path class="cls-4" d="M65.94,38.55a.81.81,0,0,1-.17.58.78.78,0,0,1-.57.17H60.53a9.3,9.3,0,0,0,.16,1.58,2.68,2.68,0,0,0,.46,1,1.75,1.75,0,0,0,.79.55,3.89,3.89,0,0,0,1.17.16,6.36,6.36,0,0,0,1.07-.11,4.85,4.85,0,0,0,1.07-.3.18.18,0,0,1,.24.07l.1.28a.28.28,0,0,1,0,.18.5.5,0,0,1-.16.13,6.2,6.2,0,0,1-2.34.46,4.49,4.49,0,0,1-1.58-.23,2.24,2.24,0,0,1-1-.72,3.21,3.21,0,0,1-.57-1.26,8.68,8.68,0,0,1-.18-1.9v-.81a5.35,5.35,0,0,1,.75-3.15,2.84,2.84,0,0,1,2.46-1q3,0,3,3.24Zm-1,0a.34.34,0,0,0,.2,0,.58.58,0,0,0,.06-.25v-.6a3.24,3.24,0,0,0-.54-2.12A2.06,2.06,0,0,0,62.94,35a3.08,3.08,0,0,0-1.08.16,1.57,1.57,0,0,0-.73.57,3.42,3.42,0,0,0-.43,1.11,9.45,9.45,0,0,0-.16,1.76Z"/><path class="cls-4" d="M72.94,42.27a1.89,1.89,0,0,1-.85.78,3.64,3.64,0,0,1-1.57.27h-.35a2.78,2.78,0,0,1-2-.57,2.68,2.68,0,0,1-.57-1.91v-.22a4.53,4.53,0,0,1,.13-1.1,1.65,1.65,0,0,1,.5-.79,2.55,2.55,0,0,1,1-.47,6.47,6.47,0,0,1,1.58-.16h1.55l.63,0v-1a2.18,2.18,0,0,0-.54-1.73,2.57,2.57,0,0,0-1.64-.45,6.49,6.49,0,0,0-1.16.1c-.33.06-.67.13-1,.22-.15,0-.25,0-.28-.09l-.08-.32a.25.25,0,0,1,0-.17.55.55,0,0,1,.15-.08,10.52,10.52,0,0,1,1.08-.25,7.55,7.55,0,0,1,1.42-.11,2.83,2.83,0,0,1,2.21.73,3.41,3.41,0,0,1,.65,2.33V43a.13.13,0,0,1-.11.16h-.44q-.15,0-.18-.18Zm0-3.4a2,2,0,0,1-.57-.06H70.68a3,3,0,0,0-1.76.38,1.59,1.59,0,0,0-.52,1.33V41a1.77,1.77,0,0,0,.4,1.29,1.72,1.72,0,0,0,1.23.38h.7a2.44,2.44,0,0,0,1.73-.53,2.15,2.15,0,0,0,.54-1.6Z"/><path class="cls-4" d="M85.08,34.23a2.76,2.76,0,0,1,2.65,1.26,2.61,2.61,0,0,1,.31.94,7.67,7.67,0,0,1,.08,1.27V43a.13.13,0,0,1-.12.14h-.52c-.09,0-.13,0-.13-.14V37.78a4.44,4.44,0,0,0-.21-1.62,1.63,1.63,0,0,0-.68-.85,2.26,2.26,0,0,0-.62-.26A3,3,0,0,0,85,35a2.77,2.77,0,0,0-2.48,1.2,8,8,0,0,1,.12,1.55V43a.13.13,0,0,1-.12.14h-.57c-.09,0-.13,0-.13-.14V37.65a3,3,0,0,0-.57-2.09,2.34,2.34,0,0,0-1.8-.56,2.39,2.39,0,0,0-1.79.63,2.68,2.68,0,0,0-.6,1.87V43c0,.09,0,.14-.15.14h-.5c-.08,0-.12,0-.12-.14V34.5c0-.08,0-.13.12-.13h.4a.14.14,0,0,1,.16.12v.89h0a2.12,2.12,0,0,1,.93-.85,3.28,3.28,0,0,1,1.54-.32,3.66,3.66,0,0,1,1.64.31,2.3,2.3,0,0,1,1,1h0a3.08,3.08,0,0,1,1-.9A3.69,3.69,0,0,1,85.08,34.23Z"/><path class="cls-4" d="M96.83,39.17a9,9,0,0,1-.19,2,2.59,2.59,0,0,1-.77,1.41,2.66,2.66,0,0,1-.92.54,5.51,5.51,0,0,1-2.85,0,2.76,2.76,0,0,1-.92-.54,2.73,2.73,0,0,1-.77-1.41,10.36,10.36,0,0,1-.2-2v-.79a10.34,10.34,0,0,1,.19-2A2.56,2.56,0,0,1,91.18,35a3.07,3.07,0,0,1,.93-.53,4,4,0,0,1,1.41-.21,4.3,4.3,0,0,1,1.43.2,2.44,2.44,0,0,1,.92.54,2.56,2.56,0,0,1,.77,1.41,9,9,0,0,1,.19,2ZM91,39a10.91,10.91,0,0,0,.11,1.71,3,3,0,0,0,.37,1,2.72,2.72,0,0,0,3.84.24l.24-.24a2.44,2.44,0,0,0,.38-1A9.83,9.83,0,0,0,96.05,39v-.4a9.88,9.88,0,0,0-.11-1.72,2.7,2.7,0,0,0-.38-1,2.74,2.74,0,0,0-3.87-.21l-.21.21a3,3,0,0,0-.37,1A11,11,0,0,0,91,38.6Z"/><path class="cls-4" d="M100.94,43.32a5.78,5.78,0,0,1-1.31-.14,10.34,10.34,0,0,1-1-.3l-.12-.08a.43.43,0,0,1,0-.16l.09-.3q.06-.17.27-.09c.35.11.7.21,1.05.29a6.17,6.17,0,0,0,1.13.1,4.15,4.15,0,0,0,1.06-.11,1.34,1.34,0,0,0,.63-.34,1,1,0,0,0,.31-.56,2.81,2.81,0,0,0,.08-.76v-.09A3.29,3.29,0,0,0,103,40a1,1,0,0,0-.25-.51,1.42,1.42,0,0,0-.51-.32,4.16,4.16,0,0,0-.86-.21l-.81-.14a2.61,2.61,0,0,1-1.65-.78,2.41,2.41,0,0,1-.43-1.47v-.07a2,2,0,0,1,.72-1.73,3.38,3.38,0,0,1,2-.55,6.63,6.63,0,0,1,1,.08c.35.06.64.11.88.17s.18.12.14.24l-.07.28c0,.11-.11.15-.25.11a8.11,8.11,0,0,0-.86-.14,7.14,7.14,0,0,0-.93-.06,2.21,2.21,0,0,0-1.49.4,1.49,1.49,0,0,0-.46,1.18v.07a2.52,2.52,0,0,0,.09.67,1.12,1.12,0,0,0,.3.47,2.07,2.07,0,0,0,.57.3,6.34,6.34,0,0,0,.86.21l.81.14a3.38,3.38,0,0,1,.89.26,1.6,1.6,0,0,1,.61.44,1.43,1.43,0,0,1,.34.67,3.74,3.74,0,0,1,.11,1v.17a2.31,2.31,0,0,1-.7,1.92A3.52,3.52,0,0,1,100.94,43.32Z"/><path class="cls-4" d="M116.18,46.2a.12.12,0,0,1-.1.15h-.55q-.12,0-.12-.15v-4h-.06a2.69,2.69,0,0,1-1,.83,3.53,3.53,0,0,1-1.51.28,3.17,3.17,0,0,1-2.54-.92,4.63,4.63,0,0,1-.79-3v-.93a9,9,0,0,1,.2-2,3.29,3.29,0,0,1,.6-1.3,2.2,2.2,0,0,1,1-.7,4.81,4.81,0,0,1,1.5-.21,2.76,2.76,0,0,1,2.54,1.11h0l.07-.77a.16.16,0,0,1,.14-.18h.51v.15ZM112.79,35a3.15,3.15,0,0,0-1.13.18,1.67,1.67,0,0,0-.78.61,3.08,3.08,0,0,0-.45,1.13,10.36,10.36,0,0,0-.14,1.76v.67a7.74,7.74,0,0,0,.13,1.52,2.81,2.81,0,0,0,.44,1,1.82,1.82,0,0,0,.82.58,3.74,3.74,0,0,0,1.24.19,2.63,2.63,0,0,0,1.81-.6,2.21,2.21,0,0,0,.68-1.73V37.45a2.37,2.37,0,0,0-.7-1.87A2.71,2.71,0,0,0,112.79,35Z"/><path class="cls-4" d="M121.8,42.64a4.76,4.76,0,0,0,1.13-.11,1.83,1.83,0,0,0,.71-.39,1.19,1.19,0,0,0,.36-.62,4.08,4.08,0,0,0,.12-1.1V34.54c0-.1,0-.15.14-.15h.49c.09,0,.14,0,.14.15v6a4.48,4.48,0,0,1-.15,1.26,2,2,0,0,1-.55.87,2.24,2.24,0,0,1-.91.49,6.61,6.61,0,0,1-3,0,2.38,2.38,0,0,1-.91-.49,2,2,0,0,1-.55-.87,4.48,4.48,0,0,1-.15-1.26v-6c0-.1,0-.15.14-.15h.49c.09,0,.14,0,.14.15v5.88a4.08,4.08,0,0,0,.12,1.1,1.26,1.26,0,0,0,.36.62,2,2,0,0,0,.71.39A5.15,5.15,0,0,0,121.8,42.64Z"/><path class="cls-4" d="M133.19,38.55a.81.81,0,0,1-.16.58.78.78,0,0,1-.57.17h-4.67a7.63,7.63,0,0,0,.16,1.58,2.68,2.68,0,0,0,.46,1,1.72,1.72,0,0,0,.78.55,4.3,4.3,0,0,0,1.18.16,6.36,6.36,0,0,0,1.07-.11,4.85,4.85,0,0,0,1.07-.3.18.18,0,0,1,.24.07l.1.28a.28.28,0,0,1,0,.18.5.5,0,0,1-.16.13,6.2,6.2,0,0,1-2.34.46,4.49,4.49,0,0,1-1.58-.23,2.47,2.47,0,0,1-1-.72,3.36,3.36,0,0,1-.57-1.28,8.68,8.68,0,0,1-.18-1.9v-.81a5.43,5.43,0,0,1,.74-3.15,2.86,2.86,0,0,1,2.46-1q3,0,3,3.24Zm-1,0a.67.67,0,0,0,.2,0V37.7a3.25,3.25,0,0,0-.53-2.12,2.09,2.09,0,0,0-1.69-.63,3,3,0,0,0-1.07.16,1.57,1.57,0,0,0-.73.57,3.13,3.13,0,0,0-.43,1.11,9.45,9.45,0,0,0-.16,1.76Z"/><path class="cls-4" d="M39.87,52.29a2.46,2.46,0,0,0-1,.18,1.34,1.34,0,0,0-.6.53,2.43,2.43,0,0,0-.32.78,4.25,4.25,0,0,0-.07.8V60.2a.13.13,0,0,1-.12.14h-.52c-.08,0-.12-.05-.12-.14V51.7c0-.09,0-.13.12-.13h.36c.12,0,.19,0,.2.14l.11.88h0a1.9,1.9,0,0,1,.72-.74,2.32,2.32,0,0,1,1.23-.28h.56a.12.12,0,0,1,.14.12v.44a.13.13,0,0,1-.11.16h-.58Z"/><path class="cls-4" d="M47.84,55.72a.86.86,0,0,1-.16.58.76.76,0,0,1-.58.17H42.43a9.42,9.42,0,0,0,.16,1.59,2.68,2.68,0,0,0,.46,1,1.73,1.73,0,0,0,.79.54,3.6,3.6,0,0,0,1.17.16,6.36,6.36,0,0,0,1.07-.1,5,5,0,0,0,1.08-.31c.12,0,.19,0,.23.07l.11.29a.28.28,0,0,1,0,.18.3.3,0,0,1-.17.12,4.69,4.69,0,0,1-1.12.34,6.24,6.24,0,0,1-1.22.13,4.94,4.94,0,0,1-1.57-.23,2.34,2.34,0,0,1-1-.73,3.23,3.23,0,0,1-.58-1.28,10,10,0,0,1-.17-1.89v-.81a5.37,5.37,0,0,1,.74-3.16,2.86,2.86,0,0,1,2.46-1q3,0,3,3.24Zm-1,0H47a.58.58,0,0,0,.06-.25v-.56a3.29,3.29,0,0,0-.54-2.13,2.1,2.1,0,0,0-1.68-.62,3.08,3.08,0,0,0-1.08.16,1.57,1.57,0,0,0-.73.57A3.17,3.17,0,0,0,42.61,54a11.39,11.39,0,0,0-.16,1.75Z"/><path class="cls-4" d="M55.33,59.78V60s-.08.07-.16.11a4.26,4.26,0,0,1-1,.29,4.83,4.83,0,0,1-1.08.12,3.52,3.52,0,0,1-2.47-.79,2.74,2.74,0,0,1-.77-1.4,8.94,8.94,0,0,1-.23-2.12v-.61a8.09,8.09,0,0,1,.32-2.14,2.78,2.78,0,0,1,.74-1.26A3.25,3.25,0,0,1,53,51.41a4.19,4.19,0,0,1,1.41.21,3.16,3.16,0,0,1,1,.51c.1.06.11.13,0,.23l-.23.34c0,.07-.12.07-.23,0a3.61,3.61,0,0,0-2.05-.57,3.19,3.19,0,0,0-1.06.14,1.89,1.89,0,0,0-.71.41,2,2,0,0,0-.42.61,3.08,3.08,0,0,0-.22.73,5.7,5.7,0,0,0-.09.83v1.21a9.36,9.36,0,0,0,.15,1.83,2.8,2.8,0,0,0,.6,1.25,1.63,1.63,0,0,0,.77.47,3.55,3.55,0,0,0,1.16.17,7,7,0,0,0,.93-.08,4.22,4.22,0,0,0,1-.27c.12,0,.2,0,.25.12Z"/><path class="cls-4" d="M58.63,49.28a.77.77,0,0,1-.16.54A.56.56,0,0,1,58,50h-.1a.66.66,0,0,1-.5-.16.93.93,0,0,1-.14-.54v-.11a.59.59,0,0,1,.64-.68H58a.6.6,0,0,1,.43.16.69.69,0,0,1,.16.52ZM58.38,60.2c0,.09,0,.14-.15.14h-.5c-.08,0-.12-.05-.12-.14V51.71c0-.09,0-.14.12-.14h.5c.1,0,.15,0,.15.14Z"/><path class="cls-4" d="M61.94,52.48h0a2.43,2.43,0,0,1,1-.77,4,4,0,0,1,1.66-.3,2.9,2.9,0,0,1,2.45,1,5.13,5.13,0,0,1,.77,3.15v.84a7.53,7.53,0,0,1-.22,2,3.19,3.19,0,0,1-.66,1.21,2.26,2.26,0,0,1-1.06.68,4.65,4.65,0,0,1-1.48.21,2.72,2.72,0,0,1-3.2-2.15,2.69,2.69,0,0,1,0-1v-9c0-.1,0-.14.13-.14h.5a.12.12,0,0,1,.14.09,0,0,0,0,1,0,0Zm5,3.14a4.43,4.43,0,0,0-.62-2.71,2.25,2.25,0,0,0-1.9-.78,2.54,2.54,0,0,0-2,.66,2.81,2.81,0,0,0-.48,1.89v2.64a2.48,2.48,0,0,0,.63,1.91,2.71,2.71,0,0,0,1.84.55,3.83,3.83,0,0,0,1.22-.17,1.6,1.6,0,0,0,.8-.6,2.75,2.75,0,0,0,.45-1.09,7.88,7.88,0,0,0,.06-1.68Z"/><path class="cls-4" d="M74.75,59.44a2,2,0,0,1-.85.79,3.64,3.64,0,0,1-1.57.27h-.39a2.78,2.78,0,0,1-2-.57A2.66,2.66,0,0,1,69.42,58v-.2a4.53,4.53,0,0,1,.13-1.1,1.65,1.65,0,0,1,.5-.79,2.25,2.25,0,0,1,1-.47,6.55,6.55,0,0,1,1.59-.16h1.55a2.18,2.18,0,0,1,.63.06V54.29a2.11,2.11,0,0,0-.54-1.73,2.57,2.57,0,0,0-1.64-.45,6.6,6.6,0,0,0-1.17.1,7.17,7.17,0,0,0-1,.22c-.15,0-.25,0-.29-.09L70.11,52a.25.25,0,0,1,0-.17.31.31,0,0,1,.15-.08,8.42,8.42,0,0,1,1.08-.25,7.91,7.91,0,0,1,1.37-.11,2.87,2.87,0,0,1,2.21.72,3.5,3.5,0,0,1,.65,2.34v5.71a.13.13,0,0,1-.11.16H75q-.17,0-.18-.18l-.06-.72Zm0-3.4H72.48a3,3,0,0,0-1.76.39,1.59,1.59,0,0,0-.52,1.33v.45a1.4,1.4,0,0,0,1.63,1.66h.7a2.35,2.35,0,0,0,1.73-.53,2.11,2.11,0,0,0,.54-1.6Z"/><path class="cls-4" d="M79.94,60.5a6.41,6.41,0,0,1-1.31-.14,7.21,7.21,0,0,1-1-.31.23.23,0,0,1-.12-.08.38.38,0,0,1,0-.15l.09-.3q.06-.17.27-.09a8.73,8.73,0,0,0,1,.28,6.18,6.18,0,0,0,1.13.11,3.75,3.75,0,0,0,1.06-.12,1.26,1.26,0,0,0,.63-.34,1.08,1.08,0,0,0,.31-.55,2.81,2.81,0,0,0,.08-.76v0a3.29,3.29,0,0,0-.06-.77,1.11,1.11,0,0,0-.25-.51,1.14,1.14,0,0,0-.51-.32,4.16,4.16,0,0,0-.86-.21L79.63,56a2.53,2.53,0,0,1-1.69-.77,2.42,2.42,0,0,1-.43-1.48v-.07A2,2,0,0,1,78.25,52a3.29,3.29,0,0,1,2.06-.55,6.63,6.63,0,0,1,1,.08,8.55,8.55,0,0,1,.88.17c.13,0,.18.11.14.23l-.07.29c0,.11-.11.14-.25.11s-.56-.11-.86-.15a7.21,7.21,0,0,0-.93,0,2.28,2.28,0,0,0-1.5.39,1.55,1.55,0,0,0-.45,1.19v.07a2.52,2.52,0,0,0,.09.67,1,1,0,0,0,.3.46,1.59,1.59,0,0,0,.57.31c.29.08.57.15.86.2l.81.15a3.38,3.38,0,0,1,.89.26,1.54,1.54,0,0,1,1,1.1,3.74,3.74,0,0,1,.11,1v0a2.32,2.32,0,0,1-.7,1.93A3.52,3.52,0,0,1,79.94,60.5Z"/><path class="cls-4" d="M97.76,51.41a2.77,2.77,0,0,1,2.65,1.25,2.81,2.81,0,0,1,.31.94,7.79,7.79,0,0,1,.08,1.28V60.2a.13.13,0,0,1-.12.14h-.53c-.08,0-.12-.05-.12-.14V55a4.44,4.44,0,0,0-.22-1.62,1.66,1.66,0,0,0-.67-.85,2.62,2.62,0,0,0-.62-.26,3,3,0,0,0-.85-.09,3.22,3.22,0,0,0-1.49.31,3,3,0,0,0-1,.88,8.14,8.14,0,0,1,.12,1.56V60.2a.13.13,0,0,1-.12.14h-.52c-.09,0-.13-.05-.13-.14V54.83a3,3,0,0,0-.57-2.1,2.94,2.94,0,0,0-3.6,0,2.69,2.69,0,0,0-.61,1.87V60.2a.12.12,0,0,1-.09.14h-.55a.12.12,0,0,1-.16-.05.28.28,0,0,1,0-.09V51.7a.12.12,0,0,1,.11-.13h.41c.11,0,.16,0,.16.14l.06.86h0a2.3,2.3,0,0,1,.93-.85,3.57,3.57,0,0,1,1.54-.31,3.87,3.87,0,0,1,1.65.3,2.35,2.35,0,0,1,1,1h0a2.89,2.89,0,0,1,1.14-.91A3.72,3.72,0,0,1,97.76,51.41Z"/><path class="cls-4" d="M108.08,59.44a1.91,1.91,0,0,1-.85.79,3.6,3.6,0,0,1-1.56.27h-.36a2.83,2.83,0,0,1-2-.57,2.71,2.71,0,0,1-.57-1.92V57.8a4.53,4.53,0,0,1,.13-1.1,1.65,1.65,0,0,1,.5-.79,2.55,2.55,0,0,1,1-.47,6.47,6.47,0,0,1,1.58-.16h1.55a2.28,2.28,0,0,1,.64.06V54.29a2.16,2.16,0,0,0-.55-1.73,2.5,2.5,0,0,0-1.64-.45,6.49,6.49,0,0,0-1.16.1,7.17,7.17,0,0,0-1,.22c-.16,0-.26,0-.29-.09l-.07-.32v-.17a.29.29,0,0,1,.14-.08,8.42,8.42,0,0,1,1.08-.25,7.91,7.91,0,0,1,1.37-.11,2.87,2.87,0,0,1,2.21.72,3.38,3.38,0,0,1,.65,2.34v5.71a.13.13,0,0,1-.11.16h-.44q-.15,0-.18-.18v-.72Zm.06-3.4h-.58l-.62,0h-1.13a3,3,0,0,0-1.75.39,1.56,1.56,0,0,0-.52,1.33v.45a1.82,1.82,0,0,0,.39,1.29,1.72,1.72,0,0,0,1.23.37h.7a2.35,2.35,0,0,0,1.73-.53,2.1,2.1,0,0,0,.55-1.6Zm-.43-8.46a.27.27,0,0,1,.37.1.05.05,0,0,1,0,0l.23.47c.1.17,0,.29-.23.38l-3,1.34a.5.5,0,0,1-.27.07s-.09,0-.13-.13l-.12-.28a.23.23,0,0,1,.07-.29Z"/><path class="cls-4" d="M113.31,60.5a6.58,6.58,0,0,1-1.32-.14,7.21,7.21,0,0,1-1-.31.21.21,0,0,1-.11-.08.19.19,0,0,1,0-.15l.09-.3c0-.11.12-.14.26-.09a8.73,8.73,0,0,0,1,.28,6.29,6.29,0,0,0,1.14.11,4.15,4.15,0,0,0,1-.12,1.29,1.29,0,0,0,.64-.34,1,1,0,0,0,.3-.55,2.81,2.81,0,0,0,.08-.76v0a3.29,3.29,0,0,0-.06-.77,1,1,0,0,0-.25-.51,1.14,1.14,0,0,0-.51-.32,4.16,4.16,0,0,0-.86-.21l-.77-.19a2.54,2.54,0,0,1-1.67-.78,2.42,2.42,0,0,1-.43-1.48v-.07a2,2,0,0,1,.72-1.72,3.28,3.28,0,0,1,2.06-.55,6.63,6.63,0,0,1,1,.08,8.55,8.55,0,0,1,.88.17c.13,0,.18.11.14.23l-.07.29c0,.11-.11.14-.25.11s-.56-.11-.86-.15a7.21,7.21,0,0,0-.93,0,2.27,2.27,0,0,0-1.49.39,1.51,1.51,0,0,0-.46,1.19v.07a2.52,2.52,0,0,0,.09.67,1,1,0,0,0,.31.46,1.63,1.63,0,0,0,.56.31c.29.08.58.15.87.2l.8.15a3.1,3.1,0,0,1,.9.26,1.57,1.57,0,0,1,.94,1.1,3.08,3.08,0,0,1,.11,1V58a2.32,2.32,0,0,1-.7,1.93A3.47,3.47,0,0,1,113.31,60.5Z"/><path class="cls-4" d="M127.71,48.37c0-.1,0-.14.12-.14h.5c.1,0,.15,0,.15.14v9.12a3.73,3.73,0,0,1-.18,1.24,2.48,2.48,0,0,1-.56,1,2.7,2.7,0,0,1-1,.61,4.55,4.55,0,0,1-1.47.21,5.46,5.46,0,0,1-1.5-.19,2.15,2.15,0,0,1-1.06-.66,3.19,3.19,0,0,1-.63-1.26,8,8,0,0,1-.2-2v-.88a5.36,5.36,0,0,1,.73-3.13,2.92,2.92,0,0,1,2.54-1,3.63,3.63,0,0,1,1.56.31,2.16,2.16,0,0,1,1,.84h0Zm0,6.42a2.8,2.8,0,0,0-.65-2,2.5,2.5,0,0,0-1.93-.7,3.06,3.06,0,0,0-1.12.18,1.61,1.61,0,0,0-.77.59,3,3,0,0,0-.43,1.09,7.71,7.71,0,0,0-.15,1.66v.63a7.9,7.9,0,0,0,.15,1.68,2.83,2.83,0,0,0,.47,1.08,1.65,1.65,0,0,0,.81.57,3.61,3.61,0,0,0,1.17.17,3.76,3.76,0,0,0,1.06-.13,1.69,1.69,0,0,0,.76-.43,1.9,1.9,0,0,0,.47-.78,3.78,3.78,0,0,0,.16-1.2Z"/><path class="cls-4" d="M136.74,55.72a.76.76,0,0,1-.16.58.72.72,0,0,1-.57.17h-4.67a9.42,9.42,0,0,0,.16,1.59,2.68,2.68,0,0,0,.46,1,1.73,1.73,0,0,0,.79.54,3.6,3.6,0,0,0,1.17.16,6.36,6.36,0,0,0,1.07-.1,4.87,4.87,0,0,0,1.07-.31c.12,0,.2,0,.24.07l.1.29a.28.28,0,0,1,0,.18.41.41,0,0,1-.16.12,4.91,4.91,0,0,1-1.13.34,6.06,6.06,0,0,1-1.21.13,5,5,0,0,1-1.58-.23,2.34,2.34,0,0,1-1-.73,3,3,0,0,1-.58-1.28,8.59,8.59,0,0,1-.18-1.89v-.81a5.38,5.38,0,0,1,.75-3.16,2.86,2.86,0,0,1,2.46-1q3,0,3,3.24Zm-1,0h.2a.58.58,0,0,0,.06-.25v-.56a3.29,3.29,0,0,0-.54-2.13,2.1,2.1,0,0,0-1.68-.62,3.08,3.08,0,0,0-1.08.16,1.41,1.41,0,0,0-.73.57,2.89,2.89,0,0,0-.43,1.11,9.34,9.34,0,0,0-.16,1.75Z"/><path class="cls-3" d="M40.49,157.55a11.29,11.29,0,0,1-2.09-.19,8.07,8.07,0,0,1-1.91-.57c-.25-.08-.39-.18-.43-.28a.85.85,0,0,1,0-.5l.29-1.28c.1-.42.35-.55.73-.39a11.05,11.05,0,0,0,1.58.48,7.49,7.49,0,0,0,1.56.2,6.63,6.63,0,0,0,1-.07,1.71,1.71,0,0,0,.66-.25,1.12,1.12,0,0,0,.44-1v-.18a1,1,0,0,0-.35-.89,3.73,3.73,0,0,0-1.17-.47l-1.57-.37a5.36,5.36,0,0,1-1.43-.48,3.4,3.4,0,0,1-.87-.69,3.52,3.52,0,0,1-.78-2.41V148a4.27,4.27,0,0,1,.3-1.73,3.16,3.16,0,0,1,.85-1.1,3.85,3.85,0,0,1,1.39-.65,8.59,8.59,0,0,1,2.14-.21,12.17,12.17,0,0,1,2,.16,7.92,7.92,0,0,1,1.53.36c.19.07.31.15.34.23a.55.55,0,0,1,0,.4l-.31,1.47a.36.36,0,0,1-.22.35.79.79,0,0,1-.43,0,8.72,8.72,0,0,0-2.54-.42,3,3,0,0,0-1.62.28,1,1,0,0,0-.37.84v.18a.9.9,0,0,0,.37.83,3.22,3.22,0,0,0,1,.35l1.62.37a4.49,4.49,0,0,1,2.64,1.41,2.81,2.81,0,0,1,.44,1,4.42,4.42,0,0,1,.13,1.2v.31a3.79,3.79,0,0,1-1,2.83A5.51,5.51,0,0,1,40.49,157.55Z"/><path class="cls-3" d="M52.94,144.27a7,7,0,0,1,2.49.39,4.18,4.18,0,0,1,1.66,1.15,4.73,4.73,0,0,1,1,2,11,11,0,0,1,.3,2.68v.78a10.7,10.7,0,0,1-.3,2.7,4.78,4.78,0,0,1-1,2,4.19,4.19,0,0,1-1.67,1.14,7.92,7.92,0,0,1-5,0A4.39,4.39,0,0,1,48.8,156a5,5,0,0,1-1-2,11.18,11.18,0,0,1-.3-2.7v-.78a11,11,0,0,1,.3-2.68,5,5,0,0,1,1-2,4.44,4.44,0,0,1,1.66-1.15A7,7,0,0,1,52.94,144.27Zm0,10.8a2.49,2.49,0,0,0,1.08-.18,2,2,0,0,0,.67-.53,2.47,2.47,0,0,0,.46-1.21,12.14,12.14,0,0,0,.11-2v-.55a12.14,12.14,0,0,0-.11-2,2.6,2.6,0,0,0-.46-1.2,1.67,1.67,0,0,0-.67-.53,2.64,2.64,0,0,0-1.08-.17,2.71,2.71,0,0,0-1.09.17,1.78,1.78,0,0,0-.66.53,2.71,2.71,0,0,0-.46,1.2,13.34,13.34,0,0,0-.12,2v.55a13.34,13.34,0,0,0,.12,2,2.68,2.68,0,0,0,.46,1.21,2.24,2.24,0,0,0,.66.53A2.72,2.72,0,0,0,52.94,155.07Z"/><path class="cls-3" d="M63.47,146.21h0a3.88,3.88,0,0,1,1.37-1.3,4.54,4.54,0,0,1,2.11-.4h.36a1.06,1.06,0,0,1,.58.11.6.6,0,0,1,.16.51v1.39a.56.56,0,0,1-.11.48.86.86,0,0,1-.59.13h-.41a3.92,3.92,0,0,0-1.36.18,2.15,2.15,0,0,0-.76.47,2.93,2.93,0,0,0-.43.75,4.92,4.92,0,0,0-.17,1.48v6.66a.67.67,0,0,1-.14.53,1,1,0,0,1-.59.13h-1.7a1,1,0,0,1-.58-.13.72.72,0,0,1-.15-.53V145.11q0-.6.63-.6h.92a1,1,0,0,1,.48.09.52.52,0,0,1,.19.38Z"/><path class="cls-3" d="M72.49,145.58h0a4.05,4.05,0,0,1,1.46-1,6,6,0,0,1,2.17-.35,6.74,6.74,0,0,1,2.23.33A4,4,0,0,1,80,145.64a4.39,4.39,0,0,1,.54.81,4,4,0,0,1,.38,1,6.56,6.56,0,0,1,.21,1.24,13.82,13.82,0,0,1,.07,1.58v1a10.94,10.94,0,0,1-.32,2.85,4.46,4.46,0,0,1-1,2,3.88,3.88,0,0,1-1.6,1.06,7.55,7.55,0,0,1-2.46.35,5.24,5.24,0,0,1-1.47-.18,4.7,4.7,0,0,1-1.17-.52v4.44c0,.26,0,.44-.14.52a.92.92,0,0,1-.59.13H70.81a.92.92,0,0,1-.58-.13.7.7,0,0,1-.15-.52V145.11q0-.6.63-.6h1a1,1,0,0,1,.48.08.44.44,0,0,1,.2.34Zm.7,7.16a3.44,3.44,0,0,0,.16,1.15,1.73,1.73,0,0,0,.39.6,2.17,2.17,0,0,0,.7.38,3.5,3.5,0,0,0,1.11.15,2.89,2.89,0,0,0,1.13-.19,1.65,1.65,0,0,0,.75-.55,2.21,2.21,0,0,0,.52-1.19,11.87,11.87,0,0,0,.11-1.79v-.75a9.7,9.7,0,0,0-.14-1.94,2.05,2.05,0,0,0-2.37-1.8,4,4,0,0,0-1.14.14,1.9,1.9,0,0,0-.72.43,1.57,1.57,0,0,0-.39.77,6.53,6.53,0,0,0-.11,1.17Z"/><path class="cls-3" d="M86.24,146.21h0a3.88,3.88,0,0,1,1.37-1.3,4.54,4.54,0,0,1,2.11-.4h.36a1.06,1.06,0,0,1,.58.11.6.6,0,0,1,.16.51v1.39a.58.58,0,0,1-.15.47.86.86,0,0,1-.59.13h-.47a3.92,3.92,0,0,0-1.36.18,2,2,0,0,0-.75.47,2.47,2.47,0,0,0-.44.75,5.23,5.23,0,0,0-.12,1.48v6.66a.67.67,0,0,1-.14.53,1,1,0,0,1-.59.13H84.56a1,1,0,0,1-.58-.13.72.72,0,0,1-.15-.53V145.11q0-.6.63-.6h.92a1,1,0,0,1,.48.09.53.53,0,0,1,.2.38Z"/><path class="cls-3" d="M102.68,151.64a.94.94,0,0,1-.14.59.7.7,0,0,1-.56.17H95.44a2.83,2.83,0,0,0,.65,2.09,2,2,0,0,0,.81.38,6.23,6.23,0,0,0,1.49.15,8,8,0,0,0,1.47-.16,7.06,7.06,0,0,0,1.36-.39.56.56,0,0,1,.42-.05c.12,0,.22.19.31.47l.34,1.25a.58.58,0,0,1,0,.45.91.91,0,0,1-.46.28,10.86,10.86,0,0,1-3.79.68,9.59,9.59,0,0,1-2.66-.32,4.19,4.19,0,0,1-1.73-1,4.36,4.36,0,0,1-1.06-2,12.63,12.63,0,0,1-.3-3v-.7a12.43,12.43,0,0,1,.27-2.72,4.78,4.78,0,0,1,.9-2,3.87,3.87,0,0,1,1.66-1.19,7.18,7.18,0,0,1,2.55-.41,6.8,6.8,0,0,1,2.2.3,4.23,4.23,0,0,1,1.49.88,3.5,3.5,0,0,1,.56.66,3.76,3.76,0,0,1,.42.91,6.21,6.21,0,0,1,.26,1.21,11.2,11.2,0,0,1,.09,1.64Zm-5.12-4.88a2,2,0,0,0-1.49.52,2.11,2.11,0,0,0-.53,1,8.8,8.8,0,0,0-.15,1.62h3.84c.23,0,.34-.12.34-.36a8.72,8.72,0,0,0-.1-1.44,1.65,1.65,0,0,0-.4-.89,1.4,1.4,0,0,0-.57-.38A2.94,2.94,0,0,0,97.56,146.76Z"/><path class="cls-3" d="M109.09,157.55a12.42,12.42,0,0,1-2.1-.19,8,8,0,0,1-1.9-.57.8.8,0,0,1-.44-.28,1.06,1.06,0,0,1,0-.5l.29-1.28c.1-.42.34-.55.73-.39a11.05,11.05,0,0,0,1.58.48,7.4,7.4,0,0,0,1.55.2,7.31,7.31,0,0,0,1-.07,1.47,1.47,0,0,0,.65-.25,1.09,1.09,0,0,0,.45-1v-.18a1,1,0,0,0-.35-.89,3.73,3.73,0,0,0-1.17-.47l-1.57-.37a5.36,5.36,0,0,1-1.43-.48,3.23,3.23,0,0,1-.87-.69,3.52,3.52,0,0,1-.78-2.41V148a4.27,4.27,0,0,1,.3-1.73,3.16,3.16,0,0,1,.85-1.1,3.58,3.58,0,0,1,1.38-.65,8.67,8.67,0,0,1,2.15-.21,12.17,12.17,0,0,1,2,.16,7.92,7.92,0,0,1,1.53.36c.19.07.31.15.34.23a.55.55,0,0,1,0,.4l-.31,1.47a.36.36,0,0,1-.22.35.82.82,0,0,1-.44,0,6.67,6.67,0,0,0-1.17-.29,6.82,6.82,0,0,0-1.36-.13,3,3,0,0,0-1.62.28,1,1,0,0,0-.37.84v.18a.9.9,0,0,0,.37.83,3.22,3.22,0,0,0,1,.35l1.63.37a4.49,4.49,0,0,1,2.64,1.41,2.81,2.81,0,0,1,.44,1,4.42,4.42,0,0,1,.13,1.2v.31a3.79,3.79,0,0,1-1,2.83A5.51,5.51,0,0,1,109.09,157.55Z"/><path class="cls-3" d="M123.81,156.22a2.41,2.41,0,0,1-1,1,4.11,4.11,0,0,1-1.84.34h-1a6.37,6.37,0,0,1-1.68-.19,3.44,3.44,0,0,1-1.19-.64,3.07,3.07,0,0,1-.85-1.25,4.82,4.82,0,0,1-.28-1.68v-.6a3.81,3.81,0,0,1,1.1-3,3.74,3.74,0,0,1,1.54-.74,9.74,9.74,0,0,1,2.28-.22h2.4v-.71a1.31,1.31,0,0,0-1-1.59l-.18,0a6,6,0,0,0-1.12-.08,11.72,11.72,0,0,0-1.56.13,11.89,11.89,0,0,0-1.65.37.47.47,0,0,1-.46,0,.88.88,0,0,1-.2-.41l-.23-1.23a.89.89,0,0,1,0-.51c0-.11.18-.2.4-.27a14.56,14.56,0,0,1,1.82-.43,11.81,11.81,0,0,1,2.13-.2,10,10,0,0,1,2.25.2,4.59,4.59,0,0,1,1.51.64,2.83,2.83,0,0,1,1,1.27,5.77,5.77,0,0,1,.32,2.18v8.26c0,.33-.18.5-.55.5h-1.2a.57.57,0,0,1-.63-.47l-.15-.63Zm-.53-4.5h-2.43a3.66,3.66,0,0,0-.8.07,1.21,1.21,0,0,0-.56.24,1.62,1.62,0,0,0-.39,1.28v.32a1.55,1.55,0,0,0,.39,1.18,1.75,1.75,0,0,0,.43.22,2.54,2.54,0,0,0,.72.09h.94a1.73,1.73,0,0,0,1.31-.42,1.83,1.83,0,0,0,.39-1.33Z"/><path class="cls-3" d="M133.22,157.55a12.42,12.42,0,0,1-2.1-.19,8,8,0,0,1-1.9-.57.8.8,0,0,1-.44-.28,1.06,1.06,0,0,1,0-.5l.29-1.28c.1-.42.34-.55.73-.39a11.05,11.05,0,0,0,1.58.48,7.4,7.4,0,0,0,1.55.2,7.31,7.31,0,0,0,1-.07,1.47,1.47,0,0,0,.65-.25,1.09,1.09,0,0,0,.45-1v-.18a1,1,0,0,0-.35-.89,3.73,3.73,0,0,0-1.17-.47l-1.57-.37a5.36,5.36,0,0,1-1.43-.48,3.23,3.23,0,0,1-.87-.69,3.52,3.52,0,0,1-.78-2.41V148a4.27,4.27,0,0,1,.3-1.73,3.16,3.16,0,0,1,.85-1.1,3.58,3.58,0,0,1,1.38-.65,8.67,8.67,0,0,1,2.15-.21,12.17,12.17,0,0,1,2,.16,7.92,7.92,0,0,1,1.53.36c.19.07.31.15.34.23a.55.55,0,0,1,0,.4l-.31,1.47a.36.36,0,0,1-.22.35.82.82,0,0,1-.44,0,6.67,6.67,0,0,0-1.17-.29,6.82,6.82,0,0,0-1.36-.13,3,3,0,0,0-1.62.28,1,1,0,0,0-.37.84v.18a.9.9,0,0,0,.37.83,3.22,3.22,0,0,0,1,.35l1.63.37a4.49,4.49,0,0,1,2.64,1.41,2.81,2.81,0,0,1,.44,1,4.42,4.42,0,0,1,.13,1.2v.31a3.79,3.79,0,0,1-1,2.83A5.51,5.51,0,0,1,133.22,157.55Z"/><path class="cls-3" d="M122.24,85.11l-3,1.42a2.34,2.34,0,0,0-.19-1.43,2.41,2.41,0,0,0-3.2-1.17h0a2.43,2.43,0,0,0-1.36,1.8,2.18,2.18,0,0,0-1.77,0,2.22,2.22,0,0,0-1.1,3,2.2,2.2,0,0,0,.84,1l-3.29,1.53a.56.56,0,0,0-.25.69l1.31,2.8a.54.54,0,0,0,.69.25l.47-.21,3,6.4a.55.55,0,0,0,.68.25l11.24-5.24a.51.51,0,0,0,.25-.68l-3-6.4.47-.22a.54.54,0,0,0,.25-.69l-1.34-2.77A.55.55,0,0,0,122.24,85.11Zm-7,3.27-1.09.51a1.2,1.2,0,1,1,.58-1.6Zm2.19-1-1.25.58-.58-1.25a1.37,1.37,0,1,1,1.83.67Z"/><path class="cls-4" d="M110,91.94l5.62-2.62.87,1.87-5.59,2.62Z"/><path class="cls-4" d="M116.59,88.88l5.62-2.61.88,1.87-5.62,2.62Z"/><rect class="cls-4" x="113.42" y="92.9" width="5.17" height="6.54" transform="translate(-29.76 57.99) rotate(-24.98)"/><rect class="cls-4" x="119.05" y="90.29" width="5.17" height="6.54" transform="translate(-28.13 60.12) rotate(-24.98)"/><path class="cls-3" d="M161.12,114.17l-7-4.68a6,6,0,0,0,2.83-2.27,6.09,6.09,0,0,0-1.69-8.4h0a6,6,0,0,0-5.63-.56,5.6,5.6,0,0,0-10.21-2.18,5.53,5.53,0,0,0-.93,3l-7.59-5a1.33,1.33,0,0,0-1.8.36l-4.31,6.48a1.35,1.35,0,0,0,.36,1.8l1.08.72-9.82,14.77a1.35,1.35,0,0,0,.36,1.8l25.93,17.25a1.35,1.35,0,0,0,1.8-.36l9.83-14.77,1.08.72a1.36,1.36,0,0,0,1.8-.36l4.31-6.49A1.35,1.35,0,0,0,161.12,114.17Zm-16.18-10.78-2.52-1.68a3,3,0,1,1,4.19-.84Zm5,3.36-2.88-1.92,1.88-2.83a3.46,3.46,0,1,1,1,4.8Z"/><path class="cls-4" d="M130.5,96.93l13,8.62-2.88,4.32-13-8.62Z"/><path class="cls-4" d="M145.63,107l13,8.62L155.75,120l-13-8.63Z"/><rect class="cls-4" x="120.99" y="108.8" width="16.44" height="12.98" transform="translate(-38.35 159.02) rotate(-56.37)"/><rect class="cls-4" x="133.96" y="117.43" width="16.44" height="12.98" transform="translate(-39.74 173.67) rotate(-56.37)"/></g></g></g></g></svg>