<svg xmlns="http://www.w3.org/2000/svg" viewBox="0 0 189.81 164.32"><defs><style>.cls-1{fill:#0033a0;}.cls-2{fill:#e3e829;}.cls-3{fill:#4ec3e0;}.cls-4{fill:none;stroke:#0033a0;stroke-linecap:round;stroke-linejoin:round;stroke-width:2.33px;}</style></defs><g id="Capa_2" data-name="Capa 2"><g id="Diseño"><path class="cls-1" d="M2.87,109.82s11.64,55.71,64.34,54.48c82.88-1.93,115.9-16.17,121.9-73.64S161.6,39.07,136.6,23.79-21-52.1,2.87,109.82Z"/><path class="cls-2" d="M71.91,69.56a14,14,0,0,0-5.12-2.4,25.58,25.58,0,0,0-6.4-.76,36.47,36.47,0,0,0-7.57.84,34.54,34.54,0,0,0-7,2.2,1.91,1.91,0,0,0-1.16,1,2.72,2.72,0,0,0,0,1.44l1,4.16q.48,1.68,2.4,1A34.53,34.53,0,0,1,53.7,75.2a25.52,25.52,0,0,1,5.48-.64q3.85,0,5.53,1.48a6,6,0,0,1,1.68,4.69v.56a15.87,15.87,0,0,1-.28,3.2,6.2,6.2,0,0,1-1,2.4A7.65,7.65,0,0,1,63,88.77a30,30,0,0,1-3.4,1.8l-6.33,2.88a17.31,17.31,0,0,0-7.76,6.77q-2.73,4.44-2.73,11.64v4.73a2.2,2.2,0,0,0,.64,1.84,3.91,3.91,0,0,0,2.25.48H73.59a3.39,3.39,0,0,0,1.77-.36c.37-.24.55-.81.55-1.72v-3.52a2.4,2.4,0,0,0-.51-1.81,2.87,2.87,0,0,0-1.81-.44H52.38v-1.44a12.09,12.09,0,0,1,.44-3.4,8.18,8.18,0,0,1,1.36-2.68,10,10,0,0,1,2.32-2.16,21.66,21.66,0,0,1,3.4-1.84l5.93-2.72a28.31,28.31,0,0,0,4.84-2.77A14.28,14.28,0,0,0,74,90.69,12.74,12.74,0,0,0,76,86.41a22.56,22.56,0,0,0,.6-5.45V79.84a13.71,13.71,0,0,0-1.25-6.12A11.43,11.43,0,0,0,71.91,69.56Z"/><path class="cls-2" d="M114.38,73.24a15.08,15.08,0,0,0-5.85-5.08,19.35,19.35,0,0,0-8.68-1.76,19.4,19.4,0,0,0-8.69,1.76,15.13,15.13,0,0,0-5.84,5.08A22.61,22.61,0,0,0,82,81.29a49.14,49.14,0,0,0-1,10.64V94a49.82,49.82,0,0,0,1,10.69,22.54,22.54,0,0,0,3.32,8.08,15.15,15.15,0,0,0,5.84,5.09,19.54,19.54,0,0,0,8.69,1.76,19.49,19.49,0,0,0,8.68-1.76,15.11,15.11,0,0,0,5.85-5.09,22.54,22.54,0,0,0,3.32-8.08,50.46,50.46,0,0,0,1-10.69V91.93a49.78,49.78,0,0,0-1-10.64A22.61,22.61,0,0,0,114.38,73.24Z"/><path class="cls-2" d="M159.65,81.29a22.81,22.81,0,0,0-3.33-8.05,15.13,15.13,0,0,0-5.84-5.08,22.31,22.31,0,0,0-17.37,0,15.06,15.06,0,0,0-5.84,5.08,22.81,22.81,0,0,0-3.33,8.05,49.78,49.78,0,0,0-1,10.64V94a50.46,50.46,0,0,0,1,10.69,22.73,22.73,0,0,0,3.33,8.08,15.08,15.08,0,0,0,5.84,5.09,22.31,22.31,0,0,0,17.37,0,15.15,15.15,0,0,0,5.84-5.09,22.73,22.73,0,0,0,3.33-8.08,50.46,50.46,0,0,0,1-10.69V91.93A49.78,49.78,0,0,0,159.65,81.29Z"/><path class="cls-2" d="M63.31,42.1c0-.1,0-.16.1-.18a.56.56,0,0,1,.26,0h.51c.22,0,.33.1.33.31v8.59a.39.39,0,0,1-.07.28.54.54,0,0,1-.31.07h-.88a.54.54,0,0,1-.31-.07.39.39,0,0,1-.08-.28V48.31a1.31,1.31,0,0,1-.56.34,2.67,2.67,0,0,1-.95.15A2.57,2.57,0,0,1,59.27,48a4,4,0,0,1-.65-2.54V45a3.76,3.76,0,0,1,.67-2.5,2.62,2.62,0,0,1,2.09-.77,2.91,2.91,0,0,1,1.08.18,1.9,1.9,0,0,1,.74.5h0Zm-1.69,1a2,2,0,0,0-.61.07,1,1,0,0,0-.38.24,1,1,0,0,0-.27.61,7.73,7.73,0,0,0-.06,1.1v.32a9.16,9.16,0,0,0,.05,1.07,1.18,1.18,0,0,0,.24.59.76.76,0,0,0,.4.27,1.91,1.91,0,0,0,.57.08,2.15,2.15,0,0,0,.63-.08.88.88,0,0,0,.4-.28,1.59,1.59,0,0,0,.27-1V44.45a2.73,2.73,0,0,0,0-.61,1,1,0,0,0-.21-.43A1.31,1.31,0,0,0,61.62,43.1Z"/><path class="cls-2" d="M71.66,46.53a2.77,2.77,0,0,1-.2,1.14,1.62,1.62,0,0,1-.59.68,2.44,2.44,0,0,1-.87.34,5.47,5.47,0,0,1-1.1.11,6.33,6.33,0,0,1-1.13-.1,2.27,2.27,0,0,1-.87-.35,1.62,1.62,0,0,1-.59-.68,2.77,2.77,0,0,1-.2-1.14V42.22a.39.39,0,0,1,.08-.28.53.53,0,0,1,.31-.06h.87a.53.53,0,0,1,.31.06.39.39,0,0,1,.08.28v4.15a1.56,1.56,0,0,0,.08.55.7.7,0,0,0,.22.31.92.92,0,0,0,.37.14,2.17,2.17,0,0,0,.47,0,2.45,2.45,0,0,0,.48,0,.74.74,0,0,0,.35-.14.62.62,0,0,0,.21-.31,1.6,1.6,0,0,0,.07-.55V42.22a.39.39,0,0,1,.07-.28.56.56,0,0,1,.31-.06h.88a.53.53,0,0,1,.31.06.39.39,0,0,1,.08.28Z"/><path class="cls-2" d="M78.47,45.66a.48.48,0,0,1-.08.31.38.38,0,0,1-.3.09H74.62A1.48,1.48,0,0,0,75,47.17a1,1,0,0,0,.43.2,3.31,3.31,0,0,0,.79.08,4.69,4.69,0,0,0,.78-.08,4.49,4.49,0,0,0,.72-.21.3.3,0,0,1,.22,0c.06,0,.12.1.17.25l.18.67a.29.29,0,0,1,0,.23.38.38,0,0,1-.24.15,5.5,5.5,0,0,1-1,.27,6,6,0,0,1-1,.1,4.65,4.65,0,0,1-1.41-.18,2.15,2.15,0,0,1-.92-.53A2.23,2.23,0,0,1,73.11,47,6.44,6.44,0,0,1,73,45.45v-.37a6.16,6.16,0,0,1,.14-1.44,2.57,2.57,0,0,1,.48-1,2,2,0,0,1,.88-.63,3.6,3.6,0,0,1,1.35-.22,3.55,3.55,0,0,1,1.17.16,2.38,2.38,0,0,1,.79.46,2.12,2.12,0,0,1,.3.36,2.15,2.15,0,0,1,.22.48,4.41,4.41,0,0,1,.14.64,7.3,7.3,0,0,1,0,.87Zm-2.72-2.59a1,1,0,0,0-.79.28,1,1,0,0,0-.28.55,3.65,3.65,0,0,0-.08.86h2c.12,0,.18-.06.18-.19a4.15,4.15,0,0,0-.06-.77,1,1,0,0,0-.21-.47.69.69,0,0,0-.3-.2A1.66,1.66,0,0,0,75.75,43.07Z"/><path class="cls-2" d="M85,41.88h1.37a.3.3,0,0,1,.24.07.5.5,0,0,1,.06.29v.68a.45.45,0,0,1-.06.26.3.3,0,0,1-.24.08H85v3a3.57,3.57,0,0,0,0,.54.44.44,0,0,0,.14.27.39.39,0,0,0,.23.15,2.19,2.19,0,0,0,.42,0h.68a.36.36,0,0,1,.28.08.6.6,0,0,1,0,.28v.68a.46.46,0,0,1,0,.27c0,.06-.12.08-.28.08h-1a3.68,3.68,0,0,1-1-.1,1.64,1.64,0,0,1-.64-.34,2.21,2.21,0,0,1-.53-1.67v-3.3h-.83a.4.4,0,0,1-.22,0,.29.29,0,0,1-.06-.21v-.61a.37.37,0,0,1,0-.22.39.39,0,0,1,.17-.07l.89-.16V40.49a.39.39,0,0,1,.08-.28.52.52,0,0,1,.31-.07h.87a.52.52,0,0,1,.31.07c.06,0,.08.14.08.28Z"/><path class="cls-2" d="M93.19,45.66a.49.49,0,0,1-.07.31.38.38,0,0,1-.3.09H89.35a1.48,1.48,0,0,0,.35,1.11.91.91,0,0,0,.43.2,3.25,3.25,0,0,0,.79.08,4.69,4.69,0,0,0,.78-.08,4.49,4.49,0,0,0,.72-.21.29.29,0,0,1,.22,0c.06,0,.12.1.16.25l.18.67a.3.3,0,0,1,0,.23.41.41,0,0,1-.24.15,5.5,5.5,0,0,1-1,.27,6,6,0,0,1-1,.1,4.62,4.62,0,0,1-1.4-.18,2.18,2.18,0,0,1-.93-.53A2.42,2.42,0,0,1,87.83,47a7,7,0,0,1-.16-1.59v-.37a6.12,6.12,0,0,1,.15-1.44,2.57,2.57,0,0,1,.48-1,2,2,0,0,1,.88-.63,4.3,4.3,0,0,1,2.52-.06,2.49,2.49,0,0,1,.79.46,1.7,1.7,0,0,1,.29.36,1.79,1.79,0,0,1,.23.48,3.43,3.43,0,0,1,.13.64,5.67,5.67,0,0,1,0,.87Zm-2.72-2.59a1,1,0,0,0-.79.28,1,1,0,0,0-.27.55,3.6,3.6,0,0,0-.09.86h2c.12,0,.18-.06.18-.19a5.41,5.41,0,0,0-.05-.77,1,1,0,0,0-.21-.47.72.72,0,0,0-.31-.2A1.61,1.61,0,0,0,90.47,43.07Z"/><path class="cls-2" d="M99.75,48.32a.39.39,0,0,1-.07.28.49.49,0,0,1-.32.07h-.87a.45.45,0,0,1-.31-.07.39.39,0,0,1-.08-.28V43.26h-.71a.47.47,0,0,1-.27-.06.3.3,0,0,1-.07-.24v-.59a.32.32,0,0,1,0-.21.53.53,0,0,1,.23-.08l.77-.14V41.4a4,4,0,0,1,0-.64,1.94,1.94,0,0,1,.1-.47,1.73,1.73,0,0,1,.18-.36,2.26,2.26,0,0,1,.26-.29,2.21,2.21,0,0,1,.72-.36,4.24,4.24,0,0,1,1.1-.12,4.7,4.7,0,0,1,.68,0,4.27,4.27,0,0,1,.56.11.31.31,0,0,1,.19.11.31.31,0,0,1,0,.22l-.12.77a.22.22,0,0,1-.32.19l-.33-.06a2.28,2.28,0,0,0-.45,0,1.33,1.33,0,0,0-.72.15.52.52,0,0,0-.19.3,1.94,1.94,0,0,0-.06.55v.38H101a.39.39,0,0,1,.26.06.35.35,0,0,1,.06.24V43a.26.26,0,0,1-.07.22.44.44,0,0,1-.28.06H99.75Z"/><path class="cls-2" d="M107.6,45.66a.43.43,0,0,1-.08.31.37.37,0,0,1-.29.09h-3.47a1.48,1.48,0,0,0,.35,1.11.91.91,0,0,0,.43.2,3.19,3.19,0,0,0,.79.08,4.48,4.48,0,0,0,.77-.08,4,4,0,0,0,.72-.21.32.32,0,0,1,.23,0c.06,0,.12.1.16.25l.18.67a.3.3,0,0,1,0,.23.45.45,0,0,1-.25.15,5.16,5.16,0,0,1-1,.27,6.22,6.22,0,0,1-1.05.1,4.74,4.74,0,0,1-1.41-.18,2.15,2.15,0,0,1-.92-.53,2.32,2.32,0,0,1-.56-1.05,7,7,0,0,1-.16-1.59v-.37a6.12,6.12,0,0,1,.15-1.44,2.33,2.33,0,0,1,.48-1,2,2,0,0,1,.88-.63,3.53,3.53,0,0,1,1.35-.22,3.45,3.45,0,0,1,1.16.16,2.29,2.29,0,0,1,.79.46,1.74,1.74,0,0,1,.3.36,1.78,1.78,0,0,1,.22.48,3.39,3.39,0,0,1,.14.64,5.67,5.67,0,0,1,0,.87Zm-2.72-2.59a1,1,0,0,0-.79.28,1,1,0,0,0-.27.55,3.6,3.6,0,0,0-.09.86h2c.12,0,.18-.06.18-.19a5.41,5.41,0,0,0,0-.77,1,1,0,0,0-.21-.47.79.79,0,0,0-.31-.2A1.61,1.61,0,0,0,104.88,43.07Z"/><path class="cls-2" d="M110.61,46.83a.54.54,0,0,0,.09.35.39.39,0,0,0,.31.1h.42a.35.35,0,0,1,.25.07.38.38,0,0,1,.07.27v.72a.4.4,0,0,1-.07.26.34.34,0,0,1-.25.07h-.93a2.1,2.1,0,0,1-.69-.08,1.11,1.11,0,0,1-.45-.25,1.17,1.17,0,0,1-.3-.52A2.75,2.75,0,0,1,109,47V39.63a.39.39,0,0,1,.08-.28.52.52,0,0,1,.31-.07h.87a.52.52,0,0,1,.31.07.39.39,0,0,1,.08.28Z"/><path class="cls-2" d="M114.8,40.2a.94.94,0,0,1-.27.72,1,1,0,0,1-.7.25h-.07a1,1,0,0,1-.75-.25,1.05,1.05,0,0,1-.22-.72v-.09a.86.86,0,0,1,.28-.72,1,1,0,0,1,.69-.23h.07a1,1,0,0,1,.7.23.89.89,0,0,1,.27.72Zm-.18,8.12a.39.39,0,0,1-.08.28.45.45,0,0,1-.31.07h-.87a.5.5,0,0,1-.32-.07.39.39,0,0,1-.07-.28v-6.1a.39.39,0,0,1,.07-.28.6.6,0,0,1,.32-.06h.87a.53.53,0,0,1,.31.06.39.39,0,0,1,.08.28Z"/><path class="cls-2" d="M121.12,48a.33.33,0,0,1,0,.28.67.67,0,0,1-.29.2,3.19,3.19,0,0,1-.9.28,6.74,6.74,0,0,1-1.11.09,3.78,3.78,0,0,1-1.14-.17,2.2,2.2,0,0,1-.86-.46,2.06,2.06,0,0,1-.64-1.14,8.52,8.52,0,0,1-.13-1.59V45a6,6,0,0,1,.18-1.58,2.19,2.19,0,0,1,.65-1,3.08,3.08,0,0,1,2.08-.64,4.12,4.12,0,0,1,1.16.17,4,4,0,0,1,1,.4.34.34,0,0,1,.19.22.37.37,0,0,1,0,.26l-.34.7a.26.26,0,0,1-.41.09,2.7,2.7,0,0,0-1.45-.45,1.33,1.33,0,0,0-.93.29.94.94,0,0,0-.33.67,9.55,9.55,0,0,0,0,1v.23a7.06,7.06,0,0,0,.07,1.08,1.25,1.25,0,0,0,.25.62,1.09,1.09,0,0,0,.4.29,1.72,1.72,0,0,0,.67.1,3.59,3.59,0,0,0,1.4-.29.38.38,0,0,1,.27,0,.26.26,0,0,1,.16.19Z"/><path class="cls-2" d="M124.37,40.2a.94.94,0,0,1-.27.72,1,1,0,0,1-.7.25h-.07a.94.94,0,0,1-.75-.25,1.05,1.05,0,0,1-.22-.72v-.09a.86.86,0,0,1,.28-.72,1,1,0,0,1,.69-.23h.07a1,1,0,0,1,.7.23.89.89,0,0,1,.27.72Zm-.18,8.12a.39.39,0,0,1-.08.28.45.45,0,0,1-.31.07h-.88a.47.47,0,0,1-.31-.07.39.39,0,0,1-.07-.28v-6.1a.39.39,0,0,1,.07-.28.56.56,0,0,1,.31-.06h.88a.53.53,0,0,1,.31.06.39.39,0,0,1,.08.28Z"/><path class="cls-2" d="M127.94,41.88h1.38c.12,0,.2,0,.23.07a.5.5,0,0,1,.06.29v.68a.45.45,0,0,1-.06.26s-.11.08-.23.08h-1.38v3a3.57,3.57,0,0,0,0,.54.5.5,0,0,0,.14.27.41.41,0,0,0,.24.15,2.07,2.07,0,0,0,.41,0h.68a.36.36,0,0,1,.28.08.5.5,0,0,1,.05.28v.68a.58.58,0,0,1,0,.27c0,.06-.13.08-.29.08h-1a3.78,3.78,0,0,1-1-.1,1.71,1.71,0,0,1-.64-.34,2.21,2.21,0,0,1-.53-1.67v-3.3h-.83a.36.36,0,0,1-.21,0,.29.29,0,0,1-.07-.21v-.61a.37.37,0,0,1,0-.22.45.45,0,0,1,.18-.07l.88-.16V40.49a.39.39,0,0,1,.08-.28.52.52,0,0,1,.31-.07h.88a.54.54,0,0,1,.31.07.39.39,0,0,1,.07.28Z"/><path class="cls-2" d="M136.13,45.66a.48.48,0,0,1-.08.31.38.38,0,0,1-.3.09h-3.47a1.48,1.48,0,0,0,.35,1.11,1,1,0,0,0,.43.2,3.31,3.31,0,0,0,.79.08,4.69,4.69,0,0,0,.78-.08,4.49,4.49,0,0,0,.72-.21.3.3,0,0,1,.22,0c.07,0,.12.1.17.25l.18.67a.29.29,0,0,1,0,.23.38.38,0,0,1-.24.15,5.5,5.5,0,0,1-1,.27,6,6,0,0,1-1,.1,4.65,4.65,0,0,1-1.41-.18,2.15,2.15,0,0,1-.92-.53,2.23,2.23,0,0,1-.56-1.05,6.44,6.44,0,0,1-.16-1.59v-.37a6.16,6.16,0,0,1,.14-1.44,2.57,2.57,0,0,1,.48-1,2,2,0,0,1,.88-.63,3.6,3.6,0,0,1,1.35-.22,3.55,3.55,0,0,1,1.17.16,2.38,2.38,0,0,1,.79.46,2.12,2.12,0,0,1,.3.36,2.15,2.15,0,0,1,.22.48,4.41,4.41,0,0,1,.14.64,7.3,7.3,0,0,1,0,.87Zm-2.72-2.59a1,1,0,0,0-.79.28,1,1,0,0,0-.28.55,3.65,3.65,0,0,0-.08.86h2c.12,0,.18-.06.18-.19a4.15,4.15,0,0,0-.06-.77,1,1,0,0,0-.21-.47.69.69,0,0,0-.3-.2A1.66,1.66,0,0,0,133.41,43.07Z"/><path class="cls-2" d="M143.18,48.32a.39.39,0,0,1-.07.28.47.47,0,0,1-.31.07h-.88a.45.45,0,0,1-.31-.07.39.39,0,0,1-.08-.28V44.45a3,3,0,0,0-.06-.66.86.86,0,0,0-.23-.42,1,1,0,0,0-.36-.22,2.11,2.11,0,0,0-.55-.07,1.31,1.31,0,0,0-.89.25.91.91,0,0,0-.22.33,1.94,1.94,0,0,0-.07.63v4a.39.39,0,0,1-.08.28.45.45,0,0,1-.31.07h-.87a.5.5,0,0,1-.32-.07.39.39,0,0,1-.07-.28V42.19c0-.21.11-.31.33-.31h.51a.56.56,0,0,1,.26,0,.28.28,0,0,1,.1.21l.07.33h0a2.28,2.28,0,0,1,.72-.51,2.91,2.91,0,0,1,1.16-.2A3.13,3.13,0,0,1,142,42a1.83,1.83,0,0,1,.85.71,1.92,1.92,0,0,1,.3.85,6.58,6.58,0,0,1,.07,1Z"/><path class="cls-2" d="M66.41,55.76h0a2.16,2.16,0,0,1,.78-.51,3.22,3.22,0,0,1,1.15-.19,3.49,3.49,0,0,1,1.18.18,2,2,0,0,1,.86.57,2.49,2.49,0,0,1,.29.43,2.77,2.77,0,0,1,.2.53,3.78,3.78,0,0,1,.11.66c0,.24,0,.52,0,.84v.52a6.13,6.13,0,0,1-.17,1.52,2.5,2.5,0,0,1-.54,1,2,2,0,0,1-.85.56,3.68,3.68,0,0,1-1.3.19,2.59,2.59,0,0,1-.78-.1,2.06,2.06,0,0,1-.62-.28v2.36a.39.39,0,0,1-.08.28.52.52,0,0,1-.31.07h-.87a.52.52,0,0,1-.31-.07c-.06-.05-.08-.14-.08-.28V55.51c0-.22.11-.32.33-.32H66a.56.56,0,0,1,.26,0,.27.27,0,0,1,.11.18Zm.38,3.8a1.91,1.91,0,0,0,.08.61,1,1,0,0,0,.21.32,1.08,1.08,0,0,0,.37.2,1.94,1.94,0,0,0,.59.07,1.72,1.72,0,0,0,.6-.09,1.08,1.08,0,0,0,.4-.3,1.2,1.2,0,0,0,.27-.63,6,6,0,0,0,.06-1v-.4a5.38,5.38,0,0,0-.07-1,1.37,1.37,0,0,0-.26-.6,1.26,1.26,0,0,0-1-.36,2.09,2.09,0,0,0-.61.07,1.1,1.1,0,0,0-.38.23.79.79,0,0,0-.2.41,2.77,2.77,0,0,0-.06.62Z"/><path class="cls-2" d="M75.07,55.06a3.58,3.58,0,0,1,1.32.21,2.15,2.15,0,0,1,.88.61A2.64,2.64,0,0,1,77.82,57,5.6,5.6,0,0,1,78,58.38v.41a5.58,5.58,0,0,1-.16,1.43,2.6,2.6,0,0,1-.55,1.07,2.22,2.22,0,0,1-.88.6,3.47,3.47,0,0,1-1.32.22,3.44,3.44,0,0,1-1.32-.22,2.26,2.26,0,0,1-.89-.6,2.6,2.6,0,0,1-.55-1.07,6.1,6.1,0,0,1-.15-1.43v-.41A6.13,6.13,0,0,1,72.31,57a2.64,2.64,0,0,1,.55-1.08,2.21,2.21,0,0,1,.88-.61A3.67,3.67,0,0,1,75.07,55.06Zm0,5.73a1.24,1.24,0,0,0,.57-.1,1,1,0,0,0,.36-.27,1.43,1.43,0,0,0,.24-.65,7.43,7.43,0,0,0,.06-1.05v-.29a7.37,7.37,0,0,0-.06-1,1.34,1.34,0,0,0-.24-.63,1,1,0,0,0-.36-.29,1.41,1.41,0,0,0-.57-.09,1.5,1.5,0,0,0-.58.09,1,1,0,0,0-.35.29,1.34,1.34,0,0,0-.24.63,6,6,0,0,0-.07,1v.29a6,6,0,0,0,.07,1.05,1.43,1.43,0,0,0,.24.65,1,1,0,0,0,.35.27A1.31,1.31,0,0,0,75.07,60.79Z"/><path class="cls-2" d="M80.64,56.09h0a2.16,2.16,0,0,1,.73-.69,2.44,2.44,0,0,1,1.11-.21h.2a.52.52,0,0,1,.3.06q.09.06.09.27v.74a.34.34,0,0,1-.08.25.52.52,0,0,1-.31.07h-.25a2.25,2.25,0,0,0-.72.09,1,1,0,0,0-.4.25,1.11,1.11,0,0,0-.23.4,2.42,2.42,0,0,0-.09.78v3.54a.35.35,0,0,1-.08.27.45.45,0,0,1-.31.07h-.87a.49.49,0,0,1-.32-.07s-.07-.13-.07-.27V55.51c0-.22.11-.32.33-.32h.48a.44.44,0,0,1,.26.05.29.29,0,0,1,.11.2Z"/><path class="cls-2" d="M90.74,61.62a.57.57,0,0,1-.22.29.74.74,0,0,1-.36.07h-1a.76.76,0,0,1-.37-.07.56.56,0,0,1-.21-.29c-.17-.41-.34-.87-.52-1.37s-.36-1-.54-1.55-.34-1.07-.5-1.61-.31-1.07-.44-1.58c0-.22.06-.32.32-.32h.92a.33.33,0,0,1,.38.29q.33,1.22.69,2.46c.24.83.49,1.6.73,2.31h.07c.25-.71.49-1.48.73-2.31s.46-1.65.67-2.46a.45.45,0,0,1,.12-.22.41.41,0,0,1,.27-.07h.91c.26,0,.37.1.32.32-.13.51-.27,1-.44,1.58s-.33,1.08-.5,1.61-.35,1-.53,1.55S90.9,61.21,90.74,61.62Z"/><path class="cls-2" d="M95.58,53.51a.93.93,0,0,1-.27.72,1,1,0,0,1-.7.25h-.07a1,1,0,0,1-.75-.25,1,1,0,0,1-.22-.72v-.08a.87.87,0,0,1,.28-.73,1.08,1.08,0,0,1,.69-.23h.07a1.07,1.07,0,0,1,.7.23.89.89,0,0,1,.27.73Zm-.18,8.13a.35.35,0,0,1-.08.27A.45.45,0,0,1,95,62h-.87a.49.49,0,0,1-.32-.07s-.07-.13-.07-.27v-6.1c0-.14,0-.24.07-.28a.49.49,0,0,1,.32-.07H95a.45.45,0,0,1,.31.07.37.37,0,0,1,.08.28Z"/><path class="cls-2" d="M102.71,59.53a3.72,3.72,0,0,1-.15,1.18,1.79,1.79,0,0,1-.48.75,2.52,2.52,0,0,1-.91.48,4.9,4.9,0,0,1-1.38.17A4.77,4.77,0,0,1,98.48,62a2.16,2.16,0,0,1-.84-.43,2.18,2.18,0,0,1-.62-1,5.71,5.71,0,0,1-.19-1.62v-.57A5.11,5.11,0,0,1,97,56.77a2.46,2.46,0,0,1,.6-1,2.84,2.84,0,0,1,2.09-.71,2.88,2.88,0,0,1,.74.1,2.41,2.41,0,0,1,.58.25h0V52.94a.39.39,0,0,1,.08-.28.56.56,0,0,1,.31-.06h.88a.56.56,0,0,1,.31.06.39.39,0,0,1,.08.28Zm-1.66-1.9A2,2,0,0,0,101,57a.79.79,0,0,0-.2-.31,1,1,0,0,0-.37-.22,1.71,1.71,0,0,0-.56-.08,1.5,1.5,0,0,0-.6.11.94.94,0,0,0-.4.3,1.22,1.22,0,0,0-.28.62,4.87,4.87,0,0,0-.07.94v.43a6.42,6.42,0,0,0,.07,1,1.38,1.38,0,0,0,.27.6.76.76,0,0,0,.37.27,1.57,1.57,0,0,0,.58.09,2.05,2.05,0,0,0,.63-.08,1,1,0,0,0,.37-.23.84.84,0,0,0,.21-.41,2.73,2.73,0,0,0,0-.61Z"/><path class="cls-2" d="M109.58,59a.52.52,0,0,1-.07.32.38.38,0,0,1-.3.09h-3.47a1.51,1.51,0,0,0,.35,1.11,1,1,0,0,0,.43.2,3.33,3.33,0,0,0,.79.07,3.82,3.82,0,0,0,.78-.08,3.65,3.65,0,0,0,.72-.21.44.44,0,0,1,.22,0c.06,0,.12.11.17.25l.18.67a.38.38,0,0,1,0,.24.49.49,0,0,1-.24.15,5.5,5.5,0,0,1-1,.26,5.16,5.16,0,0,1-1,.1,5,5,0,0,1-1.41-.17,2.2,2.2,0,0,1-.92-.54,2.33,2.33,0,0,1-.57-1,6.93,6.93,0,0,1-.16-1.58v-.38a6.25,6.25,0,0,1,.15-1.44,2.63,2.63,0,0,1,.48-1,2,2,0,0,1,.88-.63,3.78,3.78,0,0,1,1.35-.22,3.84,3.84,0,0,1,1.17.16,2.34,2.34,0,0,1,.79.47,1.64,1.64,0,0,1,.29.35,2.14,2.14,0,0,1,.23.48,4.41,4.41,0,0,1,.14.64,7.49,7.49,0,0,1,0,.87Zm-2.71-2.59a1,1,0,0,0-.79.28,1.06,1.06,0,0,0-.28.55,3.6,3.6,0,0,0-.09.86h2c.12,0,.18-.06.18-.19a5.15,5.15,0,0,0-.05-.76,1,1,0,0,0-.21-.48.72.72,0,0,0-.31-.2A1.59,1.59,0,0,0,106.87,56.38Z"/><path class="cls-2" d="M113.59,55.06a3.67,3.67,0,0,1,1.33.21,2.29,2.29,0,0,1,.88.61,2.62,2.62,0,0,1,.54,1.08,5.6,5.6,0,0,1,.16,1.42v.41a5.58,5.58,0,0,1-.16,1.43,2.58,2.58,0,0,1-.54,1.07,2.34,2.34,0,0,1-.89.6,4.07,4.07,0,0,1-2.64,0,2.22,2.22,0,0,1-.88-.6,2.48,2.48,0,0,1-.55-1.07,5.58,5.58,0,0,1-.16-1.43v-.41a5.6,5.6,0,0,1,.16-1.42,2.52,2.52,0,0,1,.55-1.08,2.15,2.15,0,0,1,.88-.61A3.58,3.58,0,0,1,113.59,55.06Zm0,5.73a1.31,1.31,0,0,0,.58-.1,1,1,0,0,0,.35-.27,1.43,1.43,0,0,0,.24-.65,7.22,7.22,0,0,0,.07-1.05v-.29a7.17,7.17,0,0,0-.07-1,1.34,1.34,0,0,0-.24-.63,1,1,0,0,0-.35-.29,1.5,1.5,0,0,0-.58-.09,1.41,1.41,0,0,0-.57.09.91.91,0,0,0-.36.29,1.34,1.34,0,0,0-.24.63,7.37,7.37,0,0,0-.06,1v.29a7.43,7.43,0,0,0,.06,1.05,1.43,1.43,0,0,0,.24.65,1,1,0,0,0,.36.27A1.24,1.24,0,0,0,113.59,60.79Z"/><path class="cls-2" d="M122.65,60.14a.53.53,0,0,0,.09.35.39.39,0,0,0,.31.11h.42a.33.33,0,0,1,.25.07.39.39,0,0,1,.06.26v.72c0,.13,0,.22-.07.26a.31.31,0,0,1-.24.07h-.93a2.6,2.6,0,0,1-.7-.07,1.17,1.17,0,0,1-.44-.26,1.29,1.29,0,0,1-.31-.52,3.16,3.16,0,0,1-.09-.84V52.94a.39.39,0,0,1,.07-.28.56.56,0,0,1,.31-.06h.88a.53.53,0,0,1,.31.06.39.39,0,0,1,.08.28Z"/><path class="cls-2" d="M126.6,60.14a.53.53,0,0,0,.09.35.39.39,0,0,0,.31.11h.42c.13,0,.21,0,.25.07s.07.13.07.26v.72a.38.38,0,0,1-.07.26.34.34,0,0,1-.25.07h-.93a2.6,2.6,0,0,1-.7-.07,1.09,1.09,0,0,1-.74-.78,2.75,2.75,0,0,1-.1-.84V52.94a.39.39,0,0,1,.07-.28.6.6,0,0,1,.32-.06h.87a.53.53,0,0,1,.31.06.39.39,0,0,1,.08.28Z"/><path class="cls-2" d="M132.74,61.4a1.28,1.28,0,0,1-.55.53,2.15,2.15,0,0,1-1,.18h-.52a3.12,3.12,0,0,1-.89-.11,1.49,1.49,0,0,1-.63-.34,1.42,1.42,0,0,1-.45-.65,2.57,2.57,0,0,1-.15-.9v-.32a1.73,1.73,0,0,1,1.4-2,5.26,5.26,0,0,1,1.21-.12h.89l.38,0v-.38a.86.86,0,0,0-.23-.7.89.89,0,0,0-.37-.16,4.18,4.18,0,0,0-.59,0,6.48,6.48,0,0,0-.83.07,5.82,5.82,0,0,0-.87.2.29.29,0,0,1-.25,0,.35.35,0,0,1-.1-.22l-.12-.65a.42.42,0,0,1,0-.27c0-.06.09-.11.21-.14a6.65,6.65,0,0,1,1-.23,6.27,6.27,0,0,1,1.13-.11,5.34,5.34,0,0,1,1.19.11,2.39,2.39,0,0,1,.8.34,1.49,1.49,0,0,1,.55.67,3,3,0,0,1,.17,1.16v4.38c0,.18-.09.26-.29.26h-.63a.3.3,0,0,1-.34-.25l-.08-.33ZM132.46,59l-.38,0h-.9a2.81,2.81,0,0,0-.43,0,.83.83,0,0,0-.3.13.86.86,0,0,0-.2.68V60a.77.77,0,0,0,.2.62.71.71,0,0,0,.23.12,1.35,1.35,0,0,0,.38,0h.5a.92.92,0,0,0,.7-.22,1.06,1.06,0,0,0,.2-.71Z"/><path class="cls-2" d="M145.29,61.64c0,.14,0,.23-.07.27a.5.5,0,0,1-.32.07H144a.45.45,0,0,1-.31-.07.35.35,0,0,1-.08-.27V57.77a3.65,3.65,0,0,0,0-.65.93.93,0,0,0-.21-.42.86.86,0,0,0-.35-.23,1.64,1.64,0,0,0-.55-.08,1.5,1.5,0,0,0-1.17.53,7.93,7.93,0,0,1,0,.93v3.79c0,.14,0,.23-.07.27A.47.47,0,0,1,141,62h-.88a.45.45,0,0,1-.31-.07.35.35,0,0,1-.08-.27V57.77a3,3,0,0,0-.06-.67.88.88,0,0,0-.23-.41.93.93,0,0,0-.34-.23,1.84,1.84,0,0,0-.53-.07,1.31,1.31,0,0,0-.89.25.93.93,0,0,0-.21.33,1.92,1.92,0,0,0-.08.63v4a.35.35,0,0,1-.08.27A.45.45,0,0,1,137,62h-.87a.45.45,0,0,1-.31-.07c-.06,0-.08-.13-.08-.27V55.51c0-.22.11-.32.33-.32h.51a.42.42,0,0,1,.26.05.29.29,0,0,1,.11.2l.06.33H137a2.41,2.41,0,0,1,.79-.52,2.79,2.79,0,0,1,1-.19,2.91,2.91,0,0,1,1.15.21,2,2,0,0,1,.77.57,3.17,3.17,0,0,1,2.08-.78,2.42,2.42,0,0,1,1.78.59,2.78,2.78,0,0,1,.65,2.05Z"/><path class="cls-2" d="M150.71,61.4a1.26,1.26,0,0,1-.54.53,2.23,2.23,0,0,1-1,.18h-.51a3.25,3.25,0,0,1-.9-.11,1.62,1.62,0,0,1-.63-.34,1.59,1.59,0,0,1-.45-.65,2.57,2.57,0,0,1-.15-.9v-.32a2,2,0,0,1,.59-1.61,1.92,1.92,0,0,1,.81-.39,5.32,5.32,0,0,1,1.21-.12h.9l.38,0v-.38a.86.86,0,0,0-.24-.7.83.83,0,0,0-.37-.16,4.18,4.18,0,0,0-.59,0,6.63,6.63,0,0,0-.83.07,6.12,6.12,0,0,0-.87.2.27.27,0,0,1-.24,0,.35.35,0,0,1-.11-.22l-.12-.65a.5.5,0,0,1,0-.27c0-.06.09-.11.22-.14a6.48,6.48,0,0,1,1-.23,6.27,6.27,0,0,1,1.13-.11,5.28,5.28,0,0,1,1.19.11,2.44,2.44,0,0,1,.81.34,1.47,1.47,0,0,1,.54.67,3,3,0,0,1,.18,1.16v4.38c0,.18-.1.26-.29.26h-.64a.29.29,0,0,1-.33-.25l-.09-.33ZM150.44,59l-.39,0h-.9a2.81,2.81,0,0,0-.43,0,.71.71,0,0,0-.29.13.86.86,0,0,0-.21.68V60a.77.77,0,0,0,.21.62.55.55,0,0,0,.23.12,1.25,1.25,0,0,0,.38,0h.5a.91.91,0,0,0,.69-.22,1,1,0,0,0,.21-.71Z"/><path class="cls-2" d="M159.28,59.53a3.76,3.76,0,0,1-.14,1.18,1.79,1.79,0,0,1-.48.75,2.52,2.52,0,0,1-.91.48,4.9,4.9,0,0,1-1.38.17,4.77,4.77,0,0,1-1.31-.15,2.09,2.09,0,0,1-.84-.43,2.18,2.18,0,0,1-.62-1,5.67,5.67,0,0,1-.2-1.62v-.57a5.07,5.07,0,0,1,.2-1.55,2.56,2.56,0,0,1,.59-1,3.27,3.27,0,0,1,2.84-.61,2.41,2.41,0,0,1,.58.25h0V52.94a.39.39,0,0,1,.08-.28.56.56,0,0,1,.31-.06h.88a.56.56,0,0,1,.31.06.39.39,0,0,1,.07.28Zm-1.65-1.9a2,2,0,0,0-.07-.63.79.79,0,0,0-.2-.31,1,1,0,0,0-.37-.22,1.71,1.71,0,0,0-.56-.08,1.58,1.58,0,0,0-.61.11,1,1,0,0,0-.39.3,1.32,1.32,0,0,0-.29.62,6,6,0,0,0-.06.94v.43a6.42,6.42,0,0,0,.07,1,1.38,1.38,0,0,0,.27.6.76.76,0,0,0,.37.27,1.57,1.57,0,0,0,.58.09,2.05,2.05,0,0,0,.63-.08,1,1,0,0,0,.37-.23.84.84,0,0,0,.21-.41,2.73,2.73,0,0,0,0-.61Z"/><path class="cls-2" d="M164.77,61.4a1.26,1.26,0,0,1-.54.53,2.2,2.2,0,0,1-1,.18h-.51a3.25,3.25,0,0,1-.9-.11,1.62,1.62,0,0,1-.63-.34,1.59,1.59,0,0,1-.45-.65,2.57,2.57,0,0,1-.15-.9v-.32a2,2,0,0,1,.59-1.61,1.92,1.92,0,0,1,.81-.39,5.32,5.32,0,0,1,1.21-.12h.9l.38,0v-.38a.86.86,0,0,0-.24-.7.83.83,0,0,0-.37-.16,4.18,4.18,0,0,0-.59,0,6.63,6.63,0,0,0-.83.07,6.12,6.12,0,0,0-.87.2.27.27,0,0,1-.24,0,.35.35,0,0,1-.11-.22l-.12-.65a.5.5,0,0,1,0-.27c0-.06.1-.11.22-.14a6.81,6.81,0,0,1,1-.23,6.27,6.27,0,0,1,1.13-.11,5.28,5.28,0,0,1,1.19.11,2.44,2.44,0,0,1,.81.34,1.47,1.47,0,0,1,.54.67,3,3,0,0,1,.18,1.16v4.38c0,.18-.1.26-.29.26h-.64a.29.29,0,0,1-.33-.25l-.09-.33ZM164.5,59l-.39,0h-.9a2.58,2.58,0,0,0-.42,0,.7.7,0,0,0-.3.13.86.86,0,0,0-.21.68V60a.77.77,0,0,0,.21.62.55.55,0,0,0,.23.12,1.25,1.25,0,0,0,.38,0h.5a.91.91,0,0,0,.69-.22,1,1,0,0,0,.21-.71Z"/><path class="cls-3" d="M34.86,51.41c4.3,1.57,8,1.8,10.42.66l.11,0-.34-.74.34.74h0c.78-.36,2.52-4,2.71-4.52a1.2,1.2,0,0,0,.06-1c-.48-1-6-1.32-6.29-1.17s-.68.77-1.06,1.8a2,2,0,0,0-.17.56,5.43,5.43,0,0,1-4.13-.21,10.4,10.4,0,0,1-4.29-2.86c.08-.25.29-.69.4-.94.37-.79.56-1.18.44-1.59-.22-.83-4.06-3.17-4.55-3.39a1.16,1.16,0,0,0-1.07-.11c-.9.42-2.1,5.6-1.82,6.2C25.68,44.82,27.65,48.72,34.86,51.41ZM28.22,40.34a31.73,31.73,0,0,1,3.2,2.19L31.2,43c-.5,1.07-.76,1.66-.52,2.18A10.94,10.94,0,0,0,36,49c3.1,1.15,5.36.41,5.89-.23a5.1,5.1,0,0,0,.48-1.1l.32-.83a37.6,37.6,0,0,1,3.8.49,25.8,25.8,0,0,1-1.92,3.3h0c-2,.93-5.34.69-9.17-.72-5.83-2.13-7.78-5-8.21-5.65a31,31,0,0,1,1-3.9Z"/><path class="cls-3" d="M37.61,18.89l-21.56,10a3.5,3.5,0,0,0-1.7,4.65L31.19,69.79a3.49,3.49,0,0,0,4.64,1.7l21.56-10a3.49,3.49,0,0,0,1.7-4.65L42.26,20.59A3.49,3.49,0,0,0,37.61,18.89ZM16.74,30.37l21.56-10a1.87,1.87,0,0,1,2.49.91h0l.57,1.23-25,11.6-.58-1.24a1.88,1.88,0,0,1,.92-2.49ZM42.05,24,56.37,54.81l-25,11.6L17.08,35.57ZM56.71,60,35.15,70a1.87,1.87,0,0,1-2.49-.91l-.58-1.23,25-11.6.57,1.24A1.87,1.87,0,0,1,56.71,60Z"/><path class="cls-2" d="M55.74,19.91c.54.79.7,2.55.76,4.69.93-3,2.63-5.42,5.61-4.82A3.22,3.22,0,0,1,64,20.9c3.12,3.73,1,15.05-2.34,17.83a7,7,0,0,1-4.16,1.71c-2.47.12-4.63-1.36-4.74-3.67a.37.37,0,0,1,.35-.38.36.36,0,0,1,.37.35c.09,1.8,1.79,3.08,4,3a6.22,6.22,0,0,0,3.72-1.55c3-2.51,5-13.52,2.25-16.8A2.39,2.39,0,0,0,62,20.49c-2.76-.56-4.31,2.08-5.17,5.79l-.15.69c0,.25-.1.52-.14.78-.1,4.72-.56,9.79-.56,9.8a.36.36,0,0,1-.42.32.39.39,0,0,1-.3-.34,53.21,53.21,0,0,1,.56-9.85c0-.53,0-1.06,0-1.56,0-2.8-.23-5.19-.65-5.8a.36.36,0,0,1,.1-.5A.36.36,0,0,1,55.74,19.91Z"/><path class="cls-2" d="M67.58,33a1.79,1.79,0,0,0,1.92,1.91,5.92,5.92,0,0,0,3.27-1.25,11.5,11.5,0,0,0,2.31-2.17.37.37,0,0,1,.51-.06.36.36,0,0,1,.06.5,11.36,11.36,0,0,1-2.46,2.31,6.5,6.5,0,0,1-3.69,1.39A2.52,2.52,0,0,1,66.86,33a4.91,4.91,0,0,1,0-.55,3.29,3.29,0,0,1,3-3.17c1.07,0,1.85.6,1.84,1.45a1.89,1.89,0,0,1-1,1.5,5.78,5.78,0,0,1-3.2.69A.25.25,0,0,1,67.58,33Zm2.82-1.39a1.18,1.18,0,0,0,.65-.9c0-.31-.28-.71-1.12-.71a2.52,2.52,0,0,0-2.26,2.19A5,5,0,0,0,70.4,31.61Z"/><path class="cls-2" d="M76.24,33.36a29.07,29.07,0,0,1,4.07-2,.36.36,0,0,1,.32.65,30.16,30.16,0,0,0-4.13,2A4.73,4.73,0,0,1,77,36.59c-.45,3.18-3.88,2.85-3.42,0a4.11,4.11,0,0,1,2.06-2.85,17.27,17.27,0,0,1-.72-2.13,3.36,3.36,0,0,1-.09-.6c-.1-1.39.61-2.24,1.38-2.28a.88.88,0,0,1,.94.88c0,.56-.6,1.32-1.41,2.27C75.86,32.34,76.05,32.86,76.24,33.36Zm-2,3.36c-.32,2,1.68,2,2-.23a3.8,3.8,0,0,0-.38-2A3.33,3.33,0,0,0,74.27,36.72Zm2.13-7.08c0-.16-.05-.18-.17-.17s-.78.34-.7,1.51a.41.41,0,0,0,0,.11A8.51,8.51,0,0,0,76.4,29.64Z"/><path class="cls-2" d="M80.72,33a1.79,1.79,0,0,0,1.92,1.91,5.92,5.92,0,0,0,3.27-1.25,11.5,11.5,0,0,0,2.31-2.17.36.36,0,0,1,.5-.06.35.35,0,0,1,.07.5,11.36,11.36,0,0,1-2.46,2.31,6.53,6.53,0,0,1-3.69,1.39A2.52,2.52,0,0,1,80,33a4.93,4.93,0,0,1,0-.55,3.31,3.31,0,0,1,3-3.17c1.06,0,1.84.6,1.84,1.45a1.89,1.89,0,0,1-1,1.5,5.8,5.8,0,0,1-3.21.69Zm2.82-1.39a1.16,1.16,0,0,0,.64-.9c0-.31-.27-.71-1.11-.71a2.53,2.53,0,0,0-2.27,2.19A5.09,5.09,0,0,0,83.54,31.61Z"/><path class="cls-2" d="M92.93,29.66c0,.15-.1,1.38-.12,1.58s0,.49-.07.79a6.55,6.55,0,0,0,.31,3c.31.26,1.13-.27,2.11-1.49.6-.75,1.14-1.57,1.43-2a.36.36,0,0,1,.5-.09.36.36,0,0,1,.09.5c-.27.4-.82,1.25-1.46,2-.81,1-2.1,2.45-3.13,1.59-.55-.45-.59-1.5-.6-2.43-.13.25-.28.49-.43.72-.65,1-1.59,2.1-2.69,1.78a2,2,0,0,1-1.12-2,4.75,4.75,0,0,1,.62-2.36,3.58,3.58,0,0,1,3-2,2.1,2.1,0,0,1,1,.29C92.54,29.27,92.93,29.36,92.93,29.66Zm-.83.61a1.25,1.25,0,0,0-.79-.3A2.91,2.91,0,0,0,89,31.59a4.12,4.12,0,0,0-.52,2c0,.79.28,1.26.6,1.36.48.14,1.21-.43,1.89-1.48a12.5,12.5,0,0,0,.87-1.64,2.55,2.55,0,0,0,.15-.44c0-.07.08-.72.12-1.1Z"/><path class="cls-2" d="M97.45,29.68c0,.32-.09.93-.14,1.6.42-1.11,1.14-2.42,2.3-2a2.44,2.44,0,0,1,1.31,2.4.59.59,0,0,1,0-.08c.57-1.09,1.49-2.5,2.68-2,1,.4.75,1.81.68,2.8s-.09,2.07.3,2.38.84.13,1.48-.54a22.19,22.19,0,0,0,2.1-2.74.36.36,0,0,1,.5-.09.36.36,0,0,1,.09.5,20.7,20.7,0,0,1-2.17,2.83c-.64.67-1.59,1.3-2.45.6s-.66-2-.57-3c.09-1.24.05-2-.23-2.07-.45-.19-1.13.45-1.77,1.67a17.86,17.86,0,0,0-1,2.56.37.37,0,0,1-.42.25.38.38,0,0,1-.28-.46,9.45,9.45,0,0,0,.35-2.5c0-.92-.27-1.61-.85-1.83-.41-.15-.93.37-1.4,1.67a21,21,0,0,0-.88,3.68.35.35,0,0,1-.34.31.37.37,0,0,1-.38-.38s.22-4.41.39-5.66a.36.36,0,0,1,.71.09Z"/><path class="cls-2" d="M116,31.47a.37.37,0,0,1,.51,0,.35.35,0,0,1,0,.51,7.05,7.05,0,0,1-4.18,1.44c-.37,1.22-1.25,2.46-2.58,2.23-1.53-.27-1.92-2.08-1.63-3.69a5.52,5.52,0,0,1,.39-1.34.37.37,0,0,1,.3-.22A1.89,1.89,0,0,1,111,29.29a2.35,2.35,0,0,1,1.53,2.45,5.91,5.91,0,0,1-.07.93A6.36,6.36,0,0,0,116,31.47Zm-7.15.6c-.27,1.54.19,2.7,1,2.85.68.11,1.34-.51,1.71-1.57a4.74,4.74,0,0,1-1.57-.51,2.69,2.69,0,0,1-1.14-1.06A2.93,2.93,0,0,0,108.81,32.07Zm3-.31c0-1-.37-1.62-1-1.77a1.2,1.2,0,0,0-1.35.56.89.89,0,0,0-.11.48c0,.34.23.79,1,1.18a3.92,3.92,0,0,0,1.4.43A4.41,4.41,0,0,0,111.82,31.76Z"/><path class="cls-2" d="M117.12,33.36a29.77,29.77,0,0,1,4.06-2,.36.36,0,1,1,.33.65,29.58,29.58,0,0,0-4.13,2,4.73,4.73,0,0,1,.48,2.55c-.45,3.18-3.88,2.85-3.43,0a4.15,4.15,0,0,1,2.07-2.85,17.27,17.27,0,0,1-.72-2.13,4.69,4.69,0,0,1-.1-.6c-.09-1.39.61-2.24,1.39-2.28a.87.87,0,0,1,.93.88c0,.56-.59,1.32-1.4,2.27C116.73,32.34,116.93,32.86,117.12,33.36Zm-2,3.36c-.33,2,1.68,2,2-.23a3.7,3.7,0,0,0-.38-2A3.31,3.31,0,0,0,115.15,36.72Zm2.13-7.08c0-.16,0-.18-.17-.17s-.78.34-.71,1.51a.41.41,0,0,1,0,.11A8.89,8.89,0,0,0,117.28,29.64Z"/><path class="cls-4" d="M111.88,89.08a12.84,12.84,0,1,1-25.67,0"/><path class="cls-4" d="M155.65,89.08a12.84,12.84,0,0,1-25.68,0"/><path class="cls-2" d="M89.64,135.85a2.57,2.57,0,0,1-1.09,1.05,4.33,4.33,0,0,1-1.94.36h-1a6.38,6.38,0,0,1-1.78-.21,3.32,3.32,0,0,1-1.25-.68,3,3,0,0,1-.9-1.31,5.19,5.19,0,0,1-.29-1.78v-.63a4,4,0,0,1,1.16-3.21,3.76,3.76,0,0,1,1.63-.78,10.33,10.33,0,0,1,2.4-.24h1l.79,0c.27,0,.52,0,.76,0v-.75a1.77,1.77,0,0,0-.47-1.41,2,2,0,0,0-.73-.3,6.15,6.15,0,0,0-1.17-.08,10.22,10.22,0,0,0-1.66.14,13,13,0,0,0-1.74.38.49.49,0,0,1-.48,0,.76.76,0,0,1-.21-.43l-.25-1.3a1,1,0,0,1,0-.54c0-.12.19-.21.43-.29a16.59,16.59,0,0,1,1.91-.45,12.57,12.57,0,0,1,2.25-.21,10.71,10.71,0,0,1,2.38.21,5.07,5.07,0,0,1,1.6.67A3.08,3.08,0,0,1,92,125.45a6.16,6.16,0,0,1,.35,2.31v8.72c0,.35-.2.53-.58.53H90.53a.61.61,0,0,1-.67-.5l-.16-.66Zm-.55-4.75-.77,0-.83,0h-1a5.28,5.28,0,0,0-.84.07,1.2,1.2,0,0,0-.59.27,1.67,1.67,0,0,0-.42,1.35v.33a1.25,1.25,0,0,0,.87,1.48,2.68,2.68,0,0,0,.76.09h1a1.82,1.82,0,0,0,1.38-.44,2,2,0,0,0,.41-1.41Z"/><path class="cls-2" d="M114.63,136.32a.71.71,0,0,1-.16.55,1,1,0,0,1-.62.14h-1.74a1,1,0,0,1-.62-.14.75.75,0,0,1-.15-.55v-7.71a6.38,6.38,0,0,0-.11-1.29,1.76,1.76,0,0,0-.41-.83,1.82,1.82,0,0,0-.69-.46,3.38,3.38,0,0,0-1.11-.15,2.94,2.94,0,0,0-2.32,1.05,15.49,15.49,0,0,1,.09,1.85v7.54a.71.71,0,0,1-.16.55,1,1,0,0,1-.62.14h-1.74a1,1,0,0,1-.62-.14.75.75,0,0,1-.15-.55v-7.71a5.81,5.81,0,0,0-.12-1.32,1.8,1.8,0,0,0-1.15-1.27,3.29,3.29,0,0,0-1-.14,2.5,2.5,0,0,0-1.76.5A1.51,1.51,0,0,0,99,127a3.79,3.79,0,0,0-.15,1.25v8a.75.75,0,0,1-.16.55,1,1,0,0,1-.62.14H96.32a1,1,0,0,1-.62-.14.75.75,0,0,1-.15-.55V124.11q0-.63.66-.63h1a1,1,0,0,1,.52.1.52.52,0,0,1,.2.4l.14.66h.08a4.78,4.78,0,0,1,1.58-1,5.54,5.54,0,0,1,2.07-.37,5.74,5.74,0,0,1,2.29.42,3.82,3.82,0,0,1,1.54,1.13,6.33,6.33,0,0,1,4.15-1.55,4.81,4.81,0,0,1,3.53,1.16,5.56,5.56,0,0,1,1.3,4.09Z"/><path class="cls-2" d="M121.53,120.14a1.87,1.87,0,0,1-.54,1.44,2,2,0,0,1-1.39.49h-.14a1.91,1.91,0,0,1-1.49-.49,2.09,2.09,0,0,1-.45-1.44V120a1.76,1.76,0,0,1,.57-1.45,2.13,2.13,0,0,1,1.37-.45h.14a2.09,2.09,0,0,1,1.39.45,1.81,1.81,0,0,1,.54,1.45Zm-.36,16.18a.75.75,0,0,1-.15.55,1,1,0,0,1-.62.14h-1.74a1,1,0,0,1-.62-.14.71.71,0,0,1-.16-.55V124.17a.69.69,0,0,1,.16-.55,1,1,0,0,1,.62-.14h1.74a1,1,0,0,1,.62.14.74.74,0,0,1,.15.55Z"/><path class="cls-2" d="M130.17,123.23a3.65,3.65,0,0,1,1.39-1.89,4.56,4.56,0,0,1,2.5-.59h1a.63.63,0,0,1,.43.12.71.71,0,0,1,.12.48v1.14a.66.66,0,0,1-.12.48.78.78,0,0,1-.43.1H133.9a3.13,3.13,0,0,0-.92.09,1,1,0,0,0-.41.32,3.57,3.57,0,0,1,2.43,1.93,8.75,8.75,0,0,1,.61,3.48v.86a6.77,6.77,0,0,1-.44,2.61A4.37,4.37,0,0,1,134,134a5.31,5.31,0,0,1,1.66,1.6,3.76,3.76,0,0,1,.58,2v.25a4.18,4.18,0,0,1-.33,1.81,3.85,3.85,0,0,1-.94,1.2,4.64,4.64,0,0,1-1.87.94,12,12,0,0,1-3,.3,12.76,12.76,0,0,1-2.61-.28,18.85,18.85,0,0,1-2.67-.74.66.66,0,0,1-.47-.88l.39-1.25a.59.59,0,0,1,.32-.41.51.51,0,0,1,.45,0,14.53,14.53,0,0,0,2.14.69,10.14,10.14,0,0,0,2.25.27,6.33,6.33,0,0,0,1.49-.14,2.09,2.09,0,0,0,1-.49,1.41,1.41,0,0,0,.4-.62,3.18,3.18,0,0,0,.09-.79v-.19a2.37,2.37,0,0,0-1.27-2.16c-.2,0-.45.08-.75.11a8.1,8.1,0,0,1-1,.06,8.63,8.63,0,0,1-2.43-.28,5,5,0,0,1-1.68-.85,3.91,3.91,0,0,1-1.3-1.84,8.07,8.07,0,0,1-.39-2.66v-.86a7.75,7.75,0,0,1,.42-2.8,4.07,4.07,0,0,1,1.32-1.78,4.67,4.67,0,0,1,1.77-.83,9.45,9.45,0,0,1,2.29-.25Zm-2.82,6.3a9.65,9.65,0,0,0,.11,1.58,2.33,2.33,0,0,0,.5,1.09,2.26,2.26,0,0,0,1.85.58,4.45,4.45,0,0,0,1.15-.12,1.62,1.62,0,0,0,.73-.46,2.41,2.41,0,0,0,.47-1.16,10.31,10.31,0,0,0,.11-1.51V129a12.28,12.28,0,0,0-.1-1.56,1.87,1.87,0,0,0-.48-1.09,2.72,2.72,0,0,0-1.88-.55,4.33,4.33,0,0,0-1.13.13,1.39,1.39,0,0,0-.72.42,2.22,2.22,0,0,0-.5,1.12,10,10,0,0,0-.11,1.53Z"/><path class="cls-2" d="M143.78,123.23a7.23,7.23,0,0,1,2.64.42,4.37,4.37,0,0,1,1.75,1.21,5.12,5.12,0,0,1,1.09,2.14,11.66,11.66,0,0,1,.32,2.83v.83a11.57,11.57,0,0,1-.32,2.84,5.14,5.14,0,0,1-1.09,2.13,4.7,4.7,0,0,1-1.77,1.2,8.2,8.2,0,0,1-5.24,0,4.7,4.7,0,0,1-1.77-1.2,5,5,0,0,1-1.09-2.13,11.57,11.57,0,0,1-.32-2.84v-.83a11.66,11.66,0,0,1,.32-2.83,5,5,0,0,1,1.09-2.14,4.3,4.3,0,0,1,1.75-1.21A7.23,7.23,0,0,1,143.78,123.23Zm0,11.4a2.72,2.72,0,0,0,1.15-.19,2.16,2.16,0,0,0,.7-.55,2.72,2.72,0,0,0,.48-1.29,14.44,14.44,0,0,0,.13-2.08v-.58a14.19,14.19,0,0,0-.13-2.07,2.73,2.73,0,0,0-.48-1.27,1.88,1.88,0,0,0-.7-.57,3.76,3.76,0,0,0-2.3,0,1.88,1.88,0,0,0-.7.57,2.73,2.73,0,0,0-.48,1.27,12.9,12.9,0,0,0-.13,2.07v.58a13.13,13.13,0,0,0,.13,2.08,2.72,2.72,0,0,0,.48,1.29,2.16,2.16,0,0,0,.7.55A2.72,2.72,0,0,0,143.78,134.63Z"/><path class="cls-2" d="M156.37,137.26a12.05,12.05,0,0,1-2.21-.21,9.64,9.64,0,0,1-2-.59c-.25-.1-.41-.2-.45-.31a.91.91,0,0,1,0-.52l.31-1.36c.11-.44.36-.58.77-.41a11,11,0,0,0,1.67.51,7.51,7.51,0,0,0,1.64.21,6.65,6.65,0,0,0,1.11-.07,1.77,1.77,0,0,0,.69-.26,1.2,1.2,0,0,0,.47-1.08V133A1.09,1.09,0,0,0,158,132a3.67,3.67,0,0,0-1.23-.5l-1.65-.39a5.45,5.45,0,0,1-1.52-.51,3.22,3.22,0,0,1-.91-.73,3.63,3.63,0,0,1-.83-2.54v-.25a4.43,4.43,0,0,1,.32-1.82,3.28,3.28,0,0,1,.89-1.16,3.86,3.86,0,0,1,1.47-.69,10,10,0,0,1,2.26-.22,13.29,13.29,0,0,1,2.09.17,8.94,8.94,0,0,1,1.61.38.68.68,0,0,1,.36.24.75.75,0,0,1,0,.43l-.33,1.54c0,.2-.12.33-.24.37a.64.64,0,0,1-.45,0,8.07,8.07,0,0,0-1.24-.3,8.52,8.52,0,0,0-1.44-.14,3.26,3.26,0,0,0-1.71.3,1,1,0,0,0-.39.89v.19a.94.94,0,0,0,.39.87,3.26,3.26,0,0,0,1,.37l1.71.39a4.8,4.8,0,0,1,2.79,1.49,3,3,0,0,1,.47,1,5.36,5.36,0,0,1,.14,1.27V133a3.94,3.94,0,0,1-1.11,3A5.77,5.77,0,0,1,156.37,137.26Z"/></g></g></svg>