<svg xmlns="http://www.w3.org/2000/svg" viewBox="0 0 18.86 18.86"><defs><style>.cls-1,.cls-2{fill:#fff;}.cls-2{fill-rule:evenodd;}</style></defs><g id="Capa_2" data-name="Capa 2"><g id="Diseño"><path class="cls-1" d="M9.43,18.86a9.43,9.43,0,1,1,9.43-9.43A9.44,9.44,0,0,1,9.43,18.86ZM9.43,1a8.42,8.42,0,1,0,8.41,8.42A8.43,8.43,0,0,0,9.43,1Z"/><path class="cls-1" d="M14.85,6a4.37,4.37,0,0,1-1.11.31c.18,0,.44-.35.55-.48a2.2,2.2,0,0,0,.37-.67s0-.05,0-.06h-.06a5.65,5.65,0,0,1-1.31.51.1.1,0,0,1-.1,0,.57.57,0,0,0-.11-.11,2.12,2.12,0,0,0-.64-.39,2.2,2.2,0,0,0-1-.16,2.36,2.36,0,0,0-.93.26,2.46,2.46,0,0,0-.75.61,2.31,2.31,0,0,0-.45.9,2.53,2.53,0,0,0,0,1s0,.06-.05,0A7,7,0,0,1,4.72,5.37c0-.06-.08-.06-.12,0A2.29,2.29,0,0,0,5,8.09l.28.25a2.42,2.42,0,0,1-.88-.25s-.08,0-.08.05a2.44,2.44,0,0,0,0,.26,2.34,2.34,0,0,0,1.44,1.85,1.4,1.4,0,0,0,.29.09,2.83,2.83,0,0,1-.86,0c-.06,0-.09,0-.06.07A2.39,2.39,0,0,0,6.93,12l.24,0h0a2.76,2.76,0,0,1-1.23.65,4.41,4.41,0,0,1-1.87.24H3.91s0,0,0,.07l.39.23a6.16,6.16,0,0,0,1.25.5A6.67,6.67,0,0,0,12,12.18a6.81,6.81,0,0,0,1.79-4.95c0-.07.08-.11.13-.14a4.22,4.22,0,0,0,.87-.92A.26.26,0,0,0,14.89,6h0S14.89,6,14.85,6Z"/><path class="cls-2" d="M7.16,13.92Z"/><path class="cls-2" d="M7.16,13.92Z"/><path class="cls-2" d="M7.53,13.93s.2,0,0,0Z"/><path class="cls-2" d="M11.42,4.92h0Z"/></g></g></svg>