<svg xmlns="http://www.w3.org/2000/svg" viewBox="0 0 97.05 14.02"><defs><style>.cls-1{fill:#0030a3;}</style></defs><g id="Capa_2" data-name="Capa 2"><g id="Diseño"><path class="cls-1" d="M5.39,10.3A2.56,2.56,0,0,1,3.54,11a2.36,2.36,0,0,1-2-.89V14H0V3.17H1.51V4a2.34,2.34,0,0,1,2-.91,2.64,2.64,0,0,1,1.86.68A4.64,4.64,0,0,1,6.25,7,4.67,4.67,0,0,1,5.39,10.3ZM3.13,4.47C1.75,4.47,1.54,5.65,1.54,7S1.75,9.6,3.13,9.6,4.72,8.4,4.72,7,4.52,4.47,3.13,4.47Z"/><path class="cls-1" d="M12.24,5a1.42,1.42,0,0,0-1.15-.51A1.57,1.57,0,0,0,9.57,6.2v4.7H8V3.17H9.54V4a2.52,2.52,0,0,1,2-.93,2.38,2.38,0,0,1,1.83.73Z"/><path class="cls-1" d="M19,10.07A3.07,3.07,0,0,1,16.7,11a3,3,0,0,1-2.28-.92A4.11,4.11,0,0,1,13.52,7a4.1,4.1,0,0,1,.9-3,3.08,3.08,0,0,1,2.28-.91A3.11,3.11,0,0,1,19,4a4.1,4.1,0,0,1,.9,3A4.11,4.11,0,0,1,19,10.07ZM17.83,4.91a1.55,1.55,0,0,0-1.13-.44,1.49,1.49,0,0,0-1.11.44A3,3,0,0,0,15.06,7a3,3,0,0,0,.53,2.12,1.51,1.51,0,0,0,1.11.46,1.57,1.57,0,0,0,1.13-.46A3,3,0,0,0,18.36,7,3,3,0,0,0,17.83,4.91Z"/><path class="cls-1" d="M24,10.9a2,2,0,0,1-2.1-2.15V4.5H21V3.31h.87V1h1.54V3.31h1.48V4.5H23.39V8.67c0,.56.27.9.84.9h.64V10.9Z"/><path class="cls-1" d="M27.61,7.48c0,1.33.69,2.17,1.94,2.17a2.28,2.28,0,0,0,1.86-.8l1,.93A3.56,3.56,0,0,1,29.52,11c-1.91,0-3.43-1-3.43-4,0-2.49,1.28-3.94,3.24-3.94S32.57,4.6,32.57,6.8v.68Zm3.23-2.13a1.66,1.66,0,0,0-3,0,2.55,2.55,0,0,0-.2,1.05h3.44A2.55,2.55,0,0,0,30.84,5.35Z"/><path class="cls-1" d="M37.32,11c-1.72,0-3.41-1.07-3.41-4s1.69-3.94,3.41-3.94a3.1,3.1,0,0,1,2.51,1.08l-1,1a1.75,1.75,0,0,0-1.46-.73,1.72,1.72,0,0,0-1.42.68A2.9,2.9,0,0,0,35.45,7a3,3,0,0,0,.45,1.9,1.72,1.72,0,0,0,1.42.68,1.78,1.78,0,0,0,1.46-.73l1,1A3.11,3.11,0,0,1,37.32,11Z"/><path class="cls-1" d="M44.06,11c-1.72,0-3.41-1.07-3.41-4s1.69-3.94,3.41-3.94a3.1,3.1,0,0,1,2.51,1.08l-1,1a1.76,1.76,0,0,0-1.46-.73,1.72,1.72,0,0,0-1.42.68A2.9,2.9,0,0,0,42.19,7a3,3,0,0,0,.45,1.9,1.72,1.72,0,0,0,1.42.68,1.79,1.79,0,0,0,1.46-.73l1,1A3.11,3.11,0,0,1,44.06,11Z"/><path class="cls-1" d="M48,1.65V0h1.63V1.65Zm0,9.25V3.17h1.54V10.9Z"/><path class="cls-1" d="M56.84,10.07a3.09,3.09,0,0,1-2.29.92,3,3,0,0,1-2.28-.92A4.11,4.11,0,0,1,51.37,7a4.1,4.1,0,0,1,.9-3,3.08,3.08,0,0,1,2.28-.91A3.12,3.12,0,0,1,56.84,4a4.1,4.1,0,0,1,.9,3A4.11,4.11,0,0,1,56.84,10.07ZM55.68,4.91a1.55,1.55,0,0,0-1.13-.44,1.51,1.51,0,0,0-1.12.44A3,3,0,0,0,52.9,7a3,3,0,0,0,.53,2.12,1.53,1.53,0,0,0,1.12.46,1.57,1.57,0,0,0,1.13-.46A3,3,0,0,0,56.2,7,3,3,0,0,0,55.68,4.91Z"/><path class="cls-1" d="M64.18,10.9V6.19c0-1.21-.68-1.72-1.54-1.72a1.53,1.53,0,0,0-1.58,1.72V10.9H59.52V3.17H61V4a2.71,2.71,0,0,1,2-.87,2.68,2.68,0,0,1,1.89.7A2.88,2.88,0,0,1,65.71,6V10.9Z"/><path class="cls-1" d="M67.74,10.9V9h1.83V10.9Z"/><path class="cls-1" d="M74.68,11c-1.72,0-3.4-1.07-3.4-4S73,3.08,74.68,3.08A3.1,3.1,0,0,1,77.2,4.16l-1.06,1a1.74,1.74,0,0,0-1.46-.73,1.7,1.7,0,0,0-1.41.68A2.9,2.9,0,0,0,72.81,7a3,3,0,0,0,.46,1.9,1.7,1.7,0,0,0,1.41.68,1.76,1.76,0,0,0,1.46-.73l1.06,1A3.12,3.12,0,0,1,74.68,11Z"/><path class="cls-1" d="M83.52,10.07a3.1,3.1,0,0,1-2.3.92A3,3,0,0,1,79,10.07,4.11,4.11,0,0,1,78.05,7,4.1,4.1,0,0,1,79,4a3.06,3.06,0,0,1,2.27-.91,3.13,3.13,0,0,1,2.3.91,4.1,4.1,0,0,1,.9,3A4.11,4.11,0,0,1,83.52,10.07ZM82.35,4.91a1.65,1.65,0,0,0-2.24,0A3,3,0,0,0,79.58,7a3,3,0,0,0,.53,2.12,1.59,1.59,0,0,0,2.24,0A3,3,0,0,0,82.88,7,3,3,0,0,0,82.35,4.91Z"/><path class="cls-1" d="M95.51,10.9V6.19c0-1.21-.68-1.72-1.54-1.72a1.52,1.52,0,0,0-1.58,1.64V10.9H90.86V6.19c0-1.21-.68-1.72-1.54-1.72a1.53,1.53,0,0,0-1.58,1.72V10.9H86.2V3.17h1.51V4a2.71,2.71,0,0,1,2-.87,2.43,2.43,0,0,1,2.17,1.13,2.88,2.88,0,0,1,2.4-1.13,2.73,2.73,0,0,1,1.92.7A2.89,2.89,0,0,1,97.05,6V10.9Z"/></g></g></svg>